<svg width="24" height="25" viewBox="0 0 24 25" fill="none" xmlns="http://www.w3.org/2000/svg">
<path d="M12.9998 14.5L9.99985 11.5M15.0102 4V2.5M18.9495 5.56066L20.0102 4.5M18.9495 13.5L20.0102 14.5607M11.0102 5.56066L9.94954 4.5M20.5102 9.5H22.0102M6.13122 21.3686L15.3685 12.1314C15.7645 11.7354 15.9625 11.5373 16.0367 11.309C16.1019 11.1082 16.1019 10.8918 16.0367 10.691C15.9625 10.4627 15.7645 10.2646 15.3685 9.86863L14.6312 9.13137C14.2352 8.73535 14.0372 8.53735 13.8089 8.46316C13.608 8.3979 13.3917 8.3979 13.1908 8.46316C12.9625 8.53735 12.7645 8.73535 12.3685 9.13137L3.13122 18.3686C2.7352 18.7646 2.53719 18.9627 2.46301 19.191C2.39775 19.3918 2.39775 19.6082 2.46301 19.809C2.53719 20.0373 2.7352 20.2354 3.13122 20.6314L3.86848 21.3686C4.2645 21.7646 4.4625 21.9627 4.69083 22.0368C4.89168 22.1021 5.10802 22.1021 5.30887 22.0368C5.53719 21.9627 5.7352 21.7646 6.13122 21.3686Z" stroke="#93A0AD" stroke-width="2" stroke-linecap="round" stroke-linejoin="round"/>
</svg>
