<svg width="24" height="24" viewBox="0 0 24 24" fill="none" xmlns="http://www.w3.org/2000/svg">
<g id="type=telegram">
<path id="Vector" d="M12 22C17.5228 22 22 17.5228 22 12C22 6.47715 17.5228 2 12 2C6.47715 2 2 6.47715 2 12C2 17.5228 6.47715 22 12 22Z" stroke="#0D1824" stroke-width="2" stroke-miterlimit="10"/>
<path id="Vector_2" fill-rule="evenodd" clip-rule="evenodd" d="M17.5621 8.16093C17.3821 10.058 16.6002 14.663 16.2032 16.7878C16.0354 17.6878 15.703 17.9887 15.3834 18.0178C14.6863 18.082 14.1576 17.557 13.4826 17.115C12.4265 16.4231 11.8298 15.9919 10.8046 15.3159C9.6196 14.535 10.3874 14.1061 11.0624 13.4048C11.2396 13.2206 14.3094 10.4278 14.3694 10.1747C14.3765 10.1428 14.3844 10.0247 14.3137 9.9628C14.2429 9.90093 14.1398 9.92202 14.0657 9.9389C13.9598 9.96281 12.2727 11.078 9.00366 13.2839C8.5246 13.613 8.09054 13.7728 7.70148 13.7648C7.27351 13.7559 6.44945 13.523 5.83632 13.3228C5.08538 13.0786 4.48726 12.9487 4.53929 12.5348C4.56648 12.3187 4.8632 12.098 5.43132 11.872C8.92913 10.3481 11.2621 9.34312 12.4293 8.85702C15.7621 7.47093 16.4544 7.22999 16.9063 7.22202C17.4721 7.21406 17.608 7.68093 17.5621 8.16093Z" fill="#0D1824"/>
</g>
</svg>
