<svg width="22" height="22" viewBox="0 0 22 22" fill="none" xmlns="http://www.w3.org/2000/svg">
<path d="M11 0C4.92339 0 0 4.92339 0 11C0 17.0766 4.92339 22 11 22C17.0766 22 22 17.0766 22 11C22 4.92339 17.0766 0 11 0ZM16.5399 7.17661C16.3625 9.04395 15.5907 13.5815 15.2004 15.6706C15.0363 16.5577 14.7081 16.8548 14.3931 16.8815C13.7056 16.9435 13.1867 16.429 12.5214 15.9944C11.4835 15.3113 10.8935 14.8899 9.88226 14.2246C8.71573 13.4573 9.46976 13.0315 10.1351 12.344C10.3081 12.1621 13.3331 9.4121 13.3907 9.16371C13.3996 9.13266 13.404 9.01734 13.3375 8.95524C13.271 8.89314 13.1645 8.91532 13.0935 8.93306C12.9871 8.95524 11.3282 10.0552 8.10806 12.2286C7.6379 12.5524 7.20766 12.7121 6.82621 12.7032C6.40484 12.6944 5.59314 12.4637 4.98992 12.2685C4.24919 12.029 3.66371 11.9004 3.7125 11.4923C3.73911 11.2794 4.03185 11.0621 4.59073 10.8403C8.0371 9.34113 10.3347 8.35202 11.4835 7.87298C14.7657 6.50685 15.4488 6.27177 15.8923 6.2629C15.9899 6.2629 16.2073 6.28508 16.3492 6.4004C16.4423 6.48024 16.5044 6.59556 16.5177 6.71976C16.5444 6.86613 16.5532 7.02137 16.5399 7.17661Z" fill="#0D1824"/>
</svg>
