<svg width="24" height="24" viewBox="0 0 24 24" fill="none" xmlns="http://www.w3.org/2000/svg">
<g id="type=whatsapp">
<path id="Vector" fill-rule="evenodd" clip-rule="evenodd" d="M19.0865 4.90664C17.2057 3.0332 14.7055 2.00078 12.042 2C6.55334 2 2.08635 6.44492 2.0836 11.9102C2.08282 13.6566 2.54164 15.3617 3.41338 16.8652L2 22L7.27867 20.6215C8.73326 21.4113 10.3708 21.8273 12.0373 21.8281H12.0416C17.5295 21.8281 21.9973 17.3824 22 11.9172C22.0012 9.26992 20.9662 6.7793 19.0865 4.90664Z" stroke="#0D1824" stroke-width="2" stroke-miterlimit="10" stroke-linejoin="round"/>
<path id="Vector_2" fill-rule="evenodd" clip-rule="evenodd" d="M17.4986 14.3823C17.2 14.2332 15.7323 13.5141 15.4578 13.4152C15.1846 13.3163 14.9853 13.2662 14.7856 13.5634C14.5855 13.8605 14.0151 14.5304 13.8404 14.7291C13.6666 14.927 13.4918 14.9523 13.1932 14.8032C12.8946 14.6541 11.9324 14.341 10.7916 13.328C9.90426 12.5401 9.30468 11.567 9.13088 11.2688C8.95709 10.9707 9.11298 10.8109 9.26135 10.6627C9.39605 10.5296 9.55996 10.3159 9.70926 10.142C9.85998 9.96992 9.90944 9.84617 10.0098 9.64695C10.1091 9.44914 10.0602 9.27477 9.9848 9.12617C9.90944 8.97805 9.31269 7.51508 9.06447 6.92023C8.82238 6.34039 8.57605 6.41914 8.39236 6.41023C8.21857 6.40133 8.01981 6.40039 7.81963 6.40039C7.62087 6.40039 7.2973 6.47445 7.02365 6.77258C6.75048 7.0707 5.97852 7.78977 5.97852 9.2518C5.97852 10.7148 7.04862 12.1276 7.19745 12.3259C7.34628 12.5237 9.30232 15.526 12.2978 16.8127C13.0105 17.1188 13.5667 17.3016 14 17.4385C14.7155 17.6645 15.3664 17.6326 15.8812 17.5566C16.4548 17.4718 17.6474 16.8376 17.8966 16.1438C18.1457 15.4501 18.1457 14.8538 18.0704 14.731C17.9959 14.6049 17.7972 14.5309 17.4986 14.3823Z" fill="#0D1824"/>
</g>
</svg>
