<svg width="22" height="22" viewBox="0 0 22 22" fill="none" xmlns="http://www.w3.org/2000/svg">
<path fill-rule="evenodd" clip-rule="evenodd" d="M7.92584 5.58748C7.71255 5.07667 7.55081 5.05725 7.22769 5.04419C7.11769 5.03783 6.99514 5.03147 6.85919 5.03147C6.43878 5.03147 5.9993 5.15436 5.73409 5.42592C5.41097 5.75575 4.60917 6.52523 4.60917 8.10305C4.60917 9.68103 5.75988 11.2071 5.91508 11.4207C6.07681 11.6339 8.15856 14.9191 11.391 16.258C13.9188 17.3056 14.6688 17.2085 15.2441 17.0857C16.0846 16.9048 17.1383 16.2836 17.4035 15.5337C17.6686 14.7835 17.6686 14.1433 17.5909 14.0075C17.5134 13.8717 17.2999 13.7943 16.9768 13.6324C16.6537 13.4707 15.0825 12.6947 14.7852 12.5912C14.4942 12.4814 14.2163 12.5202 13.9966 12.8306C13.6862 13.2639 13.3825 13.7038 13.1368 13.9688C12.9429 14.1757 12.6259 14.2017 12.3609 14.0917C12.0053 13.9432 11.0098 13.5936 9.78141 12.5008C8.83094 11.6538 8.18452 10.5999 7.99717 10.2829C7.80966 9.95964 7.97775 9.77195 8.12642 9.5975C8.28816 9.39692 8.44319 9.25478 8.60475 9.06709C8.76648 8.87958 8.85689 8.78264 8.96036 8.56264C9.07036 8.34934 8.99267 8.12934 8.91516 7.96761C8.83747 7.80553 8.19105 6.22755 7.92584 5.58748ZM10.9967 0C4.93264 0 0 4.93402 0 10.9998C0 13.4054 0.775844 15.6365 2.09464 17.4472L0.723938 21.5342L4.95206 20.1829C6.69109 21.334 8.76631 22 11.0033 22C17.0674 22 22 17.0656 22 11.0002C22 4.93436 17.0674 0.00034375 11.0033 0.00034375H10.9969L10.9967 0Z" fill="#0D1824"/>
</svg>
