<svg width="125" height="32" viewBox="0 0 125 32" fill="none" xmlns="http://www.w3.org/2000/svg">
<path d="M47.4048 0.720703L36.6982 29.164H42.4523L44.6744 23.2238H56.0421L58.2533 29.164H63.9634L53.2959 0.720703H47.4048ZM46.6239 18.0033L50.3703 7.99454L54.095 18.0033H46.6239Z" fill="#93A0AD"/>
<path d="M113.886 8.82324C111.873 8.82324 109.905 9.43052 108.231 10.5674C106.557 11.7042 105.253 13.3208 104.483 15.2119C103.712 17.103 103.511 19.1833 103.903 21.191C104.296 23.1986 105.266 25.0424 106.689 26.4901C108.112 27.9378 109.926 28.9234 111.9 29.3221C113.875 29.7216 115.921 29.5164 117.781 28.7334C119.64 27.9504 121.23 26.6235 122.348 24.9216C123.467 23.2197 124.064 21.2188 124.064 19.1723C124.064 16.4273 122.991 13.7955 121.083 11.8546C119.174 9.9128 116.585 8.82324 113.886 8.82324ZM113.886 24.2147C112.905 24.2147 111.947 23.9191 111.132 23.365C110.316 22.8109 109.681 22.0238 109.305 21.1023C108.93 20.1808 108.832 19.1673 109.024 18.1892C109.215 17.2111 109.686 16.3133 110.38 15.6081C111.074 14.9028 111.957 14.4231 112.919 14.2279C113.88 14.0337 114.877 14.1333 115.784 14.5151C116.689 14.8969 117.464 15.543 118.009 16.3716C118.553 17.201 118.844 18.1757 118.844 19.1723C118.845 19.8345 118.717 20.4908 118.469 21.1031C118.22 21.7155 117.855 22.2712 117.394 22.74C116.934 23.2088 116.387 23.5795 115.784 23.8329C115.183 24.0863 114.538 24.2155 113.886 24.2147Z" fill="#93A0AD"/>
<path d="M70.8195 21.828L66.1718 9.18066H60.6836L68.1638 29.1635H73.608L80.9545 9.18066H75.4662L70.8195 21.828Z" fill="#93A0AD"/>
<path d="M98.2174 3.87109H92.995V9.1812H89.9414V13.9524H92.995V22.4586C92.995 27.2746 95.6066 29.3439 99.2798 29.3439C100.526 29.3625 101.762 29.1167 102.91 28.6234V23.6731C102.285 23.9071 101.626 24.0313 100.961 24.0397C99.3754 24.0397 98.2174 23.4096 98.2174 21.2491V13.9516H102.91V9.18035H98.2174V3.87109Z" fill="#93A0AD"/>
<path d="M85.2484 7.74176C87.3508 7.74176 89.0553 6.0086 89.0553 3.87088C89.0553 1.73315 87.3508 0 85.2484 0C83.1459 0 81.4414 1.73315 81.4414 3.87088C81.4414 6.0086 83.1459 7.74176 85.2484 7.74176Z" fill="#93A0AD"/>
<path d="M87.8601 9.18164H82.6377V29.1644H87.8601V9.18164Z" fill="#93A0AD"/>
<path d="M10.1807 32.0001C15.8035 32.0001 20.3614 27.3657 20.3614 21.6485C20.3614 15.9313 15.8035 11.2969 10.1807 11.2969C4.5579 11.2969 0 15.9313 0 21.6485C0.000830672 27.3657 4.55873 32.0001 10.1807 32.0001Z" fill="#93A0AD"/>
<path d="M27.8414 30.6931C31.2389 30.6931 33.9934 27.8923 33.9934 24.4378C33.9934 20.9834 31.2389 18.1826 27.8414 18.1826C24.444 18.1826 21.6895 20.9834 21.6895 24.4378C21.6895 27.8923 24.444 30.6931 27.8414 30.6931Z" fill="#93A0AD"/>
<path d="M12.1283 9.94781C14.2307 9.94781 15.9352 8.21466 15.9352 6.07693C15.9352 3.93921 14.2307 2.20605 12.1283 2.20605C10.0258 2.20605 8.32129 3.93921 8.32129 6.07693C8.32129 8.21466 10.0258 9.94781 12.1283 9.94781Z" fill="#93A0AD"/>
<path d="M25.4515 16.8333C30.0227 16.8333 33.7283 13.0655 33.7283 8.41758C33.7283 3.76966 30.0227 0.000976562 25.4515 0.000976562C20.8803 0.000976562 17.1738 3.76881 17.1738 8.41758C17.1747 13.0647 20.8803 16.8333 25.4515 16.8333Z" fill="#93A0AD"/>
</svg>
