<svg width="151" height="36" viewBox="0 0 151 36" fill="none" xmlns="http://www.w3.org/2000/svg">
<g clip-path="url(#clip0_4065_4423)">
<path fill-rule="evenodd" clip-rule="evenodd" d="M13.2375 8.1267H11.1263C7.29322 8.1267 5.27525 10.0679 5.27525 12.9468C5.27525 16.2096 6.67357 17.7176 9.54699 19.6643L11.9104 21.2545L5.08332 31.4486H0L6.11973 22.3238C2.58279 19.8013 0.608682 17.3611 0.608682 13.1991C0.608682 7.9951 4.21691 4.47461 11.0769 4.47461H17.904V31.4486H13.221V8.1267H13.2375ZM37.2064 11.9323V31.4486H32.5947V23.3054H26.4256V31.4486H21.8139V11.9323H26.4256V19.6588H32.5947V11.9323H37.2064ZM58.0442 35.9013H53.7724V31.4321H43.4084V35.9013H39.1366V27.7965H40.5788C42.202 24.5337 42.5255 18.3646 42.5255 13.5939V11.9214H55.9878V27.791H58.0442V35.9013ZM51.3761 15.5789H46.4902V16.1547C46.4902 19.5272 46.1392 24.8463 44.8506 27.802H51.3706V15.5789H51.3761ZM68.4027 31.8214C62.5078 31.8214 59.1683 28.5258 59.1683 21.7316C59.1683 15.8367 61.8498 11.532 67.476 11.532C72.0877 11.532 75.0763 14.0984 75.0763 20.8816V23.3218H63.9445C64.1365 26.5846 65.4196 28.1748 68.7976 28.1748C71.0458 28.1748 73.4532 27.3249 74.8844 26.3433V30.116C73.5299 31.0537 71.3584 31.8214 68.4027 31.8214ZM63.9391 19.9165H70.3823V19.5326C70.3823 17.0924 69.6804 15.1951 67.3938 15.1951C65.1893 15.1786 64.0652 16.8182 63.9391 19.9165ZM82.7973 21.8632V31.454H78.1691V11.9323H82.7973V20.9255L89.3282 11.9323H93.9893L87.4693 20.9255L94.8722 31.4321H89.6244L82.7973 21.8632ZM94.6035 21.7042C94.6035 28.2242 97.5921 31.8269 103.761 31.8379C105.894 31.8379 107.408 31.454 108.532 30.6315V26.8697C107.375 27.6923 105.977 28.1858 104.035 28.1858C100.74 28.1858 99.3743 25.6195 99.3743 21.5835C99.3743 17.3447 101.047 15.1732 104.063 15.1732C105.845 15.1732 107.6 15.7983 108.532 16.3796V12.4588C107.567 11.9159 105.856 11.5266 103.569 11.5266C97.6743 11.532 94.6035 15.7544 94.6035 21.7042Z" fill="#93A0AD"/>
<path fill-rule="evenodd" clip-rule="evenodd" d="M136.438 0C128.487 0.00548362 122.044 6.45423 122.044 14.4055C122.044 18.2166 123.557 21.8797 126.255 24.5831C128.866 27.1933 135.002 30.966 135.364 34.9252C135.419 35.5174 135.846 36 136.438 36C137.031 36 137.464 35.5174 137.513 34.9252C137.875 30.9605 144.011 27.1933 146.616 24.5886C149.314 21.8906 150.833 18.2221 150.833 14.4055C150.838 6.45423 144.39 0 136.438 0Z" fill="#93A0AD"/>
<path fill-rule="evenodd" clip-rule="evenodd" d="M136.438 19.4556C139.229 19.4556 141.494 17.1908 141.494 14.3997C141.494 11.6085 139.229 9.34375 136.438 9.34375C133.647 9.34375 131.388 11.6085 131.388 14.3997C131.388 17.1908 133.647 19.4556 136.438 19.4556Z" fill="#0D1824"/>
</g>
<defs>
<clipPath id="clip0_4065_4423">
<rect width="150.838" height="36" fill="white"/>
</clipPath>
</defs>
</svg>
