<?xml version="1.0" encoding="utf-8"?>
<!-- Generator: Adobe Illustrator 24.2.3, SVG Export Plug-In . SVG Version: 6.00 Build 0)  -->
<svg version="1.1" id="layer" xmlns="http://www.w3.org/2000/svg" xmlns:xlink="http://www.w3.org/1999/xlink" x="0px" y="0px"
	 viewBox="0 0 830.6 651.7" style="enable-background:new 0 0 830.6 651.7;" xml:space="preserve">
<style type="text/css">
	.st0{fill:#EBEFF0;}
	.st1{fill:#0D1824;}
</style>
<path class="st0" d="M791.1,542.8h-9.3l1.3-1.6c1.9-2.4,3.3-3.4,3.3-3.4c0.2-0.2,0.4-0.5,0.4-0.8c0.2-12.3-0.4-43.9-0.4-47.5v-0.2
	l0.1-0.2l9.6-21.1c0.1-0.1,0.1-0.3,0.1-0.4c-0.7-24.4-3.5-58.1-12.9-79.9l-0.1-0.1c0,0,0-0.1-0.1-0.1c-0.1-0.1-0.1-0.1-0.1-0.1
	l-0.2-0.1c-14.3-9.7-41-16.9-77.2-20.6l-0.7-0.1l-0.1-0.7c-1.3-7.2-2.9-13.1-4-16.9c-0.8-2.9-3-5.1-5.9-6c-6.6-2.1-13.8-4-21.4-5.4
	l-2.9-0.5l2.6-1.3c5.9-3,8.5-8.6,8.1-17c-0.4-8.2-6-16.9-16.5-25.8l-0.2-0.2l-0.1-0.2c-6.3-16.5-22.3-26.1-41.9-25.1
	c-2,0.1-4,0.3-6,0.7l-0.5,0.1l-0.3-0.3c-2.3-1.9-5.1-3.3-8.1-4.1l-0.4-0.1l-0.2-0.4c-0.2-0.5-25.5-49.9-48.5-69.7
	c-0.1-0.1-0.2-0.2-0.4-0.2c-0.2-0.1-20.7-5.6-46.6-8.8l-2.2-0.3l1.6-1.5c17.5-15.7,30.8-34.6,39.6-56.3c0.3-0.7,0-1.6-0.8-1.9
	c-15.5-7.1-27.8-18.5-41.6-33.4l-0.9-1l0,0c-1.5-1.7-3.1-3.3-4.6-5.1l-0.5-0.5l0.4-0.6c22.8-39.6,6.3-69.4-1.9-80.3
	c-1-1.3-2.4-2.1-4-2.2c-1.6-0.1-3.2,0.5-4.3,1.6L454,41l-0.7-0.4c-1.4-0.7-2.8-1.5-4.6-2.3l-0.8-0.4v0c-10.1-4.7-20.6-7.4-32-8.1
	l-1.2-0.1l6.6-24.7c0.1-0.5,0-1-0.3-1.3c-0.3-0.4-0.8-0.6-1.3-0.5c-4,0.3-12.2,3.3-14.7,12.9c-0.4,1.6-0.7,3.3-0.6,5l0,2.4
	l-12.2-12.2c-0.3-0.3-0.8-0.5-1.3-0.4c-0.5,0.1-0.9,0.4-1.1,0.8c-1.6,3.2-3.1,11,2.5,17.7l1.1,1.3l-1.7,0.3
	c-9.6,1.7-18.5,4.9-27.2,9.6l-0.7,0.4L325.4,2.7c-0.6-0.6-1.3-1.1-2.1-1.4c-2.4-0.8-4.9,0-6.2,1.9c-8.1,10.9-24.6,40.7-1.8,80.3
	l0.4,0.6l-0.5,0.5c-15.7,17.3-29.1,31.2-47.1,39.5c-0.7,0.3-1.1,1.2-0.8,1.9c11.3,27.9,30.4,51.6,55.3,68.7c4.8,3.3,10,6.4,15.2,9.2
	l1.2,0.6l-0.9,1c-5.9,6.1-12.1,12.2-18.3,18.1l-1.2,1.1l-1.6-6.1c-0.1-0.5-0.3-1-0.5-1.5l-0.3-0.8c-0.1-0.4-0.3-0.9-0.5-1.4
	c-0.4-1.1-0.7-2.1-1.1-3.2l-1.9-4.5c-0.5-1.1-1.1-2.1-1.6-3.2c-0.2-0.4-0.5-0.9-0.7-1.3c-0.3-0.5-0.6-1.1-1-1.6
	c-0.2-0.3-0.3-0.5-0.5-0.8c-0.1-0.2-0.3-0.4-0.4-0.7c-0.3-0.5-0.6-1-1.1-1.6l-1.7-2.1c-0.3-0.4-0.7-0.8-1.1-1.2l-1.4-1.3l-0.1-0.2
	c-1.8-3.7-5.6-6.1-9.8-6.1c-2,0-3.9,0.5-5.5,1.5l-0.2,0.1l-0.2,0c-5.1,0.3-14.7,3.1-20.9,17.5l-0.1,0.3l-0.3,0.2
	c-1.7,1.1-3,2.6-3.8,4.4l-30.7,74.6l-0.8-0.2c-9.4-2-19.4-2-29.8,0.1c-19.5,3.8-26.7,14-29.2,19.8c-2.5,5.8-2.7,12-0.5,16.6l0.3,0.6
	l-0.4,0.5c-2.9,3.2-4.8,6.5-5.8,10c-1.5,5.3-0.5,10.9,2.8,16.1l0.4,0.6l-0.4,0.5c-4.8,6.3-5.9,13.2-3.2,21.1
	c5.2,15.4,16.4,17.7,22.6,17.7h1.5l-0.5,1.4l-58.8,142.8l-0.6,0c-3.6,0.1-6.8,2.3-8.1,5.6l-7.4,18h-3.6c-1.7,0-3.3,0.5-4.7,1.3
	l-14.7,8.9c-1.7,1-2.9,2.5-3.7,4.2l-2.2,5.2h-5.4c-0.7,0-1.4,0.1-2.1,0.2c-19.8,4.6-35.7,9.3-48.6,14.6l-0.2,0.1l-0.2,0
	c-4.6,0.2-8.4,3.9-8.6,8.6l-1,20c0,0.8-0.2,1.7-0.6,2.4l-0.6,1.5c-0.6,1.3-0.6,2.8-0.1,4.1c0.8,1.9,2.6,3.1,4.6,3.1h193.2
	c1.4,0,2.8-0.5,3.8-1.5c1.4-1.5,1.8-3.6,1-5.5l-0.7-1.7c-0.3-0.8-0.5-1.6-0.6-2.4l-0.9-20c-0.2-4.7-3.9-8.4-8.6-8.6l-0.2,0l-0.2-0.1
	c-12.9-5.3-28.8-10.1-48.6-14.6c-0.7-0.2-1.4-0.2-2.1-0.2h-5.4l-2.2-5.2c-0.7-1.8-2-3.3-3.6-4.2l-3.4-2l5.8-14.2
	c0.7-1.7,1-3.6,0.6-5.4c-0.4-1.7-1.2-3.2-2.4-4.5l-0.4-0.5l65.3-158.6l0.9,2.4c2.6,7,8.7,11,16.5,11c4.3,0,8-1.5,10.7-4.4
	c3.5-3.7,5.4-9.7,5.2-16.5l0-0.6l0.5-0.3c2.8-1.5,10-5.4,14.7-8.3c6.3-3.9,11.1-12.2,12.8-22.1c0.5-2.9,0.7-5.9,0.6-9l0-0.3l0.2-0.3
	c0.7-1.1,1.9-3,2.9-5.8l0.2-0.6l0.6-0.1c8.9-1,17.8-2.2,26.2-3.8l1.2-0.2l-0.1,1.3c-0.2,3.4-0.4,6.9-0.6,10.3
	c-1.1,18.8-2.2,38.2-2,57.7c0.1,13.1,0.9,24.7,2.4,35.3c1.8,13,4.5,24.6,8.4,35.4c4.4,12,10.3,23,17.6,32.8c0.2,0.2,0.3,0.4,0.5,0.6
	c0.3,0.4,0.6,0.9,1,1.3l4.5,5.4c0.7,0.8,1.4,1.5,2.1,2.2c0.4,0.4,0.8,0.8,1.1,1.2c0.4,0.4,0.7,0.7,1.1,1.1c0.7,0.8,1.4,1.5,2.2,2.3
	l3.4,3.2c0.3,0.3,0.6,0.6,1,0.9c0.2,0.2,0.4,0.4,0.6,0.5l0.8,0.7l-1.7,14.6l-1.4-1.3c-16.2-14.7-33.6-20.9-45.4-23.6
	c-9.5-2.1-19.4-3-28.7-2.3c-7.3,0.5-13.9,1.9-18.3,3.8l-0.2,0.1l-0.3,0c-14.8-1.9-27.5,0.9-35.8,7.8c-5.2,4.3-8.3,10.1-8.6,16.2
	c-0.2,3.9,1.1,7.8,3.9,11.4l0.2,0.3l0,0.4c-0.1,4.5,0.9,19.6,21,26.8l0.2,0.1l0.1,0.1c25.2,23.7,51.6,38.2,69.4,46.3
	c21.2,9.6,42.1,15.3,56.1,15.3c1.8,0,3.4-0.1,4.9-0.3c4.5-0.6,7.5-2,9-4.2l0-0.1c0,0,0.1-0.1,0.1-0.1c0-0.1,0.1-0.1,0.1-0.1
	l36.5-79.5l0.8,0.2c4.6,1.2,9.3,2.2,13.9,3c8.1,1.4,16.5,2.2,25.2,2.5l0.7,0l0.2,0.7c3.7,13.7,8.6,25.2,14.5,34.2l0.2,0.3l-0.1,0.4
	c-0.7,4.1-1.2,8.2-1.5,12.2l0,0.3l-0.2,0.2c-4.2,5.3-9,13.7-10.1,24.7c-0.3,3,2,5.5,5,5.5h160.7c16.5,0,30.6-3.6,43.1-11.1l0.8-0.5
	l0.5,0.8c4.4,6.8,11.8,10.8,19.9,10.8h8.2c11,0,19.9-10.1,20.3-23l0-1h41.1l0.2,0.7c3.9,14.3,11.5,23.2,19.8,23.2h17
	c12.6,0,22.5-19.5,22.5-44.5S803.7,542.8,791.1,542.8z M301.9,239.6C289,250.8,275,262,259.3,273.8l-2.9,2.2l23.5-57.1
	c0.7-1.6,0.9-3.4,0.6-5.1l0-0.3l0.1-0.3c1.2-2.9,2.6-5.2,4.2-6.7l0.7-0.7l0.7,0.6c1.7,1.6,3.9,2.5,6.2,2.8l0.5,0l0.3,0.4
	c0.1,0.1,0.2,0.3,0.3,0.5c0.1,0.2,0.2,0.4,0.3,0.5c0.1,0.2,0.2,0.4,0.4,0.6c0.2,0.3,0.3,0.5,0.5,0.8c0.2,0.5,0.5,0.9,0.7,1.4
	c0.3,0.6,0.6,1.2,0.9,1.8l1.4,3.4c0.3,0.7,0.5,1.4,0.7,2.2c0.2,0.6,0.3,1,0.5,1.5c0.1,0.2,0.2,0.5,0.2,0.7c0.1,0.4,0.2,0.8,0.3,1.1
	l1.5,5.7l0.3,1.3c0.4,2.2,0.9,4.4,1.2,6.5l0.3,1.8L301.9,239.6z M353.1,487.2l-1.5-1.8c-0.7-0.9-1.4-1.7-2.1-2.6
	c-6.1-8-11.1-17-14.9-26.8c-3.4-9.2-6-19.5-7.7-30.8c-1.5-9.7-2.4-20.4-2.7-32.7l-0.1-6.9l2.1,5.3c7,18,18.2,34.4,32.2,47.4l0.4,0.4
	L353.1,487.2z M445.3,528.6c-5.5-0.3-10.8-0.8-15.8-1.6c-2.2-0.3-4.5-0.8-7.2-1.3l-1.2-0.3l21.7-47.3l0.1,4.4
	c0.2,15.6,1.4,31.2,3.5,45l0.2,1.2L445.3,528.6z M576.1,310.9c-0.4,4-0.8,8.3-2.4,12.7l-1.3,3.6l-0.6-3.8
	c-1.4-8.6-3.7-17.1-6.8-25.1l-0.8-2l2.8,0.9c0.7,0.2,1.5,0.5,2.2,0.7l0.6,0.2l0.1,0.6c0.9,4.3,2.9,8.1,5.9,11.4l0.3,0.3L576.1,310.9
	z M673.4,364.1c-3.2-0.1-6.5-0.3-9.9-0.4l-3.2-0.1l2.7-1.7c3.5-2.3,5.9-5.8,6.9-10.1l0.2-1l1,0.3c1.1,0.3,1.9,1.2,2.1,2.4
	c0.3,2,0.9,5.8,1.2,9.6l0.1,1.1L673.4,364.1z"/>
<g>
	<path class="st1" d="M574.8,604.8c0.6,0,1.2-0.2,1.5-0.7c0.7-0.9,0.6-2.1-0.3-2.8c-6.9-5.7-18.5-13-34.4-15.7
		c-1.1-0.2-2.1,0.5-2.3,1.6c-0.2,1.1,0.5,2.1,1.6,2.3c15,2.6,26,9.5,32.5,14.9C573.9,604.6,574.3,604.8,574.8,604.8z"/>
	<path class="st1" d="M26.6,620.7c0,1.1,0.9,2,2,2h131.1c1.1,0,2-0.9,2-2l0.2-2.3l0.9-18.2c0.1-1.1-0.9-2.1-2-2.1H86.5
		c-9.4,0-26.5,20.6-30.1,20.6H28.6C27.5,618.7,26.6,619.6,26.6,620.7z"/>
	<path class="st1" d="M777.5,586.7c0.8,0,1.5-0.7,1.5-1.5c0.4-20.3,7.5-31.2,12.4-31.2c1.7,0,3.5,1.2,5.2,3.3
		c0.5,0.7,1.5,0.8,2.1,0.3c0.7-0.5,0.8-1.5,0.3-2.1c-2.3-2.9-4.9-4.5-7.5-4.5c-8.4,0-15,14.7-15.4,34.1
		C776,586,776.7,586.7,777.5,586.7C777.5,586.7,777.5,586.7,777.5,586.7z"/>
	<path class="st1" d="M713.3,473.1c-0.9,0-1.5,0.6-1.6,1.4l-4,91.2c0,0.8,0.6,1.5,1.4,1.6c0,0,0,0,0.1,0c0.8,0,1.5-0.6,1.5-1.4
		l4-91.2C714.8,473.9,714.1,473.2,713.3,473.1z"/>
	<path class="st1" d="M765.3,496.8l0.1-6.1c0-2.2-1.7-4-3.9-4.1c-1.8-0.1-3.6-0.1-5.3-0.1c-2.2,0-4,1.8-4,4l-0.1,6.4
		c0,1.9,1.3,3.6,3.1,4c1,0.2,2,0.3,3,0.3c1.3,0,2.7-0.2,4.1-0.6C764.1,500.1,765.3,498.6,765.3,496.8z"/>
	<path class="st1" d="M654.3,356.5c3.2,1.2,7-0.9,8.5-4.8c1.5-3.9,0.1-8-3.1-9.3c-3.2-1.2-3.4,3.6-4.9,7.5
		C653.3,353.8,651,355.2,654.3,356.5z"/>
	<path class="st1" d="M682,584.2c-4.6-0.2-11.1-0.9-19-2.9c-3-0.7-5.9-1.6-8.5-2.5c-2-0.7-4.1,0.2-5,2.2c-1,2.2-1.6,4.8-1.6,7.4
		c0,9.7,7.6,17.7,16.9,17.7c3.6,0,7.1-1.2,10-3.4c3.6-3.6,7-7.6,10.3-12.1C686.9,587.9,685.1,584.3,682,584.2z"/>
	<path class="st1" d="M208.8,599h-17.1c-1.8,0-2.7,2.2-1.4,3.4c3.3,3.3,7.8,6.3,13.8,8.4c1.3,1.2,2.6,2.5,4,3.7
		c1.3,1.2,3.4,0.2,3.3-1.6l-0.6-12C210.7,599.9,209.8,599,208.8,599z"/>
	<path class="st1" d="M804.7,568.4c-0.9-3.4-5.4-4.1-7.3-1.1l-18.7,30.5c-1.1,1.7-1.4,3.8-1,5.8c2.5,11.8,7.7,19.8,13.8,19.8
		c8.7,0,15.4-15.9,15.4-36.2C806.8,580.3,806,573.9,804.7,568.4z"/>
	<path class="st1" d="M607.3,539.8c-6.2,37.1-24.9,63.7-27.9,66.7c-1.7,1.7-3.9,2.6-6.3,2c-0.2-0.1-0.6-0.2-0.9-0.4
		c-1.1-0.6-2.4-0.1-2.9,1c-2.3,6-5.9,10-10.1,12.9l0,0c-1.2,0.8-0.6,2.7,0.8,2.7h33.5c1.3,0,2.6-0.7,3.3-1.8
		c8-11.9,13.7-25.3,16.6-38.9c3.4-16.1,2.5-31.6-2.2-44.6C610.5,537.5,607.7,537.8,607.3,539.8z"/>
	<path class="st1" d="M309.2,141.7c0-2.3,1.3-4.3,3.2-5.3c0.8-0.4,1.3-1.4,1-2.3c-0.1-0.4-0.2-0.8-0.2-1.3c-0.1-1.6,0.4-3.1,1.4-4.4
		c0.7-0.8,1.5-1.4,2.5-1.7c0.8-0.3,1.2-1,1.3-1.8c0-0.8,0-1.5,0.1-2.3c0.2-5.8,1.5-12,3.8-18.2c1-2.7,2.1-5.3,3.4-7.8
		c0-0.1,0.1-0.2,0.2-0.3c5.8-11.4,14.6-20.2,24.6-20.4c6,0,11,3.7,13.6,9.2c0,0,0,0,0,0.1c0.1,0.1,0.1,0.3,0.2,0.4
		c0.1,0.2,0.1,0.3,0.2,0.5c0,0,0,0.1,0,0.1c0.9,2.2,1.6,4.7,1.9,7.4c0,0.1,0,0.1,0,0.2c0,0.1,0,0.2,0,0.4c0.2,1.4,0.3,2.8,0.3,4.2
		c0.1,11.5-4.1,22.7-11.8,31.3c-0.8,0.8-1.5,1.7-2.3,2.5v0v0c-0.1,0.1-0.2,0.2-0.2,0.2c-0.1,0.1-0.1,0.1-0.2,0.2
		c0,0-0.1,0.1-0.1,0.1c-0.4,0.4-0.9,0.8-1.3,1.2c-0.9,0.8-0.9,2.3,0.1,3c1.4,1.1,2.2,2.8,2.2,4.7v3c0,12.1-9.7,21.9-21.7,22l0,0
		c-1.7,0-2.6,1.9-1.6,3.2c2.3,2.9,4.9,5.5,7.9,7.8c7.2,5.4,15.7,8.2,24.6,8.2c4,0,8-0.6,11.8-1.7c0.1,0,0.2-0.1,0.3-0.1
		c8.1-2.5,15.1-7.3,20.3-13.9l0-0.1l0,0c0.9-1.1,1.7-2.3,2.5-3.6l0.2-0.3c0.7-1.2,1.4-2.4,2-3.7c0.1-0.2,0.1-0.3,0.2-0.5
		c0.3-0.7,0.6-1.3,0.8-1.8l0-0.1c0.8-1.8,2.3-3.2,4.2-3.6c1.2-0.3,2.4-0.2,3.6,0.3c0.6,0.2,1.1,0.6,1.6,1c3.2,2.3,5.9,5.3,7.7,8.8
		c5.3,1.5,10.2,3.2,15.4,4.9c12.7,4.4,25.9,8.9,45.3,9.7c0.9,0,1.8,0.1,2.7,0.1c9.1,0,17.5-2,25.3-5.3
		c14.1-12.8,25.5-28.2,33.7-45.5c0.4-0.9,0.1-2.1-0.8-2.6c-3.2-1.8-6.7-4.1-10.9-7.2c-13.2-4.2-26.6-11.7-41.2-20
		c-28.1-15.8-60-33.7-103-35.4c-0.4,0-0.8,0.1-1.1,0.4l-12.7,11.9l-6.2-10c-0.3-0.5-0.9-0.8-1.5-0.7c-11.7,2-22,6.6-31.5,12.4
		c-2.6,2.8-5.2,5.7-7.8,8.6c-13.4,14.8-27.2,30-44.6,40c-0.9,0.5-1.3,1.6-0.8,2.6c7.1,15.1,16.6,28.7,28.3,40.4
		c3.3,0.5,6.7,0.4,10.1-0.3c-4.4-7.9-6.9-16.9-6.9-26.5L309.2,141.7L309.2,141.7z M376.6,86.9C376.6,86.9,376.6,86.9,376.6,86.9
		c0.1-0.2,0.1-0.2,0.1-0.3c0,0,0.1-0.1,0.1-0.2c0.1-0.2,0.1-0.3,0.2-0.5l0,0c0,0,0,0,0,0c0,0,0,0,0-0.1c0.1-0.2,0.1-0.3,0.2-0.4
		c2.1-4,5.1-6.8,8.8-8.1c1.6-0.6,3.4-0.9,5.1-0.9c7.3,0,14.9,5,21.4,14.2c0,0,0,0.1,0.1,0.1l0,0c0,0,0,0.1,0,0.1c0,0,0,0,0,0.1
		c0,0,0,0.1,0,0.1c0,0,0,0,0,0l0.2,0.3c0.1,0.1,0.2,0.3,0.3,0.4c0.2,0.4,0.5,0.7,0.7,1.1c0.2,0.3,0.4,0.6,0.6,0.9
		c0.2,0.3,0.3,0.5,0.5,0.8c0.3,0.5,0.6,1,0.9,1.5c0,0.1,0.1,0.2,0.1,0.2c1.4,2.5,2.7,5.2,3.8,8c0,0.1,0.1,0.1,0.1,0.2
		c0.2,0.4,0.4,0.9,0.5,1.4c0.1,0.3,0.2,0.5,0.3,0.8c0,0.1,0,0.1,0.1,0.2c0.3,1,0.7,1.9,1,2.9c0.1,0.2,0.1,0.5,0.2,0.8
		c0.2,0.8,0.5,1.7,0.7,2.5c0,0.2,0.1,0.4,0.1,0.6c0.2,1,0.5,1.9,0.7,2.9c0,0,0,0.1,0,0.1c1.1,5.4,1.5,10.6,1.2,15.3
		c0,1.4,1.2,2.4,2.6,2c0.3-0.1,0.5-0.2,0.7-0.3c0.7-0.3,1.5-0.4,2.2-0.4c2.5,0,4.8,1.6,5.6,3.9c1.1,3.1-0.7,6.6-3.8,7.8
		c-6.8,2.6-19.3,2.9-31.9,2.9c-0.9,0-1.8,0-2.7,0c0,0,0,0-0.1,0c0,0,0,0,0,0c-2.2,0-4.4,0-6.5,0h-0.1H391c-2.8,0-5.4,0-7.9,0
		c-3,0-5.8-2.2-6.1-5.2c-0.4-2.9,1.3-5.5,3.8-6.4c0.3-0.1,0.6-0.2,1-0.3c1.4-0.2,2-1.8,1.4-3c-0.5-0.8-0.9-1.6-1.3-2.4
		c0-0.1-0.1-0.2-0.1-0.3c-0.8-1.6-1.5-3.2-2.2-4.9c-0.1-0.2-0.1-0.4-0.2-0.5c-0.3-0.8-0.6-1.6-1-2.5c0,0,0,0,0,0c0,0,0-0.1,0-0.1
		c-0.3-0.8-0.6-1.6-0.8-2.4c-0.2-0.7-0.5-1.5-0.7-2.2c0-0.1,0-0.2-0.1-0.3C373.3,105.6,373.3,94.6,376.6,86.9z"/>
	<path class="st1" d="M392.8,139.7c-0.6,0-1.1,0-1.7,0c-2.9,0-5.7,0-8.3,0c-1.1,0-2,0.9-2,2s0.9,2,2,2c2.6,0,5.4,0,8.2,0
		c2.1,0,4.4,0,6.5,0c0,0,0,0,0,0c0,0,0,0,0,0c0.9,0,1.9,0,2.8,0c5.5,0,10.9-0.1,15.8-0.4c0,0,0.1,0,0.1,0c6.2-0.4,11.5-1.1,14.9-2.4
		c1-0.4,1.5-1.6,1.1-2.6c-0.4-1-1.6-1.5-2.6-1.1c-2.3,0.9-6,1.5-10.3,1.9c2.8-7.8,2-19.5-2.2-31.1c-2-5.3-4.4-10.2-7.4-14.5
		l-0.2-0.3l0,0c0,0-0.1-0.1-0.1-0.1s0-0.1-0.1-0.1c-7.1-9.9-15.3-14.3-22-11.9c-2.8,1-5,3.2-6.7,6.3c-0.1,0.1-0.1,0.2-0.1,0.3
		c0,0.1-0.1,0.2-0.1,0.3l0,0.1c0,0-0.1,0.1-0.1,0.2c0,0.1,0,0.1-0.1,0.2c-3.4,7.8-2.8,20.2,1.6,32.5
		C384.7,128.1,388.5,134.8,392.8,139.7z M384.1,89.8C384.1,89.8,384.1,89.7,384.1,89.8c0-0.1,0.1-0.1,0.1-0.1l0.1-0.2
		c0-0.1,0.1-0.1,0.1-0.2c1.2-2.4,2.7-3.9,4.6-4.6c4.8-1.7,11.6,2.4,17.4,10.5c0,0,0,0,0,0l0,0.1c0,0,0,0.1,0,0.1l0.2,0.3
		c2.7,3.9,5.1,8.6,6.9,13.6c4.2,11.6,4.8,23.4,1.5,30.1c-1,0.1-1.9,0.1-2.9,0.1c1.5-4.2,1.4-9.8-0.6-15.3
		c-3.6-9.8-11.7-15.8-18.2-13.4c-3.8,1.4-6.2,5.3-6.8,10.2c-0.2-0.5-0.4-1.1-0.6-1.6C381.7,108.2,381,96.6,384.1,89.8z"/>
	<path class="st1" d="M413.5,191.7c2.9-4.5,4.1-10,3.3-15.3c-0.9-6.2-4.3-11.9-9.4-15.5c-0.2-0.2-0.4-0.3-0.6-0.4
		c-1-0.4-2.2,0.1-2.6,1.1c0,0,0,0.1,0,0.1c-0.3,0.7-0.6,1.3-0.9,2c-0.1,0.2-0.2,0.4-0.2,0.5c-0.7,1.4-1.4,2.7-2.2,4
		c-0.1,0.1-0.1,0.2-0.2,0.3c-0.8,1.4-1.7,2.6-2.7,3.9c0,0,0,0.1-0.1,0.1c-5.6,7.2-13.3,12.6-22.3,15.3c0,0-0.1,0-0.1,0.1
		c-4.2,1.3-8.6,1.9-13.2,1.9c-20.2,0-37.4-13.4-43.1-31.8c3.2,2.8,7.4,4.6,12,4.6c9.9,0,18-8.1,18-18v-3c0-1.1-0.9-2-2-2h-12.4
		c9.8-4.2,18-11.6,23.4-21.2c0.1-0.1,0.1-0.2,0.2-0.4c0.3-0.6,0.6-1.2,0.9-1.8c0-0.1,0.1-0.2,0.1-0.2c0-0.1,0-0.1,0.1-0.2
		c0,0,0-0.1,0-0.1c0.3-0.6,0.6-1.3,0.9-1.9c0.1-0.3,0.2-0.6,0.3-0.8c1.6-5.7,2.3-11.4,2-16.4l0-0.3c0-0.4-0.1-0.9-0.1-1.3l-0.1-0.5
		c0-0.4-0.1-0.8-0.1-1.1c0-0.2-0.1-0.4-0.1-0.6c-0.1-0.3-0.1-0.7-0.2-1c0-0.2-0.1-0.4-0.1-0.6c-0.1-0.3-0.1-0.6-0.2-0.9
		c-0.1-0.2-0.1-0.4-0.2-0.6c-0.1-0.3-0.2-0.5-0.3-0.8c-0.1-0.2-0.1-0.4-0.2-0.6c-0.1-0.2-0.2-0.4-0.3-0.7l0-0.1
		c-0.1-0.2-0.1-0.3-0.2-0.5c0,0,0-0.1-0.1-0.2c0-0.1-0.1-0.1-0.1-0.2c-1.5-3.1-3.7-5.2-6.4-6.2c-7.8-2.8-17.7,4.3-24.7,17.8
		c0,0,0,0.1,0,0.1l-0.2,0.3c-0.2,0.4-0.4,0.8-0.6,1.2l-0.5,1.1c0,0.1,0,0.1-0.1,0.1c-0.7,1.5-1.3,3.1-1.9,4.6
		c-3.6,9.9-4.5,19.8-2.6,27c-1.8-1.1-2.9-2-2.9-2c-0.8-0.7-2.1-0.6-2.8,0.2c-0.7,0.8-0.6,2.1,0.2,2.8c0.2,0.2,3.2,2.7,7.7,4.6
		c-3.3,0.8-6.7,1.2-10.2,1.2c0,0,0,0,0,0h-0.1c-1.1,0-2,0.9-2,2v3c0,27.1,22,49.2,49.1,49.2c4.5,0,8.8-0.6,13-1.7
		c1.8,2.6,4,4.9,6.7,6.5c3.7,2.4,7.9,3.6,12.2,3.6c2.3,0,4.6-0.4,6.8-1.1C406.2,199.6,410.6,196.2,413.5,191.7z M329.8,107.2
		c0.5-1.5,1.1-3,1.8-4.5c0,0,0-0.1,0-0.1l0.4-0.9c0.2-0.4,0.4-0.7,0.5-1.1l0.1-0.2c0,0,0,0,0-0.1c5.8-11.3,14.1-18,19.8-15.9
		c1.8,0.6,3.2,2.1,4.2,4.3c0,0,0,0.1,0,0.1v0c0,0.1,0.1,0.2,0.1,0.3l0.1,0.2c0.1,0.2,0.1,0.3,0.2,0.5c0.1,0.2,0.1,0.3,0.2,0.5
		c0.1,0.2,0.1,0.4,0.2,0.6c0,0.2,0.1,0.3,0.1,0.5c0.1,0.2,0.1,0.5,0.2,0.7c0,0.2,0.1,0.3,0.1,0.5c0.1,0.3,0.1,0.6,0.2,0.9
		c0,0.2,0,0.3,0.1,0.4c0,0.3,0.1,0.7,0.1,1l0,0.4c0,0.4,0.1,0.8,0.1,1.2l0,0.3c0.2,4.6-0.4,9.8-1.9,15.1c0,0.1-0.1,0.2-0.1,0.3
		c-0.3,0.7-0.6,1.3-0.9,2c0,0.1-0.1,0.2-0.1,0.2c-0.3,0.5-0.5,1.1-0.8,1.6c-0.1,0.1-0.1,0.2-0.2,0.4c-2.1,3.7-4.6,7.1-7.6,10.1
		c1-8.3-2.4-15.7-8-16.7c-4.8-0.8-9.7,3.2-12.2,9.6C327.2,115.6,328.2,111.4,329.8,107.2z M401.3,196.9c0-0.1-0.1-0.1-0.1-0.2
		c-0.1-0.1-0.1-0.2-0.2-0.4c-0.1-0.1-0.1-0.3-0.2-0.4c-0.1-0.1-0.1-0.2-0.2-0.4c-0.1-0.2-0.1-0.3-0.2-0.5c0-0.1-0.1-0.2-0.1-0.4
		c-0.1-0.2-0.1-0.3-0.2-0.5c0-0.1-0.1-0.2-0.1-0.3c-0.1-0.2-0.1-0.4-0.2-0.7c0-0.1,0-0.1,0-0.2c-0.1-0.3-0.1-0.6-0.1-0.9
		c0-0.1,0-0.2,0-0.3c0-0.2,0-0.4,0-0.6c0-0.1,0-0.2,0-0.3c0-0.2,0-0.4,0-0.6c0-0.1,0-0.2,0-0.4c0-0.2,0-0.4,0-0.5c0-0.1,0-0.2,0-0.4
		c0-0.2,0-0.3,0.1-0.5c0-0.1,0-0.2,0.1-0.4c0-0.2,0.1-0.3,0.1-0.5c0-0.1,0.1-0.2,0.1-0.4c0-0.2,0.1-0.3,0.1-0.5
		c0-0.1,0.1-0.2,0.1-0.4c0.1-0.2,0.1-0.4,0.2-0.5c0-0.1,0.1-0.2,0.1-0.3c0.1-0.2,0.2-0.4,0.3-0.6c0-0.1,0.1-0.2,0.1-0.3
		c0.1-0.3,0.3-0.5,0.5-0.8c0.3-0.4,0.5-0.8,0.8-1.1c0.1-0.1,0.1-0.1,0.2-0.2c0.3-0.3,0.6-0.7,0.9-1c0.1-0.1,0.1-0.1,0.2-0.2
		c0.3-0.3,0.7-0.6,1-0.8c0,0,0,0,0.1-0.1c0.4-0.3,0.8-0.5,1.1-0.7c0.1-0.1,0.2-0.1,0.3-0.1c0.4-0.2,0.8-0.4,1.2-0.6
		c0.1,0,0.2-0.1,0.3-0.1c0.4-0.1,0.8-0.3,1.2-0.4c0,0,0.1,0,0.1,0c0.4-0.1,0.9-0.2,1.3-0.2c0.1,0,0.2,0,0.3,0
		c0.4-0.1,0.9-0.1,1.3-0.1c0.1,0,0.2,0,0.4,0c0.2,0,0.5,0,0.7,0c0.1,0,0.1,0,0.2,0c0.2,3.9-0.8,7.8-2.9,11.1
		C408,192.8,404.9,195.4,401.3,196.9z"/>
	<path class="st1" d="M807.4,622.3c5.1-8.5,8.2-20.9,8.2-35c0-26.1-10.8-46.5-24.5-46.5h-5c0.9-1,1.5-1.5,1.5-1.5
		c0.7-0.5,1.2-1.4,1.2-2.3c0.2-12.1-0.3-42.8-0.4-47.3l9.5-20.9c0.2-0.4,0.3-0.9,0.3-1.3c-0.7-24.6-3.5-58.6-13.1-80.6l0-0.1
		c0-0.1-0.1-0.1-0.1-0.1c-0.1-0.1-0.1-0.2-0.2-0.3c0-0.1-0.1-0.1-0.1-0.2c-0.1-0.1-0.2-0.2-0.2-0.3c-0.1-0.1-0.1-0.1-0.2-0.2
		c-0.1-0.1-0.1-0.1-0.2-0.2c-14.5-9.9-41.3-17.1-77.4-20.9c-1.3-7-2.9-12.7-3.9-16.4c-1-3.5-3.7-6.3-7.2-7.4
		c-5.9-1.9-12.4-3.6-19.1-5c5-3.6,7.3-9.5,6.9-17.6c-0.5-8.8-6.2-17.9-17-27.1c-6.7-17.2-23.4-27.2-43.8-26.1
		c-1.9,0.1-3.8,0.3-5.8,0.6c-2.4-1.9-5.1-3.2-8.1-4.1c-2.5-4.7-26.6-50.8-48.8-69.9c-0.3-0.3-0.7-0.5-1.2-0.6
		c-0.2-0.1-20.3-5.5-46-8.7c16.9-15.4,30.2-34.4,38.8-55.8c0.5-1.2-0.1-2.7-1.3-3.2c-16.3-7.4-29.2-20.1-41.3-33.2l0,0
		c-1.8-2-3.7-4-5.5-6c23.1-40.1,6.4-70.2-1.9-81.4c-1.1-1.5-2.9-2.5-4.7-2.6c-1.9-0.1-3.7,0.6-5.1,1.9l-37.9,37.9
		c-1.5-0.8-3.1-1.6-4.7-2.4c0,0,0,0,0,0c-10.4-4.9-21.3-7.8-33.1-8.6l2.5-9.1l3.9-14.4c0.2-0.8,0-1.6-0.5-2.2s-1.3-1-2.1-0.9
		c-4.2,0.3-12.9,3.5-15.6,13.6c-0.5,1.9-0.7,3.6-0.7,5.2l-10.5-10.5c-0.6-0.6-1.4-0.8-2.2-0.7s-1.5,0.6-1.8,1.4
		c-1.7,3.5-3.2,11.7,2.6,18.8c-10.2,1.8-19.3,5.2-27.5,9.7L326,1.9c-1.3-1.3-3.2-2-5.1-1.9s-3.6,1.1-4.7,2.6
		c-8.3,11.2-25,41.3-1.9,81.4c-14.5,16-28.4,30.8-46.8,39.2c-1.2,0.6-1.8,2-1.3,3.2c11.4,28,30.6,52,55.7,69.2
		c4.7,3.2,9.5,6.1,14.4,8.8c-5.4,5.6-11,11.1-16.9,16.6l-0.8-2.9c-0.2-0.5-0.3-1-0.5-1.6l-0.3-0.8c-0.1-0.4-0.3-0.9-0.5-1.4
		c-0.3-1-0.7-2-1.1-3.2l-1.9-4.5c-0.5-1.1-1.1-2.2-1.7-3.3c-0.2-0.4-0.4-0.8-0.7-1.3c-0.3-0.6-0.7-1.2-1.1-1.8
		c-0.1-0.2-0.3-0.4-0.5-0.7c-0.1-0.2-0.3-0.4-0.4-0.7c-0.4-0.5-0.7-1.1-1.2-1.7l-1.7-2.1c-0.4-0.5-0.9-1-1.3-1.4l-1.1-1
		c-2.2-4.3-6.6-7.1-11.5-7.1c-2.2,0-4.4,0.6-6.4,1.7c-5.6,0.4-15.7,3.4-22.2,18.4c-1.9,1.3-3.4,3.1-4.3,5.2L230.3,284
		c-9.3-1.9-19.3-1.8-29.8,0.2c-20.4,4-28,14.8-30.6,20.9c-2.6,6-2.9,12.6-0.7,17.7c-2.9,3.3-4.8,6.7-5.8,10.3
		c-1.6,5.8-0.6,11.9,2.9,17.5c-5,6.9-6.4,14.3-4.4,22.5c1.5,6,5,10.6,10.4,13.7c5.3,3,10.9,3.8,14.1,3.9l-58.1,141.1
		c-4.1,0.3-7.7,2.9-9.3,6.8l-6.9,16.7h-2.2c-2,0-4,0.5-5.7,1.6l-14.7,8.9c-2,1.2-3.6,3-4.5,5.2l-1.7,4h-4.1c-0.8,0-1.7,0.1-2.5,0.3
		c-19.8,4.6-35.7,9.4-48.7,14.7c-5.6,0.3-10.1,4.8-10.3,10.5l-1,20c0,0.6-0.2,1.2-0.4,1.7l-0.6,1.5c0,0.1-0.1,0.2-0.1,0.2
		c-10,2.4-15.5,5-15.5,7.7c0,11,90.7,20,202.5,20s202.5-9,202.5-20c0-3.6-9.5-6.9-26.1-9.8l33.1-72.1c4.4,1.1,8.9,2.1,13.2,2.8
		c7.9,1.4,16.2,2.2,24.7,2.5c3.7,13.4,8.5,24.7,14.3,33.7c-0.7,4-1.2,7.9-1.4,11.8c-4,5.2-8.6,13.1-10.1,23.4
		c-9.9,2.4-15.4,5-15.4,7.8c0,11,88,20,196.6,20s196.6-9,196.6-20C830.6,628.3,822.2,625.1,807.4,622.3z M761.1,380.3
		c-17.6-3.5-40.8-6.1-67.3-7.5c-41.5-2.3-85-1.4-123,2.5c0.3-1.4,0.6-2.8,0.9-4.1c25.6-4.4,68.4-5.9,107.1-3.8
		C713.2,369.2,741.4,373.7,761.1,380.3z M580.6,365.8c4-9.8,9.3-19.5,12.8-24.5c0.8,0.4,1.7,0.8,2.5,1.2c0.3,0.2,0.7,0.3,1,0.5
		c-2.2,3.2-6.4,10.2-11.7,22.3C583.6,365.5,582.1,365.6,580.6,365.8z M693.8,345.5c1.9,0.6,3.4,2.1,3.9,4c1,3.5,2.5,8.9,3.7,15.4
		c-1.4-0.1-2.8-0.3-4.2-0.4c-0.2-0.8-0.3-1.5-0.5-2.2c-0.4-1.7-1.8-3-3.6-3.1c-2.5-0.2-5.1-0.4-7.7-0.5c-2.4-0.2-4.4,1.9-4.2,4.3
		c0,0.1,0,0.3,0,0.5c-1.3-0.1-2.7-0.1-4-0.2c-0.2-3.7-0.8-7.6-1.2-10.3c-0.2-1-0.5-1.8-1.1-2.6c1.3-0.9,2.5-1.8,3.4-3
		c0.9-1.1,0.3-2.9-1.2-3.2c-1.9-0.4-3.8-0.8-5.7-1.1c0-1.1-0.1-2.1-0.3-3.1C679.3,341.4,686.9,343.3,693.8,345.5z M622.7,270.1
		c18.7-0.9,33.3,7.9,39.1,23.6c0.1,0.3,0.3,0.6,0.6,0.8c10,8.3,15.4,16.6,15.8,24c0.4,8.2-2.1,12.8-8.4,15.1
		c-0.4-1.2-0.9-2.2-1.4-3.3c2.8-1.1,7.2-7.6,5.4-13.2c-2.8-8.7-20.2-3.3-22.9-8.1c-0.2-1.1-1.2-1.8-2.3-1.6
		c-1.1,0.2-1.8,1.2-1.6,2.3c0.6,3.4,2.5,5.2,6,8.4c0.9,0.9,2,1.9,3.2,3c4.4,4.3,9,9.4,10.7,16.9c0,0,0,0,0,0c0.7,3.2,1,6.9,0.4,11.2
		c-0.7,5.3-3.5,9.4-8,11.3c-4,1.8-8.8,1.6-11.9-0.3c-1.5-4-3.6-8-5.8-11.8c1.3,0,2.5,0.1,3.8,0.2c0.1,0.2,0.2,0.5,0.2,0.8
		c0.3,1.1,1.3,1.7,2.4,1.5c1.1-0.3,1.7-1.4,1.5-2.4c-0.2-0.8-0.4-1.5-0.7-2.3c0-0.1,0-0.1-0.1-0.2c-3.1-9.1-10.5-16.3-19-18.4
		c-0.7-0.2-1.3,0-1.8,0.5l-2.1,2c-0.8,0.7-0.8,1.9-0.2,2.8c0.4,0.4,5.6,6.6,10.7,14.6c0,0,0,0,0,0c2.9,4.6,5.8,9.9,7.7,15
		c-1.4,0-2.9,0-4.3,0c-0.4-1.1-0.9-2.2-1.4-3.3c-0.5-1-1.5-1.6-2.6-1.6c-4.8,0.1-9.4,0.2-14,0.3c-2,0.1-3.3,2.1-2.5,3.9l0,0
		c0.2,0.4,0.3,0.8,0.5,1.1c-1.4,0-2.9,0.1-4.3,0.2c-2.5-6.3-7.8-17.3-11.7-20.7c-1.5-1.3-3.5-2.3-6-3.5c-3.5-1.7-7.3-3.5-10.2-6.6
		c-2-2.2,0.1-5.5,4.5-1.3c1.8,1.8,4.2,2.8,6.9,4c5.3,2.2,14.9,2,21.2-4.5c0.6-0.6,2.5-2.8,3.1-3.4l2.1-2c1.1-1.1,2.6-1.6,4.1-1.6
		c0.5,0,1,0.1,1.4,0.2c0.2,0.1,0.5,0.1,0.7,0.2c0.7,0.2,1.4,0.2,2.1,0c2-0.6,4.6-1.8,6.1-3.4c1.5-1.5,2.8-3.5,3.7-5.9
		c0.3-0.9,0.3-1.8,0.1-2.7c-0.2-0.5-0.3-1-0.4-1.6c-0.6-3.3,1.7-6.4,4.9-6.9c0.3-0.1,0.7-0.1,1-0.1c1,0,2,0.2,2.8,0.7
		c1.9,1,4.4,0.2,5.3-1.8c1-2.2,1.3-4.8,0.7-7.6c-1-4-5-4.2-10.3-4c-11,0.5-11.9,11-25.8,14.2c-13.9,3.1-29.1,2.5-34.7,10.4
		c-2.3,3.2-5,8.6-7.3,12.9c-4.4,8-16.1,15.8-9.3,25.3c2.3,3.2,7.6,2.9,10.7,2.1c-0.6,1.3-1.2,2.6-1.9,4c-5.8,2.5-11.4,2.4-15.5-0.4
		c-3-2.1-4.8-5.4-4.6-8.8c0.2-5.3,3.6-8.4,7.6-11.9c2.3-2,4.8-4.3,6.8-7.1c0.1-0.1,0.2-0.2,0.2-0.4c0.5-0.8,1-1.6,1.5-2.5
		c3.2-6.5,3.8-12.8,4.3-18.8c0.3-3.3,0.5-6.3,1.2-9.4C583.8,284.6,602.7,271.1,622.7,270.1z M640.8,339.6c-1.2-0.1-2.9-0.2-5-0.2
		c-0.8-1.1-1.6-2.2-2.3-3.2c1.5,0,2.9,0.1,4.3,0.1C638.9,337.4,639.9,338.5,640.8,339.6z M558.2,300.4c-0.7-1.7-0.7-3.4,0.8-3.7
		c1.7-0.3,2.6,1.4,3.2,2.7c3.7,9.6,6.2,19.7,7.4,29.9c-0.9,1.3-2,2.4-3.1,3.5c-0.4-0.7-0.7-1.5-0.8-2.3c-0.5-4.6-1.3-9.2-2.4-13.7
		c0-0.1,0-0.2-0.1-0.4C561.8,309.8,560.3,306,558.2,300.4z M572.2,279.3L572.2,279.3C572.2,279.3,572.2,279.3,572.2,279.3
		C572.2,279.3,572.2,279.3,572.2,279.3z M611,268c-17,4.7-31.4,17.2-34.4,31.3c-0.4,1.9-0.7,3.8-0.9,5.7c-5.8-9.1-3.1-21,3.4-28.9
		c4.9-6,12.4-10,20-10.5C603.4,265.2,607.5,266.1,611,268z M497.9,6.2c7.8,10.7,21.9,37.8,1.9,73.9c-0.9-1-1.8-2-2.7-3
		c16-30.5,7-54.2-0.4-66.1C497.1,9.5,497.5,7.8,497.9,6.2z M408.9,17.1c1.4-5.3,4.8-7.8,7.5-8.9l-5.5,20.4l-0.1-0.1
		C409.1,26.1,407.5,22.3,408.9,17.1z M320.2,5.6c0.4-0.5,0.8-0.6,1.1-0.6c0.2,0,0.8,0,1.2,0.4l37,37c-1.2,0.7-2.3,1.5-3.5,2.2
		l-7.6-7.6c-1.4-1.4-3.6-1.6-5.2-0.4c-9.9,7-18.5,15.5-26.8,24.3c-1,1.1-1.3,2.6-0.9,4c1.6,4.6,3.4,8.7,5.2,12
		c-1,1.1-1.9,2.1-2.9,3.1C297.5,43.3,312.6,15.9,320.2,5.6z M324.7,191.5c-23.6-16.2-41.9-38.5-53-64.7
		c19.2-9.5,34.1-25.9,48.5-41.8c20.7-22.9,42.1-46.5,77-50.7c1-0.1,1.9-0.9,2.1-1.9s-0.1-2-1-2.6c-0.7-0.5-1.3-1-1.9-1.7
		c-3.9-3.9-4.4-8-4-10.9l15.7,15.7c0.5,0.5,1.1,0.7,1.7,0.7c12.9,0.1,24.6,2.7,35.8,7.7l0,0c2.5,1.1,4.9,2.3,7.2,3.7
		c1,0.6,2.3,0.5,3.1-0.3l36.3-36.3c-4.2,17.5-10.8,33.8-19.7,48.3c-0.6,1-0.4,2.4,0.5,3.2c8.6,7.7,16.6,16.6,24.4,25.1
		c1.6,1.8,3.2,3.5,4.8,5.3c0,0,0,0,0,0c12.4,13.6,26.3,27.9,43.7,36.5c-11.1,26.2-29.4,48.5-53,64.7c-24.8,17-53.9,26-84.1,26
		S349.5,208.6,324.7,191.5z M438.5,219.7l-11,31.2l-14.8-28.4c1.5,0,3-0.1,4.4-0.2l2.8,5.4c0.8,1.4,2.3,2.3,3.9,2.1
		c1.6-0.1,3.2-0.3,4.7-0.5c1.5-0.2,2.7-1.2,3.2-2.6l2.2-6.2C435.5,220.2,437,220,438.5,219.7z M405.2,222.5L388.9,250l-9.3-30.2
		c1.5,0.3,2.9,0.5,4.4,0.8l1.8,5.9c0.5,1.5,1.7,2.6,3.3,2.8c1.5,0.2,2.9,0.4,4.4,0.5c1.5,0.1,3-0.6,3.8-1.9l3.3-5.5
		C402.1,222.4,403.6,222.5,405.2,222.5z M319.2,228.2c0,0,0.1-0.1,0.1-0.1c7.6-7,14.8-14.1,21.6-21.2c1.3,0.6,2.5,1.2,3.8,1.8
		c-4.9,5.1-10.6,10.8-15.7,15.7c-1.9,1.8-1.6,5,0.7,6.3c1.7,1,3.4,2,5.1,2.9c0.9,0.5,1.3,1.6,0.9,2.6c-12.6,28-23.4,53.2-28.6,69.8
		c-0.5,1.5-0.9,3-1.3,4.5c-0.8,2.9,1.8,5.6,4.7,5c5.3-1.1,8.4-1.9,8.7-2c0.2-0.1,0.6-0.1,0.9-0.2c-0.4,1.4-0.7,2.9-1,4.3
		c-4.1,1-18.6,4.5-39.4,6.8c0.3-1.4,0.6-2.9,0.8-4.4c0,0.1,0,0.2,0,0.3c2.4-0.3,4.7-0.6,6.9-0.9c2-0.3,3.5-1.9,3.5-3.9
		c0-6.2-1.4-13-5.7-19.6c-5.1-7.9-12.8-13.1-21.6-14.8c-2.8-0.5-5.6-0.7-8.4-0.5c18.4-13.5,34.6-26.5,49.4-39.4
		c0.1-0.1,0.1-0.1,0.2-0.2C309.8,236.8,314.6,232.5,319.2,228.2z M331.9,457c3.9,10.1,9,19.4,15.3,27.6c1.4,1.9,3,3.8,4.6,5.6
		l-0.5,4.5c-0.9-0.7-2.3-1.8-3.6-3.2c-1.4-1.4-2.5-3-3.6-4.5c-6.5-8.5-11.9-18.1-15.8-28.6c-3.6-9.6-6.3-20.5-8.1-32.2
		c-1-6.5-1.7-13.5-2.2-21c0-0.6-0.1-1.5-0.1-2.4c-0.1-2.3,3-2.9,3.9-0.8c0,0.1,0.1,0.2,0.1,0.3c0.5,8.5,1.2,16.2,2.3,23.3
		C325.7,437,328.4,447.6,331.9,457z M326.4,396.6c7.1,16.1,17.5,30.8,30.3,42.8l-5,42.9c-0.2-0.2-0.4-0.5-0.6-0.7
		c-6-7.8-10.9-16.7-14.6-26.3c-3.4-9-5.9-19.2-7.6-30.4C327.6,416.3,326.8,407,326.4,396.6z M310.3,392.8
		c0.1,12.9,0.9,24.1,2.3,34.4c1.7,12.5,4.3,23.6,8,34c4.1,11.3,9.7,21.8,16.6,31c0.2,0.2,0.4,0.5,0.5,0.8l0,0
		c0.2,0.3,0.4,0.6,0.6,0.8l4.5,5.4c0.5,0.6,1.1,1.2,1.8,1.9l0.1,0.1c0.4,0.4,0.7,0.8,1.1,1.2c1.1,1.1,2.8,2.6,4.1,3.7l-0.6,5.2
		l-3.2-3c-0.7-0.7-1.4-1.4-2.1-2.1c-0.4-0.4-0.7-0.8-1.1-1.1c-0.4-0.4-0.8-0.8-1.1-1.2c-0.7-0.7-1.4-1.4-2-2.1l-4.5-5.4
		c-0.3-0.4-0.6-0.7-0.8-1.1c-0.2-0.2-0.3-0.5-0.5-0.7c-7.1-9.6-12.9-20.4-17.2-32.1c-3.8-10.6-6.5-22-8.2-34.8
		c-1.4-10.5-2.2-21.9-2.4-34.9c-0.2-19.4,0.9-38.7,2-57.4c0.4-2.3,1.2-2.4,1.6-2.5c1.3-0.3,2.5,0.8,2.4,2.1c0,0,0,0.1,0,0.1l0,0.4
		C311.2,354.2,310.1,373.5,310.3,392.8z M272.5,310.3c-0.2-1.2-0.7-2.4-1.5-3.4c-0.3-0.4-0.6-0.8-0.9-1.1
		c-6.2-7.5-13.8-13.2-22.4-16.9c-0.6-0.2-1.2-0.4-1.8-0.3c-1,0.1-2,0.2-2.9,0.4c-2-0.9-4-1.6-6.1-2.3c4.8-2.1,10.5-2.8,16-1.7
		c7.7,1.5,14.5,6.1,19,13.1c6.9,10.6,5.6,22,2.9,29.2c-0.5-2.7-1.2-5.4-2.1-8C273,316.5,273.1,313.5,272.5,310.3z M282.5,213.7
		c1-2.5,2.1-4.1,3-5.1c1.8,1.4,3.9,2.3,6.1,2.6c0.1,0.2,0.2,0.4,0.4,0.6c0.1,0.2,0.2,0.4,0.4,0.7c0.1,0.2,0.2,0.3,0.3,0.5
		c0.2,0.5,0.5,0.9,0.7,1.4c0.3,0.6,0.6,1.1,0.8,1.6l1.4,3.4c0.2,0.7,0.5,1.4,0.7,2.1c0.1,0.5,0.3,1,0.5,1.4c0.1,0.2,0.2,0.5,0.2,0.8
		c0.1,0.3,0.2,0.6,0.3,0.9l1.4,5.7l0.3,1.3c0.4,2.1,0.9,4.3,1.2,6.4l0.1,0.6c-12,10.4-24.9,20.7-39.2,31.6l20.7-50.4
		C282.5,217.8,282.7,215.7,282.5,213.7z M303.7,212.5c0.8-0.5,1.6-1.1,2.3-1.7c0.6-0.6,0.8-1.5,0.4-2.3c-0.4-0.9-0.9-1.9-1.2-2.4
		c-0.2-0.4-0.5-0.9-0.7-1.3c-0.1-0.2-0.4-0.6-0.6-1c0.5-1.1,0.9-2.2,1.1-3.4l0.1,0.1c0.3,0.4,0.6,0.8,0.9,1.3
		c0.2,0.3,0.3,0.5,0.5,0.7c0.2,0.2,0.3,0.5,0.5,0.8c0.3,0.5,0.6,0.9,0.8,1.3c0.2,0.4,0.5,0.9,0.7,1.3c0.5,1,1.1,2.1,1.5,3l1.8,4.4
		c0.4,1,0.7,1.9,1,2.9c0.2,0.5,0.3,1,0.5,1.4l0.3,0.8c0.2,0.5,0.3,0.9,0.4,1.3l1.7,6.4c-0.8,0.8-1.6,1.5-2.5,2.3l-0.1-0.3
		c0,0-0.5-1.8-0.9-3.5c-0.4-1.4-2.1-2-3.3-1c-0.4,0.3-0.8,0.7-1.1,1c-1.1,1-1.6,2.5-1.2,4l0.2,0.8l0.1,0.3l0.3,1.4
		c0.1,0.8,0.3,1.6,0.5,2.4c-0.9,0.8-1.8,1.6-2.7,2.4c-0.3-1.8-0.7-3.6-1-5.4l-0.3-1.3c0,0,0-0.1,0-0.1l-1.5-5.8
		c-0.1-0.4-0.2-0.8-0.4-1.2l-0.2-0.7c-0.1-0.5-0.3-0.9-0.4-1.4c-0.2-0.8-0.5-1.6-0.8-2.4l-1.4-3.5c-0.3-0.7-0.6-1.3-1-1.9
		c-0.2-0.4-0.4-0.8-0.6-1.3c-0.2-0.3-0.3-0.6-0.5-0.9c1-0.3,1.9-0.7,2.8-1.2c0.1,0.3,0.3,0.6,0.5,0.9c0.1,0.3,0.6,1.2,1,2.1
		C301.3,212.7,302.6,213.1,303.7,212.5z M294.4,190.7c3.8,0.5,6.8,3.8,6.8,7.7c0,4.3-3.5,7.8-7.8,7.8c-1.4,0-2.6-0.4-3.8-1
		c4.6-0.8,7.6-4.1,7.5-8.6C297,194.4,296,192.3,294.4,190.7z M288.2,192.3c1.3,0,2.5,0.4,3.4,1.3c0.9,0.8,1.4,2,1.4,3.2
		c0.1,2.6-1.8,4.4-4.8,4.7c-1.7,0.1-5.5,1.2-8.9,7.3c-1.1-1.4-2.5-2.5-4.2-3.2c-1.4-0.6-2.9-0.8-4.3-0.8
		C276.6,193.8,284.7,192.3,288.2,192.3z M265.1,212.8c0.7-1.6,1.9-2.9,3.5-3.5s3.4-0.7,5,0c1.8,0.7,3.1,2.2,3.7,3.9c0,0,0,0,0,0l0,0
		c0.5,1.4,0.5,3-0.2,4.5l-24.7,59.9c-1.1,0.8-2.2,1.6-3.4,2.5l-0.8-0.3l1.1-2.8l1.6-3.8c0.5-1.3-0.4-2.7-1.7-2.8c-0.7,0-1.4,0-2.1,0
		c-1.6,0-3,1-3.6,2.5l-3.5,8.4c-1.3,0.3-2.5,0.7-3.7,1.2L265.1,212.8z M174.8,382.6c-4.2-2.4-6.9-6-8-10.6
		c-4.8-19.1,14.7-29.6,32-38.9l0.5-0.3c1-0.5,1.3-1.7,0.8-2.7s-1.7-1.3-2.7-0.8l-0.5,0.3c-1.3,0.7-2.6,1.4-3.9,2.1
		c-2.1-1.1-4.1-2.2-5.9-3c-6-2.6-13.1,0.5-14.9,6.8c0,0,0,0.1,0,0.1c-0.8,3-0.4,6,1.2,9.1c-1.1,0.9-2.1,1.9-3,2.9
		c-2.6-4.3-3.2-8.7-2-13c0.9-3.3,2.9-6.6,5.9-9.6c0.1,0,0.1-0.1,0.1-0.1c3.7-3.8,8.9-7.2,15.2-9.9c1-0.4,1.5-1.6,1-2.6
		s-1.6-1.5-2.6-1c-5.7,2.5-10.5,5.5-14.4,8.9c-1.2-3.7-0.9-8.4,1-12.8c2.3-5.2,8.8-14.5,27-18c24.5-4.8,46.6,2.2,60.5,19.2
		c7.6,9.3,11,22.3,8.9,34.7c-1.5,9.1-5.8,16.6-11.4,20.1c-5.9,3.6-15.6,8.8-15.7,8.8c-0.7,0.4-1.1,1.1-1.1,1.9
		c0.4,6.5-1.2,12.2-4.4,15.5c-2.2,2.3-5,3.5-8.5,3.5c-9.8,0-14.5-7-14.8-14.1l3-7.2c-0.1,3.1,0,5.8,0.4,7.4c0.5,2.2,1.2,4.3,2.5,6
		c1.9,2.5,5.7,2,6.9-0.9l4.9-11.9c3.1-1,6.3-2.2,9.1-3.7c1-0.5,10.3-5,15.4-8.7c2.9-2.1,5.9-5.5,7.5-10c0.1-0.4,0.2-0.7,0.4-1.1
		c1-3.2-2.1-6.2-5.3-5c-9.2,3.7-21.9,1.6-29.6,0.2c-7.2-1.3-20.5-4.7-26.9-6.4c-2-0.5-4.1-0.2-5.9,0.7c-17.6,9.2-29.7,18-27.3,31.4
		c0.6,3.4,3.4,7.8,6.4,9.5c4.4,2.6,9.6,2.8,11.1,2.8c0.8,0,1.2,0,1.4-0.1c0.8-0.1,1.4-0.1,2,0l-1.7,4
		C187.2,386,180.5,385.9,174.8,382.6z M214.4,362.9c-0.9,0-1.6,0-2,0.1c-1.6,0.2-5.9,1.4-10.8,3c-3.6,1.1-7.5,2.5-11.2,3.8
		c-0.2,0.1-0.5,0.1-0.7,0.1c-0.8,0-1.6-0.5-1.9-1.3c-0.4-1,0.2-2.2,1.2-2.6c7.4-2.7,19.8-6.7,22.8-7c0.5,0,1.1-0.1,2-0.1
		c4.5-0.1,14.9-0.5,23.9-5.2c1-0.5,2.2-0.1,2.7,0.8s0.1,2.2-0.8,2.7c-6.8,3.7-14.3,4.9-19.9,5.4
		C217.6,362.8,215.8,362.8,214.4,362.9z M200,370.8c1.3-0.4,2.6-0.9,3.8-1.2l-0.6,1.6l-12.1,29.3c-0.7,1.6,0.9,3.2,2.5,2.6
		c1-0.4,1.9-0.7,2.9-1c1.1-0.4,1.9-1.2,2.4-2.2l13.5-32.7c0.2,0,0.3-0.1,0.5-0.1c0.3,0,1,0,1.8-0.1c0.3,0,0.7,0,1.1,0L145,538.6
		l-2.8-1.1l1.3-3.1c0.4-1-0.1-2.2-1.1-2.6l-2.8-1.1c-1-0.4-2.2,0.1-2.6,1.1l-1.3,3.1l-2.8-1.1L200,370.8z M123.6,540.6
		c0.6-1.5,1.8-2.6,3.2-3.2c1.5-0.6,3.1-0.6,4.6,0l12,5c1.5,0.6,2.6,1.8,3.2,3.2c0.6,1.5,0.6,3.1,0,4.6l-5.4,13l-3.5-2.1l0.3-0.8
		c0.8-1.8,0.1-3.9-1.6-4.9l-3.9-2.4c-1.6-1-3.4-1.5-5.2-1.5h-1.4c-1.6,0-3.1,1-3.7,2.5l-1,2.5h-4.3L123.6,540.6z M89.6,573
		c0.5-1.2,1.3-2.2,2.4-2.8l14.7-8.9c0.9-0.6,2-0.9,3.1-0.9h17.7c1.1,0,2.2,0.3,3.1,0.9l14.7,8.9c1.1,0.7,1.9,1.6,2.4,2.8l1.3,3.1
		h-4.3l-0.6-1.5c-0.2-0.4-0.4-0.7-0.8-0.9l-10.5-6.4c-1.2-0.8-2.7-1.2-4.1-1.2h-20c-1.5,0-2.9,0.4-4.2,1.2l-10.5,6.4
		c-0.4,0.2-0.7,0.5-0.8,0.9l-0.6,1.5h-4.3L89.6,573z M77.8,580.3c0.4-0.1,0.9-0.2,1.4-0.2h6.1c0,0,0,0,0,0h66.8c0,0,0,0,0,0h0h6.1
		c0.5,0,0.9,0,1.4,0.2c14.9,3.4,27.5,7,38.3,10.8h-13c-7.8-2.3-16.5-4.6-26.2-6.9c-0.2,0-0.3,0-0.5,0H95.6c-1.9,0-2.7,2.4-1.2,3.6
		l4.3,3.3H39.5C50.3,587.2,63,583.7,77.8,580.3z M167,596.7l-1.1,23.9c0,0.7-0.2,1.4-0.5,2.1l-0.7,1.7c-0.6,1.4-0.6,3-0.1,4.4H22
		c-0.7,0-1.3-0.3-1.7-0.9c-0.4-0.6-0.4-1.3-0.2-1.9l0.7-1.7c0.5-1.1,0.8-2.3,0.8-3.5l1-20c0.1-3.2,2.8-5.7,6-5.7h0h0h138.7
		C167.2,595.6,167.1,596.1,167,596.7z M217.1,627.8c-0.4,0.6-1,0.9-1.7,0.9h-45.2c-0.7,0-1.3-0.3-1.7-0.9s-0.4-1.3-0.2-1.9l0.7-1.7
		c0.5-1.1,0.8-2.3,0.8-3.5l1.1-23.9c0.1-1.1,0.9-1.9,2-1.9h35.7h0c0,0,0,0,0,0c3.2,0,5.8,2.5,6,5.7l0.9,20c0.1,1.2,0.3,2.4,0.8,3.5
		l0.7,1.7C217.5,626.5,217.4,627.2,217.1,627.8z M220.3,611.8l-0.5-11.3c-0.3-5.7-4.7-10.1-10.3-10.5c-13-5.3-28.9-10.1-48.7-14.7
		c-0.8-0.2-1.7-0.3-2.5-0.3h-4.1l-1.6-4c-0.9-2.2-2.5-4-4.5-5.2l-1.9-1.2l5.1-12.5c0.9-2.3,1.2-4.8,0.6-7.2
		c-0.4-1.6-1.2-3.1-2.3-4.4l62.9-152.9c3.3,6.4,9.6,10.1,17.4,10.1c4.8,0,9-1.7,12.1-5c3.7-4,5.8-10.2,5.8-17.3
		c3.1-1.7,9.8-5.3,14.3-8.1c6.8-4.2,12-13,13.8-23.5c0.5-2.9,0.7-6,0.7-9c1-1.5,1.9-3.4,2.7-5.4c8.3-0.9,16.6-2.1,24.5-3.5
		c-0.2,3-0.3,6-0.5,9.1c-1.1,18.8-2.2,38.3-2,57.9c0.1,13.2,0.9,24.9,2.4,35.6c1.8,13.1,4.6,24.8,8.5,35.8
		c4.4,12.2,10.4,23.4,17.9,33.4c0.1,0.2,0.3,0.4,0.4,0.6c0.3,0.5,0.7,0.9,1,1.4l4.5,5.4c0.7,0.8,1.5,1.6,2.2,2.4
		c0.4,0.4,0.7,0.7,1.1,1.2c0.4,0.4,0.7,0.8,1.1,1.2c0.7,0.8,1.4,1.5,2.3,2.3l3.5,3.2c0.3,0.3,0.6,0.6,1,0.9c0.2,0.2,0.4,0.3,0.5,0.5
		l-1.1,9.8c-16.1-14.1-33.2-20.1-44.8-22.8c-9.7-2.2-19.8-3-29.3-2.4c-7.3,0.5-14.1,1.9-18.7,3.9c-15.2-1.9-28.4,1-37.1,8.2
		c-5.7,4.7-9,11-9.3,17.6c-0.2,4.3,1.1,8.5,4.1,12.5c-0.3,14.8,11.1,24.3,22.1,28.3c19.4,18.2,40.7,32.2,60.7,42.2
		C271.6,612.7,246.7,612,220.3,611.8z M370.1,626.8c-1.3,0.7-3.1,1.3-5.4,1.5c-11.9,1.5-32.8-3.4-54.8-12.7
		c-18.9-8-46.9-22.9-73.5-48c-0.2-0.2-0.4-0.3-0.7-0.4c-8.6-3-17.4-9.6-19.1-19.7c1.7,1.4,3.5,2.7,5.4,3.7c2.2,4.8,6.9,9.4,15,12.3
		c0.8,0.3,1.5,0.7,2.1,1.3c26.2,24.8,53.8,39.4,72.3,47.2c18.6,7.9,36.8,12.7,48.6,12.7c1.5,0,2.9,0,4.1-0.2
		c2.1-0.4,5.3-2.2,6.6-0.2C371.4,625.2,371,626.3,370.1,626.8z M426.1,547.7c-4.4-0.7-8.7-1.7-12.9-2.8l1.7-3.7
		c3.9,1,7.9,1.8,11.9,2.5c7.1,1.2,14.5,2,22,2.3c0.3,1.4,0.6,2.7,1,4.1C441.6,549.8,433.7,549,426.1,547.7z M429,529.9
		c5.5,0.9,11.2,1.4,16.9,1.7c0.2,1.3,0.5,2.7,0.7,4c-6.2-0.3-12.3-0.9-18.2-1.8c-3.1-0.5-6.3-1.1-9.4-1.8l1.7-3.7
		C423.5,528.9,426.2,529.5,429,529.9z M423.9,523.9l17-37c0.4,13.9,1.4,27.2,3.2,39.6c-5-0.3-9.8-0.8-14.4-1.5
		C428,524.7,426.1,524.3,423.9,523.9z M454.3,551.9c0-0.2-0.1-0.4-0.1-0.5c-3.9-14.7-6.5-31.7-7.6-50.3c1.7,4.9,3.7,9.6,6.2,14.2
		c1.3,12.4,3.4,23.8,6,34c0.5,2,3.4,2,3.9,0c1.5-6,3.8-10.7,5.6-13.3c1,1,1.9,1.9,2.9,2.8c-3,4.9-7.9,17.2-5.6,31
		c0.9,2.2,1.9,4.2,2.9,6.2c-0.7,2.3-1.3,4.7-1.9,7C461.6,574.5,457.5,564,454.3,551.9z M597.6,628.7h-79c-5.3-12.7-1.2-23,4.6-28.5
		c0.8-0.8,0.8-2,0.1-2.8s-2-0.8-2.8-0.1c-1.1,1-2.1,2.2-3,3.4c-7.2,0.7-15.3,8.4-15.1,20c0,2.2,1.8,4,4,4h6.7c0.3,1.3,0.7,2.6,1.2,4
		h-27.8c-3.5-11.6,2.1-23.4,8-27c0.9-0.6,1.2-1.8,0.7-2.8c-0.6-0.9-1.8-1.2-2.8-0.7c-1.4,0.9-2.8,2.1-4.1,3.7
		c-7,0.5-15.2,9-15.8,18.6c-0.1,2.3,1.7,4.2,4,4.2h5.1c0.1,1.3,0.4,2.7,0.7,4h-22.9c-0.6,0-1.1-0.2-1.5-0.7s-0.6-1-0.5-1.5
		c1.7-17.2,13.8-31,24.3-35.2c1-0.4,1.5-1.6,1.1-2.6c-0.4-1-1.6-1.5-2.6-1.1c-4,1.6-8.2,4.5-12,8.2c0.4-3.1,0.8-6.3,1.5-9.4
		c2.5-12.1,7.1-23.8,13.6-34.7c0.9-1.5,1.7-2.5,3.2-1.8c1.5,0.8,1.2,2.1,0.4,3.5l0,0c-5.4,9-9.5,18.6-12.1,28.5
		c-0.4,1.6,1.2,3,2.7,2.3c0.4-0.2,0.8-0.3,1.1-0.5c0.7-0.3,1.5-0.4,2.2-0.4c1.8,0,4.3,0.7,5.4,2.9c0.8,1.6,2.6,2.4,4.3,2
		c11.6-2.4,27.8-2.1,40.6-0.5c1.8,0.2,3.5-0.8,4.2-2.5c0.2-0.5,0.5-1.1,0.9-1.7c1.1-1.5,2.9-2.3,4.8-2.3l0,0c0.3,0,0.7,0,1,0.1
		c1.8,0.3,3.5,0.7,5.1,1.1c1.6,0.4,3-1.3,2.3-2.8c-1.8-3.8-3.1-7.8-4.1-11.8c-0.5-1.9-2.1-3.2-4.1-3.1c-18.6,0.9-35.6-2-47.1-6.9
		c-1-0.4-1.4-1.5-1-2.5l0,0c0.4-1,1.5-1.5,2.6-1.1c0.3,0.1,0.6,0.2,0.9,0.3c0.7,0.3,1.5,0.5,2.2,0.8c0.5,0.2,1.1,0.4,1.6,0.5
		c0.8,0.2,1.5,0.5,2.3,0.7c0.5,0.1,1,0.3,1.5,0.4c0.8,0.2,1.7,0.4,2.5,0.6c0.5,0.1,0.9,0.2,1.4,0.3c0.9,0.2,1.8,0.4,2.6,0.5
		c0.2,0,0.4,0.1,0.6,0.1c0,0,0,0,0,0c3.4,0.6,6.9,1,10.4,1.1c0,0,0,0,0.1,0c1.1,0,2-0.8,2-1.9c0-1.1-0.8-2-1.9-2.1
		c-13-0.4-25.4-4.3-36.5-11.1c0,0,0,0-0.1-0.1c-0.1,0-0.1-0.1-0.2-0.1c-6.6-4.1-12.8-9.4-18.2-15.6c-14-16-21.7-36.9-21.3-57.5
		c0,0,0-0.1,0-0.1c0-0.1,0-0.1,0-0.2c0,0,0-0.1,0-0.2c0-0.1,0-0.2-0.1-0.2c0,0,0-0.1,0-0.1c0-0.1-0.1-0.2-0.1-0.2c0,0,0-0.1-0.1-0.1
		c-0.1-0.1-0.1-0.2-0.2-0.2c0,0,0,0,0,0l0,0c-0.1-0.1-0.2-0.2-0.3-0.2c0,0,0,0,0,0c-0.1-0.1-0.2-0.1-0.3-0.2c0,0-0.1,0-0.1,0
		c-0.1,0-0.2-0.1-0.3-0.1c-0.1,0-0.1,0-0.2,0c-0.1,0-0.1,0-0.2,0c0,0,0,0,0,0c-8.6-0.1-17.2-1.1-25.6-3c-1.1-0.2-2.1,0.4-2.4,1.5
		c-0.2,1.1,0.4,2.1,1.5,2.4c1.4,0.3,2.7,0.6,4.1,0.8c0.1,0,0.2,0,0.3,0.1c1.1,0.2,1.8,1.2,1.6,2.3c0,0,0,0,0,0
		c-0.2,1-1.2,1.8-2.3,1.6c-1.5-0.3-3-0.8-4.6-0.9c-32.3-3.1-55.4,22.4-61.1,53.9c-0.4,2.3,0.3,3,0.7,3.4c4.1,4.4,8.1,9.3,11.9,14.9
		c1.7,2.5,1.5,6-0.8,8.1c-1.1,1-2.5,1.5-4,1.5c-2,0-3.9-1-5-2.7c0,0,0-0.1-0.1-0.1c-4.6-6.8-10.8-12.4-17.9-16.5
		c-34.7-19.7-85.7-20.5-94.9-7.5c-0.4,1.3-0.5,2.7-0.4,4c0.3,3.1,1.9,5.8,5.2,8.1c2.6,1.8,20.4,6.4,21,6.6c31,10,56.6,26.7,72.6,39
		c12,9.2,22.6,19,29,26.7l59.8-130.1c1.4-2.8,2.1-2.8,3.1-2.5c1.4,0.4,1.5,1.8,0.4,4.5l-18.3,39.8c0,0,0,0,0,0l-9.2,20
		c-0.1,0.1-0.1,0.2-0.1,0.3l-33.4,72.6c-0.6,1.4-2.5,1.6-3.4,0.4c-12-15.6-51.6-50.3-100.4-66.4c-0.1,0-0.3-0.1-0.5-0.2
		c-10.3-3.6-17.8-4.2-22.9-7.4c0,0-0.1-0.1-0.1-0.1c-1.9-1.4-3.5-3-4.6-4.6c-0.6-1.1-1.2-2.3-1.7-3.7c-0.2-0.8-0.4-1.7-0.5-2.6
		c-0.4-4.5,1.4-9.3,4.8-12.9c0.8-0.8,0.7-2.1-0.1-2.8s-2.1-0.7-2.8,0.1c-1,1-1.8,2.1-2.6,3.3c-19.4-4.6-24.5,8.7-22,16.6
		c2.8,4,7.7,7,10.9,7.8c1.6,0.4,3.2,1.2,2.8,2.8c-0.4,1.3-1.8,1.5-3.7,1.1c0,0,0,0-0.1,0c-5.9-1.4-16.6-9-16.1-18.3
		c0.3-5.3,3-10.2,7.5-14c7.8-6.4,19.9-8.9,34.1-7c0.4,0,0.8,0,1.1-0.2c6.8-3.2,24.5-6.3,45.5-1.5c17.4,3.9,42.1,14.5,61,42.7
		c0.6,0.9,1.9,1.2,2.8,0.5s1.2-1.9,0.5-2.8c-4.4-6.6-9.1-12.2-14-17l1.9-16.2v0l9-77.1c0.1-0.6-0.2-1.3-0.6-1.7
		c-25.9-23.6-40.8-57.3-40.8-92.4c0-12.7,1.9-25.1,5.6-37.1c6.4-20.6,21.7-54.8,38.3-91.2c1.3,0.4,2.6,0.8,3.9,1.1
		c-3.4,7.5-6.8,15-10.1,22.2c-1,2.2,0.1,4.7,2.4,5.4c8,2.6,16.1,4.6,24.4,5.9l1.5,4.8c0.2,0.8,0.9,1.3,1.7,1.4c0.8,0.1,1.5-0.3,2-1
		l2.5-4.2c5.4,0.6,10.8,0.9,16.3,0.9c4.9,0,9.8-0.3,14.6-0.7l2.6,5c0.4,0.7,1,1.1,1.8,1.1c0,0,0.1,0,0.1,0c0.8-0.1,1.5-0.6,1.8-1.3
		l2-5.7c11.9-1.8,24.2-5.2,35.2-9.7c0.9-0.4,1.4-1.4,1.1-2.4c-0.1-0.6-0.2-1.2-0.2-1.8c0.1-2.2,1.3-4.1,3.4-5.2
		c0.8-0.4,1.8-0.6,2.7-0.6l0,0c1.7,0,3.3,0.7,4.4,2c0.2,0.2,0.5,0.5,0.7,0.8c0.6,0.6,1.6,0.8,2.4,0.4c4.9-2.6,9.7-5.6,14.4-8.8
		c11-7.5,20.8-16.4,29.4-26.2c2.1-2.4,0.7-6.1-2.4-6.6c-5.4-0.9-11.1-1.6-17.2-2.3c-0.7-0.1-1.4-0.3-2-0.6c-0.3,0.3-0.7,0.5-1,0.8
		c1.7-1.3,3.3-2.6,5-4c25.4,2.9,46.1,8.2,49.3,9c15.9,14,35.9,46.4,46.1,65.9c-1.4-0.1-2.8-0.1-4.2,0c-0.1,0-0.2,0-0.3,0
		c0,0,0,0,0,0c-0.6-1.1-1.7-1.9-3-2c-1.5-0.1-3.1-0.2-4.7,0c-8.7,0.7-17.2,5.1-22.8,12c-0.9,1.1-1.7,2.2-2.4,3.4
		c-16-2.2-31.1-6.1-45.1-11.8c-2.3-0.9-3.9,2.2-1.8,3.5c14,8.9,29.2,16.3,45.3,22c0.1,0,0.1,0.1,0.2,0.1c1.5,0.5,3,1.1,4.6,1.6
		c-0.2,1.4-0.2,2.8-0.2,4.1c-36.4-11.8-68.6-32-93.1-58.6c-0.8-0.8-2-0.9-2.8-0.1s-0.9,2-0.1,2.8c4.7,5.1,9.8,10,15,14.6
		c-5.3,1-11.8,1.1-16.4,0.7c-1.1-0.1-2.1,0.7-2.2,1.8c-0.1,1.1,0.7,2.1,1.8,2.2c1.7,0.1,3.7,0.2,5.8,0.2c1,0,2.1,0,3.2-0.1
		c16.5,28.5,46.4,48.7,73.8,61c0,3.9,0.9,7.8,2.9,11.4c-0.5,2.9-0.8,5.8-1,8.7c-0.5,6-1,11.6-3.9,17.4c-1.8,3.6-4.7,6.2-7.5,8.8
		c-4.2,3.8-8.6,7.7-8.9,14.7c-0.2,4.9,2.2,9.5,6.4,12.3c1,0.6,2,1.2,3.1,1.6c-25.2,25.5-60.1,41.3-98.6,41.3
		c-41.5,0-78.8-18.4-104.3-47.5c-3-3.4-8.5,0.1-6.6,4.3c18.5,42.5,60.1,72.3,108.8,73.1c0,0,0,0,0,0c0,0,0,0,0,0
		c1.7-0.1,3.4,0.7,4.5,1.9c1.1,1.1,1.7,2.7,1.7,4.3c0,0.1,0,0.2,0,0.3c-0.4,19.8,10.5,42.3,28.1,51.4c23.7,12.3,58.7,9.2,77.3-14.7
		c1.7-2.2,0.7-5.4-2-6.3c-5.7-1.9-10.9-4.6-15.5-8.3c-4.1-3.2-7.2-6.7-9.7-10.1c-9-12.3-12.3-28-8.8-41.9c0.1-0.3,0.2-0.6,0.3-0.8
		c0-0.1,0.1-0.2,0.2-0.4c0.1-0.1,0.1-0.2,0.2-0.4c0.1-0.2,0.2-0.3,0.3-0.5c0-0.1,0.1-0.1,0.1-0.2c0.1-0.2,0.3-0.4,0.4-0.5
		c0,0,0-0.1,0-0.1c21.7-17.3,37.4-42,43.4-70.4c-0.1,0.2-0.2,0.3-0.3,0.5c0.3-1.7,0.7-3.3,0.9-5l0,0c1.2,0.5,2.6,0.7,3.9,0.9
		c-0.7,4-1.5,8-2.6,12c0,0,0,0,0,0c-5.6,20.9-16.6,40-32,55.4c0,0,0,0,0,0c-3.3,3.3-6.7,6.4-10.3,9.3c-0.3,0.3-0.6,0.7-0.7,1.1
		c-3.1,12.8-0.1,27.2,8.2,38.6c8.3,11.4,20.8,18.2,35.2,19.3c16.1,1.2,30.2,8.8,39.8,21.4c12,16,16,38.9,11,62.8
		C614.1,600.4,607.3,615.5,597.6,628.7L597.6,628.7L597.6,628.7z M539.3,484.5c-1.7-1.7-3.3-3.5-4.7-5.5c-0.2-0.3-0.4-0.6-0.6-0.9
		c-0.7-10.8-2.2-24.1-5.6-35c1.4-1.2,2.8-2.4,4.1-3.6C537.3,453.7,538.8,472.2,539.3,484.5z M543.5,488.1L543.5,488.1L543.5,488.1
		C543.5,488.1,543.5,488.1,543.5,488.1z M620.2,628.7h-17.6c0.9-1.3,1.8-2.7,2.6-4h14.9c15.8,0,29.5-3.7,41.5-11.5
		c1.5-1,1-3.3-0.7-3.6c-1.5-0.3-3.1-0.7-4.8-1.5c-7.3-3.2-12.3-11-12.3-19.7c0-3,0.6-5.9,1.7-8.5c0.9-2.1-0.1-4.5-2.2-5.3
		c-0.7-0.3-1.4-0.5-1.7-0.7c-5.6-2.2-11.4-4.3-18.2-5.7l0,0c0.3-7.8-0.4-15.4-2-22.6c7.9,2.7,14.3,6.1,21.1,9.8
		c11.7,6.3,23.8,12.8,44.5,15.7c3.2,0.5,5.9,2.4,7.2,5.3c1.3,2.8,1.1,5.9-0.5,8.5C674.9,614.8,651.6,628.7,620.2,628.7z
		 M667.2,619.3c0.8-0.5,1.6-1.1,2.4-1.7c2.5,4.2,6.7,9.2,10.9,10.7c0,0,0,0,0,0C675.2,627.3,670.3,624,667.2,619.3z M692.7,628.7
		c-8.1,0-15-6.7-16.9-16.1c0.9-0.8,1.8-1.6,2.6-2.4l0.2,1.1c1.3,8.4,7.2,14.4,14.1,14.4c7.9,0,14.3-8,14.3-17.9
		c0-8.7-5.2-16.3-12-17.7c0.6-0.9,1.2-1.8,1.7-2.7c7.7,2.2,13.3,10.7,13.3,20.3C710.1,619.3,702.3,628.7,692.7,628.7z M709.5,592.4
		l0.5-10c0-0.8-0.6-1.5-1.4-1.6c-0.8,0-1.5,0.6-1.6,1.4l-0.3,6.7c-1.2-1.2-2.5-2.2-3.9-3.1l0.2-3.8c0.1-3,2.5-5.2,5.5-5.2l0,0
		c0.1,0,0.2,0,0.3,0c1.5,0.1,2.8,0.7,3.8,1.8c1,1.1,1.5,2.5,1.4,4l-0.5,11.4c-0.1,1.3-0.6,2.5-1.4,3.4
		C711.4,595.5,710.5,593.9,709.5,592.4z M713.2,600.7h45.1l5.5-8.8c-0.2-4.1,0-15.5-1-17c-0.2-1.1-1.2-1.8-2.3-1.7
		c-0.2,0-16.8,2.5-21.6,2.5c-4.8,0-30.1-3.2-30.3-3.2c-0.1,0-0.2,0-0.2,0h-11.9c-1-1.4-2.3-2.5-3.7-3.4c0.8-0.4,1.7-0.6,2.7-0.6h5.4
		c1.5,0,2.9-1.3,2.9-2.8v0l4-91.2c0.1-3,2.6-5.2,5.5-5.2l0,0h0.1h0h0h0c3,0.1,5.4,2.7,5.2,5.7l-0.3,7.2c-0.1,2.3,1.7,4.1,4,4.2
		c3.4,0,6.7,0.1,10,0.1l-0.3,26.4c0,0.5,0.2,1,0.5,1.4c2.7,2.8,8.7,5.2,14.6,5.9c1.1,0.1,2.2,0.2,3.3,0.2c6.3,0,12-2.1,16.1-6l0,0
		c0,0,0,0,0,0c0.1-0.1,0.2-0.2,0.2-0.3c0,0,0-0.1,0.1-0.1c0-0.1,0.1-0.2,0.1-0.3c0,0,0-0.1,0-0.1c0-0.2,0.1-0.3,0.1-0.5c0,0,0,0,0,0
		l0.1-5.5c1.6-0.9,3-1.9,4.3-3.1l0,0c0,0,0,0,0,0c0.1-0.1,0.2-0.2,0.2-0.3c0,0,0-0.1,0.1-0.1c0-0.1,0.1-0.2,0.1-0.3c0,0,0-0.1,0-0.1
		c0-0.1,0.1-0.3,0.1-0.5c0,0,0,0,0,0l0.3-15.4c2.1,0.1,4,0.2,5.6,0.3c0,0,0.1,0,0.2,0c0.8,0,1.5-0.4,1.8-1.1l0,0l0,0
		c0,0,0-0.1,0-0.1c4.9-12,7.2-17.9,7.2-18.6c0.1-1.1-0.7-2.1-1.8-2.1c-3.2-0.2-7.4-0.5-12.5-0.6l0.3-14.6c0-1.6-0.6-3.1-1.7-4.3
		c-1.1-1.2-2.7-1.8-4.3-1.8H752c-3.2,0-5.9,2.6-6,5.9l0,1.6c-0.1,4.2-0.8,8.5-1.8,12.5c-40.3-0.6-91.8-0.2-101.8-0.2
		c-1.5,0-3,0.6-4.1,1.7L626,477.8c-0.3,0.3-0.8,0.5-1.3,0.6c-4.7,0.3-24.6,1.2-81.7,1.2c-0.1-1.3-0.2-2.6-0.3-4
		c53.7,0,75.1-0.8,80.9-1.1l11.7-11.4c1.9-1.8,4.3-2.8,6.9-2.8c6.7,0,24.5-0.2,46.1-0.2c5.4,0,10.6,0,15.7,0c2.3,0,4.1-1.9,4-4.2
		c-0.3-5.8-1.2-16.5-1.7-22.4c-0.2-2.3,1.6-4.3,3.9-4.3c25.8-0.4,54.4,2.3,58.5,2.4c4.7,0.1,3.9-4.9,9.1-4.2
		c1.8,0.3,3.6,0.6,5.3,0.9c1.1,0.2,2.1-0.5,2.3-1.6s-0.5-2.1-1.6-2.3c-58.8-10.7-157.3-2.7-162.8-1.8c-7.1,1.1-10.2,6.1-11.3,8.2
		l-0.1,0.2c-1.6,3.3-4.1,8.3-7.2,10.3c-2.5,1.6-15.3,4.8-33.4,4.8c-14.6,0-24.8-3.1-26.8-4.7c-1.8-1.4-3.3-4.5-4.5-7.1
		c1-1,2-2.1,3-3.2c0,0,0,0,0,0c0.1,0.1,0.2,0.3,0.2,0.4c2,4.8,3.2,6.3,3.8,6.7c1.3,0.9,10.2,3.8,24.3,3.8c18.5,0,29.7-3.2,31.2-4.2
		c2.1-1.4,4.5-6.2,5.8-8.7l0.1-0.2c1.3-2.6,5.3-9,14.2-10.4c3.2-0.5,38.1-3.5,79-3.8c2.5,0,4.4-2.3,3.9-4.8
		c-1.1-5.5-2.3-11-3.6-16.2c-0.4-1.7-1.9-2.9-3.6-3c-14.8-0.8-30.7-1.3-47.2-1.3c-28.3,0-55.4,1.3-78.5,3.7c-0.2,0-2.7,0.3-6,0.6
		c2-4.7,3.7-9.6,5.1-14.6c67.5-7.1,171-4.3,211.1,10.1c8.9,21.2,11.7,53.7,12.3,77.6l-9.6,21.1c-0.1,0.3-0.2,0.6-0.2,0.9
		c0,0.3,0.6,33.4,0.5,46.9c-3.6,3.2-17.9,18.4-16.1,55.6c0,0.2,0,0.4,0,0.6c0,0.3,0,0.5,0,0.8l-7.3,11.8h-46.7
		C713.8,603.4,713.5,602,713.2,600.7z M746,504.4c0,0,0.1,0.1,0.2,0.1c-2.2-0.8-4-1.7-5.1-2.6l0.3-17.4c0.6-1.3,2.4-5.2,4.2-10.5
		l-0.5,28.7C745.1,503.4,745.4,504,746,504.4z M749.1,501.6l0.9-49.7c0-0.5,0-0.9,0-1.4v-0.2c0-1.1,0.9-2,2-2h15.1
		c0.5,0,1,0.2,1.4,0.6s0.6,0.9,0.6,1.4l-0.9,51.1C761.4,505,755.2,505,749.1,501.6z M714.5,613.5c0.2-1.2,0.4-2.5,0.5-3.7h37.6
		c0.6,2.2,1.3,4.3,2.1,6.2C742.5,615,729,614.1,714.5,613.5z M774.1,628.7c-6.7,0-13-7.8-16.6-20h3.2c3.4,10.9,8.5,15.2,11.7,17
		c1.1,0.6,4.9,2,7.7,3H774.1z M791.1,628.7c-9.9,0-18.3-16.6-19.4-37.2c0-0.1,0-0.2,0-0.3c-0.1-1.3-0.1-2.7-0.1-4
		c0-22.5,8.9-41.5,19.5-41.5s19.5,19,19.5,41.5S801.7,628.7,791.1,628.7z"/>
</g>
</svg>
