<?xml version="1.0" encoding="utf-8"?>
<!-- Generator: Adobe Illustrator 24.2.3, SVG Export Plug-In . SVG Version: 6.00 Build 0)  -->
<svg version="1.1" id="layer" xmlns="http://www.w3.org/2000/svg" xmlns:xlink="http://www.w3.org/1999/xlink" x="0px" y="0px"
	 viewBox="0 0 416 416" style="enable-background:new 0 0 416 416;" xml:space="preserve">
<style type="text/css">
	.st0{fill:#EBEFF0;}
	.st1{fill:#0D1824;}
</style>
<path class="st0" d="M413.29,170.29c1.82-18.74,0.12-35.09-5.03-48.58l-0.62-1.62l0.76-1.56c2.16-4.41,6.98-16.49,5.21-33.35
	c-2.07-19.66-12.25-38.16-30.28-55c-9.65-9.01-20.33-16.04-31.74-20.9C340.27,4.44,328.79,2,317.46,2c-5.12,0-10.18,0.51-15.05,1.53
	c-14.56,3.04-26.39,10.42-32.48,20.26l-1.14,1.85l-2.17,0.05c-6.71,0.15-13.66,0.96-20.66,2.41c-45.66,9.47-72.23,40.66-93.55,69.15
	c-6.98,9.33-16.8,23.98-21.44,43.43l-0.02,0.1c-6.93,26.07-7.22,50.07-7.43,67.6l-0.01,0.72l-0.26,0.67
	c-16.16,41.85-47.67,83.6-70.45,103.2c-2.89,2.49-5.77,4.92-8.57,7.27l-0.22,0.19C22.21,338.74,3.4,354.56,2.07,380.3
	c-0.8,15.43,5.48,24.25,10.9,28.92c3.57,3.08,8.17,4.78,12.98,4.78h56.47c5.88,0,11.73-1.46,16.92-4.22
	c10.47-5.57,30.34-18.79,45.71-44.73c7.78-13.13,13.97-26.9,19.97-40.21c3.97-8.82,8.07-17.94,12.5-26.28l4.06-7.66l3.19,8.06
	c1.82,4.6,4.21,8.84,7.09,12.6c10.19,13.32,26.32,20.77,45.42,20.99h0.74c9.15,0,18.68-1.91,28.32-5.69l2.77-1.09l1.83,2.35
	c7.58,9.7,18.82,15.81,31.64,17.19c1.98,0.21,4.02,0.32,6.04,0.32c20.3,0,41.49-10.49,58.14-28.78
	c18.43-20.25,28.72-48.7,26.84-74.27c-0.43-5.89-1.52-11.38-3.23-16.33l-0.75-2.17l1.5-1.74
	C403.56,207.83,411.45,189.35,413.29,170.29z"/>
<path class="st1" d="M395.58,242.43c-0.45-6.06-1.57-11.72-3.34-16.83l-0.38-1.09l0.75-0.87c12.73-14.82,20.78-33.7,22.67-53.16
	c1.85-19.05,0.11-35.71-5.15-49.49l-0.31-0.81l0.38-0.78c2.23-4.57,7.23-17.07,5.4-34.44c-2.12-20.15-12.52-39.08-30.9-56.25
	c-9.82-9.17-20.69-16.33-32.32-21.28C340.81,2.5,329.06,0,317.46,0C312.2,0,307,0.53,302,1.57c-15.09,3.15-27.4,10.86-33.77,21.17
	l-0.57,0.92l-1.09,0.02c-6.83,0.15-13.91,0.97-21.03,2.45c-46.35,9.61-73.21,41.13-94.74,69.91c-7.09,9.47-17.05,24.35-21.79,44.16
	c-7.01,26.36-7.3,50.51-7.51,68.14v0.36l-0.13,0.34c-16.04,41.55-47.3,82.96-69.89,102.41c-2.88,2.48-5.76,4.91-8.55,7.25
	l-0.22,0.19c-22.14,18.62-41.25,34.7-42.63,61.31c-0.84,16.24,5.84,25.57,11.59,30.54c3.93,3.39,9,5.26,14.28,5.26h56.47
	c6.2,0,12.38-1.54,17.86-4.46c10.66-5.67,30.87-19.12,46.49-45.48c7.84-13.22,14.06-27.04,20.07-40.41
	c3.95-8.79,8.04-17.88,12.44-26.17l2.03-3.83l1.6,4.03c1.89,4.77,4.37,9.17,7.36,13.08c10.57,13.82,27.26,21.55,46.99,21.77h0.76
	c9.4,0,19.17-1.96,29.04-5.82l1.39-0.54l0.92,1.17c7.92,10.13,19.64,16.5,33,17.94c2.06,0.22,4.16,0.33,6.26,0.33
	c20.86,0,42.59-10.73,59.62-29.43C387.02,297.56,397.5,268.53,395.58,242.43z M405.33,169.52c-1.47,15.13-7.44,30.42-16.46,42.77
	c-1.5,2.05-4.51,2.17-6.19,0.26c-0.02-0.02-0.04-0.04-0.05-0.06c-1.22-1.39-1.3-3.44-0.21-4.93c8.19-11.19,13.62-25.05,14.95-38.8
	c2.49-25.69-2.67-46.21-14.53-57.77c-6.06-5.91-13.63-9.37-22.55-10.35c-1.3-0.14-2.43-0.95-3.02-2.11l-0.04-0.08
	c-1.45-2.8,0.81-6.1,3.95-5.76c10.65,1.18,19.91,5.42,27.25,12.57C402.06,118.53,408.06,141.36,405.33,169.52z M304.04,11.36
	c24.29-5.07,51.89,4.15,73.83,24.65C394.45,51.5,403.8,68.32,405.66,86c0.66,6.25,0.27,11.75-0.51,16.28
	c-0.57,3.3-4.81,4.44-6.92,1.85c-0.02-0.03-0.04-0.05-0.06-0.08c-0.74-0.91-1.08-2.07-0.88-3.22c0.39-2.26,0.66-4.79,0.71-7.56
	c-0.1-4.64-0.57-8.94-1.39-13c-2.18-9.5-6.9-18.76-14.12-27.69c-14.42-16.22-41.55-23.69-65.63-12.45
	c-11.2-7.88-24.3-12.62-38.8-14.02C283.24,19.12,292.53,13.76,304.04,11.36z M237.9,324.54c-0.18,0-0.37,0-0.55,0
	c-16.83-0.19-30.37-6.36-39.16-17.84c-9.12-11.92-11.88-28.29-7.57-44.93c0.47-1.81-0.36-3.78-2.04-4.61
	c-2.36-1.17-5.06,0.15-5.69,2.56c-1.61,6.2-2.33,12.38-2.23,18.39c-8.83,12.11-15.75,27.44-22.94,43.43
	c-5.9,13.12-12.01,26.69-19.56,39.43c-14.37,24.26-32.85,36.57-42.58,41.75c-4.04,2.15-8.59,3.28-13.16,3.28H25.94
	c-2.88,0-5.63-1.01-7.75-2.83c-4.06-3.51-8.77-10.25-8.14-22.45c1.16-22.27,17.89-36.35,39.08-54.17c2.91-2.44,5.87-4.94,8.87-7.52
	c21.24-18.28,47.59-52.81,64.83-88.41c-0.03,0.34-0.05,0.68-0.08,1.02c-0.17,2.08,1.26,4.03,3.33,4.35
	c0.22,0.03,0.44,0.05,0.66,0.05c2.05,0,3.8-1.57,3.98-3.66c0.58-6.73,0.67-14.35,0.76-22.42c0.07-5.6,0.14-11.59,0.39-17.89
	c1.92,7.7,4.66,15.83,8.4,24.41c0.66,1.51,2.13,2.4,3.67,2.4c0.59,0,1.2-0.13,1.77-0.41c1.95-0.96,2.68-3.38,1.81-5.38
	c-11.34-26.13-22.42-66.01,11.29-111.06c21.38-28.57,45.84-57.2,88.77-66.11c38.95-8.08,70.06,5.03,87.58,36.92
	c4.07,7.4,7.46,14.25,10.45,20.29c7.09,14.32,12.56,25.31,21.02,31.11c-0.01,0-0.01,0-0.02-0.01c0.37,0.25,0.74,0.5,1.12,0.74
	c0.17,0.1,0.34,0.2,0.51,0.3c0.2,0.12,0.4,0.24,0.61,0.36c1.56,0.86,2.51,2.6,2.15,4.34c-0.56,2.74-3.53,4.01-5.88,2.74
	c-8.51-4.57-14.29-12.54-19.8-22.58l-0.07-0.13c-1.95-3.57-7.37-2-7.14,2.06c0.73,12.73-0.49,25.97-3.7,35.25
	c-1.12,3.23-5.55,3.58-7.24,0.61c-5.71-10.07-16.3-20.82-30.99-23.11c-5.43-6.88-12.73-12.82-21.68-17.49
	c-6.92-3.6-14.43-6.26-22.18-7.95c-5.16-20.32-26.4-23.64-38.94-16.85c-4.17-0.5-8.68-0.32-13.44,0.72
	c-2.07,0.45-3.59,2.37-3.31,4.47c0.32,2.36,2.58,3.89,4.84,3.38c10.89-2.45,20.22,0.88,25.72,6.14c-11.71,0.53-23.08,3.21-32.9,8.08
	c-1.89,0.94-2.91,3.13-2.15,5.11c0.86,2.24,3.43,3.2,5.53,2.15c21.23-10.63,50.62-9.88,73.13,1.85c15.92,8.3,25.89,21.01,28.06,35.8
	c2.11,14.36-1.45,27.15-10.31,37c-12.07,13.42-33.69,20.86-57.86,19.9c-33.71-1.34-62.28-16.16-74.55-38.69
	c-1.19-2.18-4.1-2.81-6.11-1.13c-1.49,1.25-1.76,3.42-0.83,5.12c5.14,9.37,12.74,17.52,22.17,24.13
	c4.96,24.41,23.96,35.88,38.46,38.05c1.97,0.29,3.39,1.95,3.42,3.94c0.08,5.6,2.21,11.39,6.32,14.92
	c-1.25,4.85-2.12,9.76-2.54,14.68c-0.19,2.2,1.44,4.14,3.64,4.33c2.19,0.18,4.14-1.44,4.33-3.64c1.66-19.25,10.56-38.42,24.13-53.61
	c0.61-0.69,1.46-1.14,2.37-1.28l0.15-0.02c3.66-0.58,6.02,3.77,3.54,6.52c-0.85,0.94-1.67,1.88-2.41,2.78
	c-5.69,6.93-10.36,14.53-13.73,22.47c-1.6,3.76-0.01,8.16,3.6,10.08c31.93,16.92,69.58-0.8,81.89-43.78
	c0.59-2.05,0.38-4.26-0.68-6.12c-2.32-4.08-5.83-7.11-10.63-9.25c-3-1.33-6.47-2.06-10.32-2.01c-0.55,0.01-1.11,0.03-1.66,0.06
	c-3.36,0.19-5.4-3.64-3.38-6.33c0.02-0.03,0.04-0.06,0.07-0.09c0.72-0.96,1.83-1.53,3.02-1.59c5.66-0.26,10.92,0.6,15.52,2.65
	c11.54,5.13,17.85,14.78,18.77,28.68c0.99,15-4.47,30.52-7.81,38.44C309.63,298.65,267.25,324.54,237.9,324.54z M360.83,311.46
	c-16.65,18.29-38.11,27.97-57.41,25.89c-11.23-1.21-20.65-6.54-26.94-15.15c2.37-1.25,4.72-2.58,7.02-4.01
	c0.19,0.24,0.37,0.5,0.57,0.73c3.4,3.9,7.57,6.82,12.22,8.6c0.16,0.06,0.32,0.12,0.48,0.18c0.29,0.1,0.58,0.19,0.87,0.29
	c2.1,0.67,4.32,1.15,6.63,1.4c0.46,0.05,0.93,0.08,1.39,0.11c14.69,0.83,31.97-8.15,45.66-30.21c18.21-29.32,16.66-59.67,7.76-76.59
	c-1.73-3.29-5.58-4.88-9.16-3.89c-0.1,0.03-0.2,0.06-0.3,0.09c-0.27,0.08-0.6,0.2-0.97,0.36c-2.5,1.06-5.32-0.62-5.57-3.32
	c0-0.03-0.01-0.06-0.01-0.09c-0.18-1.89,0.96-3.64,2.77-4.23c6.61-2.17,19.17-3.76,28.15,3.59c6.46,5.28,10.69,15.47,11.61,27.95
	C386.96,261.55,381.16,289.14,360.83,311.46z M267.07,192.79c18.69-8.3,26.37-24.67,22.72-33.19s-20.68-8.62-38.02-0.23
	c-17.35,8.39-28.45,22.1-24.8,30.62S249.46,200.61,267.07,192.79z M124.58,353.91c-7.16,3.13-15.08,5.18-21.73,5.18
	c-13.53,0-17.19-9.51-38.22-9.51c-26.33,0-35.66,21.21-35.66,29.26c0,1.96,0.18,4.3,0.68,6.73c1.53,7.3,8.14,12.43,15.6,12.43H82.4
	c3.26,0,6.47-0.79,9.35-2.32c6.7-3.56,17.96-10.82,28.81-23.69c1.92-2.28,5.56-7.11,8.98-12.21
	C131.77,356.45,128.26,352.3,124.58,353.91z"/>
</svg>
