<svg width="129" height="60" viewBox="0 0 129 60" fill="none" xmlns="http://www.w3.org/2000/svg">
<g id="logo">
<path id="Vector" d="M24.6803 13.178C25.7932 13.6143 25.5618 15.7585 25.0307 17.4068C24.6671 18.5329 24.1228 19.5554 23.4352 20.4501C23.2193 20.7321 22.783 20.6418 22.675 20.3024C22.4634 19.6413 22.0558 19.1367 21.4938 18.9362C20.3083 18.5108 18.8913 19.5862 18.325 21.3359C18.2082 21.6973 18.1377 22.0609 18.109 22.4113C18.0804 22.7617 17.6815 22.9468 17.3994 22.7352L17.3906 22.7286C17.2694 22.6383 17.2055 22.4884 17.2232 22.3364C17.3598 21.1156 17.8248 19.6501 18.6137 18.1561C20.3832 14.7955 23.1025 12.5588 24.6803 13.178ZM13.38 19.5245C16.1169 16.5011 18.9376 13.4733 22.4392 11.3027C22.6816 11.1529 22.7257 10.8157 22.5229 10.613L14.7485 2.84069C14.4664 2.55863 14.0036 2.58727 13.759 2.90239C12.3156 4.75566 8.37991 10.981 12.6572 19.4254C12.8181 19.7427 13.142 19.7868 13.38 19.5245ZM57.2436 39.6174C55.8708 40.2234 54.3414 40.5253 52.638 40.5253C52.1995 40.5253 51.75 40.5055 51.2872 40.4658C46.2651 40.0361 41.9173 36.5455 38.0807 33.4648C37.435 32.947 36.8004 32.4379 36.1768 31.9531C35.8594 31.7063 35.4055 31.9796 35.476 32.3762C35.5311 32.7002 35.5619 33.0307 35.5619 33.3701C35.5619 33.5023 35.5575 33.6367 35.5487 33.7667C35.5289 34.0532 35.2424 34.2449 34.9692 34.1546C33.7439 33.7469 32.338 34.029 31.3618 35.0052C30.7536 35.6134 30.4164 36.3869 30.3459 37.1802C30.304 37.6496 30.7668 38.0043 31.2141 37.8567C31.8929 37.6341 32.5319 37.2551 33.0718 36.7152C33.2988 36.4882 33.6734 36.5014 33.885 36.7527C34.0745 36.9796 34.0282 37.3212 33.8166 37.5284C32.9396 38.39 31.8554 38.9189 30.7249 39.1128C30.7249 39.115 30.7249 39.115 30.7271 39.1172C30.6963 39.1216 30.6632 39.1238 30.6324 39.1304C30.5222 39.148 30.412 39.1635 30.2996 39.1745C30.2379 39.1811 30.1762 39.1833 30.1145 39.1877C30.0286 39.1943 29.9426 39.1965 29.8567 39.1987C29.8126 39.1987 29.7707 39.2053 29.7289 39.2053C29.2529 39.2053 28.7923 39.1458 28.3494 39.0378C28.3428 39.0356 28.3384 39.0356 28.3318 39.0334C28.2612 39.0158 28.1929 38.9982 28.1246 38.9784C28.096 38.9695 28.0673 38.9629 28.0387 38.9541C27.9924 38.9409 27.9461 38.9255 27.8998 38.91C27.8492 38.8924 27.7963 38.877 27.7456 38.8572C27.7236 38.8483 27.7015 38.8395 27.6773 38.8307C26.9192 38.5486 26.2074 38.1035 25.597 37.4953C25.5816 37.4799 25.5706 37.4622 25.5574 37.4468C25.4185 37.3058 25.2621 37.1207 25.1144 36.9312C24.8169 36.5477 25.0263 35.9836 25.5001 35.8844C25.7248 35.8382 25.9496 35.7831 26.1722 35.7214C28.4838 35.0845 30.5596 33.6896 32.0163 31.7305C32.1705 31.5234 32.1154 31.2237 31.8862 31.0893C31.6879 30.9703 31.4279 31.043 31.2891 31.2303C29.416 33.7359 26.4366 35.2299 23.314 35.2299C18.8406 35.2299 15.0459 32.2616 13.7987 28.1893C13.7348 27.9799 13.9838 27.8081 14.1513 27.9513C14.7991 28.5088 15.6542 28.835 16.5841 28.7997C18.4241 28.7292 19.8631 27.2065 19.9645 25.3862C19.9645 25.373 19.9667 25.3378 19.9667 25.2871C19.9711 24.9191 19.6736 24.6194 19.3056 24.6194H13.3734C13.3712 24.6194 13.369 24.6194 13.3646 24.6194H13.1442C12.7784 24.6194 12.4831 24.9147 12.4831 25.2805C12.4831 27.991 13.4858 30.4701 15.1363 32.3718C15.2861 32.5437 15.2861 32.7993 15.1319 32.9668C15.1253 32.9734 15.1187 32.98 15.1121 32.9866C13.8097 34.3683 11.3725 35.6024 8.88234 35.5737C8.08903 35.5627 7.15247 35.4173 6.20711 34.9743C5.80825 34.787 5.40939 35.2454 5.65179 35.6134C11.6083 44.7012 21.8839 50.704 33.5632 50.704C43.0764 50.704 51.6574 46.7198 57.7329 40.3314C58.0634 39.9854 57.6844 39.4235 57.2436 39.6174ZM61.1595 27.9315C58.546 26.0628 56.2873 23.6432 54.0373 21.1596C53.8434 20.9459 53.8126 20.6308 53.9558 20.3817C59.0506 11.4437 54.8571 4.81516 53.363 2.89799C53.1206 2.58507 52.6557 2.56083 52.378 2.84069L44.7622 10.4609C44.5594 10.6637 44.6035 10.9986 44.8459 11.1485C47.4506 12.7725 49.5749 14.7845 51.2453 16.5077C51.448 16.7171 51.4789 17.0542 51.2872 17.2724C51.177 17.4002 51.0227 17.4619 50.8707 17.4619C50.7275 17.4619 50.582 17.4068 50.474 17.2944C48.504 15.2627 46.135 13.0458 43.1469 11.4283C43.1403 11.4261 43.1337 11.4239 43.1271 11.4195C40.7119 10.1149 37.9661 9.2467 34.7025 9.08363C34.5615 9.07702 34.4623 8.9426 34.4998 8.80818L34.9273 7.21494L35.5862 4.75787C35.6787 4.4141 35.3482 4.10779 35.0132 4.22679C34.2838 4.48682 33.2349 5.11927 32.8228 6.6508C32.7479 6.92846 32.7082 7.1907 32.6928 7.43971C32.6818 7.63143 32.4548 7.72398 32.3182 7.58736L31.9788 7.24799L30.1806 5.44981C29.9294 5.1986 29.4997 5.33082 29.4358 5.6812C29.2948 6.44366 29.319 7.66669 30.4406 8.78835L30.5574 8.90514C30.6875 9.03295 30.6125 9.25332 30.4318 9.27976C28.843 9.51335 27.3842 9.92543 26.0267 10.4719C25.8835 10.5292 25.8438 10.7143 25.9496 10.8245C26.3066 11.208 26.7606 11.717 27.1175 12.1225C27.2784 12.3054 27.5583 12.3208 27.7412 12.1577C28.3538 11.609 29.2242 10.8245 29.5944 10.4609C29.6826 10.375 29.8038 10.3287 29.9272 10.3353C35.8704 10.6659 42.1024 15.5998 48.1294 20.3707C52.5719 23.8878 56.8272 27.2571 60.7563 28.6983C61.23 28.879 61.5716 28.2267 61.1595 27.9315ZM32.0581 18.9229C33.2481 18.5042 34.7025 19.3306 35.6016 20.8247C35.6038 20.8269 35.606 20.8313 35.606 20.8335C35.7735 21.1134 36.2032 20.9767 36.1701 20.6528C36.0974 19.9697 35.9652 19.2623 35.7647 18.5461C34.7466 14.9145 32.4041 12.5059 30.5332 13.167C28.6623 13.8281 27.9704 17.3077 28.9884 20.9393C29.3807 22.3364 29.9669 23.5506 30.6478 24.4805C30.7095 24.5665 30.8109 24.615 30.9166 24.615C31.1657 24.615 31.3265 24.3505 31.2119 24.1302C31.1084 23.9362 31.0158 23.7313 30.9321 23.5175C30.1432 21.477 30.6478 19.4188 32.0581 18.9229Z" fill="#EBEFF0"/>
<path id="Vector_2" d="M38.5126 53.6414L36.7387 59.3092C36.5668 59.8601 35.8176 59.9417 35.5333 59.4393L32.6884 54.4304C32.5341 54.1593 32.1551 54.1285 31.9612 54.3731L28.3604 58.9016C28.0034 59.3511 27.2828 59.1616 27.1903 58.5952L26.322 53.2183C26.2735 52.9164 26.5402 52.6586 26.8421 52.7159C29.0347 53.1302 31.2824 53.3484 33.5632 53.3484C35.0705 53.3484 36.5602 53.2558 38.0344 53.0729C38.354 53.0332 38.6096 53.3329 38.5126 53.6414ZM121.861 19.3989C122.073 19.4011 122.269 19.2931 122.384 19.108C122.954 18.1693 123.236 17.6933 123.792 16.7347C124.272 15.9017 124.51 15.483 124.977 14.6346C125.14 14.3393 124.933 13.9713 124.62 14C123.935 14.0617 122.888 14.3856 122.135 15.6703C121.778 16.2808 121.637 16.8515 121.617 17.3561C121.608 17.5699 121.337 17.636 121.244 17.4487C121.086 17.1336 121.008 16.9771 120.852 16.6642C120.431 15.8224 120.224 15.4037 119.81 14.5663C119.666 14.2776 119.27 14.2754 119.122 14.5663C118.794 15.2076 118.461 16.3006 119.107 17.614C119.871 19.1697 121.222 19.3923 121.861 19.3989ZM83.2379 32.0369C85.5716 32.1404 87.903 32.2286 90.2367 32.3035C90.4725 32.3101 90.673 32.1382 90.684 31.9201C90.7193 31.2369 90.7369 30.8954 90.77 30.2122C90.781 29.9941 90.6003 29.8112 90.3689 29.8024C88.6545 29.7451 87.7995 29.7098 86.0872 29.6261C86.1467 28.8261 86.1754 28.4251 86.2349 27.6251C87.762 27.7089 88.5267 27.7441 90.056 27.8058C90.2874 27.8147 90.4835 27.645 90.4945 27.4268C90.5276 26.8054 90.543 26.4947 90.5761 25.8754C90.5871 25.6573 90.413 25.4722 90.1838 25.4612C88.6743 25.3928 87.9185 25.351 86.409 25.2562C86.4618 24.5466 86.4883 24.1897 86.5412 23.4801C88.1653 23.5903 88.9806 23.6387 90.6069 23.7181C90.8317 23.7291 91.0234 23.5594 91.0366 23.3413C91.0719 22.6581 91.0895 22.3166 91.1248 21.6334C91.1358 21.4153 90.9639 21.2279 90.7413 21.2169C88.5663 21.1023 86.3891 20.9437 84.2207 20.7409C83.9982 20.7211 83.802 20.8842 83.7822 21.109C83.4715 24.6106 83.1586 28.1144 82.8479 31.616C82.828 31.8363 83.0021 32.0258 83.2379 32.0369ZM102.679 32.0545C102.643 28.6587 102.61 25.265 102.575 21.8692C102.573 21.6533 102.39 21.4792 102.167 21.4814C99.7785 21.4836 97.4008 21.4571 95.0142 21.3976C94.7983 21.391 94.6153 21.5497 94.5999 21.759C94.4809 23.2421 94.4214 23.9847 94.3002 25.4678C94.1922 26.704 94.0843 27.4555 93.9631 28.0659C93.8419 28.6763 93.6656 29.2757 93.4496 29.5181C93.2315 29.7605 92.9163 29.8751 92.4998 29.8641H92.4976C92.2618 29.8552 92.0547 30.0227 92.0437 30.2453C92.0128 30.9681 91.9952 31.3273 91.9644 32.0501C91.9555 32.244 92.101 32.4159 92.3081 32.4489C92.5417 32.4864 92.7863 32.5062 93.0397 32.5128C93.8837 32.5305 94.5691 32.3718 95.0891 32.0391C95.6114 31.7063 96.0345 31.0695 96.3606 30.1263C96.6846 29.1831 96.9138 27.8235 97.046 26.0473C97.1055 25.2386 97.1341 24.8353 97.1936 24.0266C98.172 24.042 98.659 24.0486 99.6375 24.053C99.622 26.7217 99.6066 29.3903 99.5934 32.0567C99.5912 32.2726 99.7829 32.4489 100.019 32.4489C100.916 32.4511 101.363 32.4489 102.258 32.4467C102.491 32.4467 102.681 32.2704 102.679 32.0545ZM114.168 32.2043C115.063 32.1713 115.51 32.1537 116.405 32.1162C116.641 32.1052 116.817 31.9179 116.799 31.6953C116.52 28.2135 116.238 24.7318 115.958 21.2478C115.94 21.0252 115.746 20.8621 115.524 20.8798C114.68 20.9481 114.259 20.9811 113.415 21.0406C113.192 21.0561 113.025 21.2478 113.038 21.4659C113.265 24.9169 113.49 28.37 113.717 31.8209C113.73 32.0413 113.933 32.2131 114.168 32.2043ZM128.884 30.9416C128.384 27.2748 127.884 23.6101 127.381 19.9432C127.351 19.7096 127.146 19.5466 126.925 19.5796C125.764 19.7493 125.184 19.8286 124.021 19.9807C123.86 20.0005 123.728 20.1195 123.684 20.2782C123.003 22.6427 122.295 24.9896 121.557 27.3365C121.526 27.4334 121.438 27.5017 121.335 27.5106C121.191 27.5216 121.064 27.4158 121.048 27.2748C120.828 25.1262 120.605 22.9776 120.385 20.8291C120.361 20.6043 120.162 20.439 119.942 20.4633C119.146 20.5492 118.748 20.5889 117.95 20.6638C117.727 20.6859 117.564 20.882 117.584 21.1067C117.895 24.6083 118.208 28.1122 118.518 31.6138C118.538 31.8363 118.745 32.0082 118.981 31.9972C120.22 31.9355 120.839 31.9024 122.077 31.8297C122.247 31.8187 122.39 31.7129 122.443 31.5587C123.197 29.2228 123.922 26.8847 124.622 24.529C124.651 24.4277 124.739 24.3549 124.845 24.3483C124.982 24.3373 125.105 24.4409 125.123 24.5797C125.394 26.7745 125.665 28.9694 125.936 31.1642C125.964 31.3934 126.178 31.5675 126.412 31.552C127.256 31.4926 127.679 31.4617 128.521 31.3978C128.752 31.378 128.917 31.1752 128.884 30.9416ZM79.0201 31.3581C78.3083 31.6182 77.4886 31.7195 76.5697 31.66C75.0844 31.5631 74.344 31.5102 72.8609 31.3978C72.6251 31.3802 72.4621 31.1752 72.4929 30.9416C72.9931 27.2748 73.4934 23.6101 73.9958 19.9432C74.0266 19.7096 74.2316 19.5466 74.452 19.5796C76.6181 19.9014 78.7953 20.179 80.9703 20.4126C81.1929 20.4368 81.3538 20.6396 81.3295 20.8643C81.259 21.5695 81.2216 21.9221 81.151 22.6273C81.129 22.852 80.9285 23.0173 80.7037 22.9953C79.0444 22.8344 78.2136 22.7463 76.5586 22.5501C76.4771 23.2024 76.4374 23.5308 76.3581 24.183C76.79 24.2293 77.006 24.2536 77.4401 24.2976C78.326 24.3902 79.0796 24.6128 79.7055 24.9675C80.3313 25.3223 80.7941 25.7807 81.0938 26.347C81.3934 26.9134 81.5102 27.5612 81.4375 28.2995C81.3648 29.0377 81.1246 29.6657 80.7103 30.1858C80.296 30.7081 79.7319 31.1003 79.0201 31.3581ZM76.4551 25.8578C76.281 25.8402 76.1223 25.9702 76.1003 26.1443C75.935 27.4885 75.8513 28.1606 75.686 29.5027C75.664 29.6789 75.7918 29.8332 75.9681 29.8464C75.9901 29.8486 76.0033 29.8486 76.0254 29.8508C77.1757 29.939 78.207 29.0663 78.2797 27.927C78.348 26.8627 77.5216 25.9614 76.4551 25.8578ZM104.415 32.0391C104.351 28.641 104.287 25.243 104.221 21.845C104.217 21.629 104.395 21.4483 104.618 21.4439C105.464 21.4263 105.887 21.4131 106.731 21.3866C106.954 21.38 107.141 21.5497 107.148 21.7656C107.189 22.9865 107.211 23.5969 107.253 24.8177C107.463 24.8111 107.568 24.8089 107.78 24.8023C108.668 24.7736 109.455 24.9014 110.144 25.1879C110.834 25.4766 111.379 25.8975 111.777 26.4572C112.176 27.0169 112.399 27.678 112.445 28.4427C112.491 29.1941 112.346 29.8707 112.007 30.4657C111.667 31.0606 111.156 31.5234 110.473 31.854C109.79 32.1845 108.983 32.3586 108.062 32.3784C106.777 32.4049 106.134 32.4137 104.849 32.4291C104.613 32.4291 104.419 32.2572 104.415 32.0391ZM107.247 27.0191C107.291 28.2884 107.311 28.9231 107.355 30.1902C107.361 30.3555 107.509 30.4877 107.687 30.4833C107.709 30.4833 107.723 30.4833 107.745 30.4811C108.897 30.4546 109.783 29.5291 109.68 28.4449C109.58 27.429 108.624 26.6776 107.553 26.7084C107.379 26.715 107.242 26.8539 107.247 27.0191ZM87.2001 34.6239C84.8664 34.549 82.5349 34.4631 80.2035 34.3639C79.9655 34.3529 79.7539 34.527 79.7297 34.7518C79.3683 38.2908 79.0069 41.8299 78.6455 45.3689C78.6235 45.5937 78.8086 45.7766 79.0598 45.7766C81.5543 45.7788 84.0489 45.781 86.5434 45.781C86.7946 45.781 87.0106 45.6025 87.026 45.3822C87.0701 44.6946 87.0921 44.3509 87.1362 43.6633C87.1494 43.4429 86.9599 43.2645 86.7109 43.2623C84.8796 43.249 83.9629 43.2424 82.1295 43.227C82.2 42.4205 82.2352 42.015 82.3058 41.2084C83.9409 41.2349 84.7584 41.2459 86.3957 41.2657C86.6425 41.2679 86.8541 41.0917 86.8695 40.8735C86.9114 40.2477 86.9312 39.9369 86.9731 39.3111C86.9885 39.0907 86.8012 38.91 86.5588 38.9056C84.9413 38.8748 84.1326 38.8594 82.5173 38.8197C82.579 38.1035 82.6121 37.7443 82.6738 37.0281C84.4169 37.081 85.2873 37.103 87.0304 37.1427C87.2728 37.1471 87.4799 36.9752 87.4932 36.7549C87.5372 36.0673 87.5593 35.7236 87.6055 35.036C87.621 34.8135 87.4381 34.6306 87.2001 34.6239ZM99.0028 34.8201C98.0971 34.8157 97.6432 34.8135 96.7375 34.8068C96.4995 34.8046 96.3011 34.9787 96.2967 35.1947C96.2637 36.6579 96.2483 37.3895 96.2174 38.8505C94.6793 38.8417 93.908 38.8351 92.3698 38.8175C92.4293 37.3477 92.4602 36.6138 92.5197 35.144C92.5285 34.9258 92.3412 34.7473 92.1032 34.7429C91.1975 34.7253 90.7435 34.7165 89.8378 34.6945C89.5998 34.6878 89.3949 34.8619 89.3839 35.0801C89.19 38.5156 88.9982 41.9511 88.8043 45.3888C88.7911 45.6069 88.9872 45.7854 89.2384 45.7854C90.1948 45.7854 90.673 45.7854 91.6294 45.7854C91.8806 45.7854 92.0922 45.6091 92.101 45.391C92.1671 43.7955 92.1979 42.9978 92.2641 41.4024C93.822 41.4134 94.6021 41.4178 96.1601 41.4244C96.1248 43.0132 96.1072 43.8066 96.072 45.3954C96.0676 45.6113 96.2681 45.7876 96.5193 45.7876C97.4757 45.7876 97.9539 45.7876 98.9103 45.7876C99.1615 45.7876 99.3686 45.6113 99.3686 45.3954C99.3907 42.0018 99.4105 38.6081 99.4325 35.2123C99.4347 34.9964 99.243 34.8201 99.0028 34.8201ZM122.871 34.6967C122.846 34.4697 122.633 34.2956 122.395 34.3066C119.541 34.4432 116.685 34.5512 113.827 34.6328C113.589 34.6394 113.406 34.8223 113.419 35.0426C113.465 35.7676 113.487 36.1312 113.534 36.8562C113.547 37.0766 113.754 37.2507 113.996 37.2441C115.096 37.2198 115.647 37.2066 116.747 37.178C116.96 39.9105 117.174 42.6452 117.388 45.3778C117.406 45.6003 117.624 45.7788 117.875 45.7788C118.838 45.7788 119.32 45.7788 120.283 45.7766C120.535 45.7766 120.722 45.5937 120.702 45.3711C120.444 42.61 120.187 39.8466 119.929 37.0854C121.028 37.0502 121.577 37.0325 122.674 36.9929C122.917 36.9841 123.091 36.7923 123.067 36.5676C122.992 35.8183 122.95 35.4437 122.871 34.6967ZM112.84 40.2256C112.91 41.4222 112.738 42.4557 112.317 43.3262C111.896 44.1966 111.244 44.8599 110.36 45.3183C109.477 45.7766 108.41 46.0058 107.167 46.0058C105.924 46.0058 104.847 45.7788 103.941 45.3227C103.035 44.8687 102.346 44.2142 101.872 43.357C101.398 42.502 101.165 41.4839 101.16 40.3027C101.158 39.1238 101.385 38.1057 101.837 37.2485C102.286 36.3913 102.936 35.7346 103.785 35.274C104.633 34.8135 105.64 34.5777 106.815 34.56C107.989 34.5446 109.014 34.754 109.895 35.1947C110.777 35.6354 111.471 36.2855 111.974 37.1427C112.478 38.0021 112.769 39.0312 112.84 40.2256ZM109.252 40.2653C109.153 37.8655 108.025 36.9069 106.896 36.8717C105.77 36.9312 104.704 37.9074 104.75 40.2961C104.796 42.6849 105.938 43.6501 107.106 43.6942C108.269 43.6435 109.351 42.6651 109.252 40.2653ZM24.6803 13.178C25.7931 13.6143 25.5618 15.7585 25.0307 17.4068C24.6671 18.5329 24.1228 19.5554 23.4352 20.4501C23.2193 20.7321 22.783 20.6418 22.675 20.3024C22.4634 19.6413 22.0558 19.1367 21.4938 18.9362C20.3083 18.5108 18.8913 19.5862 18.325 21.3359C18.2082 21.6973 18.1377 22.0609 18.109 22.4113C18.0804 22.7617 17.6815 22.9468 17.3994 22.7352L17.3906 22.7286C17.2694 22.6383 17.2055 22.4884 17.2232 22.3364C17.3598 21.1156 17.8248 19.6501 18.6137 18.1561C20.3832 14.7955 23.1025 12.5588 24.6803 13.178ZM13.38 19.5245C16.1169 16.5011 18.9376 13.4733 22.4392 11.3027C22.6816 11.1529 22.7257 10.8157 22.5229 10.613L14.7485 2.84069C14.4664 2.55863 14.0036 2.58727 13.759 2.90239C12.3156 4.75566 8.37991 10.981 12.6572 19.4254C12.8181 19.7427 13.142 19.7868 13.38 19.5245ZM57.2436 39.6174C55.8708 40.2234 54.3414 40.5253 52.638 40.5253C52.1995 40.5253 51.7499 40.5055 51.2872 40.4658C46.2651 40.0361 41.9173 36.5455 38.0807 33.4648C37.435 32.947 36.8004 32.4379 36.1768 31.9531C35.8594 31.7063 35.4055 31.9796 35.476 32.3762C35.5311 32.7002 35.5619 33.0307 35.5619 33.3701C35.5619 33.5023 35.5575 33.6367 35.5487 33.7667C35.5289 34.0532 35.2424 34.2449 34.9692 34.1546C33.7439 33.7469 32.338 34.029 31.3618 35.0052C30.7536 35.6134 30.4164 36.3869 30.3459 37.1802C30.304 37.6496 30.7668 38.0043 31.2141 37.8567C31.8929 37.6341 32.5319 37.2551 33.0718 36.7152C33.2988 36.4882 33.6734 36.5014 33.885 36.7527C34.0745 36.9796 34.0282 37.3212 33.8166 37.5284C32.9396 38.39 31.8554 38.9189 30.7249 39.1128C30.7249 39.115 30.7249 39.115 30.7271 39.1172C30.6963 39.1216 30.6632 39.1238 30.6324 39.1304C30.5222 39.148 30.412 39.1635 30.2996 39.1745C30.2379 39.1811 30.1762 39.1833 30.1145 39.1877C30.0286 39.1943 29.9426 39.1965 29.8567 39.1987C29.8126 39.1987 29.7707 39.2053 29.7289 39.2053C29.2529 39.2053 28.7923 39.1458 28.3494 39.0378C28.3428 39.0356 28.3384 39.0356 28.3318 39.0334C28.2612 39.0158 28.1929 38.9982 28.1246 38.9784C28.096 38.9695 28.0673 38.9629 28.0387 38.9541C27.9924 38.9409 27.9461 38.9255 27.8998 38.91C27.8492 38.8924 27.7963 38.877 27.7456 38.8572C27.7235 38.8483 27.7015 38.8395 27.6773 38.8307C26.9192 38.5486 26.2074 38.1035 25.597 37.4953C25.5816 37.4799 25.5706 37.4622 25.5574 37.4468C25.4185 37.3058 25.2621 37.1207 25.1144 36.9312C24.8169 36.5477 25.0263 35.9836 25.5001 35.8844C25.7248 35.8382 25.9496 35.7831 26.1722 35.7214C28.4838 35.0845 30.5596 33.6896 32.0163 31.7305C32.1705 31.5234 32.1154 31.2237 31.8862 31.0893C31.6879 30.9703 31.4279 31.043 31.2891 31.2303C29.416 33.7359 26.4366 35.2299 23.314 35.2299C18.8406 35.2299 15.0459 32.2616 13.7987 28.1893C13.7348 27.9799 13.9838 27.8081 14.1513 27.9513C14.7991 28.5088 15.6542 28.835 16.5841 28.7997C18.4241 28.7292 19.8631 27.2065 19.9645 25.3862C19.9645 25.373 19.9667 25.3378 19.9667 25.2871C19.9711 24.9191 19.6736 24.6194 19.3056 24.6194H13.3734C13.3712 24.6194 13.369 24.6194 13.3646 24.6194H13.1442C12.7784 24.6194 12.4831 24.9147 12.4831 25.2805C12.4831 27.991 13.4858 30.4701 15.1363 32.3718C15.2861 32.5437 15.2861 32.7993 15.1319 32.9668C15.1253 32.9734 15.1187 32.98 15.1121 32.9866C13.8097 34.3683 11.3725 35.6024 8.88234 35.5737C8.08903 35.5627 7.15247 35.4173 6.20711 34.9743C5.80825 34.787 5.40939 35.2454 5.65179 35.6134C11.6083 44.7012 21.8839 50.704 33.5632 50.704C43.0764 50.704 51.6574 46.7198 57.7329 40.3314C58.0634 39.9854 57.6844 39.4235 57.2436 39.6174ZM61.1595 27.9315C58.546 26.0628 56.2873 23.6432 54.0373 21.1596C53.8434 20.9459 53.8126 20.6308 53.9558 20.3817C59.0506 11.4437 54.8571 4.81516 53.363 2.89799C53.1206 2.58507 52.6556 2.56083 52.378 2.84069L44.7622 10.4609C44.5594 10.6637 44.6035 10.9986 44.8459 11.1485C47.4506 12.7725 49.5749 14.7845 51.2453 16.5077C51.448 16.7171 51.4789 17.0542 51.2872 17.2724C51.177 17.4002 51.0227 17.4619 50.8707 17.4619C50.7275 17.4619 50.582 17.4068 50.474 17.2944C48.504 15.2627 46.135 13.0458 43.1469 11.4283C43.1403 11.4261 43.1337 11.4239 43.1271 11.4195C40.7119 10.1149 37.9661 9.2467 34.7025 9.08363C34.5615 9.07702 34.4623 8.9426 34.4998 8.80818L34.9273 7.21494L35.5862 4.75787C35.6787 4.4141 35.3482 4.10779 35.0132 4.22679C34.2838 4.48682 33.2349 5.11927 32.8228 6.6508C32.7479 6.92846 32.7082 7.1907 32.6928 7.43971C32.6818 7.63143 32.4548 7.72398 32.3182 7.58736L31.9788 7.24799L30.1806 5.44981C29.9294 5.1986 29.4997 5.33082 29.4358 5.6812C29.2948 6.44366 29.319 7.66669 30.4406 8.78835L30.5574 8.90514C30.6875 9.03295 30.6125 9.25332 30.4318 9.27976C28.843 9.51335 27.3842 9.92543 26.0267 10.4719C25.8835 10.5292 25.8438 10.7143 25.9496 10.8245C26.3066 11.208 26.7606 11.717 27.1175 12.1225C27.2784 12.3054 27.5583 12.3208 27.7412 12.1577C28.3538 11.609 29.2242 10.8245 29.5944 10.4609C29.6826 10.375 29.8038 10.3287 29.9272 10.3353C35.8704 10.6659 42.1024 15.5998 48.1293 20.3707C52.5719 23.8878 56.8272 27.2571 60.7563 28.6983C61.23 28.879 61.5716 28.2267 61.1595 27.9315ZM32.0581 18.9229C33.2481 18.5042 34.7025 19.3306 35.6016 20.8247C35.6038 20.8269 35.606 20.8313 35.606 20.8335C35.7735 21.1134 36.2032 20.9767 36.1701 20.6528C36.0974 19.9697 35.9652 19.2623 35.7647 18.5461C34.7466 14.9145 32.4041 12.5059 30.5332 13.167C28.6623 13.8281 27.9704 17.3077 28.9884 20.9393C29.3807 22.3364 29.9669 23.5506 30.6478 24.4805C30.7095 24.5665 30.8109 24.615 30.9166 24.615C31.1656 24.615 31.3265 24.3505 31.2119 24.1302C31.1084 23.9362 31.0158 23.7313 30.9321 23.5175C30.1432 21.477 30.6478 19.4188 32.0581 18.9229Z" fill="#EBEFF0"/>
</g>
</svg>
