<svg width="129" height="60" viewBox="0 0 129 60" fill="none" xmlns="http://www.w3.org/2000/svg">
<g id="logo">
<path id="Vector" d="M66.9309 30.8731C64.2711 37.4356 59.7668 43.0307 53.9073 47.0523C49.5 50.0779 44.5352 52.0524 39.3147 52.8898L37.2345 59.536C37.0626 60.0869 36.3134 60.1685 36.0291 59.666L32.6729 53.7558C32.5187 53.4848 32.1397 53.4539 31.9457 53.6985L27.6993 59.038C27.3423 59.4875 26.6217 59.298 26.5292 58.7317L25.5133 52.4469C21.1346 51.4486 16.9763 49.6306 13.2191 47.0523C7.35961 43.0307 2.85535 37.4356 0.195546 30.8731C-0.337738 29.5576 0.255044 28.0657 1.54418 27.4751C3.40406 26.6223 5.60771 25.3684 10.1913 20.4102C5.35429 10.6348 10.0855 3.31209 11.6766 1.27151C12.309 0.462767 13.2566 0 14.2813 0C15.1627 0 15.9891 0.343769 16.6127 0.965199L24.0787 8.43116C24.3938 8.28793 24.7067 8.1513 25.0197 8.02569L25.3524 7.89127L26.0201 7.62463L26.0333 7.64446C26.2956 7.55411 26.5578 7.46817 26.8245 7.38664C26.6966 6.67265 26.6988 5.93223 26.8333 5.20282C27.1021 3.73739 28.3802 2.67523 29.8699 2.67523C30.5486 2.67523 31.1921 2.89339 31.7254 3.29666C32.3777 2.60031 33.193 2.06702 34.1273 1.73648C34.4601 1.61748 34.8083 1.55798 35.1609 1.55798C36.1128 1.55798 37.0274 2.00973 37.6069 2.76778C38.1953 3.53466 38.3892 4.50867 38.138 5.44302L37.781 6.77402C39.6144 7.10016 41.3531 7.64667 43.0521 8.42896L50.5071 0.97181C51.1329 0.348177 51.9637 0.00220365 52.8452 0.00220365C53.8699 0.00220365 54.8174 0.46497 55.4477 1.27151C57.0387 3.31209 61.7699 10.637 56.9329 20.4124C58.6209 22.2481 60.5712 24.26 62.6977 25.7805L62.7153 25.7937L62.7329 25.8069L62.7572 25.8246C63.707 26.4989 64.6325 27.0388 65.5823 27.4751C66.8714 28.0657 67.4642 29.5598 66.9309 30.8731ZM121.861 19.3987C122.073 19.4009 122.269 19.293 122.384 19.1079C122.954 18.1691 123.236 17.6931 123.792 16.7345C124.272 15.9015 124.51 15.4828 124.977 14.6344C125.14 14.3392 124.933 13.9711 124.62 13.9998C123.935 14.0615 122.888 14.3854 122.135 15.6702C121.778 16.2806 121.637 16.8513 121.617 17.3559C121.608 17.5697 121.337 17.6358 121.244 17.4485C121.086 17.1334 121.008 16.9769 120.852 16.664C120.431 15.8222 120.224 15.4035 119.81 14.5661C119.666 14.2774 119.27 14.2752 119.122 14.5661C118.794 15.2074 118.461 16.3004 119.107 17.6138C119.871 19.1696 121.222 19.3921 121.861 19.3987ZM83.2379 32.0367C85.5716 32.1402 87.903 32.2284 90.2367 32.3011C90.4725 32.3077 90.673 32.1358 90.684 31.9177C90.7193 31.2345 90.7369 30.893 90.77 30.2098C90.781 29.9917 90.6003 29.8088 90.3689 29.8C88.6545 29.7427 87.7995 29.7074 86.0872 29.6237C86.1467 28.8237 86.1754 28.4227 86.2349 27.6228C87.762 27.7065 88.5267 27.7418 90.056 27.8035C90.2874 27.8123 90.4835 27.6426 90.4945 27.4244C90.5276 26.803 90.543 26.4923 90.5761 25.8731C90.5871 25.6549 90.413 25.4698 90.1838 25.4588C88.6743 25.3905 87.9184 25.3486 86.409 25.2538C86.4618 24.5443 86.4883 24.1873 86.5412 23.4777C88.1653 23.5879 88.9806 23.6364 90.6069 23.7157C90.8317 23.7267 91.0234 23.557 91.0366 23.3389C91.0719 22.6557 91.0895 22.3142 91.1248 21.631C91.1358 21.4129 90.9639 21.2256 90.7413 21.2145C88.5663 21.0999 86.3891 20.9413 84.2207 20.7386C83.9982 20.7187 83.802 20.8818 83.7822 21.1066C83.4715 24.6082 83.1586 28.112 82.8479 31.6136C82.828 31.8361 83.0021 32.0257 83.2379 32.0367ZM102.679 32.0543C102.643 28.6585 102.61 25.2648 102.575 21.869C102.573 21.6531 102.39 21.479 102.167 21.4812C99.7785 21.4834 97.4008 21.4569 95.0142 21.3974C94.7982 21.3908 94.6153 21.5495 94.5999 21.7588C94.4809 23.2419 94.4214 23.9845 94.3002 25.4676C94.1922 26.7038 94.0843 27.4553 93.9631 28.0657C93.8419 28.6761 93.6656 29.2755 93.4496 29.5179C93.2315 29.7603 92.9163 29.8749 92.4998 29.8639H92.4976C92.2618 29.8551 92.0547 30.0225 92.0437 30.2451C92.0128 30.9679 91.9952 31.3271 91.9643 32.0499C91.9555 32.2438 92.101 32.4157 92.3081 32.4487C92.5417 32.4862 92.7863 32.506 93.0397 32.5127C93.8837 32.5303 94.5691 32.3716 95.0891 32.0389C95.6114 31.7061 96.0345 31.0693 96.3606 30.1261C96.6846 29.1829 96.9138 27.8233 97.046 26.0471C97.1055 25.2384 97.1341 24.8351 97.1936 24.0264C98.172 24.0418 98.659 24.0484 99.6375 24.0528C99.622 26.7215 99.6066 29.3901 99.5934 32.0565C99.5912 32.2725 99.7829 32.4487 100.019 32.4487C100.916 32.451 101.363 32.4487 102.258 32.4465C102.491 32.4465 102.681 32.2703 102.679 32.0543ZM114.168 32.2041C115.063 32.1711 115.51 32.1535 116.405 32.116C116.641 32.105 116.817 31.9177 116.799 31.6951C116.52 28.2133 116.238 24.7316 115.958 21.2476C115.94 21.025 115.746 20.862 115.524 20.8796C114.68 20.9479 114.259 20.981 113.415 21.0405C113.192 21.0559 113.025 21.2476 113.038 21.4658C113.265 24.9167 113.49 28.3698 113.717 31.8207C113.73 32.0411 113.933 32.213 114.168 32.2041ZM128.884 30.9415C128.384 27.2746 127.884 23.6099 127.381 19.943C127.351 19.7094 127.146 19.5464 126.925 19.5794C125.764 19.7491 125.184 19.8306 124.021 19.9805C123.86 20.0003 123.728 20.1193 123.684 20.278C123.003 22.6425 122.295 24.9894 121.557 27.3363C121.526 27.4332 121.438 27.5016 121.335 27.5104C121.191 27.5214 121.064 27.4156 121.048 27.2746C120.828 25.126 120.605 22.9775 120.385 20.8289C120.361 20.6041 120.162 20.4389 119.942 20.4631C119.146 20.549 118.748 20.5887 117.95 20.6636C117.727 20.6857 117.564 20.8818 117.584 21.1066C117.895 24.6082 118.208 28.112 118.518 31.6136C118.538 31.8361 118.745 32.008 118.981 31.997C120.22 31.9353 120.839 31.9022 122.077 31.8295C122.247 31.8185 122.39 31.7127 122.443 31.5585C123.197 29.2226 123.922 26.8845 124.622 24.5288C124.651 24.4275 124.739 24.3547 124.845 24.3481C124.982 24.3371 125.105 24.4407 125.123 24.5795C125.394 26.7743 125.665 28.9692 125.936 31.164C125.964 31.3932 126.178 31.5673 126.412 31.5519C127.256 31.4924 127.679 31.4615 128.521 31.3976C128.752 31.3778 128.917 31.175 128.884 30.9415ZM79.0201 31.3579C78.3083 31.618 77.4886 31.7193 76.5697 31.6598C75.0844 31.5629 74.344 31.51 72.8609 31.3976C72.6251 31.38 72.4621 31.175 72.4929 30.9415C72.9931 27.2746 73.4934 23.6099 73.9958 19.943C74.0266 19.7094 74.2316 19.5464 74.4519 19.5794C76.6181 19.9012 78.7953 20.1788 80.9703 20.4124C81.1929 20.4367 81.3538 20.6394 81.3295 20.8642C81.259 21.5693 81.2216 21.9219 81.151 22.6271C81.129 22.8519 80.9285 23.0171 80.7037 22.9951C79.0444 22.8342 78.2136 22.7461 76.5586 22.55C76.4771 23.2022 76.4374 23.5306 76.3581 24.1829C76.79 24.2291 77.006 24.2534 77.4401 24.2974C78.326 24.39 79.0796 24.6126 79.7055 24.9674C80.3313 25.3221 80.7941 25.7805 81.0938 26.3468C81.3934 26.9132 81.5102 27.5611 81.4375 28.2993C81.3648 29.0375 81.1246 29.6655 80.7103 30.1856C80.296 30.7079 79.7319 31.1001 79.0201 31.3579ZM76.4551 25.8576C76.281 25.84 76.1223 25.97 76.1003 26.1441C75.935 27.4883 75.8513 28.1604 75.686 29.5025C75.664 29.6788 75.7918 29.833 75.9681 29.8462C75.9901 29.8484 76.0033 29.8484 76.0254 29.8506C77.1757 29.9388 78.207 29.0661 78.2797 27.9269C78.348 26.8625 77.5216 25.9612 76.4551 25.8576ZM104.415 32.0389C104.351 28.6408 104.287 25.2428 104.221 21.8448C104.217 21.6288 104.395 21.4481 104.618 21.4437C105.464 21.4261 105.887 21.4129 106.731 21.3864C106.954 21.3798 107.141 21.5495 107.148 21.7655C107.189 22.9863 107.211 23.5967 107.253 24.8175C107.463 24.8109 107.568 24.8087 107.78 24.8021C108.668 24.7734 109.455 24.9012 110.144 25.1877C110.834 25.4764 111.379 25.8973 111.777 26.457C112.176 27.0168 112.399 27.6778 112.445 28.4425C112.491 29.194 112.346 29.8705 112.007 30.4655C111.667 31.0604 111.156 31.5232 110.473 31.8538C109.79 32.1843 108.983 32.3584 108.062 32.3782C106.777 32.4047 106.134 32.4135 104.849 32.4289C104.613 32.4289 104.419 32.257 104.415 32.0389ZM107.247 27.019C107.291 28.2883 107.311 28.9229 107.355 30.19C107.361 30.3553 107.509 30.4875 107.687 30.4831C107.709 30.4831 107.723 30.4831 107.745 30.4809C108.897 30.4544 109.783 29.5289 109.679 28.4447C109.58 27.4288 108.624 26.6774 107.553 26.7082C107.379 26.7148 107.242 26.8537 107.247 27.019ZM87.2001 34.6237C84.8664 34.5488 82.5349 34.4629 80.2035 34.3637C79.9655 34.3527 79.7539 34.5268 79.7297 34.7516C79.3683 38.2906 79.0069 41.8297 78.6455 45.3688C78.6235 45.5935 78.8086 45.7764 79.0598 45.7764C81.5543 45.7786 84.0488 45.7808 86.5434 45.7808C86.7946 45.7808 87.0106 45.6023 87.026 45.382C87.0701 44.6944 87.0921 44.3507 87.1362 43.6631C87.1494 43.4428 86.9599 43.2643 86.7109 43.2621C84.8796 43.2488 83.9629 43.2422 82.1295 43.2268C82.2 42.4203 82.2352 42.0148 82.3058 41.2083C83.9409 41.2347 84.7584 41.2457 86.3957 41.2656C86.6425 41.2678 86.8541 41.0915 86.8695 40.8733C86.9114 40.2475 86.9312 39.9368 86.9731 39.3109C86.9885 39.0905 86.8012 38.9099 86.5588 38.9054C84.9413 38.8746 84.1326 38.8592 82.5173 38.8195C82.579 38.1033 82.6121 37.7441 82.6738 37.0279C84.4169 37.0808 85.2873 37.1029 87.0304 37.1425C87.2728 37.1469 87.4799 36.975 87.4931 36.7547C87.5372 36.0671 87.5593 35.7234 87.6055 35.0358C87.621 34.8133 87.4381 34.6304 87.2001 34.6237ZM99.0028 34.8199C98.0971 34.8155 97.6432 34.8133 96.7375 34.8067C96.4995 34.8045 96.3011 34.9785 96.2967 35.1945C96.2637 36.6577 96.2483 37.3893 96.2174 38.8504C94.6793 38.8415 93.908 38.8349 92.3698 38.8173C92.4293 37.3475 92.4602 36.6136 92.5197 35.1438C92.5285 34.9257 92.3412 34.7472 92.1032 34.7427C91.1975 34.7251 90.7435 34.7163 89.8378 34.6943C89.5998 34.6877 89.3949 34.8617 89.3839 35.0799C89.19 38.5154 88.9982 41.9509 88.8043 45.3886C88.7911 45.6067 88.9872 45.7852 89.2384 45.7852C90.1948 45.7852 90.673 45.7852 91.6294 45.7852C91.8806 45.7852 92.0922 45.6089 92.101 45.3908C92.1671 43.7953 92.1979 42.9976 92.2641 41.4022C93.822 41.4132 94.6021 41.4176 96.1601 41.4242C96.1248 43.013 96.1072 43.8064 96.072 45.3952C96.0676 45.6112 96.2681 45.7874 96.5193 45.7874C97.4757 45.7874 97.9539 45.7874 98.9103 45.7874C99.1615 45.7874 99.3686 45.6112 99.3686 45.3952C99.3907 42.0016 99.4105 38.6057 99.4325 35.2121C99.4347 34.9962 99.243 34.8199 99.0028 34.8199ZM122.871 34.6965C122.846 34.4695 122.633 34.2954 122.395 34.3064C119.541 34.4431 116.685 34.551 113.827 34.6326C113.589 34.6392 113.406 34.8221 113.419 35.0424C113.465 35.7674 113.487 36.1311 113.534 36.856C113.547 37.0764 113.754 37.2505 113.996 37.2439C115.096 37.2197 115.647 37.2064 116.747 37.1778C116.96 39.9103 117.174 42.645 117.388 45.3776C117.405 45.6001 117.624 45.7786 117.875 45.7786C118.838 45.7786 119.32 45.7786 120.283 45.7764C120.535 45.7764 120.722 45.5935 120.702 45.371C120.444 42.6098 120.187 39.8464 119.929 37.0852C121.028 37.05 121.577 37.0323 122.674 36.9927C122.917 36.9839 123.091 36.7921 123.067 36.5674C122.992 35.8181 122.95 35.4435 122.871 34.6965ZM112.84 40.2254C112.91 41.422 112.738 42.4555 112.317 43.326C111.896 44.1964 111.244 44.8597 110.36 45.3181C109.477 45.7764 108.41 46.0056 107.167 46.0056C105.924 46.0056 104.847 45.7786 103.941 45.3225C103.035 44.8685 102.346 44.214 101.872 43.3568C101.398 42.5018 101.165 41.4837 101.16 40.3026C101.158 39.1236 101.385 38.1055 101.837 37.2483C102.288 36.3911 102.936 35.7344 103.785 35.2738C104.633 34.8133 105.64 34.5775 106.815 34.5598C107.989 34.5444 109.014 34.7538 109.895 35.1945C110.777 35.6352 111.471 36.2853 111.973 37.1425C112.478 38.0019 112.769 39.0311 112.84 40.2254ZM109.252 40.2651C109.153 37.8653 108.025 36.9067 106.896 36.8715C105.77 36.931 104.704 37.9072 104.75 40.2959C104.796 42.6847 105.938 43.6499 107.106 43.694C108.269 43.6433 109.351 42.6649 109.252 40.2651Z" fill="#0D1824"/>
<path id="Vector_2" d="M24.6802 13.178C25.7931 13.6143 25.5617 15.7585 25.0306 17.4068C24.667 18.5329 24.1227 19.5554 23.4352 20.4501C23.2192 20.7321 22.7829 20.6418 22.6749 20.3024C22.4633 19.6413 22.0557 19.1367 21.4937 18.9362C20.3082 18.5109 18.8912 19.5862 18.3249 21.3359C18.2081 21.6973 18.1376 22.0609 18.1089 22.4113C18.0803 22.7617 17.6814 22.9468 17.3994 22.7352L17.3905 22.7286C17.2693 22.6383 17.2054 22.4884 17.2231 22.3364C17.3597 21.1156 17.8247 19.6501 18.6136 18.1561C20.3831 14.7955 23.1024 12.5588 24.6802 13.178ZM13.3799 19.5245C16.1168 16.5011 18.9375 13.4733 22.4391 11.3027C22.6815 11.1529 22.7256 10.8157 22.5228 10.613L14.7484 2.84069C14.4663 2.55863 14.0035 2.58727 13.7589 2.90239C12.3155 4.75566 8.37982 10.981 12.6571 19.4254C12.818 19.7427 13.1419 19.7868 13.3799 19.5245ZM57.2436 39.6174C55.8707 40.2234 54.3414 40.5253 52.6379 40.5253C52.1994 40.5253 51.7499 40.5055 51.2871 40.4658C46.265 40.0361 41.9172 36.5455 38.0806 33.4648C37.4349 32.947 36.8003 32.4379 36.1767 31.9531C35.8593 31.7063 35.4054 31.9796 35.4759 32.3762C35.531 32.7002 35.5618 33.0307 35.5618 33.3701C35.5618 33.5023 35.5574 33.6367 35.5486 33.7667C35.5288 34.0532 35.2423 34.2449 34.9691 34.1546C33.7438 33.7469 32.3379 34.029 31.3617 35.0052C30.7535 35.6134 30.4163 36.3869 30.3458 37.1802C30.3039 37.6496 30.7667 38.0043 31.214 37.8567C31.8928 37.6341 32.5318 37.2551 33.0717 36.7152C33.2987 36.4882 33.6733 36.5015 33.8849 36.7527C34.0744 36.9796 34.0281 37.3212 33.8166 37.5284C32.9395 38.39 31.8553 38.9189 30.7248 39.1128C30.7248 39.115 30.7248 39.115 30.727 39.1172C30.6962 39.1216 30.6631 39.1238 30.6323 39.1304C30.5221 39.148 30.4119 39.1635 30.2995 39.1745C30.2378 39.1811 30.1761 39.1833 30.1144 39.1877C30.0285 39.1943 29.9425 39.1965 29.8566 39.1987C29.8125 39.1987 29.7706 39.2053 29.7288 39.2053C29.2528 39.2053 28.7922 39.1458 28.3493 39.0379C28.3427 39.0356 28.3383 39.0357 28.3317 39.0334C28.2612 39.0158 28.1928 38.9982 28.1245 38.9784C28.0959 38.9695 28.0672 38.9629 28.0386 38.9541C27.9923 38.9409 27.946 38.9255 27.8997 38.91C27.8491 38.8924 27.7962 38.877 27.7455 38.8572C27.7235 38.8483 27.7014 38.8395 27.6772 38.8307C26.9191 38.5486 26.2073 38.1035 25.5969 37.4953C25.5815 37.4799 25.5705 37.4622 25.5573 37.4468C25.4184 37.3058 25.262 37.1207 25.1143 36.9312C24.8168 36.5477 25.0262 35.9836 25.5 35.8844C25.7247 35.8382 25.9495 35.7831 26.1721 35.7214C28.4837 35.0845 30.5596 33.6896 32.0162 31.7306C32.1704 31.5234 32.1153 31.2237 31.8862 31.0893C31.6878 30.9703 31.4278 31.043 31.289 31.2303C29.4159 33.7359 26.4365 35.2299 23.314 35.2299C18.8405 35.2299 15.0459 32.2616 13.7986 28.1893C13.7347 27.9799 13.9837 27.8081 14.1512 27.9513C14.799 28.5088 15.6541 28.835 16.584 28.7997C18.4241 28.7292 19.863 27.2065 19.9644 25.3862C19.9644 25.373 19.9666 25.3378 19.9666 25.2871C19.971 24.9191 19.6735 24.6194 19.3055 24.6194H13.3733C13.3711 24.6194 13.3689 24.6194 13.3645 24.6194H13.1441C12.7783 24.6194 12.483 24.9147 12.483 25.2805C12.483 27.991 13.4857 30.4701 15.1362 32.3718C15.2861 32.5437 15.2861 32.7993 15.1318 32.9668C15.1252 32.9734 15.1186 32.98 15.112 32.9866C13.8096 34.3683 11.3724 35.6024 8.88225 35.5737C8.08893 35.5627 7.15238 35.4173 6.20702 34.9743C5.80816 34.787 5.40929 35.2454 5.6517 35.6134C11.6082 44.7012 21.8838 50.704 33.5631 50.704C43.0763 50.704 51.6573 46.7198 57.7328 40.3314C58.0633 39.9854 57.6843 39.4235 57.2436 39.6174ZM61.1594 27.9315C58.5459 26.0628 56.2872 23.6432 54.0372 21.1596C53.8433 20.9459 53.8125 20.6308 53.9557 20.3818C59.0506 11.4437 54.857 4.81516 53.3629 2.89799C53.1205 2.58507 52.6556 2.56083 52.3779 2.84069L44.7621 10.4609C44.5593 10.6637 44.6034 10.9986 44.8458 11.1485C47.4505 12.7725 49.5749 14.7845 51.2452 16.5077C51.448 16.7171 51.4788 17.0542 51.2871 17.2724C51.1769 17.4002 51.0227 17.4619 50.8706 17.4619C50.7274 17.4619 50.5819 17.4068 50.4739 17.2944C48.5039 15.2627 46.135 13.0458 43.1468 11.4283C43.1402 11.4261 43.1336 11.4239 43.127 11.4195C40.7118 10.1149 37.966 9.24671 34.7024 9.08363C34.5614 9.07702 34.4622 8.9426 34.4997 8.80818L34.9272 7.21494L35.5861 4.75787C35.6786 4.4141 35.3481 4.10779 35.0131 4.22679C34.2837 4.48682 33.2348 5.11927 32.8227 6.6508C32.7478 6.92846 32.7081 7.1907 32.6927 7.43971C32.6817 7.63143 32.4547 7.72398 32.3181 7.58736L31.9787 7.24799L30.1805 5.44981C29.9293 5.1986 29.4996 5.33082 29.4357 5.6812C29.2947 6.44366 29.3189 7.66669 30.4406 8.78835L30.5574 8.90514C30.6874 9.03295 30.6124 9.25332 30.4317 9.27976C28.8429 9.51335 27.3841 9.92543 26.0266 10.4719C25.8834 10.5292 25.8437 10.7143 25.9495 10.8245C26.3065 11.208 26.7605 11.717 27.1175 12.1225C27.2783 12.3054 27.5582 12.3208 27.7411 12.1577C28.3537 11.609 29.2241 10.8245 29.5944 10.4609C29.6825 10.375 29.8037 10.3287 29.9271 10.3353C35.8704 10.6659 42.1023 15.5998 48.1293 20.3707C52.5718 23.8878 56.8271 27.2571 60.7562 28.6983C61.23 28.879 61.5715 28.2267 61.1594 27.9315ZM32.058 18.9229C33.248 18.5042 34.7024 19.3306 35.6015 20.8247C35.6037 20.8269 35.6059 20.8313 35.6059 20.8335C35.7734 21.1134 36.2031 20.9767 36.17 20.6528C36.0973 19.9697 35.9651 19.2623 35.7646 18.5461C34.7465 14.9145 32.404 12.5059 30.5331 13.167C28.6622 13.8281 27.9703 17.3077 28.9884 20.9393C29.3806 22.3364 29.9668 23.5506 30.6477 24.4805C30.7094 24.5665 30.8108 24.615 30.9165 24.615C31.1656 24.615 31.3264 24.3505 31.2118 24.1302C31.1083 23.9362 31.0157 23.7313 30.932 23.5175C30.1431 21.477 30.6477 19.4188 32.058 18.9229Z" fill="#EBEFF0"/>
</g>
</svg>
