<?xml version="1.0" encoding="utf-8"?>
<!-- Generator: Adobe Illustrator 24.2.3, SVG Export Plug-In . SVG Version: 6.00 Build 0)  -->
<svg version="1.1" id="layer" xmlns="http://www.w3.org/2000/svg" xmlns:xlink="http://www.w3.org/1999/xlink" x="0px" y="0px"
	 viewBox="0 0 420 420" style="enable-background:new 0 0 420 420;" xml:space="preserve">
<style type="text/css">
	.st0{fill:#EBEFF0;}
	.st1{fill:#0D1824;}
</style>
<g>
	<path class="st0" d="M149.77,34.15c0,4.83,0,12.9-4.29,12.9c-0.76,0-1.43-0.29-1.98-0.86c-1.32-1.38-1.99-4.54-1.82-8.68
		c0.03-0.63,0.14-1.52,0.26-2.48c0.43-3.37,0.48-4.75,0.19-5.43l-0.12-0.21c-0.89-1.42-2.98-4.73-2.42-14.68
		c0.48-8.56,2.08-12.81,4.63-12.71c3.93,0.2,4.26,5.83,4.26,12.1c0,3.12,0.33,6.61,0.64,9.99
		C149.44,27.48,149.77,30.99,149.77,34.15z M2.01,67.73c0.15,8.3,1.19,13.26,3.19,15.14c0.62,0.59,1.34,0.89,2.13,0.89h0.12
		c1.91-0.07,2.99-2.17,2.97-5.74c-0.01-1.81-0.31-3.61-0.6-5.36c-0.26-1.54-0.5-2.98-0.57-4.46c-0.08-1.71,0.02-2.95,0.13-4.26
		c0.1-1.26,0.21-2.55,0.16-4.31c-0.04-1.4-0.21-3.13-1.27-4.12c-0.54-0.5-1.24-0.76-2.1-0.76c-0.07,0-0.14,0-0.21,0
		C3.19,54.85,1.86,59.22,2.01,67.73z M41.17,57.21l0.13,4.63c0.26,9.85,0.46,17.62,4.48,17.72l0,0c0.63,0,1.13-0.22,1.54-0.64
		c1.73-1.79,1.58-6.83,1.21-13.24c-0.08-1.4-0.16-2.68-0.17-3.7c-0.01-0.75-0.01-1.69,0-2.74c0.04-7.14-0.11-14.27-2.44-16.47
		c-0.49-0.47-1.06-0.7-1.7-0.7c-0.05,0-0.1,0-0.15,0C40.85,42.26,40.85,47.12,41.17,57.21z M5.54,2C5.52,2,5.49,2,5.47,2
		c-3.3,0.12-3.49,5.63-3.41,10.78c0.1,6.56,0.87,10.3,2.4,11.77l0,0c0.48,0.46,1.05,0.7,1.67,0.7c3.17-0.09,3.46-5.15,3.5-10.33
		C9.69,6.8,8.38,3.8,7.27,2.72C6.77,2.24,6.19,2,5.54,2z M5.99,32.18L5.99,32.18c-2.14,0.11-3.36,2.47-3.28,6.32
		c0.04,1.82,0.61,4.41,2.07,5.76c0.67,0.61,1.45,0.9,2.31,0.84c0.83-0.06,1.53-0.4,2.07-1.03c1.35-1.55,1.25-4.38,1.19-5.2
		l-0.01-0.1c-0.23-3.09-0.9-6.59-4.12-6.59C6.15,32.17,6.07,32.17,5.99,32.18z M415.84,397.04c-4.08-18.38-19.12-30.68-33.29-40.29
		l-1.66-1.13l1.14-1.66c2.11-3.07,4.93-6.74,8.51-11.38l0.46-0.6c0.9-1.17,1.85-2.41,2.86-3.71c10.81-14.09,15.09-27.13,11.75-35.77
		c-0.72-1.86-1.8-3.47-3.21-4.78l-1.27-1.18l0.99-1.42c6.33-9.15,11.66-19.03,15.85-29.36c0.1-0.25-0.01-0.53-0.25-0.64
		c-15.64-7.16-28.09-18.65-41.96-33.68c-1.83-1.99-3.67-4-5.51-6.04l-0.98-1.08l0.73-1.26c22.51-39.12,6.25-68.45-1.78-79.24
		c-0.78-1.05-1.97-1.7-3.27-1.79s-2.58,0.38-3.51,1.31l-38.93,38.93l-1.31-0.72c-1.33-0.72-2.78-1.46-4.59-2.31l-1.56-0.74v-0.01
		c-9.73-4.41-19.83-6.92-30.82-7.67l-2.42-0.17l6.93-25.85c0.04-0.16,0-0.32-0.1-0.45s-0.25-0.2-0.41-0.18
		c-3.73,0.24-11.42,3.1-13.85,12.17c-0.43,1.59-0.64,3.17-0.64,4.69v4.83l-13.85-13.85c-0.12-0.11-0.27-0.17-0.43-0.14
		s-0.3,0.13-0.37,0.27c-1.47,2.97-2.87,10.28,2.34,16.66l2.15,2.64l-3.35,0.6c-9.48,1.69-18.3,4.8-26.94,9.52l-1.31,0.72
		l-38.94-38.94c-0.93-0.93-2.21-1.41-3.52-1.31c-1.3,0.1-2.49,0.75-3.27,1.79c-8.04,10.79-24.29,40.12-1.78,79.24l0.73,1.26
		l-0.98,1.08c-15.78,17.41-29.3,31.39-47.48,39.72c-0.24,0.11-0.36,0.39-0.26,0.64c3.02,7.44,6.7,14.76,10.96,21.77l4.21,6.93
		l-6.95-4.18c-5.46-3.29-13.43-8.37-20.44-13.94l-1.11-0.88l0.46-1.34c2.92-8.43,1.15-17.76-2.17-21.58l-0.55-0.63l0.07-0.84
		c0.29-3.6,0.07-7.36-0.65-11.18l-0.15-0.77l0.42-0.67c3.52-5.56,5.21-13,5.02-22.11c-0.19-9.61-4.51-21.41-16.06-25.7
		c-6.02-2.24-12.36-1.58-16.97,1.76l-2.92,2.11l-3.48-50.67c-0.67-9.8,6.75-18.31,16.55-18.99l45.17-3.1l-1.6-23.35l0.2-11.67
		L3.28,96.41l1.81,11.76l1.6,23.26l45.17-3.1c9.78-0.66,18.32,6.76,18.99,16.55l2.83,41.29l-2.45-0.36
		c-6.88-1-14.45-0.02-21.33,2.75c-9.51,3.83-15.54,11.32-16.14,20.02c-0.48,7,2.65,13.34,8.59,17.38l1.97,1.34l-1.67,1.71
		c-2.41,2.47-3.7,5.52-3.74,8.83c-0.06,5.46,3.55,10.75,9.91,14.53l1.91,1.14l-1.34,1.78c-1.22,1.62-1.92,3.71-2.09,6.21
		c-0.62,8.92,9.13,17,22.68,18.78l1,0.13l0.49,0.88c1.43,2.57,3.85,4.94,6.98,6.86l0.69,0.42l0.2,0.79
		c13.79,53.98,42.66,93.27,63.19,110.51c32.85-0.63,58.38-10.66,70.67-16.58l5.06-2.44l-2.38,5.09
		c-4.77,10.18-10.15,22.06-14.94,34.04h216.53C417.87,412.86,417.59,404.9,415.84,397.04z M107.25,61.6c-2.35,0.08-3.5,2.58-3.42,5
		c0.04,1.44,0.64,2.83,1.59,3.7c0.72,0.66,1.59,1,2.58,1h0.21c1.28-0.06,2.02-0.62,2.42-1.09c0.98-1.14,0.92-2.76,0.85-3.4
		l-0.03-0.31c-0.24-2.44-0.9-4.91-4.01-4.91C107.37,61.6,107.31,61.6,107.25,61.6z M143.68,76.26c0.45,0.47,1.04,0.72,1.75,0.73
		c3.56,0,3.94-5,4.04-10.57c0.14-7.64-1.09-10.47-2.15-11.5c-0.5-0.48-1.07-0.71-1.74-0.69c-3.24,0.16-3.33,3.91-3.12,8.81
		c0.04,0.99,0.08,1.98,0.08,2.92c0,0.79-0.02,1.6-0.04,2.4C142.42,71.87,142.35,74.88,143.68,76.26z M81.17,32.08
		c0.37-7.99,0.55-16.67-2.02-18.63c-0.36-0.28-0.78-0.42-1.22-0.42c-0.24,0-0.49,0.04-0.74,0.12c-2.7,0.88-2.98,7.45-3.05,15.3
		c-0.01,0.98-0.02,1.8-0.03,2.52l-0.03,1.33c-0.3,11.95-0.22,21.1,3.57,21.26c0.63,0,1.06-0.2,1.46-0.59
		c2.3-2.25,2.11-10.91,1.99-16.08c-0.02-0.83-0.03-1.49-0.03-1.98c0-0.58,0.04-1.51,0.09-2.66L81.17,32.08z M46.24,24.24h0.21
		c1.28-0.06,2.02-0.62,2.42-1.09c0.98-1.14,0.92-2.76,0.85-3.4l-0.03-0.28c-0.23-2.31-0.88-4.94-3.96-4.94c-0.07,0-0.15,0-0.23,0
		c-2.35,0.08-3.51,2.58-3.43,5c0.04,1.44,0.64,2.83,1.59,3.7C44.38,23.91,45.25,24.24,46.24,24.24z M106.76,35.84
		c-0.08,0-0.15,0-0.23,0.01c-2.77,0.25-3.71,2.67-3.59,9.24c0.1,5.1,0.43,8.33,1.89,9.72c0.57,0.55,1.29,0.82,2.2,0.82h0.1
		c2.88-0.06,3.43-3.6,3.43-10.1c0-4.69-0.72-7.72-2.14-9.01C107.92,36.07,107.36,35.84,106.76,35.84z"/>
	<path class="st1" d="M57.98,205.16c-0.04-1.05,0.7-1.91,1.47-2.54c1.03-0.84,2.9-1.45,5.66-1.82c1.33-0.18,2.86-0.31,4.61-0.38
		c5.38-0.23,12.28,0.82,12.22,4.05c-0.05,2.87-4.57,6.02-11.57,6.08C62.85,210.62,58.08,207.72,57.98,205.16z M141.72,105.81
		c-0.06-0.83-0.78-1.45-1.6-1.39l-126.26,8.66c-0.83,0.06-1.45,0.77-1.39,1.6c0.05,0.79,0.71,1.4,1.5,1.4c0.03,0,0.07,0,0.1,0
		l126.26-8.66C141.15,107.36,141.78,106.64,141.72,105.81z M262.9,184.97c3.23-1.13,6.78-0.74,10.25,1.13
		c7.22,3.88,13.62,13.85,16.7,26.03c2.48,9.78,2.52,19.72,0.2,27.33c4.84-0.57,10.21-2.09,11.91-3.55c0.84-0.72,2.1-0.62,2.82,0.22
		s0.62,2.1-0.22,2.82c-3.28,2.81-12.04,4.58-17.4,4.73c-0.03,0-0.06,0-0.09,0c-0.22,0.01-0.44,0.01-0.64,0.01h-23.31c0,0,0,0-0.01,0
		h-0.01h-8.64c-1.1,0-2-0.9-2-2s0.9-2,2-2h4.93c-2.64-4.35-4.75-9.5-6.17-15.12C248.49,205.91,252.74,188.52,262.9,184.97z
		 M257.09,223.59c1.56,6.18,4,11.71,7.06,16.1h21.6c2.59-7.03,2.68-16.84,0.22-26.58c-1.11-4.39-2.67-8.44-4.52-11.96
		c1.21,7.85-1.36,14.83-6.71,16.77c-6.52,2.37-14.69-3.63-18.25-13.41c-0.23-0.62-0.42-1.25-0.6-1.87
		C254.89,208.73,255.2,216.14,257.09,223.59z M113.43,66.32l-0.99,0.12l1-0.1l0.03,0.27c0.1,0.89,0.16,3.17-1.33,4.9
		c-0.65,0.76-1.85,1.69-3.84,1.78c-0.1,0-0.2,0.01-0.3,0.01c-1.49,0-2.86-0.53-3.94-1.53c-1.33-1.23-2.17-3.14-2.23-5.11
		c-0.11-3.41,1.7-6.94,5.36-7.06C110.87,59.49,112.99,61.75,113.43,66.32z M109.48,67.03l-0.03-0.3c-0.24-2.45-0.73-3.19-2.13-3.14
		c-1.32,0.05-1.51,2.33-1.5,2.94c0.02,0.73,0.32,1.72,0.94,2.3c0.37,0.34,0.81,0.49,1.34,0.47c0.62-0.03,0.86-0.24,1-0.39
		C109.48,68.46,109.55,67.62,109.48,67.03z M140.29,30.42c-1.01-1.6-3.29-5.33-2.7-15.81c0.39-6.93,1.51-14.82,6.73-14.6
		c6.16,0.31,6.16,8.6,6.16,14.09c0,3.02,0.32,6.47,0.63,9.79c0.32,3.45,0.66,7.01,0.66,10.26c0,5.57,0,14.9-6.29,14.9
		c-1.31,0-2.49-0.51-3.42-1.48c-2.21-2.3-2.51-6.78-2.38-10.14l0,0c0.03-0.71,0.14-1.6,0.27-2.64
		C140.27,32.37,140.38,30.9,140.29,30.42z M143.71,28.33l0.07,0.12c0.79,1.26,0.57,3.54,0.15,6.86c-0.11,0.9-0.22,1.76-0.24,2.29
		c-0.11,2.82,0.23,6.14,1.27,7.21c0.2,0.21,0.36,0.25,0.54,0.25c1.52,0,2.29-3.67,2.29-10.9c0-3.07-0.32-6.54-0.64-9.89
		c-0.32-3.42-0.65-6.96-0.65-10.17c0-4.83-0.18-9.99-2.36-10.1l0,0c-0.02,0-1.96,0.55-2.53,10.83
		C141.07,24.14,142.92,27.07,143.71,28.33z M100.94,45.13c-0.1-5.21,0.23-10.8,5.4-11.27c1.26-0.12,2.45,0.29,3.43,1.19
		c1.9,1.74,2.79,5.07,2.79,10.49c0,5.05,0,11.98-5.38,12.09h-0.15c-1.43,0-2.64-0.46-3.59-1.37
		C101.48,54.37,101.05,50.89,100.94,45.13z M104.94,45.05c0.07,3.57,0.27,7.35,1.27,8.32c0.14,0.13,0.34,0.27,0.87,0.26
		c0.99-0.02,1.47-2.67,1.47-8.1c0-5.73-1.14-7.22-1.49-7.53c-0.19-0.17-0.31-0.16-0.37-0.16C106.04,37.9,104.81,38.01,104.94,45.05z
		 M42.3,24.71c-1.33-1.23-2.17-3.14-2.23-5.11c-0.11-3.41,1.7-6.94,5.36-7.06c2.54-0.09,5.69,0.98,6.25,6.74l0.03,0.27
		c0.1,0.89,0.16,3.17-1.33,4.91c-0.65,0.76-1.85,1.69-3.84,1.78c-0.1,0-0.2,0.01-0.3,0.01C44.75,26.24,43.39,25.71,42.3,24.71z
		 M44.07,19.48c0.03,0.89,0.4,1.79,0.94,2.3c0.37,0.34,0.81,0.49,1.34,0.47c0.62-0.03,0.86-0.24,0.99-0.39
		c0.38-0.45,0.45-1.29,0.38-1.88l-0.03-0.3c-0.23-2.38-0.71-3.14-2.01-3.14c-0.04,0-0.08,0-0.13,0
		C44.25,16.58,44.05,18.87,44.07,19.48z M72.07,32.27l0.03-1.33c0.02-0.71,0.02-1.52,0.03-2.4c0.09-9.62,0.44-15.97,4.43-17.27
		c1.35-0.44,2.7-0.23,3.79,0.6l0,0c3.04,2.31,3.33,8.92,2.8,20.31l-0.01,0.18c-0.05,1.11-0.09,2.01-0.09,2.57
		c0,0.48,0.01,1.13,0.03,1.89c0.17,7.79,0.1,14.96-2.59,17.6c-0.78,0.76-1.74,1.17-2.78,1.17h-0.17
		C71.91,55.34,71.72,46.62,72.07,32.27z M76.18,45.83c0.46,5.38,1.53,5.75,1.55,5.75c0.58-0.36,1.63-2.77,1.37-14.63
		c-0.02-0.82-0.03-1.52-0.03-2.03c0-0.65,0.05-1.66,0.11-2.93c0.64-13.88-0.5-16.58-1.25-16.95c0,0-0.04,0.01-0.11,0.03
		c-1.56,0.79-1.65,10.3-1.68,13.42c-0.01,0.93-0.02,1.79-0.03,2.55l-0.03,1.34C75.96,36.81,75.84,41.84,76.18,45.83z M140.5,68.34
		c0.02-0.81,0.04-1.6,0.04-2.38c0-0.92-0.04-1.87-0.08-2.82c-0.18-4.25-0.46-10.65,5.03-10.91l0,0c1.22-0.05,2.33,0.38,3.22,1.25
		c1.98,1.92,2.88,6.16,2.75,12.97c-0.09,4.99-0.23,12.54-5.98,12.54c-1.33-0.02-2.42-0.48-3.25-1.34
		C140.33,75.66,140.41,72.27,140.5,68.34z M144.46,62.96c0.04,1.01,0.09,2.03,0.09,3c0,0.82-0.02,1.65-0.04,2.48
		c-0.06,2.39-0.14,5.65,0.62,6.43c0.04,0.05,0.11,0.11,0.33,0.11h0.01c1.84,0,1.95-5.6,2-8.61c0.11-6.18-0.76-9.26-1.54-10.02
		c-0.11-0.11-0.17-0.12-0.22-0.12c-0.01,0-0.02,0-0.02,0C144.28,56.3,144.29,59.06,144.46,62.96z M12.34,38.61l0.01,0.1
		c0.1,1.31,0.13,4.59-1.68,6.67C9.78,46.41,8.59,47,7.23,47.09C7.11,47.1,6.99,47.1,6.87,47.1c-1.27,0-2.46-0.47-3.44-1.37
		c-1.93-1.77-2.68-4.87-2.73-7.19c-0.11-5.07,1.83-8.2,5.18-8.36C11.69,29.86,12.18,36.45,12.34,38.61z M8.36,39.01L8.35,38.9
		c-0.26-3.52-0.87-4.81-2.27-4.73c-0.95,0.05-1.42,2.24-1.38,4.28c0.04,1.79,0.64,3.6,1.43,4.32c0.34,0.31,0.62,0.33,0.82,0.32
		c0.3-0.02,0.51-0.12,0.7-0.34C8.2,42.13,8.48,40.63,8.36,39.01z M0.01,67.76c0-0.35-0.01-0.7-0.01-1.07v-0.43
		c0-6.1,0.8-13.32,5.89-13.52c1.48-0.08,2.78,0.38,3.76,1.29c1.6,1.5,1.86,3.74,1.9,5.53c0.05,1.87-0.06,3.22-0.17,4.52
		c-0.1,1.26-0.2,2.43-0.13,4.01c0.06,1.36,0.29,2.75,0.54,4.22c0.31,1.83,0.62,3.71,0.63,5.68c0.03,7.02-3.74,7.71-4.9,7.75H7.33
		c-1.3,0-2.52-0.5-3.51-1.43C1.35,81.99,0.18,76.88,0.01,67.76z M4.01,67.69c0.18,10.01,1.68,12.9,2.56,13.73
		c0.33,0.31,0.59,0.34,0.8,0.34c0.52-0.02,1.06-1.34,1.05-3.74c-0.01-1.65-0.28-3.29-0.57-5.04c-0.25-1.52-0.52-3.1-0.59-4.7
		c-0.08-1.83,0.03-3.2,0.14-4.52c0.1-1.2,0.2-2.44,0.16-4.1c-0.05-1.79-0.37-2.46-0.64-2.71c-0.06-0.06-0.23-0.22-0.75-0.22
		c-0.04,0-0.07,0-0.11,0C5.43,56.77,3.85,58.78,4.01,67.69z M0.06,12.81C-0.01,8.1-0.14,0.2,5.4,0c1.24-0.03,2.36,0.41,3.26,1.29
		c2.05,1.99,3.02,6.46,2.97,13.65c-0.03,4.54-0.09,12.15-5.37,12.31H6.13c-1.14,0-2.19-0.43-3.05-1.25
		C1.08,24.08,0.17,20.14,0.06,12.81z M4.06,12.75c0.12,7.64,1.17,9.77,1.78,10.35c0.16,0.15,0.24,0.15,0.3,0.14
		c0.43-0.01,1.43-0.85,1.49-8.34C7.68,8.29,6.76,5.01,5.88,4.16C5.71,3.99,5.61,3.99,5.55,4C5.06,4.02,3.94,4.91,4.06,12.75z
		 M419.82,316.51c-3.86,9.52-8.65,18.55-14.24,27.01c2.54,1.82,4.53,4.39,5.75,7.54c2.84,7.34,1.85,16.32-2.6,25.82
		c4.42,5.77,7.77,12.25,9.44,19.73c1.78,8.02,2.07,16.12,1.67,23.39h-5.04c0.42-6.98,0.18-14.74-1.51-22.31
		c-3.63-16.33-16.53-27.78-30.68-37.53c-0.17,0.33-0.33,0.65-0.47,0.98c-0.02,0.04-0.05,0.07-0.06,0.1c0.04,0.7,0.06,1.42,0.07,2.14
		c7.18,4.91,13.32,11.8,16.76,18.82c2.77,2.03,5.31,4.21,7.52,6.63c0.75,0.82,0.69,2.08-0.13,2.83c-0.38,0.35-0.87,0.52-1.35,0.52
		c-0.54,0-1.08-0.22-1.48-0.65c-5.69-6.23-14-10.92-22.88-15.78c-0.48,1.77-1.08,3.52-1.8,5.21c12.25,11.05,10.68,30.71,7.45,39.04
		H336.3c-3.27-4.83-6.06-10.08-8.11-14.58c-1.77-0.48-3.49-1.06-5.13-1.75c1.93,4.65,4.88,10.64,8.47,16.32h-7.73
		c-1.99-4.52-3.47-9.45-4.32-14.48c-0.68-1.62-1.26-3.16-1.74-4.56c-0.68-0.41-1.33-0.84-1.97-1.28c0.07,1.01,0.16,1.97,0.23,2.64
		c0.65,6.08,2.24,12.14,4.54,17.67h-14.6c-0.85-1.4-1.5-2.84-1.9-4.29c-0.38-1.35-1.47-2.36-2.82-2.75
		c-8.84-2.55-15.22-10.39-17.81-20.52c-2.07,0.08-4.14,0.14-6.22,0.14c-5.48,0-10.92-0.3-16.31-0.87l-2.5,4.23
		c-0.4,0.68-1.18,1.05-1.96,0.97c-0.79-0.09-1.44-0.64-1.68-1.4l-1.47-4.78c-8.23-1.28-16.31-3.23-24.18-5.81
		c-2.29-0.75-3.41-3.35-2.37-5.53c1.6-3.34,3.11-6.48,4.49-9.35c2.36-4.89,4.43-9.19,6.05-12.68c-1.3-0.35-2.6-0.74-3.89-1.12
		c-1.56,3.35-3.53,7.44-5.76,12.06c-6.48,13.44-15.76,32.68-23.41,51.72h-93.04c-13.89-20.28-27.3-47.06-35.53-78.87
		c-3.05-1.99-5.51-4.38-7.18-7.01c-15.4-2.36-25.94-11.87-25.18-22.89c0.17-2.45,0.75-4.63,1.74-6.51
		c-6.54-4.46-10.21-10.54-10.14-16.91c0.04-3.61,1.2-6.98,3.39-9.86c-5.98-4.87-9.07-11.91-8.54-19.63
		c0.38-5.48,2.54-10.52,6.14-14.71c-0.67-1.88-1.01-3.82-0.99-5.8c0.04-3.61,1.2-6.98,3.39-9.86c-5.98-4.87-9.07-11.91-8.54-19.63
		c0.71-10.27,7.68-19.04,18.64-23.46c5.59-2.25,11.64-3.44,17.5-3.44c0.89,0,1.77,0.04,2.64,0.09l-0.96-31.35
		c-0.49-7.21-6.55-12.86-13.79-12.86c-0.31,0-0.63,0.01-0.94,0.03l-39.15,3.1c-0.1,0.01-0.2,0.01-0.3,0.01
		c-0.96,0-1.89-0.35-2.62-0.99c-0.81-0.7-1.29-1.68-1.36-2.74l-0.37-1.38l-1.35,0.09c-0.1,0.01-0.2,0.01-0.3,0.01
		c-0.96,0-1.89-0.35-2.62-0.99c-0.81-0.7-1.29-1.68-1.36-2.74l-1.59-23.18l-1.74-11.5c-0.17-1.1,0.13-2.24,0.83-3.11
		s1.74-1.42,2.85-1.49l143.16-9.68c0.1-0.01,0.19-0.01,0.29-0.01c1.03,0,2,0.39,2.75,1.1c0.81,0.77,1.26,1.85,1.24,2.97l-0.2,11.5
		l1.59,23.18c0.07,1.07-0.27,2.1-0.97,2.9c-0.7,0.81-1.68,1.29-2.74,1.36l-1.2,0.08l-0.08,0.65c0.07,1.07-0.27,2.1-0.97,2.9
		c-0.7,0.81-1.68,1.29-2.74,1.36l-40.17,3.1c-6.56,0.45-11.74,5.44-12.7,11.69l2.85,41.54c2.63-1.15,5.54-1.74,8.57-1.74
		c2.86,0,5.72,0.52,8.5,1.56c13.43,4.99,18.44,18.44,18.66,29.37c0.19,9.55-1.57,17.51-5.23,23.66c0.54,3.1,0.75,6.17,0.67,9.16
		c3.07,5.42,4.44,11.62,4.56,17.18c0.06,3.11-0.11,6.04-0.46,8.8c4.55,3.44,9.62,6.84,14.42,9.83c-3.36-5.9-6.36-12.03-8.94-18.38
		c-0.5-1.24,0.06-2.66,1.28-3.21c14.53-6.65,26.28-17.31,37.69-29.35c-0.04-8.13,1.41-15.32,3.46-21.4
		c-14.21-34.34,0.08-59.84,7.59-69.94c1.13-1.51,2.85-2.46,4.73-2.6c1.89-0.14,3.74,0.55,5.07,1.89l37.89,37.89
		c8.23-4.49,17.29-7.9,27.55-9.73c-5.81-7.12-4.33-15.28-2.58-18.81c0.36-0.72,1.04-1.23,1.83-1.36c0.8-0.13,1.6,0.13,2.17,0.7
		l10.43,10.43c0-1.61,0.21-3.34,0.71-5.21c2.73-10.17,11.43-13.38,15.65-13.65c0.8-0.05,1.58,0.29,2.09,0.91
		c0.51,0.62,0.69,1.45,0.48,2.23l-6.3,23.5c11.79,0.8,22.72,3.64,33.11,8.58c0,0.01,0,0.01,0,0.02c1.57,0.74,3.14,1.52,4.69,2.36
		L360,141.91c1.34-1.34,3.19-2.03,5.08-1.89c1.88,0.14,3.6,1.08,4.73,2.59c7.25,9.74,20.8,33.81,9,66.32
		c2.93,7.52,5.06,16.85,4.58,27.65c10.38,10.69,21.61,20.49,35.17,26.7c1.22,0.56,1.78,1.97,1.28,3.21
		c-3.86,9.52-8.65,18.55-14.24,27.01c2.54,1.82,4.53,4.39,5.75,7.54c1.12,2.89,1.63,6.04,1.59,9.38c1.83,1.02,3.7,1.98,5.62,2.86
		C419.76,313.85,420.32,315.27,419.82,316.51z M365.1,151.07c7.38,11.95,16.4,35.59,0.38,66.1c0.9,0.99,1.81,1.99,2.7,2.98
		c20.01-36.11,5.84-63.19-1.93-73.91C365.89,147.85,365.5,149.46,365.1,151.07z M279.16,168.49l0.07,0.07l5.46-20.39
		c-2.67,1.17-6.03,3.65-7.45,8.95C276.1,161.35,276.75,165.18,279.16,168.49z M264.78,168.09c0.61,0.61,1.27,1.17,1.94,1.66
		c0.83,0.6,1.22,1.65,0.96,2.65s-1.1,1.73-2.12,1.86c-1.63,0.2-3.22,0.45-4.79,0.73c26.96,1.55,55.23,24.42,82.56,46.54
		c16.33,13.22,32.1,25.97,46.98,33.9c7.02,6.04,12.5,9.68,17.18,12.32c0.91,0.51,1.28,1.64,0.83,2.59
		c-3.66,7.79-8.01,15.2-12.96,22.16c1.08-0.04,2.16,0.03,3.23,0.21c0.44,0.08,0.88,0.18,1.3,0.29c0.33-0.48,0.67-0.96,0.99-1.44
		c0.09-0.14,0.18-0.27,0.27-0.41c0.61-0.92,1.21-1.84,1.8-2.77c0.17-0.28,0.35-0.55,0.52-0.83c0.5-0.8,0.99-1.6,1.48-2.41
		c0.2-0.34,0.4-0.68,0.6-1.02c0.44-0.76,0.88-1.52,1.31-2.28c0.21-0.37,0.42-0.74,0.62-1.12c0.41-0.75,0.82-1.5,1.22-2.26
		c0.2-0.38,0.41-0.76,0.61-1.15c0.4-0.78,0.8-1.56,1.19-2.35c0.18-0.36,0.36-0.72,0.54-1.09c0.44-0.9,0.87-1.81,1.29-2.73
		c0.11-0.25,0.23-0.49,0.35-0.74c0.02-0.05,0.05-0.11,0.07-0.16c0.84-1.91,0.1-4.14-1.73-5.14c-1-0.55-1.98-1.11-2.96-1.7
		c-0.47-0.28-0.94-0.58-1.41-0.87c-0.44-0.27-0.88-0.54-1.31-0.81c0.01,0,0.01,0,0.02,0.01c-13.35-8.59-24.59-20.3-34.75-31.45
		c0,0,0.01,0,0.01-0.01c-1.61-1.76-3.21-3.52-4.8-5.28c-7.75-8.56-15.76-17.42-24.38-25.14c-0.9-0.8-1.09-2.13-0.47-3.16
		c8.83-14.58,15.43-30.82,19.66-48.34l-36.3,36.3c-0.84,0.84-2.14,0.97-3.12,0.33c-2.39-1.36-4.8-2.59-7.25-3.7l0,0
		c-10.3-4.68-21.17-7.2-32.96-7.64c-0.82-0.03-1.65-0.05-2.49-0.06c-0.1,0-0.21-0.01-0.31-0.01c-0.65-0.01-1.28-0.27-1.74-0.73
		l-15.68-15.68C260.44,160.06,260.91,164.22,264.78,168.09z M370.59,313.47c-1.66,5.46-3.77,10.7-5.98,15.73
		c2.47-1.8,4.89-3.67,7.23-5.61c0.9-2.29,1.72-4.57,2.52-6.81c0.51-1.42,1.02-2.81,1.53-4.19
		C374.18,312.97,372.41,313.26,370.59,313.47z M249.33,225.55c0.76,3,1.69,5.86,2.8,8.56c0.36,0.88,0.06,1.94-0.76,2.43
		c-1.89,1.14-3.11,3.28-2.89,5.69c0.28,3.14,3.07,5.46,6.22,5.46h8.05l0,0h0.35h0.47l0,0h22.85c0.2,0,0.4-0.01,0.61-0.01h0.09
		c0.05,0,0.1,0,0.15,0c5.21-0.15,15.03-1.77,19.65-5.5c1.03-0.83,1.82-1.96,2.14-3.24c0.49-1.96,0.02-3.94-1.25-5.42
		c-1.14-1.33-2.8-2.1-4.56-2.1c-1.43,0-2.82,0.51-3.9,1.45c-0.18,0.14-0.55,0.33-1.06,0.54c-1.38,0.56-2.84-0.54-2.73-2.03
		c0.51-6.37-0.1-13.38-1.84-20.23c-3.4-13.43-10.38-24.11-18.68-28.57c-2.76-1.48-5.59-2.24-8.41-2.24c-1.73,0-3.43,0.29-5.05,0.86
		C249.29,185.49,244.02,204.56,249.33,225.55z M246.93,178.68l3.2,4.21c2.08-1.95,4.46-3.8,6.78-5.59c0.83-0.64,1.64-1.27,2.41-1.89
		c0.12-0.1,0.25-0.17,0.39-0.24C255.24,176.04,250.98,177.22,246.93,178.68z M215.99,197.28c-0.33,0.28-0.67,0.56-1,0.85
		c-0.14,0.12-0.28,0.24-0.42,0.37c-3.5,3.85-6.81,8.39-9.42,12.98c-4.67,8.22-7.42,16.5-7.63,22.92c1.15,0.76,2.32,1.41,3.49,1.94
		c0.03,0.01,0.06,0.03,0.09,0.04c0.59-0.22,1.18-0.46,1.77-0.71c0.08-0.04,0.17-0.07,0.25-0.1c9.54-4.06,18.12-10.87,24.37-19.34
		c0.06-0.09,0.13-0.17,0.19-0.25c0.36-0.49,0.7-0.99,1.04-1.49c0.18-0.27,0.36-0.54,0.54-0.81c0.3-0.45,0.59-0.9,0.87-1.36
		c0.41-0.67,0.81-1.34,1.19-2.02c-3.08,2.66-6.65,3.77-9.78,2.63C216.67,211.14,214.48,204.5,215.99,197.28z M186.23,220.13
		c0.95-1.05,1.9-2.09,2.85-3.14c-1.74-3.32-3.62-7.42-5.21-12.09c-0.48-1.4-0.15-2.96,0.86-4.04c8.28-8.83,16.97-17.31,26.82-24.33
		c1.6-1.14,3.78-0.96,5.17,0.42l7.63,7.63c1.13-0.76,2.29-1.49,3.46-2.21l-36.95-36.95c-0.43-0.43-0.92-0.46-1.18-0.44
		c-0.25,0.02-0.73,0.12-1.08,0.59C180.97,155.86,165.83,183.3,186.23,220.13z M90.92,196.71c0.49,1.38,0.77,2.81,0.8,4.29
		c0.03,1.34-0.11,2.63-0.4,3.88c2.77,0.81,5.34,1.94,7.6,3.43c4.93,3.25,7.7,7.76,7.8,12.69c0.09,4.53-1.66,8.58-4.98,11.69
		c4.08-1.28,6.5-4.87,7.67-7.18c3.61-7.1,3.19-16.31-1.02-22.39c-0.63-0.91-0.4-2.15,0.51-2.78s2.15-0.4,2.78,0.51
		c1.81,2.61,3.02,5.7,3.65,8.97c0.34-0.44,0.61-0.92,0.8-1.44c0.38-1.04,1.53-1.56,2.57-1.18s1.57,1.53,1.18,2.57
		c-0.68,1.83-1.92,3.41-3.48,4.49c1.39,4.42,1.97,9.57,1.1,14.58c-1.05,6.1-5.08,11.37-10.88,13.53c-0.04,0.01-0.08,0.03-0.12,0.04
		c-3.59,1.31-5.17,5.7-2.86,9.09c0.73,1.07,1.82,1.87,3.06,2.26c1.31,0.41,2.66,0.38,3.9-0.07c0.22-0.08,0.44-0.16,0.65-0.25
		c1.5-0.58,3.07,0.75,2.67,2.31c-1.78,7.05-5.92,13.57-12.91,17.25l0.3,4.31c13.34-5.98,18.68-20.34,17.49-33.45
		c-2.1,2.12-4.56,3.86-7.39,5.16c-0.7,0.33-1.43,0.63-2.18,0.9c-0.23,0.08-0.46,0.12-0.69,0.12c-0.82,0-1.58-0.5-1.88-1.31
		c-0.38-1.04,0.15-2.19,1.19-2.57c13.37-4.88,15.92-18.89,15.7-29.79c-0.34-17.19-11.38-22.61-14.75-23.87
		c-6.46-2.4-13.19-1.09-17.15,3.33C91.41,196.12,91.16,196.41,90.92,196.71z M114.36,278.86c-3.6,4.5-15.01,11.34-28.01,10.59
		c1.44,0.43,2.94,0.76,4.47,0.99c10.24,1.51,19.73-1.69,26.04-8.78c7.26-8.16,7.05-18.28,5.01-24.1c-0.65,2.6-1.56,5.11-2.75,7.5
		C119.21,269.21,118.17,274.1,114.36,278.86z M95.24,247.34c-0.77,1.21-1.69,2.36-2.77,3.43l0.26,3.81
		c1.22,0.75,2.27,1.56,3.17,2.44L95.24,247.34z M89.17,218.33c-0.43-2.31-0.52-5.69-0.53-7.75c-0.96,1.27-2.15,2.43-3.53,3.45
		c-0.04,3.81,0.63,7.47,1.93,10.55c1.62,0.84,3.1,1.78,4.4,2.81C89.98,224.27,89.46,219.89,89.17,218.33z M9.33,105.84l1.07-0.07
		l-0.36-2.61c-0.16-1.15,0.69-2.19,1.85-2.27l128.04-8.66c1.16-0.08,2.15,0.85,2.13,2.02l-0.03,2.49l1.14-0.08
		c1.04-0.07,1.85-0.92,1.86-1.96l0.06-3.65c0.02-1.17-0.97-2.11-2.13-2.03L8.48,98.11c-1.17,0.08-2.02,1.14-1.84,2.3l0.58,3.74
		C7.37,105.17,8.29,105.91,9.33,105.84z M79.43,124.44l12.66-0.87l10.46-0.72c0.16-0.01,0.32,0,0.48,0.03
		c0.08-0.01,0.16-0.02,0.24-0.03l41.18-2.82c1.1-0.08,1.93-1.03,1.86-2.13l-1.05-15.37c-0.08-1.1-1.03-1.93-2.13-1.86l-133.2,9.14
		c-1.1,0.08-1.93,1.03-1.86,2.13l1.05,15.37c0.08,1.1,1.03,1.93,2.13,1.86l40.04-2.75c0.14-0.04,0.28-0.07,0.43-0.08L79.43,124.44z
		 M73.55,144.75l2.75,40.1c1.05,0.31,2.07,0.68,3.06,1.09c0-0.1,0.01-0.2,0-0.3l-0.13-1.84c-0.11-1.54,1.51-2.63,2.89-1.93
		c0.53,0.27,1.05,0.55,1.55,0.86c0.55,0.33,0.89,0.92,0.94,1.57l0.33,4.75c1.23,0.91,2.3,1.92,3.21,2.98l-3.3-48.04
		c-0.44-6.48,2.3-12.43,6.87-16.37l-4.5,0.31c-1.93,2.28-3.42,4.92-4.35,7.8c-0.49,1.55-1.9,2.62-3.52,2.73l-1.15,0.08
		c-1.62,0.11-3.16-0.76-3.86-2.23c-1.31-2.73-3.16-5.15-5.38-7.14l-4.47,0.31C69.58,132.75,73.11,138.27,73.55,144.75z
		 M44.47,224.97c1.16-0.75,2.43-1.43,3.81-2.03c-0.42-0.48-0.92-0.91-1.51-1.25c-0.64-0.36-1.23-0.76-1.79-1.2
		c-1.62-1.25-0.44-3.87,1.58-3.53c3.29,0.56,6.72,0.15,9.6-1.4c-0.52-0.23-1.03-0.46-1.54-0.71c-0.99-0.49-1.4-1.69-0.91-2.68
		c0.49-0.99,1.69-1.4,2.68-0.91c8.79,4.34,18.78,4.4,25.44,0.17c3.89-2.47,5.98-6.15,5.9-10.36c-0.03-1.21-0.31-2.4-0.79-3.54
		c-0.11-0.17-0.19-0.36-0.25-0.55c-0.99-2-2.67-3.83-4.97-5.35c-7.85-5.18-20.05-5.66-31.08-1.22
		c-8.78,3.54-14.35,10.38-14.89,18.31C35.28,215.38,38.54,221.42,44.47,224.97z M76.85,217.76c-0.97,0.23-1.96,0.43-2.97,0.55
		l0.15,2.2c1.04,0.16,2.05,0.36,3.05,0.57L76.85,217.76z M50.9,251.28c1.16-0.72,2.49-1.31,4.03-1.75
		c-3.94-1.73-7.16-4.25-7.12-6.32c0.02-1.41,0.9-2.64,2.59-3.66c3.32-2,9.71-3.08,17.09-2.9c7.62,0.19,14.35,1.74,17.56,4.06
		c1.47,1.06,2.15,2.22,1.95,3.45c-0.3,1.83-3.42,4.55-7.13,5.92c1.87,0.37,3.6,0.79,5.2,1.26c5.19-2.89,8.26-6.93,8.67-11.44
		c0.24-2.62-0.65-5.1-2.62-7.35c-4.33-4.93-13.4-8.24-23.67-8.64c-9.96-0.38-18.57,1.92-23.04,6.18c-2.29,2.18-3.46,4.8-3.5,7.8
		C40.85,242.85,44.65,247.9,50.9,251.28z M95.77,268.16c0.41-2.84-0.14-5.19-1.66-7.18c-3.03-3.97-9.8-6.54-20.69-7.88
		c-3.54-0.44-6.66-0.65-9.39-0.65c-5.66,0-9.58,0.94-11.89,2.85c-1.72,1.42-2.66,3.5-2.85,6.36c-0.48,6.95,7.04,15.19,21.92,16.78
		C85.44,279.96,94.62,276.12,95.77,268.16z M81.46,285.11l13.3-0.91c1.65-0.11,2.9-1.55,2.79-3.2l-0.4-5.85
		c-0.78,1.07-1.72,2.04-2.81,2.89l0.08,1.17c0.08,1.1-0.76,2.06-1.86,2.13l-6.46,0.44c-2.33,0.56-4.93,0.87-7.77,0.95
		C78.64,284.17,79.95,285.21,81.46,285.11z M219.74,373.16c-1.68,0.86-3.19,1.63-3.61,1.87c-0.48,0.28-1.58,0.89-3.22,1.73
		c-1.12,0.57-2.47,0.6-3.6,0.04c-6.57-3.23-12.95-6.94-19.06-11.14c-25.05-17.19-44.3-41.1-55.67-69.15
		c-0.51-1.25,0.09-2.67,1.32-3.24c0.01-0.01,0.02-0.01,0.03-0.02c0.76-0.35,1.66-0.28,2.37,0.16c4.59,2.86,8.95,5.37,12.46,7.26
		l3.52,1.89l1.66,0.85c-1.91-2.45-3.77-4.94-5.53-7.5c-7.65-4.25-18.19-10.78-26.61-17.36c-0.6,1.16-1.3,2.31-2.1,3.42
		c0.65,0.5,1.3,1,1.97,1.5c1.55,1.16,2.06,3.28,1.18,5c-1.04,2.01-2.36,3.97-4,5.82c-6.06,6.81-14.62,10.49-24.07,10.49
		c-0.98,0-2.78-0.16-4.3-0.33c-1.57-0.17-2.9-1.24-3.38-2.75c-0.84-2.63-1.63-5.32-2.39-8.03c-1.59-0.39-3.11-0.9-4.57-1.48
		c13.83,51.23,41.13,88.6,61.1,105.64c38.53-0.91,66.82-14.97,73.61-18.66C217.84,377.13,218.8,375.11,219.74,373.16z M273.52,362.5
		c-1.52-0.04-3.03-0.09-4.54-0.17l-3.27,5.53c-0.79,1.33-2.27,2.1-3.81,1.95c-1.46-0.14-2.91-0.31-4.36-0.49
		c-1.55-0.2-2.83-1.3-3.29-2.8l-1.83-5.96c-1.48-0.24-2.95-0.48-4.42-0.77l9.26,30.2L273.52,362.5z M277.2,357.57
		c1.3,0,2.6-0.03,3.9-0.06c-1.24-1.68-2.44-2.97-3.67-3.94c-0.08,0-0.15,0-0.23,0c-8.51,0-16.92-0.74-25.17-2.19
		c-3.27-0.57-4.56-4.67-2.08-6.87c0.62-0.55,1.29-1.04,1.99-1.51c-2.06-3.12-2.74-6.94-2.02-11.41c1.12-6.95,5.65-12.37,12.42-14.85
		c9.85-3.62,22.25-0.74,32.81,7.51c1.46-1.93,3.1-3.54,4.71-4.86c-4.37-8.11-7.18-19.68-3.77-27.83c1.18-2.81,3.05-5.03,5.48-6.61
		c-1.3-1.04-2.6-2.08-3.88-3.1c-2.94-2.36-5.82-4.67-8.65-6.87c-1.21-5.52-3.97-10.64-8.08-14.75c-0.58-0.58-1.21-1.15-1.93-1.74
		c-0.63-0.76-1.43-1.35-2.36-1.72s-1.9-0.51-2.9-0.4c-2.21,0.24-4.07,1.75-4.94,3.79l-0.04,0.09c-0.33,0.8-0.68,1.59-1.05,2.35
		l-0.02,0.03l-0.03,0.06c-5.9,12.13-17.37,20.62-30.68,22.68l-0.34,0.05h-0.01c-1.96,0.28-3.99,0.43-5.99,0.43
		c-8.94,0-17.45-2.83-24.6-8.19c-2.97-2.22-5.62-4.85-7.89-7.76c-1.01-1.3-0.07-3.18,1.57-3.21c0.41-0.01,0.7-0.02,0.79-0.03
		c11.64-0.54,20.95-10.19,20.95-21.96v-3c0-1.55-0.59-2.96-1.55-4.02c-0.77-0.85-0.59-2.18,0.32-2.87c0.53-0.4,1.03-0.82,1.55-1.23
		c0.13-0.1,0.26-0.2,0.38-0.3c2.74-2.24,5.31-4.69,7.68-7.34c0.24-0.27,0.46-0.54,0.7-0.81c0.48-0.56,0.96-1.12,1.43-1.7
		c0.37-0.46,0.74-0.93,1.1-1.4c0.29-0.38,0.58-0.76,0.86-1.15c0.44-0.6,0.86-1.2,1.28-1.81c0.17-0.26,0.35-0.51,0.52-0.77
		c0.47-0.71,0.93-1.42,1.37-2.14c0.03-0.05,0.07-0.1,0.1-0.15l0.05-0.09c0.1-0.16,0.19-0.34,0.29-0.5c0.57-0.96,1.11-1.93,1.62-2.92
		c0.05-0.09,0.1-0.19,0.15-0.28l0.13-0.24c0.1-0.18,0.19-0.37,0.28-0.55c0.02-0.04,0.03-0.07,0.05-0.11
		c0.22-0.45,0.44-0.9,0.65-1.36c0.01-0.03,0.03-0.06,0.04-0.09c0.23-0.49,0.45-0.98,0.66-1.48l0.09-0.21
		c0.15-0.35,0.31-0.71,0.45-1.06c0-0.01,0-0.01,0.01-0.02c0.36-0.89,0.71-1.81,1.03-2.72c0.04-0.1,0.07-0.19,0.1-0.28
		c0,0,0,0,0-0.01l0,0l0,0c0.13-0.37,0.24-0.72,0.35-1.06c0.47-1.45,1.1-3.93,1.23-5.52c0.58-7.28-1.82-12.42-5.95-15.23
		c-0.18,0.09-0.36,0.19-0.54,0.28c0,0,0,0,0-0.01l0,0c-0.26,0.13-0.51,0.27-0.78,0.41c-0.88,0.45-1.75,0.9-2.61,1.37
		c-0.13,0.07-0.25,0.14-0.38,0.21c0.08,0.03,0.16,0.05,0.23,0.08c4.15,1.63,6.31,6.16,6.08,12.76c-0.01,0.38-0.06,0.74-0.13,1.08
		c-0.3,1.36-0.87,3.11-1.29,4.34c-0.03,0.08-0.06,0.15-0.09,0.23c-0.3,0.87-0.62,1.73-0.97,2.58c-0.16,0.4-0.34,0.8-0.51,1.19
		c-0.2,0.47-0.41,0.93-0.62,1.39c-0.22,0.48-0.45,0.97-0.69,1.45c-0.12,0.25-0.26,0.5-0.39,0.75c-0.61,1.18-1.25,2.33-1.93,3.47
		c-0.02,0.03-0.03,0.06-0.05,0.09c-6.92,11.44-17.74,20.77-30.26,25.76h11.96c1.1,0,2,0.9,2,2v3c0,9.92-8.07,17.99-17.99,17.99
		c-4.59,0-8.77-1.74-11.96-4.59c5.72,18.37,22.89,31.75,43.12,31.75c2.35,0,4.66-0.18,6.93-0.53c0.01,0,0.01,0,0.02-0.01
		c14.6-2.25,27.26-11.7,33.69-24.92c0.01-0.02,0.02-0.04,0.03-0.06c0.41-0.85,0.79-1.71,1.15-2.59c0.02-0.06,0.05-0.12,0.08-0.18
		c0.41-1.02,1.58-1.52,2.6-1.11c0.41,0.16,0.73,0.45,0.94,0.8c0.76,0.61,1.42,1.19,2.01,1.78c5.54,5.54,8.26,13.2,7.47,21.01v0.01
		c-0.6,5.93-3.26,11.51-7.47,15.72c-4.19,4.19-9.53,6.76-15.44,7.43c-1,0.11-1.99,0.17-2.98,0.17c-6.86,0-13.41-2.69-18.32-7.6
		c-1.84-1.84-3.37-3.97-4.59-6.32c-2.01,0.25-4.05,0.38-6.12,0.38c-27.1,0-49.15-22.05-49.15-49.15v-3c0-1.1,0.9-2,2-2h0.08
		c0.01,0,0.01,0,0.02,0c4.1-0.01,8.18-0.59,12.17-1.64c-1.88-1.19-3.71-2.63-5.5-4.36c-0.8-0.77-0.82-2.03-0.05-2.83
		s2.03-0.82,2.83-0.05c0.22,0.21,0.44,0.41,0.67,0.62c0.7-5.66,2.88-12.24,6.26-18.85c-0.1,0.1-0.2,0.2-0.29,0.3
		c-0.04,0.04-0.08,0.09-0.12,0.13c-0.13,0.14-0.26,0.27-0.39,0.41c-0.74,0.79-1.48,1.58-2.22,2.37c-0.34,0.37-0.68,0.73-1.02,1.1
		c-0.55,0.6-1.1,1.19-1.65,1.79c-0.46,0.5-0.91,1-1.37,1.5c-0.29,0.32-0.58,0.64-0.87,0.96l0,0l0,0c-1.17,1.29-2.34,2.58-3.5,3.86
		c-0.87,0.96-1.74,1.92-2.61,2.88c-0.25,0.27-0.49,0.54-0.74,0.81c-0.63,0.7-1.27,1.39-1.9,2.09c-0.33,0.36-0.67,0.73-1,1.09
		c-0.55,0.6-1.1,1.2-1.66,1.8c-0.37,0.4-0.74,0.8-1.11,1.19c-0.53,0.56-1.05,1.13-1.58,1.69c-0.39,0.41-0.78,0.82-1.17,1.23
		c-0.52,0.54-1.04,1.08-1.56,1.62c-0.4,0.42-0.81,0.83-1.22,1.24c-0.51,0.53-1.03,1.05-1.55,1.57c-0.42,0.42-0.83,0.83-1.25,1.24
		c-0.52,0.51-1.03,1.02-1.55,1.52c-0.43,0.41-0.86,0.82-1.29,1.23c-0.52,0.49-1.04,0.99-1.57,1.48c-0.44,0.41-0.88,0.81-1.32,1.21
		c-0.53,0.48-1.06,0.96-1.59,1.43c-0.44,0.39-0.89,0.79-1.34,1.18c-0.54,0.47-1.08,0.93-1.63,1.39c-0.45,0.38-0.91,0.76-1.37,1.14
		c-0.55,0.45-1.11,0.89-1.67,1.34c-0.46,0.37-0.92,0.73-1.39,1.09c-0.57,0.44-1.15,0.86-1.72,1.29c-0.47,0.35-0.93,0.69-1.4,1.03
		c-0.6,0.43-1.2,0.84-1.8,1.25c-0.46,0.32-0.93,0.64-1.4,0.95c-0.63,0.42-1.27,0.82-1.92,1.22c-0.46,0.29-0.91,0.58-1.37,0.86
		c-0.69,0.42-1.4,0.82-2.1,1.22c-0.42,0.24-0.84,0.49-1.26,0.73c-0.05,0.03-0.1,0.06-0.15,0.09c-1.78,0.98-2.53,3.11-1.8,4.98
		c0.14,0.31,0.27,0.62,0.41,0.92c0.32,0.7,0.66,1.4,0.99,2.09c0.39,0.82,0.79,1.64,1.2,2.45c0.39,0.78,0.8,1.56,1.2,2.33
		c0.36,0.68,0.72,1.36,1.09,2.04c0.48,0.88,0.96,1.75,1.46,2.61c0.31,0.55,0.63,1.1,0.95,1.65c0.55,0.93,1.11,1.86,1.68,2.79
		c10.85,17.55,25.25,32.72,42.52,44.57C217.9,348.57,246.99,357.57,277.2,357.57z M262.98,299.72c0.01,0.14,0.04,0.29,0.06,0.43
		c0.04,0.33,0.1,0.66,0.17,0.98c0.03,0.15,0.06,0.3,0.1,0.45c0.09,0.36,0.19,0.72,0.31,1.07c0.03,0.09,0.06,0.19,0.09,0.28
		c0.01,0.02,0.02,0.04,0.03,0.06c4.41-0.79,8.4-2.87,11.59-6.07c3.21-3.21,5.35-7.37,6.12-11.84c-0.02-0.01-0.03-0.01-0.05-0.02
		c-0.06-0.02-0.12-0.03-0.18-0.05c-0.38-0.12-0.76-0.23-1.14-0.32c-0.14-0.03-0.28-0.06-0.42-0.09c-0.33-0.07-0.65-0.12-0.98-0.16
		c-0.14-0.02-0.27-0.04-0.41-0.05c-0.45-0.05-0.91-0.08-1.37-0.08c-7.71,0-13.99,6.27-13.99,13.99
		C262.9,298.79,262.93,299.26,262.98,299.72z M299.52,380.55c-6.65-3.89-11.25-10.65-14.83-17.25c-0.18-0.32-0.34-0.61-0.52-0.92
		c-1.03,0.05-2.05,0.1-3.08,0.12l14.77,28.4L299.52,380.55z M303.54,382.43c-0.13-0.05-0.26-0.1-0.39-0.15l-0.03,0.09
		C303.31,382.4,303.45,382.42,303.54,382.43z M354.27,399.42c-26.58,5.18-39.77-9.41-42.19-15.57c-0.05,0-0.09,0-0.14,0
		c-1.43,0-2.8-0.12-4.1-0.33c2.06,8.45,13.87,18.18,28.14,19.17C344.08,403.26,350.28,401.64,354.27,399.42z M406.56,306.56
		c0.02,0.02,0.05,0.03,0.08,0.05c-0.23-1.42-0.58-2.55-0.9-3.39c-1.39-3.59-4.17-5.92-7.83-6.56c-4.13-0.72-8.46,0.88-11.31,4.16
		c-3.83,4.42-5.97,10.39-8.46,17.31c-2.06,5.72-4.39,12.15-8.06,18.62c0.57,0.49,1.15,0.99,1.72,1.51c0.82,0.74,0.89,2,0.15,2.82
		c-0.39,0.44-0.94,0.66-1.49,0.66c-0.48,0-0.95-0.17-1.33-0.51c-3.17-2.85-6.27-5.3-9.2-7.29c-0.81-0.55-1.1-1.59-0.7-2.48
		c3.93-8.71,7.93-18.04,9.71-27.98c1.79-9.98,1.06-22.95-4.62-29.42c-2.55-2.9-5.8-4.22-9.95-4.02
		c-8.63,0.41-10.38,9.73-10.65,15.24c-0.24,4.84,0.54,9.82,1.1,13.46c0.38,2.41,0.67,4.31,0.61,5.62
		c-0.22,4.61-1.34,9.75-3.48,16.01c0.56,0.27,1.12,0.54,1.66,0.83c0.98,0.51,1.35,1.72,0.84,2.7c-0.36,0.68-1.05,1.07-1.77,1.07
		c-0.31,0-0.63-0.07-0.93-0.23c-5.54-2.91-12.16-4.85-16.51-5.68c-1.08-0.21-1.79-1.26-1.59-2.34c0.21-1.08,1.25-1.79,2.34-1.59
		c1.26,0.24,2.7,0.58,4.25,0.99c3.48-13.41,3.85-26.25,0.99-36.32c-3.42-12.05-10.85-19.07-18.06-17.08
		c-3.55,0.98-6.03,3.12-7.39,6.35c-2.96,7.07-0.06,17.87,3.87,24.91c2.32,4.14,1.81,18.17,0.98,22.75
		c-0.12,0.69-0.61,1.27-1.27,1.52c-0.07,0.03-7.79,3-12.1,9.95c-0.31,0.5-0.82,0.83-1.39,0.92c-0.57,0.09-1.16-0.08-1.61-0.46
		c-9.66-8.25-21.65-11.47-30.55-8.2c-5.45,2-8.95,6.17-9.85,11.74c-0.62,3.84,0.05,6.99,1.98,9.36c2.38,2.92,6.75,4.72,11.99,4.95
		c8.35,0.36,13.79,2.75,20.36,14.86c7.13,13.13,16.57,24.08,37.22,15.34c1.02-0.43,2.19,0.05,2.62,1.06
		c0.43,1.02-0.04,2.19-1.06,2.62c-2.18,0.92-4.25,1.64-6.23,2.18c1.54,0.99,3.09,2.13,4.67,3.3c7.78,5.74,16.61,12.25,32.54,8.45
		c7.07-1.69,12.44-5.87,15.94-12.42c5.39-10.08,4.8-22.78,2.66-28.58c-0.38-1.04,0.15-2.19,1.18-2.57c1.04-0.38,2.19,0.15,2.57,1.18
		c0.32,0.87,0.6,1.83,0.84,2.85c1.44-2.13,3.28-4.46,5.57-7.27c1.16-1.52,2.42-3.16,3.8-4.94l0.46-0.6c0.9-1.17,1.85-2.41,2.86-3.71
		C403.09,326.24,407.54,314.98,406.56,306.56z M357.88,296.45c4.44-0.64,8.18-4.75,6.99-11.41c-1.59-8.88-6.33-11.63-10.76-10.99
		c-4.44,0.64-7.26,6.58-6.3,13.27C348.76,294.02,353.44,297.09,357.88,296.45z M270.28,326.6c-6.15-0.53-12.41,2.84-12.63,7.98
		c-0.24,5.79,5,7.62,11.15,7.98c6.16,0.36,11.21-0.01,11.66-5.13C280.9,332.3,276.43,327.14,270.28,326.6z M321.59,286.25
		c4.28-1.51,5.51-5.56,3.42-11.48c-2.09-5.93-7.28-9.57-11.53-7.99c-4.69,1.74-6.04,7.54-3.95,13.47
		C311.61,286.17,317.31,287.76,321.59,286.25z M177.54,242.77c-9.24,9.5-19.14,18.36-30.64,24.95c-0.91,0.52-1.28,1.64-0.84,2.59
		c3.28,6.99,7.12,13.67,11.44,20.01c2.73,0.75,5.35,1.05,7.7,1.08c10.44,0.12,20.65-4.64,26.81-10.31
		c-8.96-9.52-14.47-22.32-14.47-36.4V242.77z M359.58,351.43c-14.77-4.37-19.32,0.98-27.11,0.83c-11.47-0.23-20.88-9.74-31.29-7.17
		c-8.47,2.09-10.5,12.21-6.93,18.71c1.98,3.61,4.4,6.13,6.7,8.04c0.12,0.1,0.24,0.2,0.36,0.3c0.23,0.19,0.47,0.36,0.7,0.53
		c0.17,0.13,0.35,0.25,0.52,0.38c2.86,1.93,5.91,2.82,9.37,2.82c3.51,0,7.53-0.95,11.96-2.82c0.99-0.42,2.06-0.56,3.14-0.42
		c1.64,0.21,3.15,1.12,4.09,2.48c1.62,2.34,1.36,5.22-0.19,7.19c-0.72,0.92-0.57,2.24,0.39,2.91c4.87,3.38,10.23,6.28,17.61,6.28
		c2.54,0,5.28-0.35,8.13-1.03c5.99-1.43,10.81-4.62,13.34-10.42C375.84,367.53,371.93,355.09,359.58,351.43z M74.01,261.67
		c-2.72-0.26-5.12-0.41-7.22-0.44c-4.36-0.07-7.38,0.36-9.17,1.29c-1.34,0.69-2.07,1.73-2.24,3.16c-0.42,3.48,5.3,7.7,16.74,8.68
		c10.94,0.93,16.87-0.99,18.55-4.72c0.63-1.4,0.36-2.75-0.8-3.77C87.56,263.84,82.38,262.47,74.01,261.67z M39.17,57.27
		c-0.31-10.17-0.52-16.88,4.78-17.19c1.25-0.07,2.41,0.36,3.34,1.24c2.91,2.76,3.11,9.74,3.06,17.9c-0.01,1.06-0.01,1.98,0,2.72l0,0
		c0.02,0.98,0.09,2.24,0.17,3.57c0.43,7.41,0.54,12.41-1.76,14.79c-0.79,0.82-1.8,1.25-2.92,1.25h-0.11
		c-5.92-0.15-6.13-8.34-6.42-19.67L39.17,57.27z M43.17,57.15c0.03,0.94,0.06,1.92,0.09,2.93l0.05,1.71
		c0.18,7,0.41,15.72,2.53,15.78c1.35-0.74,0.88-8.75,0.7-11.77c-0.08-1.39-0.16-2.71-0.18-3.78c-0.01-0.78-0.01-1.74,0-2.82
		c0.03-4.28,0.08-13.18-1.81-14.98c-0.16-0.15-0.25-0.16-0.35-0.15l0,0C42.76,44.15,43,51.66,43.17,57.15z M398.08,300.81
		c-6.55-1.54-10.57,3.65-12.71,10.07s1.02,10.53,5.38,11.98c4.36,1.45,9.81-1.24,11.3-6.31
		C404.16,309.31,402.55,301.86,398.08,300.81z"/>
</g>
</svg>
