<?xml version="1.0" encoding="utf-8"?>
<!-- Generator: Adobe Illustrator 24.2.3, SVG Export Plug-In . SVG Version: 6.00 Build 0)  -->
<svg version="1.1" id="layer" xmlns="http://www.w3.org/2000/svg" xmlns:xlink="http://www.w3.org/1999/xlink" x="0px" y="0px"
	 viewBox="0 0 420 420" style="enable-background:new 0 0 420 420;" xml:space="preserve">
<style type="text/css">
	.st0{fill:#EBEFF0;}
	.st1{fill:#0D1824;}
</style>
<g>
	<path class="st0" d="M355.21,212.4l-0.29-0.18l-0.12-0.32c-1.07-2.96-2.19-5.76-3.32-8.33l-0.38-0.85l0.83-0.43
		c6.39-3.35,12.56-7.11,18.34-11.18c19.24-13.56,34.44-30.62,43.96-49.35c4.36-8.58,1.46-18.88-6.76-23.96
		c-8.92-5.51-17.42-12.27-24.59-19.55L382.66,98l-0.04-0.33c-0.68-5.05-0.36-13.48,0.01-23.26c0.33-8.65,0.7-18.44,0.39-27.35
		c-0.62-17.64-3.36-29.23-8.9-37.61c-1.91-2.89-4.21-4.63-6.84-5.16c-2.96-0.6-6.33,0.35-10.02,2.82c-3.18,2.13-6.72,4.6-10.46,7.22
		c-11.96,8.37-26.84,18.78-33.72,19.87l-0.16,0.02l-0.16-0.02c-1.58-0.25-3.21-0.29-4.84-0.15l-0.17,0.02L307.5,34
		c-3.14-0.68-6.21-1.77-9.47-2.92c-5.88-2.08-12.54-4.44-20.81-4.64c-11.47-0.26-21.12,3.28-28.23,6.39l-0.29,0.13l-0.31-0.06
		c-0.69-0.14-1.45-0.22-2.24-0.23l-0.18-0.02c-11.79-2.31-43.1-23.82-46.89-26.63c-5.21-3.87-9.86-4.29-12.75-1.17
		c-1.51,1.63-5.35,6.31-8.46,14.58c-3.69,9.81-5.12,21.21-4.24,33.88c0.95,13.69,2.18,22.96,2.99,29.1
		c0.86,6.5,1.25,9.69,0.59,11.18l-0.08,0.17L177,93.89c-7.13,7.12-14.5,13.25-27.19,22.62c-2.02,1.49-3.7,3.12-5.01,4.83l-0.56,0.73
		l-0.78-0.5c-2.89-1.86-6.63-4.81-8.6-6.4l-0.53-0.43l0.21-0.65c0.67-2.09,0.89-4.79,0.57-7.04l-0.08-0.52l0.39-0.36
		c4.06-3.7,6.71-7.75,8.11-12.39c2.93-9.67,2.04-18.4-2.49-24.58c-3.36-4.58-7.94-7.4-13.23-8.16l-0.87-0.12l0.01-0.88
		c0.05-3.09-0.7-6.36-2.23-9.72c-5.29-11.64-18.11-21.43-30.49-23.28c-11.29-1.68-17.71,1.96-21.1,5.31
		C68.52,36.9,66.31,43.88,66.91,52l0.08,1.09l-1.09-0.02c-3.52-0.04-6.67,0.89-9.34,2.79c-3.18,2.27-5.46,6.38-6.08,10.97
		c-0.49,3.61,0.06,7.38,1.59,10.88l0.65,1.49l-1.62-0.09c-2.5-0.15-4.88,0.55-6.87,2.01c-3,2.19-5.11,6.59-5.63,11.78
		c-0.81,8.06,2.24,16.55,8.38,23.27c2.11,2.32,4.45,4.34,6.96,6.01l0.18,0.12l0.11,0.18c5.79,9.09,16.75,15.2,27.25,15.2
		c0.77,0,1.57-0.04,2.37-0.11l1.07-0.09l0.02,1.07c0.19,9.88,0.13,15.6-0.18,17.49c-0.64,3.86-11.26,30.31-42.71,54.47l-0.11,0.09
		c-0.05,0.04-0.12,0.11-0.17,0.19c-0.09,0.14-0.13,0.22-0.15,0.29l-0.01,0.04c-0.01,0.06-0.02,0.11-0.03,0.17l0.01,0.06
		c0.01,0.18,0.02,0.27,0.04,0.34l0.04,0.12c1.54,4.38,5.46,12.05,10.69,13.83c1.57,0.53,3.49,0.8,5.73,0.8
		c2.89,0,6.27-0.47,9.53-1.34l3.11-0.82l-2.09,2.44c-1.11,1.29-2.22,2.55-3.31,3.73c-0.24,0.27-0.33,0.64-0.21,0.98
		c2.21,6.84,9.27,12.17,13.47,14.09c0.13,0.06,0.27,0.09,0.42,0.09c13.93,0,28.29-9.46,38.41-25.3l1.94-3.05l-0.1,3.61
		c-0.34,12.04-1.25,22.13-1.74,24.5c-0.47,2.27-1.57,3.84-4.51,8.03c-1.07,1.52-2.33,3.32-3.85,5.57c-0.16,0.24-0.21,0.53-0.14,0.81
		c1.46,5.71,7.1,10.51,7.16,10.56c0.27,0.23,0.65,0.3,0.97,0.18c10.35-3.55,17.96-17.18,20.02-23.23c0.54-1.58,0.93-4.3,1.16-8.09
		l0.07-1.11l1.09,0.18c11.91,1.97,24.5,2.98,37.42,2.98c15.88,0,31.47-1.56,42.76-4.27l2.14-0.51l-1.02,1.95
		c-6.41,12.27-14.99,30.01-19.47,44.87l-0.12,0.38l-0.35,0.2c-3.61,2.06-7.02,5.01-10.14,8.78l-0.56,0.67l-0.74-0.46
		c-10.99-6.82-19.46-7.6-25.88-2.38c-1.52,1.24-2.81,2.76-3.82,4.52l-0.29,0.5h-0.58c-2.7-0.02-6.39-0.08-9.65-0.15l-0.34-0.01
		c-5.97-0.12-13.43-0.25-21.04-0.26h-0.21l-0.19-0.08c-1.69-0.74-5.13-2.6-8.16-4.25c-4.86-2.64-7.9-4.25-8.98-4.51
		c-1.27-0.3-5.26-0.36-10.68-0.17l-0.28,0.01l-2.77-1.58c-12.76-7.3-21.97-12.58-27.62-10.23l-0.24,0.1l-0.26-0.03
		c-13.03-1.51-23.5,8.92-27.4,13.48c-2.28,2.67-5.45,7.45-7.48,12.87c-2.01,5.36-2.44,10.18-1.24,13.92l0.24,0.74l-0.65,0.41
		c-2.95,1.87-5.8,3.66-8.23,5.14c-1.9,1.15-3.77,2.25-5.56,3.31C8.74,329.72,2,333.7,2,337.74c0,2.29,4.81,10.53,12.55,21.5
		l0.29,0.4l-0.15,0.47c-2.99,9.53-4.39,16.6-3.74,18.92c0.43,1.53,1.05,2.9,1.59,4.1c0.82,1.8,1.3,2.95,1.13,3.77
		c-0.16,0.68-0.92,1.83-2.45,4.01c-1.51,2.15-3.07,4.38-3.58,6.14c-0.42,1.47-1.14,6.37-1.9,11.56c-0.59,4.01-1.23,8.37-1.77,11.39
		H420V270.4C411.96,256.18,396.73,238.83,355.21,212.4z"/>
	<path class="st1" d="M385.83,231.25c12.75-11.44,23.05-24.55,30.19-38.59c4.84-9.52,1.62-20.94-7.49-26.57
		c-1.78-1.1-3.53-2.27-5.27-3.46c4.96-6.37,9.24-13.06,12.75-19.97c4.84-9.52,1.62-20.94-7.49-26.57
		c-8.5-5.25-16.6-11.66-23.51-18.56C385,97.35,385,97.17,385,96.99c-0.14-3.97-0.39-7.64-0.75-11.05c0.07-3.47,0.21-7.35,0.37-11.47
		c0.33-8.67,0.7-18.5,0.38-27.49c-0.63-18.03-3.47-29.94-9.23-38.64c-2.22-3.35-4.95-5.38-8.11-6.02c-3.5-0.7-7.38,0.35-11.53,3.12
		c-3.2,2.14-6.74,4.62-10.5,7.25c-11.7,8.18-26.23,18.35-32.73,19.51c-1.64-0.24-3.31-0.29-4.99-0.16
		c-3.02-0.66-6.03-1.72-9.22-2.85c-6.02-2.13-12.84-4.55-21.43-4.75c-11.72-0.26-21.53,3.27-28.79,6.43
		c-0.7-0.12-1.44-0.19-2.2-0.21c-11.51-2.33-42.26-23.48-46-26.26c-6.13-4.55-11.75-4.88-15.41-0.92
		c-1.59,1.71-5.62,6.63-8.86,15.23c-3.79,10.08-5.26,21.76-4.36,34.72c0.66,9.5,1.45,16.88,2.15,22.57
		c-1.59,6.33-2.39,13.18-2.37,20.49c-5.92,5.5-12.63,10.9-22.78,18.4c-1.88,1.39-3.5,2.9-4.82,4.49c-0.13-0.09-0.27-0.19-0.4-0.28
		c-0.24-0.37-0.47-0.75-0.73-1.1c-1.64-2.24-3.56-4.08-5.69-5.52c0.29-1.7,0.36-3.54,0.18-5.21c4.12-3.86,6.83-8.09,8.3-12.93
		c3.12-10.29,2.12-19.64-2.79-26.34c-3.51-4.78-8.23-7.81-13.71-8.82c-0.08-3.13-0.89-6.39-2.4-9.71
		c-5.55-12.22-19.01-22.49-32.02-24.43c-12.11-1.8-19.08,2.19-22.8,5.86c-4.83,4.77-7.26,11.9-6.88,20.16
		c-3.53,0.13-6.71,1.19-9.45,3.15c-3.63,2.59-6.2,7.2-6.9,12.33c-0.47,3.5-0.06,7.12,1.18,10.55c-2.4,0.14-4.67,0.96-6.63,2.38
		c-3.45,2.52-5.86,7.45-6.44,13.19c-0.87,8.63,2.37,17.68,8.89,24.82c0.9,0.99,1.86,1.92,2.84,2.8c0.09,2.29,0.54,4.58,1.34,6.8
		c-2.4,0.14-4.67,0.96-6.63,2.38c-3.45,2.52-5.86,7.45-6.44,13.19c-0.87,8.63,2.37,17.68,8.89,24.82c2.17,2.38,4.58,4.47,7.16,6.21
		c3.16,4.88,7.59,8.88,12.66,11.66c-6.16,7.49-14.21,15.65-24.57,23.6l-0.12,0.1c-0.18,0.15-0.34,0.33-0.48,0.52l-0.1,0.14
		c-0.13,0.21-0.23,0.41-0.32,0.64l-0.04,0.11c-0.06,0.2-0.1,0.4-0.11,0.6c-0.01,0.08-0.01,0.15,0,0.2c0,0.07,0,0.14,0,0.2
		c0.01,0.28,0.06,0.53,0.11,0.69l0.04,0.14c0.45,1.29,4.58,12.67,11.97,15.18c1.77,0.6,3.92,0.91,6.37,0.91c2.52,0,4.95-0.31,7-0.71
		c-0.42,0.47-0.83,0.92-1.24,1.37c-0.73,0.8-0.98,1.93-0.64,2.95c0.43,1.33,1.03,2.6,1.74,3.8c-6.11,7.36-14.04,15.35-24.19,23.13
		l-0.12,0.1c-0.18,0.15-0.34,0.33-0.48,0.52l-0.1,0.14c-0.13,0.21-0.23,0.41-0.32,0.64l-0.04,0.11c-0.06,0.2-0.1,0.4-0.11,0.6
		c-0.01,0.08-0.01,0.15,0,0.2c0,0.07,0,0.14,0,0.2c0.01,0.28,0.06,0.53,0.11,0.69l0.04,0.14c0.42,1.21,4.1,11.35,10.69,14.64
		c-5.07,3.15-8.9,7.13-10.97,9.55c-2.4,2.8-5.71,7.81-7.83,13.47c-2.04,5.45-2.55,10.44-1.49,14.49c-2.71,1.72-5.32,3.35-7.56,4.71
		c-1.89,1.15-3.75,2.25-5.54,3.3C6.78,328.55,0,332.56,0,337.74c0,3.71,7.78,15.35,12.63,22.25c-1.57,5.06-3.79,13.01-3.82,17.51
		C3.32,381.07,0,384.12,0,387.74c0,2.03,2.32,6.42,5.22,11.11c-0.41,2.29-0.91,5.71-1.46,9.49c-0.61,4.16-1.28,8.72-1.82,11.67h5.08
		c0.52-2.99,1.11-7.01,1.69-10.94c0.71-4.87,1.45-9.91,1.82-11.18c0.37-1.28,1.91-3.48,3.15-5.25c1.64-2.33,2.66-3.83,2.93-5.11
		c0.4-1.84-0.44-3.68-1.33-5.63c-0.53-1.16-1.07-2.36-1.44-3.67c-0.52-1.86,1.67-10.87,4.01-18.14c0.19-0.6,0.09-1.26-0.27-1.77
		c-6.76-9.5-12.4-18.75-12.57-20.57c0-2.33,8.09-7.11,14.6-10.95c1.8-1.06,3.67-2.17,5.58-3.33c1.84-1.12,3.94-2.43,6.17-3.84
		c0.15,1.31,0.47,2.71,0.93,4.14c-1.76,1.11-3.5,2.19-5.03,3.12c-2,1.21-4.01,2.4-5.63,3.36c-0.53,0.31-1.14,0.68-1.81,1.07
		c-1.04,0.62-1.74,1.66-1.92,2.86c-0.11,0.73-0.22,1.56-0.36,2.53c-1.15-0.19-2.06-0.39-2.65-0.63c-1.02-0.41-2.19,0.09-2.6,1.11
		c-0.41,1.03,0.09,2.19,1.11,2.6c3.72,1.49,15.05,2.05,31.46,2.25c0.03,0,0.05,0.01,0.08,0.01c0.02,0,0.04-0.01,0.06-0.01
		c7.68,0.09,16.47,0.11,26.12,0.11c26.01,0,43.78-2.5,50.21-3.58c7.06-1.18,19.34-4.39,31.87-8.26c0.14-0.03,0.28-0.07,0.41-0.13
		c10.4-3.22,20.92-6.89,28.77-10.24c-1.04,1.26-2.14,2.61-3.34,4.07l-1.93,2.36c-7.24,2.76-14.59,5.19-18.69,6.5
		c-2.07,0.66-4.14,1.31-6.2,1.93c-1.49,0.45-2.81,1.32-3.81,2.51c-5.52,6.56-15.68,21.2-21.38,29.56c-0.97,1.43,0.36,3.29,2.03,2.83
		l0.04-0.01c7.15-1.97,20.64-16.72,31.03-28.99c0.7-0.83,1.95-0.94,2.79-0.24l0.03,0.03c0.84,0.7,0.96,1.96,0.25,2.8
		c-7.36,8.72-15.92,18.25-23.26,24.31c0,0,0,0,0.01,0c-3.67,3.03-7.03,5.19-9.79,5.95c-11.32,3.13-33.2,7.44-41.74,7.06
		c-3.36-0.15-11.35-2.65-20.61-5.54c-8.27-2.58-17.64-5.52-27.59-8.08c-1.07-0.27-2.16,0.37-2.44,1.44s0.37,2.16,1.44,2.44
		c9.85,2.54,19.17,5.46,27.39,8.03c2.38,0.74,4.6,1.44,6.67,2.07c2.25,0.69,3.02,0.95,4.02,1.22c1.07,0.29,1.69,1.41,1.39,2.47
		c-0.3,1.05-1.39,1.67-2.45,1.38c-2.99-0.81-5.27-1.59-10.82-3.33c-8.17-2.56-17.44-5.45-27.2-7.97c-0.21-0.05-0.41-0.12-0.61-0.19
		c-5.23-1.32-10.77-2.55-15.28-3.19c-1.95-0.27-3.78,1.04-4.16,2.97c-0.29,1.45-0.44,2.52-0.44,3.07c0.29,0.94,0.71,1.87,1.16,2.87
		c0.79,1.73,1.71,3.8,1.77,6.12c0,0.03,0.01,0.06,0.01,0.09c0,0.02-0.01,0.04-0.01,0.06c0,0.61-0.04,1.22-0.17,1.86
		c-0.44,2.03-1.64,3.82-3.57,6.57c-0.75,1.07-2.32,3.31-2.57,4.04c-0.29,1.03-1.14,6.8-1.71,10.67c-0.56,3.79-1.09,7.44-1.59,10.35
		h215.1c-0.76-3.53-1.69-8.13-2.54-12.36l-0.03-0.15c-0.53-2.61-1.07-5.28-1.44-7.06c-0.21-1.02-0.81-1.9-1.67-2.48
		c-1.64-1.11-4.08-2.46-5.47-3.24l-7.53-4.19c2.06,0.66,4.4,1.08,7.02,1.08c0.99,0,1.97-0.04,2.93-0.12
		c3.57,1.99,7.76,4.38,8.19,6.09c0.27,1.08,1.07,5.06,1.93,9.28c0.92,4.57,1.94,9.58,2.71,13.16h21c4.22-2.13,8.5-6.24,13.77-14.66
		c2.92-3,5.85-7.34,8.28-12.56c4.7,11.03,10.31,20.1,16.78,27.22h5.51c-8-7.83-14.72-18.67-20.13-32.46v-0.01
		c-2.28-5.8-4.32-12.13-6.13-18.96c-0.03-0.13-0.07-0.25-0.1-0.38c-0.86-3.26-1.66-6.64-2.41-10.14c-0.05-0.22-0.09-0.43-0.14-0.64
		c-0.35-1.66-0.69-3.34-1.02-5.05c-0.06-0.31-0.12-0.62-0.17-0.92c-0.23-1.2-0.44-2.43-0.66-3.66c1.2-0.4,2.48-0.83,3.83-1.29
		c1.92,11.14,4.32,21.2,7.19,30.18c0.72,2.25,3.21,3.38,5.38,2.45c3.66-1.57,8.89-3.83,14.33-6.28
		c5.82,18.05,13.44,33.82,22.78,47.16h4.92c-9.94-13.58-17.97-29.91-24.03-48.82h0.01c-1.27-3.95-2.45-8.01-3.54-12.17
		c-0.03-0.11-0.06-0.22-0.09-0.34c-0.34-1.31-0.67-2.62-1-3.95c-0.15-0.6-0.29-1.22-0.43-1.82c-0.37-1.55-0.72-3.11-1.06-4.69
		c-0.27-1.24-0.53-2.47-0.79-3.73c-0.13-0.65-0.26-1.29-0.39-1.94c-0.27-1.36-0.52-2.74-0.77-4.12c1.33-0.52,2.59-1.03,3.79-1.52
		c1.76,9.92,3.95,19.3,6.56,28.13c0.7,2.37,3.36,3.55,5.59,2.48c4.67-2.24,8.91-4.39,11.87-6.15c1.48-0.88,2.71-2.59,3.54-4.88
		c24.86-9.28,47.69-22.98,57.65-30.81c1.94-1.52,3.06-3.83,3.08-6.3c0.23-34.49-11.27-71.35-22.81-92.85
		c-0.83-3.08-1.71-6.05-2.62-8.89c25.9,16.75,50.69,35.58,62.17,59.25v-10.41C413.99,256.78,404.37,245.58,385.83,231.25z
		 M263.26,231.4c-1.45-0.98-2.74-2.15-3.9-3.47c-0.06-0.08-0.13-0.16-0.21-0.23c-1.95-2.31-3.46-5.08-4.45-8.27
		c-2.62-8.42-1.3-18.42,3.61-27.43c6.68-12.25,18.43-19.7,29.3-19.7c2.92,0,5.77,0.54,8.45,1.67c0.47,0.21,0.92,0.42,1.33,0.61
		c5.18,2.63,8.91,7.23,10.8,13.32c2.62,8.42,1.3,18.42-3.61,27.43c-8.76,16.07-26.26,23.89-39.03,17.44
		C264.78,232.32,264.02,231.86,263.26,231.4z M263.53,236.22c-0.29,8.03-0.55,16.87-0.63,26.86c-1.2,0.15-2.2,0.53-2.94,1.12
		c-0.27,0.22-0.63,0.52-1.07,0.88c0.06-11.84,0.39-22.05,0.73-31.23c0.47,0.29,0.93,0.58,1.4,0.86
		C261.82,235.27,262.66,235.77,263.53,236.22z M138.96,200.86l-0.01-0.24c-0.06-1.86-0.12-3.8-0.18-5.81
		c-0.24-8.51-0.53-18.11-1.43-28.5c1.07-0.49,2.23-1.16,3.42-1.97c0.35,1.98,1,4.04,1.98,6.17c1.23,2.67,2.63,5.32,4.22,8.03
		c0.1,4.36,0.7,9,1.84,13.68c0.13,0.53,0.26,1.05,0.4,1.57c-0.61,1.48-1.1,3.14-1.47,4.98c-1.36,6.7-0.97,15.03,1.07,23.46
		c0.72,2.98,1.62,5.81,2.64,8.45c0.55,1.41,1.83,2.4,3.34,2.55c7.19,0.69,14.6,1.04,22.15,1.04c9.29,0,18.57-0.58,26.83-1.6
		c1.13,0.52,2.3,1.03,3.51,1.51c0.49,0.2,2.04,0.79,4.06,1.44c-18.23,3.1-45.52,4.07-71.85-0.36
		C139.74,226.42,139.4,214.25,138.96,200.86z M156.58,190.33c3.66,15.08,11.09,22.65,14.21,22.65c0.08,0,0.16-0.01,0.22-0.02
		l19.64-5.09c0.97,1.15,1.97,2.28,3.06,3.34l-21.74,5.64c-5.95,1.44-15.13-8.48-19.28-25.56c-1.91-7.87-2.28-15.58-1.04-21.72
		c1.12-5.53,3.47-9.12,6.38-9.83l23.74-4.96c-3.91,2.79-7.38,8.79-7.76,15.16c-0.11,1.9-1.64,3.42-3.53,3.63l-11.96,1.37
		c-2.08,0.24-3.63,2.04-3.55,4.13C155.1,182.63,155.63,186.45,156.58,190.33z M198.29,82.31h96.05c9.9,0,17.96,8.06,17.96,17.96
		v21.89c0,21.16-15.81,38.57-36.04,39.78c-3.62-1.08-7.38-1.33-11.11-0.85c-9.15-2.02-16.45-7.35-22.94-16.78
		c-3.17-4.61-7.5-14.49-10.08-20.4c-0.53-1.21-0.97-2.21-1.32-3c-0.01-0.02-0.02-0.05-0.03-0.07c-0.94-2.07,1.85-3.76,3.19-1.92
		c0.18,0.25,0.37,0.52,0.54,0.82c1.47,2.44,2.92,5.65,4.41,9.36c1.61,4,3.43,8.53,6.03,12.85c0.02,0.03,0.04,0.06,0.06,0.09
		c7.61,11.04,16.41,15.97,28.53,15.97c18.9,0,34.28-16.08,34.28-35.85v-21.89c0-7.71-6.25-13.96-13.96-13.96h-96.05
		c-3.67,0-6.65,2.98-6.65,6.65v41.72c0,3.02,0.63,6.02,1.83,8.77c-0.42,0.29-0.83,0.58-1.22,0.86c-0.62,0.44-1.2,0.84-1.73,1.22
		c-1.55-3.39-2.38-7.09-2.38-10.85V92.96c0-2.67,1-5.12,2.63-6.99c0.49-0.53,1.06-1.05,1.69-1.56
		C193.74,83.1,195.92,82.31,198.29,82.31z M195.41,77.71c4.81-6.04,14.14-17.67,24.78-26.65c-3.45,6.26-5.7,13.52-6.47,21.24
		C206.97,73.55,200.56,75.29,195.41,77.71z M246.22,214.26c1.18,1.04,2.48,2.12,3.86,3.2c0.22,1.07,0.47,2.12,0.79,3.15
		c0.37,1.2,0.82,2.36,1.33,3.47c-3.19-2.31-6.13-4.62-8.63-6.82c-8.1-7.15-8.95-21.58-2-34.32c7.35-13.48,21.9-20.82,33.86-17.07
		c2.06,0.65,4.86,1.66,7.83,2.8c-0.02,0-0.04,0.01-0.06,0.01c-9.86,0.53-21.75,4.53-30.35,9.8c-5.42,3.33-9.51,8.53-11.03,14.71
		c-0.08,0.32-0.15,0.64-0.22,0.96C239.93,202.28,241.45,210.04,246.22,214.26z M241.31,220.58c-2.45,0.78-5.5,1.24-8.85,1.34
		c-0.07-1.5-1.12-2.9-2.24-3.99c0.31,0.01,0.62,0.01,0.93,0.01c2.58,0,5-0.24,7.03-0.67c0.83,1.07,1.73,2.08,2.75,2.98
		C241.05,220.36,241.19,220.47,241.31,220.58z M231,96.77C231,96.76,231,96.76,231,96.77l-0.02-0.34c-0.03-0.45-0.06-0.89-0.11-1.33
		l-0.06-0.48c-0.04-0.38-0.09-0.75-0.15-1.11c-0.03-0.18-0.06-0.36-0.09-0.56c-0.02-0.14-0.05-0.27-0.08-0.41
		c-0.13-1.17,0.77-2.22,1.97-2.22c0.96,0,1.79,0.68,1.97,1.63c0.18,0.93,0.32,1.87,0.42,2.8c0.6,5.45,0.05,10.99-1.38,16.27
		c-0.27,1.01-1.31,1.57-2.31,1.29c-0.03-0.01-0.06-0.02-0.08-0.02c-0.9-0.24-1.49-1.08-1.37-1.99c0.35-1.55,0.63-3.09,0.85-4.6
		c0.01-0.05,0.01-0.1,0.02-0.15c0.06-0.46,0.12-0.91,0.17-1.37C231.05,101.66,231.15,99.21,231,96.77z M246.54,101.93
		c0.01,0.18,0.01,0.36,0.02,0.55c0.02,0.4,0.04,0.8,0.07,1.2c0.02,0.25,0.03,0.51,0.05,0.76c0.03,0.38,0.06,0.75,0.1,1.13
		c0.03,0.3,0.07,0.6,0.1,0.9c0.04,0.35,0.08,0.71,0.13,1.06c0.05,0.38,0.11,0.76,0.17,1.15c0.06,0.38,0.12,0.76,0.19,1.15
		c0.1,0.56,0.2,1.11,0.32,1.67c0.06,0.27,0.12,0.54,0.18,0.8c0.1,0.44,0.19,0.87,0.3,1.31c0.07,0.28,0.14,0.56,0.21,0.84
		c0.11,0.44,0.23,0.88,0.35,1.31c0.08,0.27,0.15,0.54,0.23,0.81c0.14,0.48,0.29,0.95,0.44,1.43c0.07,0.23,0.14,0.46,0.22,0.69
		c0.23,0.71,0.47,1.41,0.73,2.12c2.67,7.32,6.5,13.95,10.84,18.87c-0.58,0-1.15-0.01-1.71-0.01c-2.88-0.02-5.67-0.04-8.28-0.04
		c-0.14,0-0.28,0.02-0.42,0.05c-0.04,0.01-0.07,0.02-0.1,0.03c-0.1,0.03-0.2,0.06-0.29,0.1c-0.01,0-0.01,0-0.02,0.01
		c-0.91,0.42-2,0.09-2.51-0.77c-0.01-0.01-0.02-0.03-0.03-0.04c-0.61-1.02-0.18-2.34,0.9-2.83c0.11-0.05,0.22-0.1,0.33-0.14
		c0.27-0.1,0.59-0.2,1.03-0.28c1.37-0.23,2.04-1.77,1.38-2.98c-0.45-0.79-0.87-1.59-1.29-2.41c-0.05-0.09-0.1-0.19-0.14-0.28
		c-0.8-1.58-1.55-3.21-2.25-4.88c-0.07-0.18-0.15-0.36-0.22-0.54c-0.33-0.81-0.65-1.63-0.95-2.46c0,0,0,0,0-0.01
		c-0.01-0.04-0.02-0.07-0.04-0.11c-0.29-0.8-0.57-1.61-0.83-2.41c-0.24-0.74-0.46-1.47-0.67-2.21c-0.03-0.09-0.05-0.17-0.08-0.26
		c-2.66-9.28-3.2-18.16-1.59-25.31c0.21-0.92,1-1.58,1.94-1.58h0.05c1.28,0,2.2,1.2,1.93,2.45c-0.1,0.44-0.18,0.89-0.26,1.34
		c-0.01,0.08-0.03,0.15-0.04,0.23c-0.07,0.44-0.14,0.88-0.19,1.33c-0.01,0.09-0.02,0.18-0.03,0.27c-0.05,0.46-0.1,0.92-0.14,1.39
		c0,0.03,0,0.05-0.01,0.08C246.53,98.85,246.5,100.36,246.54,101.93z M295.9,133.78c1.01-0.44,2.1-0.7,3.18-0.68
		c1.41,0.03,2.34,1.51,1.76,2.79c-0.01,0.01-0.01,0.02-0.02,0.04c-0.34,0.74-1.1,1.17-1.91,1.16c-0.13,0-0.26,0.01-0.39,0.03
		s-0.26,0.06-0.38,0.11c-0.58,0.23-1.25,0.44-1.99,0.64c-0.67,0.17-1.4,0.33-2.18,0.47c-0.17,0.03-0.34,0.06-0.51,0.09
		c-0.64,0.11-1.32,0.21-2.02,0.3c-0.39,0.05-0.78,0.1-1.18,0.14c-0.79,0.09-1.61,0.17-2.46,0.25c0-0.01,0.01-0.03,0.01-0.04
		c1.7-4.34,2.05-9.99,1.36-16.03c-0.51-4.81-1.69-9.95-3.56-15.07c-0.94-2.59-2.01-5.06-3.2-7.41c-0.06-0.12-0.12-0.25-0.19-0.37
		c-0.32-0.61-0.64-1.22-0.97-1.81c-0.28-0.51-0.57-1-0.86-1.49c-0.05-0.08-0.1-0.16-0.15-0.24c-0.28-0.47-0.55-0.94-0.84-1.39
		c-0.13-0.2-0.37-0.55-0.66-0.96c-0.18-0.27-0.36-0.54-0.54-0.8l-0.15-0.21c-0.74-1.31,0.17-2.98,1.73-2.98
		c0.67,0,1.29,0.33,1.66,0.88c0.69,1.03,1.8,2.7,2.35,3.62c3.96,6.65,6.77,14.05,8.38,21.62c1.14,5.43,1.53,10.64,1.16,15.34
		C293.26,133.15,294.57,134.19,295.9,133.78z M293.44,146.13c-0.02,0.02-0.03,0.03-0.05,0.05c-0.3,0.28-0.68,0.45-1.09,0.5
		c-6.67,0.87-15.05,1.04-23.44,1.04c-0.91,0-1.83-0.01-2.74-0.01c-0.03,0-0.05,0-0.08,0c-0.02,0-0.03,0-0.05,0
		c-2.18-0.01-4.35-0.02-6.46-0.04h-0.12h-0.09c-1.13-0.01-2.24-0.02-3.34-0.02c-0.48,0-0.94-0.17-1.3-0.49l-0.04-0.04
		c-1.37-1.22-0.5-3.48,1.33-3.47c0.16,0,0.32,0,0.48,0c0.99,0.01,1.98,0.01,3,0.02c2.15,0.02,4.35,0.03,6.55,0.04
		c0.02,0,0.04,0,0.05,0c0.01,0,0.03,0,0.04,0c0.92,0,1.85,0.01,2.77,0.01c5.47,0,10.9-0.08,15.78-0.36c0.03,0,0.06,0,0.09-0.01
		c0.7-0.04,1.39-0.09,2.07-0.14c0.28-0.02,0.55-0.04,0.83-0.07c0.37-0.03,0.74-0.06,1.11-0.1c0.36-0.03,0.72-0.07,1.07-0.11
		c0.24-0.02,0.47-0.05,0.71-0.08c0.42-0.05,0.84-0.1,1.24-0.15c0.02,0,0.04-0.01,0.07-0.01
		C293.74,142.46,294.86,144.82,293.44,146.13z M281.84,109.36c0.26,0.71,0.51,1.43,0.74,2.15c1.62,5,2.55,9.99,2.79,14.54
		c-0.18-0.61-0.36-1.21-0.58-1.82c-3.56-9.78-11.73-15.79-18.25-13.41s-8.92,12.23-5.36,22.01c0.11,0.31,0.25,0.6,0.37,0.9
		c-0.03-0.04-0.06-0.08-0.09-0.12c-0.32-0.45-0.63-0.9-0.94-1.36c-0.07-0.11-0.14-0.22-0.22-0.33c-0.25-0.38-0.5-0.77-0.74-1.16
		c-0.1-0.17-0.21-0.34-0.31-0.51c-0.21-0.36-0.43-0.71-0.64-1.08c-0.1-0.17-0.2-0.34-0.29-0.52c-0.24-0.43-0.48-0.87-0.71-1.31
		c-0.05-0.1-0.11-0.2-0.16-0.3c-0.28-0.55-0.56-1.1-0.83-1.67c-0.07-0.14-0.14-0.29-0.2-0.43c-0.2-0.43-0.4-0.86-0.59-1.29
		c-0.09-0.19-0.17-0.38-0.25-0.58c-0.18-0.41-0.35-0.83-0.53-1.25c-0.07-0.18-0.15-0.36-0.22-0.54c-0.24-0.59-0.47-1.19-0.69-1.8
		c-0.23-0.64-0.45-1.29-0.67-1.93c-0.07-0.21-0.13-0.42-0.2-0.64c-0.14-0.43-0.27-0.86-0.4-1.29c-0.07-0.25-0.14-0.51-0.22-0.76
		c-0.11-0.39-0.22-0.78-0.32-1.17c-0.07-0.27-0.13-0.53-0.2-0.8c-0.09-0.38-0.18-0.76-0.27-1.14c-0.06-0.27-0.12-0.53-0.18-0.8
		c-0.08-0.38-0.15-0.76-0.22-1.14c-0.05-0.26-0.1-0.51-0.14-0.77c-0.07-0.42-0.14-0.83-0.2-1.24c-0.03-0.21-0.07-0.43-0.1-0.64
		c-0.08-0.6-0.16-1.19-0.22-1.77c-0.03-0.25-0.04-0.49-0.07-0.73c-0.03-0.36-0.07-0.71-0.09-1.06c-0.02-0.28-0.03-0.55-0.05-0.82
		c-0.02-0.31-0.03-0.63-0.04-0.94c-0.01-0.28-0.01-0.55-0.02-0.83c0-0.3,0-0.59,0-0.88c0-0.27,0.01-0.54,0.02-0.81
		c0.01-0.29,0.02-0.57,0.04-0.86c0.01-0.26,0.03-0.52,0.05-0.77c0.02-0.3,0.05-0.59,0.08-0.88c0.02-0.23,0.04-0.46,0.07-0.69
		c0.06-0.45,0.12-0.89,0.2-1.33c0.03-0.18,0.07-0.35,0.1-0.52c0.06-0.32,0.13-0.63,0.2-0.94h21.76c0.04,0.05,0.09,0.11,0.13,0.16
		c0.47,0.59,0.93,1.19,1.38,1.83c0.01,0.01,0.02,0.02,0.03,0.03l0.04,0.06c0.02,0.03,0.04,0.05,0.05,0.08l0.21,0.3
		C277.64,99.71,280.04,104.41,281.84,109.36z M203.04,136.01c-0.26,0.21-0.52,0.42-0.78,0.62c-0.31-0.06-0.68-0.13-1.13-0.19
		c-1.49-0.2-2.92-0.58-4.25-1.05l0,0c-0.6-1.15-1.07-2.47-1.41-3.94c0,0,0,0,0-0.01c-0.11-0.48-0.21-0.98-0.3-1.49
		c0-0.01,0-0.03-0.01-0.04c-0.08-0.5-0.15-1.01-0.21-1.54c0-0.03-0.01-0.07-0.01-0.1c-0.05-0.51-0.09-1.03-0.12-1.56
		c0-0.06,0-0.12-0.01-0.17c-0.02-0.51-0.04-1.03-0.04-1.56c0-0.09,0-0.18,0-0.26c0-0.51,0.01-1.02,0.03-1.54
		c0.01-0.12,0.01-0.25,0.02-0.37c0.02-0.49,0.05-0.99,0.1-1.49c0.01-0.16,0.03-0.33,0.05-0.49c0.04-0.47,0.09-0.94,0.15-1.42
		c0.03-0.2,0.06-0.41,0.09-0.62c0.06-0.44,0.12-0.89,0.2-1.34c0.04-0.25,0.09-0.51,0.14-0.76c0.07-0.41,0.15-0.82,0.23-1.24
		c0.06-0.3,0.13-0.6,0.2-0.89c0.08-0.38,0.16-0.76,0.26-1.14c0.09-0.35,0.18-0.7,0.28-1.05c0.09-0.33,0.17-0.67,0.26-1
		c0.12-0.43,0.26-0.86,0.39-1.29c0.08-0.26,0.15-0.52,0.24-0.77c0.22-0.69,0.46-1.38,0.71-2.08c0.53-1.46,1.15-2.96,1.83-4.46
		c0.02-0.04,0.04-0.08,0.05-0.12l0.42-0.9c0.18-0.37,0.36-0.74,0.54-1.1l0.12-0.24c0.01-0.02,0.02-0.03,0.03-0.05
		c0.31-0.59,0.62-1.17,0.94-1.73c0.09-0.16,0.19-0.32,0.28-0.48c0.24-0.42,0.48-0.83,0.73-1.23c0.1-0.15,0.19-0.31,0.29-0.46
		c0.3-0.47,0.6-0.94,0.91-1.39c0.04-0.06,0.07-0.11,0.11-0.17c0.34-0.49,0.68-0.97,1.02-1.43c0.04-0.05,0.08-0.1,0.11-0.15h21.07
		c0.02,0.11,0.04,0.22,0.06,0.34c0.03,0.15,0.05,0.3,0.08,0.45c0.05,0.32,0.09,0.65,0.13,0.98l0.05,0.43
		c0.04,0.38,0.07,0.78,0.09,1.18L227,97c0.25,4.58-0.39,9.79-1.86,15.09c-0.03,0.11-0.07,0.22-0.11,0.33
		c-0.07,0.16-0.15,0.32-0.23,0.49c-0.59,0.27-1.16,0.6-1.69,0.98c-0.54,0.39-1.03,0.83-1.48,1.3c-1.44-2.8-3.63-4.73-6.32-5.21
		c-5.88-1.04-11.91,5.27-13.47,14.1C201.06,128.52,201.58,132.76,203.04,136.01z M195.14,95.98c0-0.92,0.25-1.81,0.71-2.61
		c0.42-0.73,0.85-1.45,1.3-2.14c0.38-0.57,1.01-0.92,1.69-0.92c1.58,0,2.56,1.76,1.69,3.09c-0.08,0.12-0.16,0.25-0.23,0.37
		c-0.2,0.32-0.41,0.64-0.61,0.97c-0.19,0.3-0.37,0.61-0.55,0.92c-0.18,0.3-0.36,0.61-0.53,0.92c-0.04,0.07-0.09,0.15-0.13,0.22
		l-0.02,0.04C197.57,98.43,195.14,97.8,195.14,95.98z M188.86,151.39c0.92-0.81,2.8-2.13,5.19-3.81c7.55-5.3,19.9-13.98,28.25-24.78
		c0.04-0.05,0.08-0.11,0.12-0.16c0.43-0.56,0.86-1.13,1.27-1.7c0.63-0.88,1.1-0.88,1.3-0.88c0.62,0,1.1,0.34,1.47,1.03
		c0.31,0.58,1.09,2.37,2,4.44c2.64,6.04,7.06,16.14,10.45,21.06c5.46,7.92,11.71,13.33,18.97,16.38c-1.29,0.5-2.56,1.09-3.8,1.76
		c-8.95-0.61-16.65,3.67-23.06,11.8c-1.23,1.56-3.44,1.95-5.17,0.98c-8.91-4.99-13.76-11.77-20.38-18.28
		c-6.37-6.26-12.63-3.48-16.17,3.27c-1.43,2.73-2.1,5.78-2.25,8.86c-0.23,4.76,0.22,10.31,1.97,16.46
		c2.15,7.57,6.07,13.9,11.62,18.86c-1.52,0.16-3.03,0.66-3.81,1.94c-5.52-5.3-9.44-11.91-11.66-19.7
		C179.03,167.36,187.5,152.6,188.86,151.39z M213.67,217c-5.8-2.02-12.6-1.05-16.34,1.05l2.86-7.22c1.24-0.55,6.78-0.21,15.12,3.09
		c8.34,3.31,12.6,6.86,13.13,8.11l-0.41,1.02c-0.02,0.05-0.04,0.1-0.06,0.16l-2.38,6.01C223.94,224.94,219.55,219.05,213.67,217z
		 M223.49,233.65c-0.06,0.01-0.14,0.02-0.21,0.03c-0.11,0-0.22,0.02-0.33,0.04c-0.48,0.04-1.11,0.04-1.88-0.02
		c-0.02,0-0.05,0-0.08-0.01c-2.65-0.22-6.86-1.11-12.25-3.25c-7.67-3.04-11.89-6.29-12.93-7.76c1.77-0.36,7.07,0.17,14.73,3.21
		C218.22,228.93,222.45,232.18,223.49,233.65z M212.61,262.08L212.61,262.08c2.56-5.76,5.29-11.43,7.93-16.65
		c0-0.01,0.01-0.02,0.01-0.03c0.39-0.77,0.77-1.52,1.15-2.27c0.08-0.15,0.16-0.31,0.24-0.46c0.35-0.67,0.69-1.34,1.03-1.99
		c0.06-0.11,0.12-0.22,0.17-0.33c0.49-0.92,1.6-1.31,2.56-0.89l0.04,0.02c1.04,0.46,1.49,1.7,0.96,2.71
		c-2.78,5.33-5.79,11.36-8.66,17.59c-0.99,2.14,0.07,4.67,2.3,5.45c3.62,1.27,7.75,2.49,11.76,2.49c2.58,0,4.67-0.65,5.4-2.48
		l3.63-9.14c0.36-0.92,1.12-1.62,2.05-1.94c0.01,0,0.02-0.01,0.03-0.01c1.07-0.37,2.24-0.15,3.13,0.54
		c2.65,2.05,5.55,4.11,8.58,6.13c-0.03,2.47-0.04,5.02-0.04,7.65c-4.23,3.63-10.76,9.44-19.46,17.7c-3.72-1.97-7.77-3.25-12.08-3.77
		c-4.91-2.96-11.35-3.89-18.09-1.61C207.24,274.76,209.81,268.37,212.61,262.08z M305.93,176.09c-0.89-0.95-1.84-1.82-2.85-2.61
		c0.1-0.11,0.2-0.22,0.27-0.35c8.72-14.99,12.95-31.66,12.95-50.97v-21.89c0-10.97-8.08-20.09-18.61-21.71l0,0c0,0,0,0-0.01,0
		s-0.03,0-0.04-0.01c-18.91-2.87-65.88-2.56-92.12-0.25h-0.16c9.74-2.77,23.16-4.52,39.32-5.02c28.98-0.88,49.64,0.65,61.39,4.56
		c11.22,3.73,14.18,13.36,14.69,20.78C322.93,130.66,317.93,156.7,305.93,176.09z M282.25,69.77c2.37-12.48,8.12-23.04,15.76-28.65
		c2.06-1.51,4.2-2.6,6.38-3.28c-2.4,2.01-4.76,4.58-6.92,7.58c-4.99,6.93-8.5,15.63-10.1,24.81
		C285.73,70.06,284.03,69.9,282.25,69.77z M249.68,35.81c7.02-3.11,16.44-6.63,27.47-6.36c7.79,0.18,13.94,2.36,19.88,4.46
		c1.14,0.4,2.26,0.79,3.37,1.17c-1.62,0.75-3.22,1.68-4.76,2.82c-8.53,6.27-14.9,17.95-17.4,31.61c-9.54-0.54-20.73-0.61-33.68-0.21
		c-5.08,0.16-11.3,0.49-17.81,1.16C230.22,50.53,241.03,40.63,249.68,35.81z M222.62,70.93c-1.6,0.2-3.21,0.42-4.82,0.67
		c1.61-13.47,8.05-25.28,17.48-31.9c2.06-1.45,4.15-2.5,6.14-3.18C233.44,42.82,225.39,53.39,222.62,70.93z M188.53,6.89
		c2.37-2.56,6.51-0.14,8.76,1.54c0.29,0.22,25.47,18.1,41.32,24.87c-1.47,0.62-2.96,1.4-4.44,2.35c-3.05-1.43-6.28-3.12-9.54-4.95
		c-1.26-0.71-2.81-0.68-4.04,0.08c-2.87,1.76-6.23,3.82-6.23,3.82c-10.58,7.07-22.36,18.5-31.57,28.23
		c-0.8,0.84-1.18,1.98-1.07,3.13c0.66,6.63,1.34,11.7,1.84,15.53c0.17,1.27,0.32,2.42,0.45,3.49c-1.22,1.36-2.41,2.67-3.59,3.93
		c-0.16-1.81-0.45-4.05-0.83-6.89c-0.81-6.1-2.03-15.32-2.97-28.92C174.58,23.57,186.19,9.42,188.53,6.89z M151.6,118.91
		c14.64-10.81,23.04-17.91,32.15-27.71c-0.07,0.58-0.11,1.16-0.11,1.75v0.65c-0.04,0.42-0.06,0.85-0.06,1.28l-0.88,47.62
		c-0.03,1.8-1.26,3.35-3,3.8l-17.55,4.52c-2.39,0.58-4.43,2.1-6.06,4.43c-4.15-5.84-7.27-11.11-9.71-16.42
		C142.62,130.67,144.28,124.34,151.6,118.91z M141.94,124.15c-2.24,4.84-1.98,10.31,0.8,16.36c0.19,0.4,0.38,0.8,0.58,1.21
		c-1.78,2.65-2.75,5.52-2.87,8.58c-0.08,1.97,2.42,2.86,3.61,1.3c0.8-1.05,1.55-2.17,2.23-3.37c0.08-0.13,0.18-0.24,0.26-0.37
		c0.55,0.95,1.13,1.91,1.72,2.88c-3.2,5.16-7.73,9.26-11.35,11.3c-0.87-8.47-2.19-17.43-4.29-26.74c-0.01-0.06-0.04-0.12-0.06-0.18
		c-1.78-7.88-4.31-14.67-6.97-20.59c0.55-0.37,1.12-0.74,1.71-1.13c1.54-1,3.22-2.11,4.92-3.36c-0.09,1.45-0.38,2.97-0.93,4.08
		c-0.41,0.83-0.2,1.83,0.52,2.42C132.1,116.78,137.78,121.47,141.94,124.15z M129.18,217.57c0.9-2.12,1.76-4.33,2.57-6.63
		c0.32-0.92,0.47-1.9,0.44-2.87c-0.08-2.52-0.16-4.88-0.23-6.97l-0.01-0.25c-0.06-1.79-0.11-3.64-0.17-5.57l-0.01-0.27
		c-0.07-2.36-0.14-4.81-0.23-7.33c0.23-0.98,0.45-1.96,0.66-2.96c0.73-3.51,1.29-6.88,1.73-10.15c0.45,7.29,0.65,14.11,0.83,20.35
		c0.06,2.02,0.11,3.96,0.18,5.83l0.01,0.24c0.52,15.75,1.32,39.56-0.65,45.32c-1.76,5.15-8.38,17.19-17.06,20.93
		c-1.36-1.33-3.98-4.19-5.09-7.39c1.29-1.89,2.37-3.43,3.29-4.74c3.02-4.3,4.39-6.26,4.99-9.14c0.72-3.45,1.84-18.06,1.93-32.39
		c1.07-2.1,2.09-4.3,3.06-6.61c-0.01,3.06-0.06,5.64-0.06,6.15c-0.01,1.22-0.02,2.43-0.04,3.64
		C125.3,218.96,128.32,219.6,129.18,217.57z M127.44,64.01c4.51,0.65,8.28,2.97,11.2,6.95c3.96,5.4,4.68,13.19,2.04,21.93
		c-2.64,8.72-9.8,13.4-15.54,17.15c-0.42,0.28-0.83,0.54-1.23,0.81c-0.45-0.93-0.89-1.83-1.34-2.71c0.31-0.2,0.61-0.4,0.93-0.61
		c3.1-2.03,6.43-4.2,9.17-7.04c4.12-4.25,5.71-10.36,4.09-15.96c0.37-1.28,0.67-2.59,0.85-3.93c0.15-1.09-0.61-2.1-1.7-2.26
		c-1.1-0.15-2.1,0.61-2.26,1.7c-1.13,8.12-6.44,15.3-13.84,18.74c-5.56,2.58-11.3,2.45-15.75-0.36c-4.29-2.7-5.25-6.98-5.45-9.29
		c-0.33-3.9,0.99-7.9,3.27-9.94c0.24-0.21,0.45-0.42,0.69-0.63l0,0c0.38-0.35,0.8-0.74,1.23-1.14c0.78-0.73,1.55-1.46,2.3-2.18
		c0.77-0.73,1.98-0.72,2.74,0.03l0.04,0.04c0.8,0.78,0.79,2.06-0.02,2.83c-0.36,0.34-0.75,0.72-1.16,1.11
		c-1.01,0.96-0.74,2.62,0.5,3.26c3.07,1.56,6.36,2.4,9.61,2.4c0.58,0,1.16-0.03,1.74-0.08c4.74-0.45,8.62-2.67,10.93-6.26
		c1.01-1.57,1.71-3.3,2.11-5.13c0.39-1.8-0.53-3.63-2.19-4.43c-1.37-0.66-2.86-1.04-4.49-1.16
		C126.59,66.65,127.1,65.37,127.44,64.01z M75.26,34.47c4.17-4.11,10.59-5.66,18.55-4.47c11.26,1.68,23.39,10.94,28.2,21.55
		c1.82,4.01,3.32,9.85,0.09,14.87c-1.63,2.54-4.45,4.11-7.93,4.44c-5.18,0.49-10.75-1.83-14.9-6.2c-7.13-7.52-8.27-10.73-9.36-13.84
		l-0.15-0.43c-0.37-1.04-1.52-1.58-2.56-1.21c-1.04,0.37-1.58,1.52-1.21,2.56l0.15,0.42c0.13,0.36,0.26,0.72,0.39,1.09
		c-3.81,0.52-7.01-0.55-9.42-2.11c-1.41-0.91-3.26,0.26-3.05,1.92c0.01,0.06,0.01,0.11,0.02,0.17c0.02,0.17,0.02,0.35,0.03,0.52
		c-1.1-0.43-2.2-0.8-3.31-1.07c-0.28-0.07-0.55-0.11-0.82-0.16C69.25,45.06,71.15,38.53,75.26,34.47z M58.32,58.29
		c3.1-2.22,7.09-2.81,11.53-1.72c9.49,2.33,19.16,11.61,25.94,24.83c-0.81,2.07-1.24,4.39-1.21,6.76c-0.16,0.16-0.31,0.34-0.46,0.51
		c-0.44-1.6-0.96-3.33-1.71-5.11c-1.71-3.38-3.61-6.48-5.64-9.24c-0.9-1.23-2.83-1.05-3.47,0.34c-3.57,7.73-4.17,15.4-3.53,20.44
		c0.15,1.19,0.86,2.24,1.89,2.85c2.14,1.27,3.63,1.28,4.59,1.28c0.58,0,1.17-0.04,1.83-0.08c0.11-0.01,0.21-0.01,0.31-0.01
		c0.25,0,0.49,0.02,0.74,0.05c-0.54,1.43-1.04,2.76-1.49,3.99c-4.11,0.23-9.24-0.03-17.19-11.04c-4.58-6.35-9.35-10.66-14-12.7
		C50.69,70.79,53.83,61.49,58.32,58.29z M49.22,114.13c-5.56-6.1-8.34-13.74-7.61-20.95c0.43-4.28,2.12-7.98,4.41-9.65
		c1.33-0.97,2.82-1.45,4.44-1.45c0.45,0,0.92,0.04,1.39,0.11c4.73,0.75,10.18,5.12,15.36,12.3c1.44,1.99,2.8,3.68,4.11,5.11
		c2.94,3.69,9.51,15.25,2.65,21.41C67.3,126.98,56.47,122.08,49.22,114.13z M62.13,127c1.61,0.41,3.21,0.64,4.78,0.64
		c0.93,0,1.85-0.08,2.75-0.25c3.74,2.05,7.91,3.24,11.93,3.24c0.74,0,1.46-0.06,2.18-0.14c0.03,1.3,0.07,2.65,0.1,4.02
		C76.42,135.25,68.21,132.3,62.13,127z M87.74,156.5c0.44-2.62,0.39-10.64,0.18-20.18v-0.01c-0.08-3.72-0.19-7.68-0.3-11.64
		c-0.11-4.09-0.21-7.61-0.18-8.25c0.1-1.26,2.35-7.68,6.67-19.06c0.24-0.63,0.44-1.15,0.59-1.56c-0.14,1.21-0.18,2.44-0.07,3.68
		c0.16,1.91,0.61,3.7,1.31,5.33c0.54,1.24,2.19,1.63,3.16,0.69c0.91-0.88,2.14-1.41,3.49-1.41c0.38,0,0.76,0.04,1.14,0.13
		c2.7,0.62,4.3,3.48,3.69,6.19c-0.13,0.56-0.24,1.09-0.34,1.62c-0.21,1.09,0.5,2.16,1.59,2.35c1.06,0.18,2.14,0.27,3.23,0.27
		c1,0,2.02-0.08,3.03-0.23c1.36-0.2,2.12-1.67,1.51-2.89c-1.08-2.15-2.13-4.17-3.13-6.06l-0.44-0.85c1.05-0.05,2.11-0.19,3.18-0.4
		c8.26,15.71,20.63,39.42,12.26,79.67c-2.28,10.96-5.59,20.28-9.56,28.05c-0.1,0.15-0.18,0.31-0.24,0.48
		c-10.58,20.41-25.79,29.95-39.06,30.16c-3.4-1.67-8.89-5.86-11.07-11.04c2.63-2.91,5.08-5.85,7.36-8.83
		c0.02-0.03,0.05-0.06,0.07-0.09c14.94-19.5,22.74-40.93,25.56-69.38c1.39-13.97,1.6-22.45,1.76-28.64
		c0.16-6.29,0.25-10.09,1.41-15.06c0.25-1.08-0.42-2.15-1.5-2.4c-1.07-0.25-2.15,0.42-2.4,1.5c-1.05,4.5-1.29,8.17-1.43,12.95
		c-4.41,37.22-13.96,54.53-27.95,70.4c-6.86,7.78-14.52,12.58-20.3,15.11C76.01,185.53,86.68,162.88,87.74,156.5z M53.33,222.77
		c-3.39-1.15-6.29-6.17-7.87-9.66c1.12-0.2,2.35-0.52,3.71-0.98c2.29,3.88,4.59,6.56,5.45,6.85c0.6,0.2,1.69,0.44,3.49,0.44
		c4.63,0,10.47-1.61,13.01-3.11c1.91-0.92,4.45-2.4,7.01-3.93c-1.66,2.56-3.42,5.08-5.31,7.56
		C68.43,222.36,58.62,224.56,53.33,222.77z M43.27,289.76c2.88-3.37,9.56-10.13,18.01-12.06c-11.59,8.28-21.58,21.1-26.59,30.62
		C35.35,301.78,39.54,294.12,43.27,289.76z M29.5,337.66c0.96-1.25,1.96-2.28,2.72-2.92c0.92-0.78,2.92-1.35,4.9-1.14
		c1.01,1.54,2.08,3.02,3.19,4.36C36.44,337.89,32.79,337.8,29.5,337.66z M116.5,335.26c-1.18,0.17-2.5,0.34-3.97,0.53
		c-0.07-1.63-0.09-3.27,0-4.93c0.03-0.51,0.06-1.01,0.11-1.51c0.16-1.86-1.44-3.39-3.3-3.19c-5.1,0.57-11.5,1.13-19.08,1.51
		c-1.54,0.08-3.03,0.61-4.28,1.52c-6.45,4.7-13.62,8.58-20.33,8.92c-0.11,0.01-0.22,0.01-0.33,0.01c-3.2,0-5.83-2.5-5.99-5.7
		c-0.03-0.59,0.03-1.18,0.16-1.74c0.32-1.29-0.57-2.55-1.9-2.56c-2.92-0.01-5.83-0.02-8.7-0.05c-2.54-0.02-3.98,2.94-2.36,4.89
		c0.82,0.98,1.66,1.89,2.52,2.7c0.72,0.68,1.24,1.51,1.56,2.42c-1.63-0.01-3.24-0.03-4.84-0.05c-1.99-1.98-4.02-4.56-5.77-7.34
		c-0.01-0.02-0.03-0.04-0.04-0.06c-2.63-4.19-4.59-8.78-4.71-12.3c-0.02-0.5,0.1-1.18,0.32-1.98c0.05-0.11,0.08-0.23,0.11-0.35
		c2.57-8.33,16.61-29.71,33.98-38.84c0,0,0.01,0,0.01-0.01c0.01-0.01,0.03-0.02,0.04-0.02c4.14-2.17,13.48,3.17,25.3,9.94l3.02,1.73
		c0.33,0.19,0.7,0.27,1.07,0.26c3.61-0.14,9.23-0.22,10.44,0.07c0.88,0.24,5.14,2.55,8.25,4.23c1.67,0.91,3.29,1.78,4.74,2.54
		c-1.1,0.44-2.31,0.94-3.59,1.49c-0.8-0.43-1.66-0.89-2.59-1.4c-0.99-0.54-2.47-1.34-3.87-2.08c-0.87-0.46-1.87-0.58-2.82-0.36
		c-4.73,1.13-17.07,4.89-23.21,7.12c-1.18,0.43-2.09,1.37-2.46,2.57c-0.23,0.75-0.48,1.48-0.74,2.18c-0.45,1.21-1.05,2.66-1.63,4.05
		c-1.4,3.38-3.13,7.59-3.84,10.72c-0.36,1.59-1.73,5.3-5.03,7.71c-2.64,1.26-5.2,2.09-7.54,2.21c-1.1,0.06-1.95,1-1.9,2.1
		c0.05,1.07,0.94,1.9,2,1.9c0.03,0,0.07,0,0.1,0c11.53-0.59,26.09-14.36,33.08-20.97c0.93-0.88,1.68-1.59,2.21-2.05
		c3.5-3.09,23.85-11.91,27.05-12.86c1.02,0.26,3.77,1.56,6.64,3.2c-9.43,2.03-17.05,14.31-17.89,29.64
		C116.45,332.48,116.46,333.88,116.5,335.26z M138.7,330.39c-2.04,0.56-4,1.07-5.88,1.55c0.54-3.6,1.28-6.57,1.61-7.58
		c0.93-0.19,3.31,0.11,4.23,0.53C138.72,325.96,138.77,328.29,138.7,330.39z M141.72,329.55c0.02-0.93,0.01-1.85,0-2.68
		c1.69-1.76,2.78-4.2,3.01-6.82c0.25-2.91-0.59-5.66-2.29-7.56c-1.33-1.48-3.09-2.31-4.98-2.36c-4.38-0.05-8.27,4.11-8.73,9.37
		c-0.24,2.76,0.49,5.33,2,7.2c-0.38,1.7-0.76,3.79-1.05,6.01c-3.49,0.84-6.56,1.49-9,1.9c-0.06,0.01-0.14,0.02-0.2,0.03
		c-0.02-1.11-0.02-2.23,0.04-3.36c0.77-14.19,8.39-26.16,16.64-26.16h0.01c7.27,0.01,13.09,9.46,13.62,21.76
		C147.71,327.83,144.67,328.72,141.72,329.55z M149.03,302.34c-1.93-0.04-4.03-0.08-6.23-0.12c-1.61-1.3-3.83-2.77-6.11-4.09
		c4.5,0.05,8.73,0.14,12.42,0.21c3.02,0.06,5.75,0.12,8,0.14c-0.38,1.28-0.63,2.62-0.75,3.99
		C154.24,302.45,151.77,302.4,149.03,302.34z M156.82,321.58c-0.54,0.95-1.33,1.7-2.25,2.22c-0.18-1.69-0.45-3.33-0.81-4.89
		c1.75-2.88,3.41-4.52,4.56-5.32c0.56,1.23,1.24,2.39,2.01,3.49C159.68,317.61,158.38,318.88,156.82,321.58z M155,358.68
		c4.09,3.67,7.83,4.76,12.38,5.24c0.71,0.07,1.36,0.11,1.99,0.11c3.59,0,7.2-1.18,11.06-3.61c4.56-2.87,7.83-6.8,11.96-11.77
		c0.62-0.75,1.27-1.54,1.96-2.37c0.64-0.77,1.77-1.05,2.63-0.54c1.1,0.65,1.31,2.09,0.53,3.03c-0.08,0.09-0.15,0.18-0.23,0.28
		c-0.62,0.73-1.22,1.46-1.81,2.16c-4.19,5.03-7.8,9.38-12.9,12.59c-6.98,4.4-12.24,4.44-15.6,4.09c-5.25-0.54-9.82-1.88-14.72-6.31
		C153.15,360.63,154.08,359.67,155,358.68z M59.82,403.66c-1.03,0.37-2.17-0.15-2.56-1.18c-0.38-1.02,0.13-2.15,1.13-2.55
		c0.3-0.11,0.6-0.22,0.9-0.33c0.54-0.19,1.09-0.39,1.63-0.57c0.6-0.21,1.2-0.42,1.8-0.62c0.54-0.18,1.08-0.37,1.63-0.55
		c0.6-0.2,1.2-0.4,1.79-0.59c0.54-0.18,1.08-0.35,1.62-0.52c0.6-0.19,1.19-0.38,1.79-0.56c0.54-0.17,1.08-0.33,1.61-0.5
		c0.6-0.18,1.19-0.36,1.79-0.54c0.53-0.16,1.06-0.32,1.59-0.47c0.6-0.17,1.19-0.35,1.79-0.52c0.53-0.15,1.05-0.3,1.58-0.45
		c0.59-0.17,1.18-0.33,1.78-0.49c0.52-0.14,1.04-0.29,1.57-0.43c0.59-0.16,1.18-0.32,1.77-0.47c0.52-0.14,1.03-0.28,1.55-0.41
		c0.59-0.15,1.17-0.3,1.76-0.46c0.51-0.13,1.02-0.26,1.53-0.39c0.59-0.15,1.17-0.29,1.75-0.44c0.5-0.13,1.01-0.25,1.51-0.38
		c0.58-0.14,1.16-0.28,1.74-0.43c0.49-0.12,0.98-0.24,1.47-0.36c0.6-0.14,1.2-0.29,1.8-0.43c0.46-0.11,0.92-0.22,1.38-0.33
		c0.6-0.14,1.2-0.28,1.8-0.42c0.45-0.11,0.91-0.21,1.36-0.32c0.63-0.14,1.25-0.29,1.87-0.43c0.41-0.09,0.82-0.19,1.22-0.28
		c0.79-0.18,1.56-0.36,2.34-0.53c0.23-0.05,0.47-0.11,0.7-0.16c1.01-0.23,2.02-0.46,3.02-0.68c0.97-0.22,1.93-0.44,2.88-0.65
		c0.29-0.06,0.57-0.13,0.85-0.19c0.66-0.15,1.32-0.3,1.97-0.45c0.38-0.09,0.76-0.17,1.14-0.26c0.56-0.13,1.12-0.26,1.67-0.38
		c0.38-0.09,0.76-0.18,1.14-0.27c0.54-0.13,1.08-0.25,1.61-0.38c0.38-0.09,0.76-0.18,1.14-0.27c0.52-0.12,1.03-0.25,1.54-0.37
		c0.38-0.09,0.76-0.19,1.15-0.28c0.49-0.12,0.98-0.24,1.47-0.36c0.39-0.1,0.77-0.19,1.15-0.29c0.47-0.12,0.94-0.24,1.4-0.36
		c0.38-0.1,0.76-0.2,1.13-0.3c0.46-0.12,0.91-0.24,1.36-0.37c0.37-0.1,0.74-0.2,1.1-0.3c0.44-0.12,0.88-0.25,1.31-0.37
		c0.36-0.1,0.72-0.21,1.07-0.31c0.43-0.13,0.85-0.25,1.27-0.38c0.35-0.11,0.69-0.21,1.03-0.32c0.42-0.13,0.82-0.26,1.23-0.4
		c0.33-0.11,0.66-0.22,0.99-0.33c0.4-0.14,0.8-0.27,1.2-0.41c0.31-0.11,0.63-0.22,0.94-0.33c0.4-0.14,0.79-0.29,1.18-0.44
		c0.29-0.11,0.58-0.22,0.87-0.33c0.4-0.16,0.79-0.32,1.17-0.48c0.26-0.11,0.53-0.21,0.78-0.32c0.42-0.18,0.83-0.36,1.24-0.55
		c0.21-0.09,0.42-0.18,0.63-0.28c0.02-0.01,0.04-0.02,0.06-0.03c0.97-0.45,2.12-0.05,2.6,0.9c0.52,1.01,0.09,2.25-0.94,2.73
		c-9.74,4.55-23.11,7.57-38.44,11.03C95.15,393.29,77.59,397.25,59.82,403.66z M173.96,395.12c-1.69,1.32-6.86,4.54-11.18,5.54
		c-2.09,0.48-5.4,0.69-9.6,0.95c-4.41,0.28-9.91,0.62-15.64,1.4c-0.15,0.02-0.3,0.02-0.45,0.01c-0.91-0.08-1.68-0.78-1.81-1.72
		c-0.15-1.09,0.62-2.1,1.71-2.25c5.88-0.8,11.46-1.15,15.94-1.43c3.86-0.24,7.19-0.45,8.95-0.86c3.71-0.86,8.42-3.86,9.62-4.8
		c0.87-0.68,2.13-0.52,2.81,0.35C174.99,393.18,174.83,394.44,173.96,395.12z M173.87,371.61c1.22-0.23,2.53-0.57,3.92-1.05
		c2.19,4.33,6.19,6.44,12.19,6.44c0.3,0,0.6-0.01,0.89-0.02c5.93-0.22,11.68-5.49,18.95-12.16l0.09-0.08
		c0.4-0.37,0.8-0.74,1.21-1.11c0.73-0.67,1.88-0.8,2.66-0.18c1,0.79,1.02,2.24,0.12,3.05c-0.46,0.42-0.92,0.84-1.38,1.26
		c-0.05,0.05-0.1,0.09-0.15,0.14l0,0c-7.81,7.17-14.01,12.81-21.36,13.08C185.1,381.2,177.49,379.69,173.87,371.61z M239.39,370.99
		c-0.11,0.1-0.21,0.2-0.3,0.32c-10.31,13.7-16.6,16.29-24.59,16.29c-6.89,0-11.37-3.45-13.31-5.68c1.15-0.65,2.29-1.38,3.42-2.18
		c1.51,1.51,4.85,3.86,9.9,3.86c5.85,0,11.14-1.08,21.39-14.7c0.26-0.35,0.57-0.68,0.91-0.97c4.9-4.17,10.07-12.36,12.86-22.06
		c0.83-2.88-1.71-5.59-4.65-5.01c-16.06,3.18-31.46-1.98-40.51-5.93c-8.3-3.62-18.62-6.57-25.49-4.58c0.18-0.22,0.37-0.45,0.54-0.66
		l2.59-3.16c8.89-10.85,12.57-15.34,17.47-18.48c0.93-0.6,1.2-1.83,0.61-2.76c-0.6-0.93-1.83-1.2-2.76-0.61
		c-1.45,0.93-2.81,1.97-4.18,3.2c-5.56-0.31-11.58-4.3-14.7-6.36c-3.72-2.46-9.53-4.16-12.98,0.02c-0.01,0.01-0.01,0.02-0.02,0.02
		c-1.01,1.24-1.38,2.88-1.2,4.47c0.27,2.33,1.05,4.09,1.83,5.43c1.43,2.47,3.6,4.51,6.3,5.82c0.79,0.39,1.46,0.92,1.98,1.56
		c-1.44,0.55-2.92,1.11-4.45,1.66c-5.37-2.9-8.95-8.13-9.65-14.15c-0.63-5.42,1.25-10.48,5.02-13.55c8.01-6.51,19.26,0.61,23.5,3.29
		l0.4,0.25c0.88,0.55,2.02,0.34,2.65-0.47c10.25-13.31,22.26-14.54,29.62-9.85c0.26,0.17,0.55,0.27,0.86,0.3
		c15.51,1.68,26.85,13.75,31.94,34C259.74,341.63,248.61,363.15,239.39,370.99z M300.64,327.15c-0.82,2.44-1.89,3.68-2.62,4.03
		c-9.26,4.44-31.29,11.79-39.93,14.62c0.37-1.48,0.68-2.99,0.93-4.52c2.24-0.74,4.99-1.66,8.02-2.69c1.67-0.57,2.79-2.16,2.71-3.92
		c-0.14-3.4-0.62-6.86-1.49-10.33c-4.02-15.97-12.09-27.49-22.88-33.19c-0.95-0.5-2.04-0.53-3.01-0.16
		c-1.1-0.97-2.24-1.86-3.42-2.67c13.31-12.59,21.31-19.22,23.51-21c0.23-0.18,1.46-0.59,4.04-0.04c2.69,0.57,16.7,4.56,28.19,27.03
		C304.21,312.91,301.65,324.15,300.64,327.15z M363.44,298.25c-0.12,1.21-0.79,2.3-1.81,2.97c-9.92,6.51-32.2,17.41-56.46,24.44
		c2.68-12.9-4.5-28.45-6.91-33.16c-8.1-15.85-18.48-24.46-26.75-27.82c9.26-10.47,17.97-21.68,23.87-30.72
		c0.6-0.89,1.81-1.13,2.71-0.54l0.03,0.02c0.92,0.6,1.17,1.83,0.57,2.74c-4.11,6.28-9.53,13.57-15.54,20.94
		c-1.95,2.39-0.6,5.95,2.43,6.49c1.51,0.27,3.05,0.4,4.6,0.4c11.21,0,23.11-6.81,30.74-18.25c10.3-2.97,20.36-6.92,29.92-11.8
		c1.67-0.85,2.5-2.79,2.01-4.6c-2.52-9.39-5.3-17.19-7.66-22.65c1.21-0.56,2.42-1.14,3.61-1.73
		C356.03,221.63,367.14,259.59,363.44,298.25z M309.43,214.57c0.7-1.49,1.31-3.01,1.82-4.53c19.64-4.61,38.53-13.06,55-24.66
		c4.95-3.49,9.62-7.22,13.98-11.16c1.77-1.6-0.19-4.37-2.29-3.25c-9.22,4.91-19.68,7.66-31.12,7.18c-9.99-0.42-18.3-1.85-25.76-3.74
		c-2.29-0.58-3.56-2.98-2.79-5.21c5.1-14.76,7.42-32.01,6.92-51.59c0.16-6.17,0.02-12.58-0.43-19.25
		c-0.83-12.21-7.01-20.84-17.41-24.3c-4.31-1.44-9.65-2.55-16-3.37c3.42-19.23,15.27-32.44,22.91-33.65
		c0.05-0.01,0.1-0.03,0.16-0.04c7.75-1.76,21.14-11.12,34.12-20.2c3.73-2.61,7.26-5.08,10.41-7.18c3-2.01,5.61-2.81,7.77-2.37
		c1.84,0.37,3.45,1.64,4.93,3.87c5.21,7.88,7.8,19,8.4,36.06c0.31,8.81-0.06,18.54-0.38,27.13c-0.39,10.33-0.73,19.24,0.12,24.49
		c0.07,0.41,0.25,0.78,0.54,1.08c7.43,7.63,16.29,14.71,25.62,20.48c6.88,4.25,9.31,12.87,5.66,20.05
		c-9.3,18.29-24.17,34.98-43.01,48.26C350.9,201.08,330.54,210,309.43,214.57z M69.99,318.45c0.85-3.79,2.74-8.34,4.25-12.01
		c0.58-1.41,1.13-2.73,1.53-3.81c0.64-1.72,2.74-7.95,2.64-15.97c-0.01-1.1,0.87-2.01,1.98-2.02c1.09-0.03,2.01,0.87,2.02,1.98
		c0.07,5.88-1.01,12.39-2.9,17.42c-0.43,1.14-0.99,2.49-1.58,3.93c-1.45,3.52-3.26,7.91-4.04,11.36c-0.21,0.93-1.03,1.56-1.95,1.56
		c-0.15,0-0.29-0.02-0.44-0.05C70.42,320.59,69.75,319.52,69.99,318.45z M57.98,298.73c-2.48,9.71-3.7,18.28-4.04,22.75
		c-0.08,1.06-0.97,1.86-2.03,1.84c-1.15-0.02-2.05-1.01-1.96-2.16c0.4-5.25,1.84-14.32,4.12-23.3c0.26-1.01,1.23-1.75,2.26-1.59
		C57.52,296.43,58.27,297.59,57.98,298.73z M275.54,231.49c9.46,0,19.91-6.75,25.94-17.73c4.52-8.22,5.78-17.2,3.46-24.65
		c-1.59-5.11-4.73-8.96-9.08-11.13c-10.88-5.44-26.1,1.7-33.91,15.9c-4.52,8.22-5.78,17.2-3.46,24.65
		c1.59,5.11,4.73,8.96,9.08,11.13C270.05,230.9,272.75,231.49,275.54,231.49z M279.79,180.91c1.03-0.44,2.06-0.8,3.1-1.08
		l-1.17,14.15c-0.06,0.79-0.72,1.39-1.49,1.39c-0.04,0-0.08,0-0.11,0c-0.83-0.06-1.45-0.78-1.38-1.61L279.79,180.91z M268.26,189.89
		l7.24,6.74c0.61,0.56,0.64,1.51,0.08,2.12c-0.3,0.32-0.7,0.48-1.1,0.48c-0.37,0-0.73-0.13-1.02-0.4l-7-6.51
		C267.03,191.48,267.63,190.67,268.26,189.89z M260.68,206.83l10.74-3.28c0.86-0.26,1.8,0.3,1.93,1.24c0.1,0.74-0.41,1.44-1.13,1.65
		l-11.81,3.6C260.43,208.99,260.52,207.91,260.68,206.83z M261.36,217.64c-0.02-0.06-0.03-0.12-0.05-0.18
		c0.6,1.26,1.34,2.42,2.22,3.45c0.87,1.02,2.5,0.86,3.2-0.28l6.73-10.92c0.44-0.71,1.36-0.92,2.06-0.48s0.92,1.36,0.48,2.06
		l-6.77,10.98c-0.7,1.13-0.12,2.64,1.16,2.98c3.05,0.81,6.37,0.61,9.66-0.47c0.93-0.31,1.5-1.25,1.34-2.22l-1.86-11.5
		c-0.13-0.81,0.36-1.65,1.16-1.81c0.84-0.17,1.65,0.39,1.78,1.23l1.49,9.26c0.24,1.48,1.97,2.19,3.17,1.29
		c2.13-1.59,4.14-3.54,5.91-5.82c0.74-0.95,0.47-2.34-0.56-2.95l-7.57-4.49c-0.71-0.43-0.93-1.36-0.5-2.06
		c0.43-0.71,1.36-0.93,2.06-0.5l7.63,4.53c1.04,0.62,2.32,0.23,2.84-0.87c1.04-2.2,1.79-4.42,2.27-6.62
		c0.32-1.47-1.03-2.75-2.48-2.37l-8.87,2.37c-0.12,0.03-0.25,0.05-0.37,0.05c-0.67,0-1.28-0.45-1.45-1.13
		c-0.2-0.8,0.28-1.62,1.08-1.82l11.16-2.98c0.95-0.25,1.57-1.16,1.48-2.13c-0.22-2.36-0.79-4.56-1.71-6.51
		c-0.62-1.32-2.39-1.58-3.34-0.46l-7.72,9.03c-0.3,0.35-0.72,0.53-1.14,0.53c-0.34,0-0.69-0.12-0.97-0.36
		c-0.63-0.54-0.71-1.48-0.17-2.11l8.41-9.84c0.79-0.93,0.59-2.35-0.44-2.99c-0.35-0.22-0.71-0.42-1.09-0.61
		c-2.19-1.09-4.59-1.55-7.07-1.46c1.1-0.2,2.19-0.31,3.27-0.31c2.35,0,4.63,0.49,6.71,1.53c3.6,1.8,6.21,5.03,7.55,9.34
		c2.05,6.57,0.84,14.91-3.22,22.31c-7.05,12.81-20.48,19.39-29.94,14.66C265.32,225.19,262.71,221.96,261.36,217.64z M369.57,85.02
		c0.79,0.77,0.81,2.04,0.03,2.83c-0.39,0.4-0.91,0.6-1.43,0.6c-0.5,0-1.01-0.19-1.4-0.57c-3.75-3.66-7.45-8.17-11.36-12.94
		c-7.86-9.57-16.76-20.42-29.47-28.8c-0.92-0.61-1.18-1.85-0.57-2.77c0.61-0.92,1.85-1.18,2.77-0.57
		c13.21,8.71,22.32,19.81,30.36,29.6C362.35,77.09,365.98,81.51,369.57,85.02z M118.54,190.2c1.22-1.98,4.26-0.64,3.63,1.59
		c-1.26,4.43-2.64,8.54-3.76,11.31c-9.4,23.12-24.33,34.35-37.39,35.41c-0.41,0.03-0.83-0.07-1.18-0.28
		c-1.74-1.08-3.9-2.77-5.59-4.79c-0.62-0.74-0.58-1.82,0.05-2.55c1.93-2.27,3.75-4.55,5.48-6.86c0.96-1.28,2.26-2.25,3.77-2.77
		C99.95,215.61,111.47,201.68,118.54,190.2z"/>
</g>
</svg>
