<?xml version="1.0" encoding="utf-8"?>
<!-- Generator: Adobe Illustrator 24.2.3, SVG Export Plug-In . SVG Version: 6.00 Build 0)  -->
<svg version="1.1" id="layer" xmlns="http://www.w3.org/2000/svg" xmlns:xlink="http://www.w3.org/1999/xlink" x="0px" y="0px"
	 viewBox="0 0 420 420" style="enable-background:new 0 0 420 420;" xml:space="preserve">
<style type="text/css">
	.st0{fill:#EBEFF0;}
	.st1{fill:#0D1824;}
</style>
<g>
	<path class="st0" d="M378.4,205.53l0.47-1.45l1.45,0.49c1.84,0.63,3.65,1.14,5.53,1.57l0.33,0.08l0.27,0.21
		c5.37,4.23,11.07,6.6,14.32,7.33c1.8,0.41,6.15,0.68,10.83,0.68c3.02,0,5.9-0.12,8.4-0.33V60.59c-2.56-0.75-5.42-1.23-6.84-1.16
		c-2.23,0.11-6.94,1.25-9.98,3.35l-0.42,0.29l-0.51-0.03c-1.58-0.08-6.96-0.33-10.13-0.03c-0.16,0.01-0.34,0.04-0.53,0.07
		l-1.65,0.27l-0.09-1.67c-0.69-13.2-4.57-25.87-10.93-35.69c-7.03-10.85-20.54-23.8-45.14-23.48c-18.2,0.24-33.67,7.04-44.74,19.66
		c-6.64,7.57-11.54,16.86-14.56,27.6l-0.91,3.24l-1.8-2.84c-7.52-11.88-19.08-17.42-33.42-16.01l-0.41,0.04l-0.37-0.18
		c-5.93-2.79-22.79-3.76-34.86,6.63l-1.3,1.12l-0.93-1.44c-6.48-10-18.57-14.64-26.96-15.57l-0.4-0.04l-0.33-0.24
		c-11.85-8.83-34.32-8.95-46.5-3.16c-7.01,3.33-11.7,8.17-13.54,14c-1.91,6.03-0.77,13.04,3.31,20.27c4,7.1,7.77,13.54,10.8,18.72
		c2.17,3.71,4.04,6.91,5.51,9.51l0.73,1.29l-1.28,0.74c-0.27,0.16-0.54,0.31-0.85,0.45c-3.52,1.62-10.4,2.36-23.17-3.3
		c-0.23-0.1-0.52-0.01-0.64,0.21c-0.13,0.23-0.06,0.51,0.16,0.66c18.89,12.8,20.33,13.98,20.82,22.67
		c0.23,4.22-6.86,12.39-22.98,20.36c-0.24,0.12-0.35,0.41-0.23,0.65c0.11,0.25,0.39,0.36,0.64,0.26
		c22.69-9.33,37.27-11.85,44.57-7.71c1.81,1.03,2.91,2.61,3.27,4.71c1.02,5.94-4.04,14.27-5.43,15.87
		c-0.17,0.19-0.16,0.48,0.01,0.67s0.46,0.22,0.66,0.07c0.67-0.49,1.33-0.97,1.97-1.45c5.59-4.13,10.01-7.4,14.07-5.09
		c2.62,1.49,6.2,6.95,11.35,15.1c0.84,1.34,1.71,2.7,2.58,4.06l0.44,0.69l-0.35,0.75c-6.88,14.81-11.54,38.6,5.28,67.84l0.54,0.95
		l-0.73,0.81c-15.74,17.37-29.22,31.32-47.32,39.6c-0.49,0.22-0.71,0.79-0.51,1.28c4.2,10.35,9.53,20.23,15.85,29.38l3.49,5.05
		l-5.43-2.88c-11.29-5.98-27.41-16.21-36.14-24.54l-0.73-0.7l0.37-0.94c0.53-1.35,0.9-2.65,1.08-3.86l0.12-0.82l0.76-0.33
		c0.39-0.17,0.78-0.35,1.17-0.54c4.33-2.17,10.14-6.83,13.25-16.67l0.17-0.52l0.47-0.29c7.63-4.8,15.01-16.55,14.28-31.97
		c-0.47-9.96-4.58-17.42-11.28-20.47c-5.43-2.47-11.07-2.28-16.31,0.54c-0.12,0.06-0.23,0.13-0.35,0.2l-1.73,1.01l-0.67-1.57
		c-0.08-0.18-0.16-0.36-0.24-0.54l-0.39-0.85l0.31-0.64c1.38-2.81,2.18-6.17,2.38-9.99l0.04-0.83l0.73-0.4
		c7.14-3.92,12.68-10.19,15.6-17.66c2.59-6.64,2.84-13.8,0.65-19.15l-0.25-0.62l0.29-0.6c0.82-1.71,1.3-3.5,1.39-5.2
		c0.17-3.32-1.13-6.25-3.67-8.26c-0.2-0.16-0.48-0.14-0.66,0.04l-6.17,6.13l-0.83-0.22c-8.97-2.4-16.68,5.32-20.82,9.46
		c-2.09,2.09-4.39,4.24-6.62,6.33c-4.58,4.28-8.53,7.98-9.94,10.36c-1.31,2.2-1.66,3.61-2.43,6.71c-0.44,1.75-1.04,4.15-2.04,7.64
		l-0.24,0.83l-0.83,0.21c-5.84,1.48-10.69,5.01-14.03,10.19l-0.44,0.68l-0.81,0.01c-4.08,0.03-7.89,0.86-11.03,2.4
		c-13.05,6.41-17.92,25.04-13.39,36.8l0.11,0.29L41,229.47c-1.02,22.29,6.33,34.41,12.67,40.66c2.73,2.69,5.85,4.88,9.29,6.51
		l0.54,0.26l0.22,0.56c1.46,3.78,4.57,6.81,8.99,8.77c0.88,0.39,1.83,0.74,2.83,1.05l0.81,0.25l0.21,0.82
		c13.3,53.04,42.63,92.6,65.65,111.92c0.09,0.08,0.2,0.12,0.32,0.12c32.95-0.63,58.56-10.69,70.89-16.62l3.8-1.83l-1.79,3.82
		c-5.96,12.72-10.79,23.71-14.71,33.5h203.26l12.37-0.06v0.06h2.04c0.39-8.04-0.17-15.54-1.68-22.32
		c-4.18-18.83-19.33-31.15-35.07-41.66l-0.97-0.65l0.39-1.1c2.6-7.3,3.1-14.22,1.55-21.14c-0.46-2.06-1.17-4.14-2.1-6.18l-0.07-0.18
		c-0.36-0.82-0.75-1.77-1.18-2.9l-0.36-0.96l0.76-0.69c17.08-15.5,30.13-34.19,38.79-55.54c0.2-0.5-0.02-1.06-0.51-1.28
		c-15.57-7.13-27.97-18.58-41.81-33.57c-1.83-1.99-3.67-4-5.51-6.04l-0.73-0.81l0.54-0.95C373.82,217.4,376.5,211.42,378.4,205.53z
		 M342.3,152.58c-0.33,3.78-0.5,6.73-0.5,9.02v0.62l-19.41,19.41l-0.99-0.54c-1.33-0.73-2.8-1.47-4.61-2.33l-1.17-0.56v-0.01
		c-9.91-4.54-20.19-7.13-31.4-7.89l-1.82-0.12l6.77-25.26c0.08-0.31,0.01-0.65-0.19-0.89c-0.21-0.25-0.53-0.38-0.83-0.36
		c-3.85,0.25-11.79,3.19-14.3,12.54c-0.44,1.63-0.66,3.25-0.66,4.82v3.62l-13-12.99c-0.23-0.23-0.55-0.33-0.87-0.28
		s-0.59,0.26-0.74,0.54c-1.52,3.07-2.97,10.62,2.4,17.2l1.61,1.98l-2.51,0.45c-9.54,1.7-18.4,4.83-27.09,9.57l-0.99,0.54
		l-10.88-10.88l1.98-0.89c9.17-4.12,18.07-10.65,25.75-18.89c11.04-11.85,19.22-26.85,21.89-40.12l0.09-0.44l0.31-0.32
		c1.21-1.23,2.22-2.71,3.01-4.4l1.58-3.38l1.2,3.54c6.54,19.35,17.51,36.07,27.29,41.6l2.8,1.58l-9.05,3.38
		c-0.5,0.18-0.78,0.54-0.8,1c-0.07,1.43,2.55,3.67,6.36,5.45c1.16,0.54,4.12,1.81,6.46,1.81c0.81,0,1.44-0.15,1.88-0.45
		c0.48-0.32,0.71-0.79,0.68-1.36c-0.06-1.21-0.28-5.19-0.41-7.67l-0.08-1.58h1.58c6.73-0.01,14.97-2.07,23.2-5.81l1.51-0.69
		l0.53,1.57c0.92,2.74,2.02,5.14,3.17,6.94l0.28,0.43L342.3,152.58z"/>
	<path class="st1" d="M168.56,124.24c-0.33-0.76,0.01-1.64,0.76-1.98c0.09-0.05,2.44-1.09,5.14-0.92c0.83,0.05,1.46,0.76,1.41,1.59
		c-0.05,0.83-0.76,1.46-1.59,1.41c-1.95-0.12-3.72,0.65-3.74,0.66c-0.19,0.09-0.4,0.13-0.6,0.13
		C169.36,125.13,168.81,124.8,168.56,124.24z M238.31,48.82c-0.11,0.82,0.47,1.58,1.29,1.69c0.07,0.01,0.13,0.01,0.2,0.01
		c0.74,0,1.38-0.55,1.48-1.3c0.38-2.83,0.15-5.21-0.72-7.25c-0.32-0.76-1.2-1.12-1.97-0.8c-0.76,0.32-1.12,1.2-0.8,1.97
		C238.45,44.68,238.61,46.54,238.31,48.82z M208.31,65.46c-0.4,0.73-0.13,1.64,0.6,2.03l2.02,1.1c0.23,0.12,0.47,0.18,0.72,0.18
		c0.53,0,1.05-0.28,1.32-0.78c0.4-0.73,0.13-1.64-0.6-2.03l-2.02-1.1C209.62,64.46,208.7,64.73,208.31,65.46z M256.47,110.85
		c1.43,0.76,3.02,1.14,4.74,1.14c0.2,0,0.4,0,0.61-0.02c0.83-0.04,1.46-0.75,1.42-1.58c-0.04-0.83-0.73-1.46-1.58-1.42
		c-1.42,0.07-2.66-0.18-3.78-0.78c-0.73-0.39-1.64-0.11-2.03,0.62C255.46,109.55,255.74,110.46,256.47,110.85z M259.08,99.49
		c0.04,0,0.09,0,0.13-0.01c2.76-0.24,5.45-1.16,8.01-2.73c0.71-0.43,0.93-1.36,0.49-2.06c-0.43-0.71-1.36-0.93-2.06-0.49
		c-2.15,1.32-4.41,2.09-6.7,2.29c-0.83,0.07-1.44,0.8-1.36,1.62C257.66,98.9,258.31,99.49,259.08,99.49z M177.6,38.76
		c0.21,0.62,0.8,1.02,1.42,1.02c0.16,0,0.32-0.03,0.48-0.08c0.78-0.27,1.2-1.12,0.94-1.9c-0.65-1.91-1.75-3.71-3.27-5.35
		c-0.56-0.61-1.51-0.64-2.12-0.08c-0.61,0.56-0.64,1.51-0.08,2.12C176.2,35.82,177.09,37.26,177.6,38.76z M178.59,139.43
		c-0.37,0.74-0.07,1.64,0.67,2.01c0.08,0.04,1.92,0.95,4.18,1.15c0.05,0,0.09,0.01,0.14,0.01c0.77,0,1.42-0.59,1.49-1.36
		c0.08-0.83-0.53-1.55-1.36-1.63c-1.67-0.15-3.08-0.83-3.11-0.85C179.86,138.39,178.96,138.69,178.59,139.43z M202.49,54.82
		c2.45,0.54,4.56,1.73,6.44,3.65c0.29,0.3,0.68,0.45,1.07,0.45c0.38,0,0.76-0.14,1.05-0.43c0.59-0.58,0.6-1.53,0.02-2.12
		c-2.28-2.31-4.95-3.82-7.94-4.47c-0.81-0.18-1.61,0.33-1.79,1.14C201.17,53.84,201.68,54.64,202.49,54.82z M182.43,124.61
		c5.12,4.19,9.47,8.9,7.62,13.97c-0.58,1.57,0.04,3.32,1.34,4.38c8.16,6.68,10.1,14.62,7.74,19.74c-1.16,2.52,0.37,5.52,3.14,5.73
		c0.23,0.02,0.46,0.03,0.67,0.03c0.61,0,1.25-0.04,1.96-0.12c13.35-1.5,27.12-9.06,38.77-21.29c8.04-8.45,14.45-18.61,18.13-28.49
		c0.46-1.23-0.38-2.55-1.68-2.68c-1.97-0.2-4.17-0.78-5.52-1.5c-0.63-0.33-1.16-0.77-1.6-1.28c-0.66-0.77-1.74-0.83-2.62-0.33
		c-12.7,7.21-27.92,15.01-66.3,7.06C182.05,119.4,179.57,122.27,182.43,124.61z M290.05,239.45c4.84-0.57,10.21-2.09,11.91-3.55
		c0.84-0.72,2.1-0.62,2.82,0.22c0.72,0.84,0.62,2.1-0.22,2.82c-3.28,2.81-12.04,4.58-17.4,4.73c-0.03,0-0.06,0-0.09,0
		c-0.22,0.01-0.44,0.01-0.64,0.01h-23.31c0,0,0,0-0.01,0h-0.01h-8.64c-1.1,0-2-0.9-2-2c0-1.1,0.9-2,2-2h4.93
		c-2.64-4.35-4.75-9.5-6.17-15.12c-4.72-18.65-0.46-36.04,9.69-39.6c3.23-1.13,6.78-0.74,10.25,1.13
		c7.22,3.88,13.62,13.85,16.7,26.03C292.32,221.91,292.36,231.85,290.05,239.45z M285.97,213.11c-1.11-4.39-2.67-8.44-4.52-11.96
		c1.21,7.85-1.36,14.83-6.71,16.77c-6.52,2.37-14.69-3.63-18.25-13.41c-0.23-0.62-0.42-1.25-0.6-1.87
		c-0.99,6.09-0.68,13.5,1.21,20.95c1.56,6.18,4,11.71,7.06,16.1h21.6C288.34,232.66,288.43,222.85,285.97,213.11z M367.54,114.28
		c0.34,0,0.68-0.12,0.96-0.35c0.63-0.53,0.71-1.48,0.18-2.11c-2.68-3.19-4.48-6.98-5.33-11.26c-0.15-0.81-0.95-1.34-1.76-1.18
		c-0.81,0.16-1.34,0.95-1.18,1.76c0.95,4.78,2.96,9.03,5.98,12.61C366.69,114.1,367.11,114.28,367.54,114.28z M350.17,139.65
		c0.58,0,1.13-0.34,1.38-0.91c0.33-0.76-0.02-1.64-0.79-1.97c-2.2-0.95-3.88-2.34-5.12-4.23c-0.45-0.69-1.38-0.89-2.08-0.44
		c-0.69,0.45-0.89,1.38-0.44,2.08c1.55,2.37,3.72,4.17,6.46,5.35C349.77,139.61,349.97,139.65,350.17,139.65z M398.93,93.25
		c0.77,0,1.43-0.6,1.49-1.38c0.61-7.63,2.34-14.47,5.15-20.31c0.36-0.75,0.04-1.64-0.7-2s-1.64-0.04-2,0.71
		c-2.97,6.18-4.8,13.37-5.44,21.37c-0.07,0.83,0.55,1.55,1.38,1.61C398.85,93.25,398.89,93.25,398.93,93.25z M392.65,88.45
		c0.79,0,1.45-0.62,1.5-1.41c0.13-2.21,0.66-4.26,1.61-6.28c0.35-0.75,0.03-1.64-0.72-2c-0.75-0.35-1.64-0.03-2,0.72
		c-1.1,2.34-1.74,4.82-1.89,7.38c-0.05,0.83,0.58,1.54,1.41,1.59C392.59,88.45,392.62,88.45,392.65,88.45z M369.38,172.73
		c-0.07-0.08-0.15-0.15-0.23-0.21c-0.03-0.02-0.06-0.03-0.09-0.05c-0.06-0.04-0.12-0.07-0.18-0.1c-0.04-0.02-0.07-0.03-0.11-0.04
		c-0.06-0.02-0.11-0.04-0.17-0.06c-0.04-0.01-0.08-0.01-0.12-0.02c-0.06-0.01-0.11-0.02-0.17-0.02c-0.02,0-0.03,0-0.05,0
		c-0.01,0-0.03,0.01-0.04,0.01c-0.16,0-0.31,0.03-0.46,0.08c-0.02,0.01-0.03,0.01-0.05,0.02c-0.16,0.06-0.31,0.15-0.44,0.26
		c-1.48,1.3-3.33,2.23-5.51,2.76c-0.8,0.2-1.3,1.01-1.1,1.81c0.16,0.69,0.77,1.15,1.45,1.15c0.12,0,0.24-0.01,0.36-0.04
		c2.65-0.65,4.92-1.8,6.77-3.43C369.86,174.3,369.92,173.36,369.38,172.73z M373.18,341.94c-3.8,5.47-10.58,10.31-23.09,7.16
		c-2.04-0.51-4.15,0.68-4.76,2.7c-3.15,10.49-12.93,15.02-20.36,13.09c-1.82-0.47-3.75,0.47-4.58,2.16
		c-3.5,7.13-11.21,7.07-17.14,5.04c-1.56-0.53-3.11,0.9-2.59,2.47c2.19,6.65,6.57,11.9,12.68,15.1c4.31,2.25,9.2,3.39,14.54,3.39
		c6.51,0,13.31-1.75,19.68-5.05c9.22-4.78,16.1-14.81,20.24-22.38c0.43-0.79,0.9-1.61,1.39-2.48c3.15-5.57,6.85-12.13,7.62-19.89
		C377.02,341.19,374.35,340.25,373.18,341.94z M177.54,242.77c-9.24,9.5-19.14,18.36-30.64,24.95c-0.91,0.52-1.28,1.64-0.84,2.59
		c3.28,6.99,7.12,13.67,11.44,20.01c2.73,0.75,5.35,1.05,7.7,1.08c10.44,0.12,20.65-4.64,26.81-10.31
		c-8.96-9.52-14.47-22.33-14.47-36.4V242.77z M123.65,220.85c-4.92-0.19-12.34,2.95-14,12.25c-0.18,1,0.01,2.05,0.57,2.9
		c0.15,0.23,0.31,0.46,0.48,0.66c0.99,1.22,2.18,1.84,3.73,1.93c0.11,0.01,0.21,0.01,0.32,0.01c2.23,0,4.57-1.38,6.59-3.87
		c2.59-3.2,4.09-7.64,4.19-11.86C125.56,221.8,124.72,220.89,123.65,220.85z M420,57.93v5.21c-2.34-0.76-5.3-1.34-6.7-1.27
		c-1.93,0.1-6.62,1.26-9.11,3.22c-0.38,0.31-0.86,0.46-1.36,0.43c-0.07,0-6.89-0.41-10.46-0.08c-2.43,0.23-18.24,5.16-29.84,21.5
		c-0.37,0.52-0.96,0.83-1.6,0.84c-3.51,0.06-7.32,0.77-8,1.49c-0.68,0.72-4.09,4.83-4.88,15.27c-0.03,0.42-0.2,0.82-0.47,1.15
		c-8.14,9.54-8.43,17.88-8.65,23.96l-0.02,0.45c-0.2,5.65,2.05,15.51,5.6,20.62c0.27,0.39,0.39,0.85,0.35,1.32
		c-0.65,7.08-0.72,11.63-0.23,13.51c0.45,1.72,6.88,11.56,12.86,15.5c0.32,0.21,0.58,0.52,0.73,0.87c0.02,0.05,2.29,5.21,4.87,8.01
		l0.58,0.63c2.96,3.27,9.12,10.07,23.14,13.17c0.3,0.07,0.58,0.2,0.82,0.4c5.49,4.42,11.17,6.56,13.66,7.13
		c2.45,0.56,11.6,0.91,18.71,0.28v24.07c-5.08,3.98-10.04,7.61-14.87,11.14c-2.42,1.77-4.82,3.54-7.22,5.32
		c-0.68,0.51-1.36,1.01-2.04,1.52c-0.12,0.09-0.24,0.18-0.36,0.27c-0.33,0.25-0.67,0.5-1,0.75l0.01,0.01
		c-0.9,0.69-1.8,1.37-2.71,2.07c-2.07,1.61-4.13,3.26-6.2,4.98c-0.17,0.14-0.34,0.28-0.5,0.42c-0.34,1.68-0.74,3.34-1.19,4.98
		c1.4-1.22,2.79-2.4,4.18-3.55c0.21-0.17,0.41-0.34,0.62-0.51c1.21-0.99,2.41-1.97,3.62-2.92c0.07-0.05,0.14-0.11,0.2-0.16
		c0.24-0.19,0.48-0.38,0.73-0.56c1.4-1.1,2.81-2.18,4.22-3.24c3.12-2.35,6.25-4.64,9.41-6.95c4.27-3.11,8.64-6.31,13.1-9.76v29.2
		c-0.37,0.03-0.73,0.06-1.12,0.09c-5.19,12.25-11.9,23.68-19.96,34.08l6.11,4.72c4.26,2.96,8.74,5.6,13.51,7.78
		c0.91,0.42,1.45,1.3,1.46,2.24v0.05c0,0.31-0.06,0.62-0.18,0.92c-6.45,15.9-15.45,30.46-26.58,43.22
		c11.76,9.16,21.65,20.08,24.93,34.88c1.32,5.92,1.82,11.88,1.83,17.53v0.81c-0.01,1.73-0.07,3.41-0.16,5.06h-5.04
		c0.41-6.98,0.18-14.74-1.5-22.32c-3.8-17.12-17.81-28.88-32.75-38.94c-0.44,0.95-0.89,1.87-1.34,2.76
		c9.27,5.41,17.29,14.34,20.79,23.1c1.59,1.33,3.08,2.73,4.44,4.22c0.75,0.82,0.69,2.08-0.13,2.83c-0.38,0.35-0.87,0.52-1.35,0.52
		c-0.54,0-1.08-0.22-1.48-0.65c-5.96-6.53-14.8-11.36-24.17-16.48c-0.27-0.15-0.54-0.3-0.81-0.45c0.16,1.48,0.17,3,0.06,4.56
		c14.25,10.27,13.18,30.86,9.97,40.09h13.29c0.27,0.25,0.54,0.51,0.81,0.76H110.08c-14.45-20.61-27.9-47.23-35.82-78.52
		c-0.89-0.29-1.75-0.62-2.57-0.98c-4.9-2.17-8.41-5.55-10.16-9.79c-3.55-1.73-6.79-4.02-9.62-6.82
		c-6.68-6.58-14.42-19.27-13.42-42.35c-2.37-6.33-2.33-14.51,0.12-21.93c0.7-2.12,1.58-4.09,2.59-5.94
		c-1.98-6.39-3.14-14.31-2.71-24.13c-2.37-6.33-2.33-14.51,0.12-21.93c2.71-8.2,7.88-14.53,14.58-17.82
		c3.33-1.63,7.32-2.55,11.57-2.65c3.57-5.31,8.62-8.99,14.67-10.66c0.9-3.15,1.45-5.36,1.86-7c0.78-3.14,1.21-4.86,2.71-7.38
		c1.6-2.69,5.67-6.5,10.38-10.91c2.22-2.08,4.51-4.22,6.57-6.28c4.42-4.42,12.57-12.58,22.67-10.25l1.46-1.45
		c-0.55-0.63-1.1-1.36-1.62-2.24c-1.07-1.83-2.23-3.81-3.46-5.93c-4.13,1.37-8.61,3.04-13.5,5.05c-1.5,0.62-3.2-0.05-3.87-1.54
		c-0.67-1.48-0.05-3.21,1.4-3.93c4.85-2.39,8.71-4.72,11.75-6.88c-1.03-1.79-2.07-3.63-3.14-5.53c-4-7.1-4.36-16.88-2.82-23.65
		c-1.21-0.83-2.51-1.71-3.91-2.66c-1.29-0.88-1.7-2.57-0.94-3.94s2.4-1.92,3.84-1.29c1.24,0.55,2.41,1.03,3.53,1.46
		c2.28-3.89,5.81-7.22,10.46-9.85c-2.65-4.54-5.71-9.8-8.92-15.51c-4.43-7.85-5.64-15.55-3.51-22.25c2.06-6.5,7.2-11.87,14.85-15.5
		c12.78-6.07,35.9-6.21,48.85,3.25c8.65,1.03,20.88,5.74,27.88,15.73c12.7-10.22,29.94-9.26,36.44-6.4
		c14.39-1.33,26.36,4.13,34.3,15.42c2.9-9.4,7.54-18.63,14.48-26.55C298.49,7.56,314.2,0.51,332.65,0h4.59
		c23.5,0.87,36.77,13.73,43.8,24.58c6.63,10.23,10.43,22.89,11.27,35.85c3.09-0.24,7.6-0.07,9.76,0.04
		c3.47-2.27,8.47-3.47,10.99-3.6C414.56,56.79,417.33,57.21,420,57.93z M386.37,253.23c0.98,0.57,1.95,1.12,2.92,1.65
		c1.14-0.89,2.28-1.77,3.41-2.63c-2.08-1.77-4.12-3.6-6.1-5.46C386.63,248.94,386.55,251.09,386.37,253.23z M151.36,117.91
		c2.46,1.39,4.02,3.63,4.5,6.46c0.54,3.17-0.29,6.75-1.53,9.9c3.99-2.51,7.73-3.79,11.59-1.59c3.37,1.91,7.28,8.1,12.23,15.94
		c5.55,8.78,11.84,18.74,17.2,21.78c3.18,1.8,6.07,2.35,9.99,1.91c30.87-3.46,58.02-35.72,63.09-62.52
		c0.08-0.42,0.29-0.79,0.59-1.08c4.25-4,5.21-10.81,3.96-15.46c-0.11-0.41-0.08-0.84,0.07-1.24c0.08-0.2,7.5-19.97-1.6-37.44
		c-6.85-13.15-18.71-19.5-33.4-17.87c-0.42,0.05-0.85-0.04-1.22-0.25c-3.78-2.17-21.21-4.16-33.12,6.66
		c0.17,0.36,0.35,0.69,0.51,1.06c0.43,1.02-0.05,2.19-1.07,2.62c-1.02,0.43-2.19-0.05-2.62-1.07
		c-5.51-13.14-20.58-17.87-27.79-18.53c-0.38-0.04-0.75-0.18-1.05-0.42c-10.88-8.5-32.76-8.71-44.33-3.21
		c-6.37,3.03-10.6,7.35-12.23,12.5c-1.7,5.35-0.62,11.68,3.1,18.29c3.98,7.06,7.75,13.51,10.78,18.68c1.88,3.21,3.57,6.1,4.95,8.52
		c0.28-0.53,0.49-1.05,0.63-1.52c0.32-1.06,1.43-1.66,2.49-1.34s1.66,1.43,1.34,2.49c-0.48,1.61-1.45,3.61-3.31,5.31
		c-0.07,0.07-0.14,0.14-0.23,0.21c-0.8,0.69-1.74,1.33-2.88,1.86c-3.22,1.48-7.28,1.8-12.12,0.96c8.61,6.29,10.31,9.28,10.73,16.87
		c0.21,3.82-2.55,8-8.42,12.71C136.02,114.93,145.46,114.57,151.36,117.91z M355.14,280.12c0-0.83-0.02-1.65-0.04-2.48
		c0-0.14-0.01-0.28-0.02-0.42c0-0.04,0-0.09-0.01-0.13c-0.03-0.77-0.07-1.55-0.11-2.32c-0.01-0.17-0.02-0.34-0.03-0.51
		c0-0.04-0.01-0.08-0.01-0.12c-0.05-0.74-0.11-1.48-0.17-2.22c-0.02-0.23-0.04-0.45-0.07-0.68c-0.07-0.72-0.15-1.44-0.23-2.15
		c-0.02-0.13-0.03-0.26-0.05-0.39c-0.01-0.1-0.02-0.21-0.04-0.31c-0.09-0.71-0.19-1.42-0.29-2.13c0-0.01,0-0.03-0.01-0.04
		c-0.03-0.22-0.06-0.43-0.1-0.65c-0.11-0.71-0.23-1.42-0.35-2.13c-0.04-0.22-0.08-0.44-0.12-0.67c-0.13-0.72-0.27-1.45-0.41-2.17
		c-0.04-0.2-0.08-0.41-0.12-0.61c-0.15-0.75-0.32-1.49-0.48-2.24c-0.02-0.07-0.03-0.15-0.05-0.22c-0.02-0.1-0.04-0.2-0.07-0.3
		c-0.18-0.79-0.37-1.58-0.57-2.37c-0.03-0.12-0.06-0.25-0.09-0.37c-0.23-0.89-0.46-1.78-0.71-2.67c-0.01-0.02-0.01-0.04-0.02-0.06
		c-1.02-3.69-2.2-7.35-3.51-10.99c-0.03-0.08-0.06-0.15-0.08-0.23c-0.02-0.06-0.05-0.13-0.07-0.19c-0.27-0.75-0.55-1.5-0.83-2.25
		c-0.06-0.15-0.11-0.3-0.17-0.45c-0.02-0.07-0.05-0.13-0.07-0.2c-0.25-0.67-0.51-1.34-0.77-2.02c-0.01-0.03-0.02-0.06-0.04-0.09
		c-0.09-0.23-0.18-0.46-0.27-0.69c-0.25-0.63-0.5-1.26-0.75-1.88c-0.12-0.29-0.23-0.57-0.35-0.86c-0.25-0.6-0.5-1.2-0.75-1.81
		c-0.13-0.3-0.25-0.6-0.38-0.91c-0.25-0.58-0.5-1.17-0.75-1.75c-0.14-0.32-0.28-0.64-0.41-0.96c-0.25-0.57-0.5-1.14-0.75-1.71
		c-0.14-0.33-0.29-0.65-0.43-0.98c-0.25-0.56-0.5-1.13-0.76-1.69c-0.15-0.33-0.3-0.66-0.45-0.99c-0.25-0.56-0.51-1.12-0.76-1.67
		c-0.08-0.17-0.15-0.34-0.23-0.51c-0.08-0.17-0.15-0.33-0.23-0.5c-0.26-0.56-0.52-1.13-0.78-1.69c-0.01-0.03-0.03-0.06-0.04-0.09
		c-1.79-3.85-3.63-7.71-5.49-11.6c-3.09-6.47-6.21-13.03-9.19-19.73c-0.01-0.01-0.01-0.03-0.02-0.04c-0.68-1.54-1.35-3.09-2.01-4.65
		c-0.01,0-0.01-0.01-0.02-0.01c-2.72-6.35-5.26-12.85-7.48-19.55c-0.13,0.13-0.26,0.25-0.41,0.36c-0.67,0.45-1.51,0.65-2.4,0.69
		c2.38,7.2,5.14,14.14,8.07,20.92c0.07,0.17,0.14,0.34,0.21,0.5c0,0,0,0-0.01,0c0.69,1.59,1.39,3.16,2.1,4.73
		c0.05,0.1,0.09,0.2,0.13,0.3c2.71,6.02,5.52,11.93,8.31,17.77c1.31,2.74,2.61,5.46,3.89,8.17c0,0,0,0,0,0.01
		c0.08,0.17,0.16,0.34,0.24,0.51c0,0.01,0,0.01,0.01,0.02c0.77,1.63,1.52,3.25,2.27,4.87c0,0,0,0,0,0.01
		c0.07,0.14,0.13,0.29,0.2,0.43c0.38,0.84,0.77,1.68,1.15,2.51c0.08,0.17,0.15,0.34,0.23,0.51c0,0.01,0.01,0.01,0.01,0.02
		c0.29,0.64,0.57,1.28,0.86,1.92c0.05,0.11,0.09,0.21,0.14,0.32c0.82,1.86,1.63,3.73,2.41,5.59c0.04,0.09,0.08,0.19,0.12,0.28
		c0.26,0.63,0.53,1.26,0.78,1.9c0.06,0.15,0.12,0.31,0.18,0.46c0.67,1.65,1.31,3.3,1.94,4.95c0.04,0.12,0.09,0.23,0.13,0.35
		c0.29,0.79,0.58,1.57,0.87,2.36c0.05,0.13,0.1,0.27,0.14,0.4c0.27,0.77,0.54,1.54,0.81,2.31c0.1,0.29,0.19,0.57,0.29,0.86
		c0.21,0.62,0.41,1.24,0.61,1.85c0.09,0.29,0.18,0.58,0.27,0.87c0.22,0.7,0.43,1.4,0.64,2.1c0.06,0.22,0.13,0.43,0.19,0.65
		c0.18,0.61,0.36,1.22,0.53,1.84c0.08,0.3,0.16,0.6,0.24,0.9c0.2,0.73,0.39,1.46,0.57,2.19c0.05,0.19,0.09,0.37,0.14,0.56
		c0.15,0.61,0.3,1.23,0.44,1.84c0,0.01,0,0.01,0,0.02c0.42,1.84,0.8,3.68,1.13,5.54c0.03,0.16,0.06,0.33,0.08,0.49
		c0.13,0.77,0.26,1.53,0.38,2.3c0.01,0.07,0.02,0.13,0.03,0.2c0.41,2.74,0.71,5.5,0.89,8.3c0.02,0.33,0.04,0.66,0.06,0.99
		c0.08,1.58,0.13,3.17,0.13,4.76c0,0.09,0,0.17,0,0.26c0,0.88-0.01,1.76-0.04,2.65c-0.01,0.34-0.02,0.69-0.04,1.04
		c-0.03,0.63-0.06,1.26-0.1,1.89c-0.02,0.35-0.05,0.7-0.07,1.06c-0.05,0.63-0.1,1.26-0.16,1.9c-0.03,0.36-0.07,0.71-0.11,1.07
		c-0.07,0.63-0.14,1.27-0.23,1.91c-0.03,0.24-0.06,0.48-0.1,0.72c-0.02,0.12-0.03,0.24-0.05,0.37c-0.04,0.31-0.08,0.61-0.12,0.92
		c0.34-0.38,0.67-0.82,0.99-1.26c0.41-0.55,0.81-1.09,1.21-1.63c0.47-0.63,0.94-1.25,1.41-1.86c0.2-2.06,0.32-4.09,0.38-6.11v-0.01
		c0-0.05,0-0.1,0-0.15c0.03-0.92,0.04-1.83,0.04-2.74C355.14,280.39,355.14,280.26,355.14,280.12z M354.89,294.3
		c-0.09,0.12-0.17,0.23-0.26,0.35c-0.62,0.85-1.27,1.74-1.91,2.64c0.46,0.33,0.95,0.68,1.45,1.03c0.32,0.22,0.66,0.46,0.99,0.69
		c1.64-2.28,3.27-4.45,4.88-6.52c0.14-0.18,0.27-0.35,0.41-0.52c0.7-0.9,1.4-1.78,2.1-2.65c0.01-0.01,0.01-0.01,0.02-0.02
		c1.53-1.89,3.05-3.7,4.56-5.43c0.66-1.12,1.28-2.26,1.89-3.42c1.07-2.03,2.07-4.11,2.97-6.24l-0.01,0.01
		c-0.71,0.72-1.42,1.47-2.14,2.22c-0.22,0.24-0.45,0.48-0.68,0.72c-0.51,0.55-1.03,1.11-1.55,1.67c-0.24,0.26-0.47,0.52-0.71,0.78
		c-0.71,0.78-1.41,1.57-2.12,2.39c0,0,0,0-0.01,0.01c-0.03,0.03-0.06,0.06-0.08,0.1c-0.78,0.9-1.57,1.82-2.36,2.77
		c-0.05,0.06-0.09,0.11-0.14,0.17c-0.01,0.01-0.02,0.02-0.03,0.03c-1.58,1.89-3.17,3.86-4.77,5.93c0,0,0,0-0.01,0.01
		c-0.05,0.06-0.09,0.12-0.14,0.18C356.46,292.21,355.68,293.24,354.89,294.3z M336.33,141.23c-0.34-1.35-0.61-2.69-0.83-4.01
		c-0.25,0.12-0.5,0.24-0.75,0.36c-1.02,0.47-2.21-0.01-2.65-1.05c-0.03-0.08-0.06-0.14-0.09-0.2c-0.49-1.03-1.26-1.91-2.25-2.53
		c-0.71-0.44-1.5-0.71-2.31-0.83c-0.11-0.02-0.23-0.03-0.34-0.04c-0.08-0.01-0.16-0.01-0.24-0.02c-0.12-0.01-0.25-0.03-0.37-0.03
		c-1.35,0-2.62,0.45-3.65,1.24c-0.56,0.43-1.05,0.96-1.44,1.58c-2.05,3.29-7.71,7.46-10.34,7.01c-3.3-0.57-3.96-5.38-4.14-7.9
		c-0.22-3.12-2.86-5.58-6-5.57c-1.23,0-2.11,0.25-2.81,0.65c-0.89,0.5-2.01,0.2-2.58-0.64c-1.13-1.66-2.24-3.43-3.33-5.3
		c-1.24-2.14-2.41-4.35-3.51-6.62c-0.01-0.02-0.02-0.03-0.03-0.05c-0.06-0.13-0.12-0.27-0.19-0.4c-0.46-0.95-0.91-1.91-1.34-2.88
		c-0.13-0.29-0.26-0.58-0.39-0.87c-0.16-0.35-0.32-0.71-0.47-1.06c-0.03-0.09-0.06-0.18-0.09-0.27c-3.5-8.26-6.08-17-7.43-25.4
		c-0.65,3.12-1.38,5.39-1.75,6.43c0.41,1.82,0.57,3.89,0.42,6.04c2.62,9.41,6.5,18.79,11.32,27.08c3.61,6.22,7.5,11.36,11.24,15
		c-0.54-1.69-0.89-3.55-1.04-5.58c-0.08-1.1,0.75-2.06,1.85-2.14c1.12-0.07,2.06,0.75,2.14,1.85c0.43,6.08,2.89,10.14,6.92,11.42
		c4.38,1.4,12.18-4.26,14.95-8.7c0.58-0.94,1.82-1.22,2.75-0.64c0.93,0.62,1.21,1.85,0.63,2.79c-1.27,2.04-3.31,4.23-5.7,6.11
		C326.83,145.1,331.52,143.48,336.33,141.23z M309.65,150.86c-0.08-0.01-0.16-0.02-0.24-0.03l-8.84,3.31
		c0.8,0.68,2.13,1.58,4.04,2.48c2.63,1.23,4.52,1.57,5.43,1.58C309.95,156.38,309.76,152.9,309.65,150.86z M279.16,168.49l0.07,0.07
		l5.46-20.39c-2.67,1.17-6.03,3.65-7.45,8.95C276.1,161.35,276.75,165.18,279.16,168.49z M276.44,172.85l-15.68-15.68
		c-0.32,2.89,0.15,7.05,4.02,10.93c0.61,0.61,1.27,1.17,1.94,1.66c0.83,0.6,1.22,1.65,0.96,2.65s-1.1,1.73-2.12,1.86
		c-1.63,0.2-3.22,0.45-4.79,0.73c21.54,1.23,43.9,16.06,65.94,33.25c-0.09-0.19-0.18-0.37-0.27-0.56
		c-4.07-8.52-8.2-17.18-11.99-26.16c-0.17-0.08-0.34-0.17-0.51-0.24c-10.3-4.68-21.17-7.2-32.96-7.64
		c-0.82-0.03-1.65-0.05-2.49-0.06c-0.1,0-0.21-0.01-0.31-0.01C277.53,173.57,276.9,173.31,276.44,172.85z M297.04,302.3
		c2.93-3.28,6.82-5.25,10.75-5.52c0.17-1.95,0.73-3.89,1.65-5.71c-4.02-3.06-7.94-6.19-11.73-9.24c-2.94-2.36-5.82-4.67-8.65-6.87
		c-1.21-5.52-3.97-10.64-8.08-14.75c-0.58-0.58-1.21-1.15-1.93-1.74c-0.63-0.76-1.43-1.35-2.36-1.72s-1.9-0.51-2.9-0.4
		c-2.21,0.24-4.07,1.75-4.94,3.79l-0.04,0.09c-0.33,0.8-0.68,1.59-1.05,2.35l-0.02,0.03l-0.03,0.06
		c-5.9,12.13-17.37,20.62-30.68,22.68l-0.34,0.05h-0.01c-1.96,0.28-3.99,0.43-5.99,0.43c-8.94,0-17.45-2.83-24.6-8.19
		c-2.97-2.22-5.62-4.85-7.89-7.76c-1.01-1.3-0.07-3.18,1.57-3.21c0.41-0.01,0.7-0.02,0.79-0.03c11.64-0.54,20.95-10.19,20.95-21.96
		v-3c0-1.53-0.58-2.93-1.53-3.99c-0.77-0.86-0.63-2.2,0.29-2.9c0.53-0.4,1.03-0.82,1.55-1.23c0.13-0.1,0.26-0.2,0.38-0.3
		c2.74-2.24,5.31-4.69,7.68-7.34c0.24-0.27,0.46-0.54,0.7-0.81c0.48-0.56,0.96-1.12,1.43-1.7c0.37-0.46,0.74-0.93,1.1-1.4
		c0.29-0.38,0.58-0.76,0.86-1.15c0.44-0.6,0.86-1.2,1.28-1.81c0.17-0.26,0.35-0.51,0.52-0.77c0.47-0.71,0.93-1.42,1.37-2.14
		c0.03-0.05,0.07-0.1,0.1-0.15l0.05-0.09c0.1-0.16,0.19-0.34,0.29-0.5c0.57-0.96,1.11-1.93,1.62-2.92c0.05-0.09,0.1-0.19,0.15-0.28
		l0.13-0.24c0.1-0.18,0.19-0.37,0.28-0.55c0.02-0.04,0.03-0.07,0.05-0.11c0.22-0.45,0.44-0.9,0.65-1.36
		c0.01-0.03,0.03-0.06,0.04-0.09c0.23-0.49,0.45-0.98,0.66-1.48l0.09-0.21c0.15-0.35,0.31-0.71,0.45-1.06c0-0.01,0-0.01,0.01-0.02
		c0.36-0.89,0.71-1.81,1.03-2.72c0.04-0.1,0.07-0.19,0.1-0.28c0,0,0,0,0-0.01c0.13-0.37,0.24-0.72,0.35-1.06
		c0.47-1.45,1.1-3.93,1.23-5.52c0.58-7.28-1.82-12.42-5.95-15.23c-0.18,0.09-0.36,0.19-0.54,0.28c0,0,0,0,0-0.01
		c-0.26,0.13-0.51,0.27-0.78,0.41c-0.19,0.1-0.37,0.2-0.56,0.29c0-0.01-0.01-0.02-0.01-0.03c-0.82,0.42-1.63,0.86-2.44,1.31
		c0.09,0.03,0.17,0.05,0.26,0.09c4.15,1.63,6.31,6.16,6.08,12.76c-0.01,0.38-0.06,0.74-0.13,1.08c-0.3,1.36-0.87,3.11-1.29,4.34
		c-0.03,0.08-0.06,0.15-0.09,0.23c-0.3,0.87-0.62,1.73-0.97,2.58c-0.16,0.4-0.34,0.8-0.51,1.19c-0.2,0.47-0.41,0.93-0.62,1.39
		c-0.22,0.48-0.45,0.97-0.69,1.45c-0.27,0.53-0.57,1.05-0.79,1.61c-0.36,0.92-0.92,1.74-1.49,2.54c-0.04,0.05-0.06,0.1-0.1,0.15
		c-6.92,11.44-17.74,20.77-30.26,25.76h11.96c1.1,0,2,0.9,2,2v2.55c0,9.73-7.54,18.04-17.27,18.42c-4.87,0.19-9.33-1.58-12.67-4.57
		c5.72,18.37,22.89,31.75,43.12,31.75c2.35,0,4.66-0.18,6.93-0.53c0.01,0,0.01,0,0.02-0.01c14.6-2.25,27.26-11.7,33.69-24.92
		c0.01-0.02,0.02-0.04,0.03-0.06c0.41-0.85,0.79-1.71,1.15-2.59c0.02-0.06,0.05-0.12,0.08-0.18c0.3-0.74,1-1.26,1.79-1.26
		c0.81,0,1.41,0.4,1.75,0.95c0.76,0.61,1.42,1.19,2.01,1.78c5.54,5.54,8.26,13.2,7.47,21.01l-0.67,2.99
		c-1.05,4.71-3.25,9.13-6.63,12.57c-4.22,4.29-9.62,6.92-15.61,7.6c-1,0.11-1.99,0.17-2.98,0.17c-6.86,0-13.41-2.69-18.32-7.6
		c-1.84-1.84-3.37-3.97-4.59-6.32c-2.01,0.25-4.05,0.38-6.12,0.38c-27.1,0-49.15-22.05-49.15-49.15v-3c0-1.1,0.9-2,2-2h0.08
		c0.01,0,0.01,0,0.02,0c4.1-0.01,8.18-0.59,12.17-1.64c-1.86-1.18-3.67-2.6-5.45-4.31c-0.7-0.67-0.88-1.78-0.35-2.59
		c0.8-1.2,2.53-1.22,3.35-0.01c0.38-0.07,0.05-0.01,0.43-0.08c0.75-5.59,2.91-12.03,6.22-18.51c-3.89,4.09-7.68,8.28-11.45,12.44
		c-13.56,14.99-27.55,30.45-45.2,40.11c-1.85,1.01-2.6,3.27-1.73,5.18c11.22,24.7,28.9,45.78,51.44,61.25
		c24.81,17.03,53.9,26.03,84.11,26.03c3.03,0,6.05-0.12,9.05-0.3c-0.35-1.37-0.64-2.69-0.88-3.95c-2.7,0.15-5.41,0.25-8.13,0.25
		h-0.06c-3.22,0-5.05-3.66-3.15-6.26c1.18-1.61,2.54-2.9,4.04-3.7c-0.76-5.33,0.68-11.6,3.9-15.9c3.05-4.07,6.78-5.64,11.22-5.96
		c0.18-1.03,0.42-2.04,0.74-3.03c-0.38-0.93-0.68-1.86-0.87-2.77C292.09,311.29,293.57,306.19,297.04,302.3z M285.51,362.32
		c-1.47,0.08-2.94,0.14-4.42,0.17l14.77,28.4l1.69-4.77c-3.14-4.52-5.21-9.89-6.06-15.89c-0.08-0.15-0.16-0.29-0.24-0.44
		c-1.24-0.19-2.35-0.96-2.94-2.11L285.51,362.32z M268.98,362.33l-3.27,5.53c-0.79,1.33-2.27,2.1-3.81,1.95
		c-1.46-0.14-2.91-0.31-4.36-0.49c-1.55-0.2-2.83-1.3-3.29-2.8l-1.83-5.96c-1.48-0.24-2.95-0.48-4.42-0.77l9.26,30.2l16.27-27.49
		C272,362.46,270.49,362.41,268.98,362.33z M136.4,246.61c4.05,2.47,7.09,6.47,8.9,11.59c9.37-5.82,17.65-13.3,25.67-21.56
		c-0.17-10.44,2.08-19.44,5.02-26.68c-0.91-2.4-1.68-4.76-2.32-7.06c-3.78-5.97-8.12-12.3-9.78-14.86
		c-1.23-1.89-2.79-4.23-4.55-6.84c-1.49,0.5-3.42,1.83-6.24,3.91c-0.5,0.37-1.01,0.75-1.53,1.13c-0.95,0.69-2.27,0.56-3.06-0.31
		c-0.79-0.87-0.81-2.19-0.04-3.08c1.08-1.24,4.36-6.99,3.73-10.63c-0.18-1.05-0.68-1.77-1.57-2.28c-3.32-1.88-9.27-1.61-17.74,0.77
		c-3.28,5.78-8.11,10.63-14,13.98c-0.04,0.56-0.11,1.1-0.17,1.64c1.58-0.13,3.22-0.04,4.91,0.35l5.15-5.12
		c1.08-1.07,2.79-1.17,3.98-0.22c3.19,2.53,4.83,6.2,4.61,10.35c-0.05,1.05-0.25,2.13-0.54,3.21c6.16,3.99,9.9,11.58,10.35,21.31
		C147.8,229.47,142.72,240.23,136.4,246.61z M183.34,163.67c-0.91-1.23-1.81-2.51-2.7-3.83c-5.64,13.91-8.5,34.86,5.59,60.3
		c0.95-1.05,1.9-2.09,2.85-3.14c-1.74-3.32-3.62-7.42-5.21-12.09c-0.48-1.4-3.09-8.8-3.68-17.68
		C179.7,179.82,180.41,171.82,183.34,163.67z M195.99,184.18c0.21-3.91,0.07-7.46-0.01-9.05c-0.41-0.16-0.81-0.34-1.22-0.54
		c-2.42,2.39-5.47,4.96-6.77,6.03C189.33,181.98,193.82,183.95,195.99,184.18z M197.52,234.38c1.15,0.76,2.32,1.41,3.49,1.94
		c0.03,0.01,0.06,0.03,0.09,0.04c0.59-0.22,1.18-0.46,1.77-0.71c0.08-0.04,0.17-0.07,0.25-0.1c9.54-4.06,18.12-10.87,24.37-19.34
		c0.06-0.09,0.13-0.17,0.19-0.25c0.36-0.49,0.7-0.99,1.04-1.49c0.18-0.27,0.36-0.54,0.54-0.81c0.3-0.45,0.59-0.9,0.87-1.36
		c0.41-0.67,0.81-1.34,1.19-2.02c-3.08,2.66-6.65,3.77-9.78,2.63c-4.88-1.78-7.07-8.42-5.55-15.66c-0.45,0.38-0.9,0.76-1.35,1.15
		c-3.53,3.87-6.87,8.44-9.5,13.06C200.48,219.69,197.73,227.96,197.52,234.38z M200.09,178.6c0.04,0.02,0.09,0.04,0.13,0.05
		c1.02,0.42,2.04,0.8,3.05,1.16c0.1,0.03,0.2,0.07,0.29,0.1c1.01,0.35,2.02,0.67,3.02,0.96c0.09,0.03,0.18,0.05,0.27,0.08
		c1.01,0.29,2.02,0.55,3.02,0.79c0.07,0.02,0.14,0.03,0.22,0.05c1.02,0.24,2.04,0.45,3.06,0.63c0.04,0.01,0.09,0.01,0.13,0.02
		c4.25,0.76,8.45,1.07,12.66,1.09c0.02,0,0.04,0,0.05,0c1.61-1.04,3.26-2.03,4.93-2.98l-0.14-0.14c-0.6,0.03-1.2,0.05-1.79,0.07
		c-0.28,0.01-0.57,0.01-0.85,0.02c-0.41,0.01-0.82,0.01-1.24,0.02c-0.16,0-0.33,0.01-0.49,0.01c-0.27,0-0.53-0.01-0.8-0.01
		c-0.14,0-0.27,0-0.41,0c-0.52-0.01-1.04-0.02-1.57-0.04c-0.1,0-0.19-0.01-0.29-0.01c-0.61-0.02-1.23-0.05-1.84-0.09h-0.01
		c-1.27-0.08-2.54-0.19-3.81-0.34c-0.09-0.01-0.18-0.02-0.27-0.03c-0.52-0.06-1.03-0.13-1.55-0.2c-0.18-0.03-0.35-0.05-0.53-0.08
		c-0.43-0.07-0.86-0.13-1.29-0.21c-0.22-0.04-0.43-0.08-0.65-0.12c-0.39-0.07-0.79-0.15-1.18-0.23c-0.24-0.05-0.48-0.1-0.72-0.15
		c-0.37-0.08-0.75-0.17-1.13-0.26c-0.25-0.06-0.5-0.12-0.75-0.18c-0.37-0.09-0.74-0.19-1.11-0.29c-0.25-0.07-0.51-0.13-0.76-0.21
		c-0.39-0.11-0.78-0.23-1.16-0.35c-0.24-0.07-0.47-0.14-0.71-0.21c-0.59-0.19-1.19-0.39-1.79-0.6c-0.3-0.1-0.59-0.22-0.89-0.33
		c-0.11-0.04-0.22-0.08-0.34-0.12c-0.98,0-1.92-0.08-2.84-0.21C200.06,176.91,200.08,177.71,200.09,178.6z M262.98,299.72
		c0.01,0.14,0.04,0.29,0.06,0.43c0.04,0.33,0.1,0.66,0.17,0.98c0.03,0.15,0.06,0.3,0.1,0.45c0.09,0.36,0.19,0.72,0.31,1.07
		c0.03,0.09,0.06,0.19,0.09,0.28c0.01,0.02,0.02,0.04,0.03,0.06c4.41-0.79,8.4-2.87,11.59-6.07c3.21-3.21,5.35-7.37,6.12-11.84
		c-0.02-0.01-0.03-0.01-0.05-0.02c-0.06-0.02-0.12-0.03-0.18-0.05c-0.38-0.12-0.76-0.23-1.14-0.32c-0.14-0.03-0.28-0.06-0.42-0.09
		c-0.33-0.07-0.65-0.12-0.98-0.16c-0.14-0.02-0.27-0.04-0.41-0.05c-0.45-0.05-0.91-0.08-1.37-0.08c-7.71,0-13.99,6.27-13.99,13.99
		C262.9,298.79,262.93,299.26,262.98,299.72z M295.56,231.38c0.51-6.37-0.1-13.38-1.84-20.23c-3.4-13.43-10.38-24.11-18.68-28.57
		c-2.76-1.48-5.59-2.24-8.41-2.24c-1.73,0-3.43,0.29-5.05,0.86c-12.29,4.3-17.56,23.37-12.25,44.35c0.76,3,1.69,5.86,2.8,8.56
		c0.36,0.88,0.06,1.94-0.76,2.43c-1.89,1.14-3.11,3.28-2.89,5.69c0.28,3.14,3.07,5.46,6.22,5.46h8.05h0.35h0.47h22.85
		c0.2,0,0.4-0.01,0.61-0.01h0.09c0.05,0,0.1,0,0.15,0c5.21-0.15,15.03-1.77,19.65-5.5c1.03-0.83,1.82-1.96,2.14-3.24
		c0.49-1.96,0.02-3.94-1.25-5.42c-1.14-1.33-2.8-2.1-4.56-2.1c-1.43,0-2.82,0.51-3.9,1.45c-0.18,0.14-0.55,0.33-1.06,0.54
		C296.91,233.97,295.44,232.86,295.56,231.38z M259.72,175.18c-4.48,0.86-8.73,2.04-12.78,3.5l3.2,4.21
		c2.08-1.95,4.46-3.8,6.78-5.59c0.83-0.64,1.64-1.27,2.41-1.89C259.45,175.32,259.58,175.25,259.72,175.18z M84.61,176.6
		c1.36-0.11,2.74-0.12,4.15-0.02c0.56-2.04,0.95-3.62,1.27-4.89c0.09-0.38,0.18-0.72,0.26-1.02c0.5-1.98,2.41-3.26,4.44-2.98
		c6.19,0.86,17.28,1.45,27.03-2.97c1.82-0.82,3.57,1.24,2.49,2.92c-2.49,3.87-6.13,7.42-11.07,9.92c-1.96,0.99-3.17,3-3.22,5.19
		c-0.03,1.27-0.14,2.45-0.32,3.56c1.18,1.22,2.26,2.52,3.21,3.91c0.67-2.18,1.04-4.65,1.1-7.39c0.02-0.74,0.44-1.41,1.09-1.74
		c14.31-7.27,19.01-22,16.88-31.54c-0.56,0.55-1.14,1.03-1.76,1.42c-0.33,0.21-0.7,0.31-1.07,0.31c-0.66,0-1.31-0.33-1.69-0.93
		c-0.59-0.93-0.32-2.17,0.62-2.76c1.99-1.26,4.16-4.66,4.35-8.16c0.1-1.92-0.39-3.57-1.47-4.93l-8.85,8.8
		c-0.78,0.78-2.05,0.77-2.83-0.01c-0.78-0.78-0.78-2.05,0.01-2.83l1.17-1.16c-5.95-0.18-11.28,4.54-15.91,9.17
		c-2.12,2.12-4.44,4.29-6.68,6.39c-4.06,3.8-8.27,7.74-9.5,9.81c-1.12,1.89-1.4,3.02-2.15,6.04
		C85.79,172.18,85.32,174.06,84.61,176.6z M70,188.44c4.03,0.51,8.15,1.68,12.08,3.55c1.49,0.7,2.92,1.49,4.29,2.35
		c7.47-6.43,20.04-3.05,23.86,5.46c0.69-0.7,1.41-1.37,2.15-1.99c-3.49-9.18-12.44-16-22.7-17.15
		C81.66,179.76,74.65,182.58,70,188.44z M77,277.05c6.49-0.42,16.68-2.97,22.88-13.85c0.24-0.41,0.47-0.84,0.69-1.28
		c0.01-0.01,0.01-0.03,0.02-0.04c0.22-0.42,0.43-0.86,0.63-1.31c0.02-0.04,0.04-0.09,0.06-0.13c0.19-0.42,0.38-0.85,0.55-1.29
		c0.03-0.09,0.07-0.17,0.1-0.26c0.16-0.41,0.32-0.83,0.47-1.25c0.05-0.14,0.1-0.29,0.15-0.44c0.13-0.39,0.26-0.77,0.39-1.17
		c0.07-0.22,0.13-0.44,0.19-0.66c0.1-0.35,0.2-0.69,0.3-1.05c0.09-0.32,0.16-0.66,0.24-0.99c0.07-0.27,0.14-0.54,0.2-0.82
		c0.14-0.63,0.27-1.27,0.39-1.92c0.02-0.13,0.06-0.25,0.11-0.37c0.02-0.04,0.04-0.07,0.05-0.11c0.04-0.08,0.07-0.15,0.12-0.22
		c0.03-0.04,0.05-0.08,0.08-0.12c0.04-0.06,0.09-0.12,0.14-0.18c0.03-0.04,0.07-0.07,0.11-0.1c0.05-0.05,0.11-0.1,0.17-0.14
		c0.04-0.03,0.08-0.06,0.12-0.09c0.06-0.04,0.13-0.07,0.19-0.11c0.04-0.02,0.09-0.04,0.13-0.06c0.07-0.03,0.14-0.05,0.22-0.07
		c0.05-0.01,0.09-0.03,0.14-0.04c0.08-0.02,0.17-0.02,0.25-0.03c0.04,0,0.08-0.01,0.12-0.01c0.01,0,0.01,0,0.02,0
		c0.12,0,0.24,0.01,0.36,0.03c1.09,0.2,1.81,1.24,1.61,2.32c-0.97,5.34-2.66,10.04-4.99,14.05c3.92,0.76,8.31,0.15,12.19-1.8
		c4.02-2.02,9.41-6.41,12.19-15.86c0.15-0.49,0.48-0.91,0.92-1.17c9.64-5.54,14.18-19.32,13.67-30.07c-0.42-8.99-4-15.66-9.82-18.31
		c-4.76-2.17-9.5-2.01-14.08,0.47c-6.9,3.72-12.48,12.36-13.88,21.49c-1.23,7.96-0.04,15.1,3.19,19.09c1.7,2.1,3.92,3.25,6.61,3.41
		c3.65,0.21,7.3-1.68,10.25-5.34c4.44-5.49,6.21-13.63,4.39-20.25c-0.29-1.06,0.33-2.17,1.4-2.46c1.07-0.29,2.17,0.33,2.46,1.4
		c0.42,1.53,0.68,3.12,0.8,4.73c4.05,4.36,2.26,11.77,0.25,15.33c-1.88,3.33-4.77,5.62-7.22,7.03c-1.35,0.78-2.34,2.08-2.78,3.57
		c-2.39,8.03-6.82,11.69-10.13,13.35l-0.04,0.02c-1.55,0.78-3.25-0.67-2.76-2.34c0.54-1.81,0.98-3.7,1.34-5.65
		c0.59-3.25-1.58-6.38-4.83-6.97c-0.34-0.06-0.71-0.1-1.08-0.1c-2.9,0-5.38,2.07-5.9,4.93c-3.28,18.12-14.64,22.62-23.59,23.2
		c-0.35,0.02-0.71,0.03-1.08,0.03c-2.28,0-10.27-0.55-17.42-7.6c-4.79-4.72-10.21-13.51-10.77-29.25c-0.05-1.55,1.58-2.6,2.94-1.86
		c1.35,0.74,3.01,1.4,5,1.82c1.43,0.3,2.66-0.96,2.38-2.39c-0.92-4.65,0.54-9.55,4.26-12.32c-1.48-0.83-2.72-2.01-3.5-3.29
		c-0.58-0.94-0.28-2.17,0.67-2.75c0.94-0.58,2.17-0.28,2.75,0.67c0.68,1.11,2,2.1,3.45,2.44c-0.2-2.01-0.26-4.02-0.16-6.01
		c0.06-1.1,0.96-1.95,2.1-1.9c1.1,0.06,1.95,1,1.9,2.1c-0.52,10.37,3.58,21.56,10.21,27.85c1.51,1.44,3.11,2.57,4.78,3.43
		c0.16,0.08,0.33,0.17,0.49,0.24c0.44,0.21,0.89,0.4,1.35,0.57c0.15,0.06,0.3,0.11,0.45,0.16c0.48,0.17,0.97,0.32,1.47,0.44
		c0.11,0.03,0.22,0.05,0.33,0.07c0.54,0.12,1.08,0.22,1.63,0.29c0.05,0.01,0.1,0.01,0.15,0.01c0.58,0.06,1.17,0.1,1.77,0.11
		c0.03,0,0.06,0,0.09,0c0.65,0,1.3-0.03,1.96-0.1c3.24-0.34,6.4-2.93,8.21-6.61c-2.24,2.52-6.12,3.92-9.97,3.79
		c-3-0.1-6.47-1.74-8.68-3.91c-0.55-0.55-0.93-1.26-1.07-2.02c-0.88-4.68-0.73-9.32,1.11-14.35c1.5-4.1,4.46-8.09,8.01-11.11
		c0.84-0.72,2.1-0.61,2.82,0.23c1.92,2.24,4.37,5.66,6,8.22c0.01-0.05,0.01-0.11,0.02-0.16c-0.12-0.49-0.25-0.99-0.39-1.47
		c-0.06-0.19-0.12-0.38-0.18-0.58c-0.12-0.41-0.26-0.81-0.4-1.21c-0.08-0.22-0.15-0.43-0.23-0.65c-0.15-0.4-0.3-0.79-0.46-1.19
		c-0.08-0.18-0.15-0.37-0.22-0.55c-0.22-0.51-0.46-1.02-0.7-1.52c-0.13-0.27-0.27-0.53-0.4-0.79c-0.14-0.27-0.28-0.53-0.42-0.79
		c-0.15-0.28-0.31-0.56-0.47-0.84c-0.14-0.24-0.28-0.47-0.42-0.7c-0.17-0.28-0.34-0.56-0.52-0.84c-3.66-5.61-8.87-10.18-15.2-13.17
		c-8.68-4.11-18.24-4.61-24.97-1.31c-11.95,5.87-16.35,23.4-12.02,34.01c0.11,0.27,0.16,0.56,0.15,0.86
		c-1.09,21.62,5.87,33.24,11.9,39.18C62.52,275.34,71.22,277.43,77,277.05z M97.42,283.63c8.85-3.69,12.77-10.12,14.11-14.52
		c-1.49,0.33-3,0.51-4.49,0.55c-1.44,3.19-4.6,7.55-11.16,10.29c-3.4,1.42-7.22,2.17-11.06,2.17c-2.67,0-5.21-0.37-7.46-1.07
		c-0.03,0-0.07,0.01-0.1,0.01c-0.57,0.04-1.15,0.06-1.73,0.06c-2.4,0-4.84-0.33-7.24-0.94c1.65,1.81,3.71,3.02,5.44,3.78
		C80.49,286.94,89.79,286.82,97.42,283.63z M143.24,397.87c38.53-0.91,66.82-14.97,73.61-18.66c1-2.1,1.97-4.14,2.92-6.12
		c-1.87,1-3.2,1.69-3.64,1.94c-0.48,0.28-1.58,0.89-3.23,1.74c-1.12,0.57-2.46,0.6-3.58,0.04c-6.58-3.23-12.95-6.94-19.06-11.14
		c-22.34-15.33-40.06-36-51.71-60.19c-0.58-1.21-1.16-2.42-1.73-3.67c-0.81-1.77,1.14-3.54,2.82-2.56
		c7.01,4.08,13.12,7.15,16.25,8.22l3.78,1.3l0.88,0.32c-1.68-1.95-3.3-3.95-4.87-5.98c-8.41-3.52-30.76-16.43-42.77-27.48
		c-0.67,1.1-1.44,2.2-2.34,3.28c0.53,0.48,1.06,0.95,1.62,1.44c1.45,1.25,1.87,3.35,0.9,5c-2.63,4.47-7.15,9.08-14.14,12
		c-2.8,1.17-5.81,1.97-8.86,2.4c-1.98,0.28-3.87-0.91-4.45-2.83c-0.67-2.25-1.31-4.53-1.92-6.82c-1.44-0.04-2.86-0.17-4.25-0.38
		C92.78,340.76,121.82,379.63,143.24,397.87z M329.32,405c-1.85-1.05-3.52-2.4-4.9-4.12c-5.25-0.42-10.27-1.78-14.78-4.14
		c-3.13-1.64-5.91-3.68-8.31-6.07c-0.37,0.05-0.84,0.12-1.22,0.17l-2.03,5.73c-0.27,0.75-0.95,1.27-1.75,1.33c-0.05,0-0.09,0-0.14,0
		c-0.74,0-1.43-0.41-1.77-1.08l-2.58-4.96c-4.85,0.46-9.73,0.7-14.65,0.7c-5.48,0-10.92-0.3-16.31-0.87l-2.5,4.23
		c-0.4,0.68-1.18,1.05-1.96,0.97c-0.79-0.09-1.44-0.64-1.68-1.4l-1.47-4.78c-8.23-1.28-16.31-3.23-24.18-5.81
		c-2.29-0.75-3.41-3.35-2.37-5.53c1.6-3.34,3.11-6.48,4.49-9.35c2.36-4.89,4.43-9.19,6.05-12.68c-1.3-0.35-2.6-0.74-3.89-1.12
		c-1.56,3.35-3.53,7.44-5.76,12.06c-6.4,13.27-15.51,32.18-23.11,50.96h124.6C329.02,414.8,329.17,409.88,329.32,405z
		 M337.25,407.61c-1.36-0.21-2.69-0.5-3.97-0.91c-0.14,4.35-0.24,8.67-0.15,12.54h4C337.04,415.66,337.13,411.6,337.25,407.61z
		 M372.32,373.74c-1.78,2.88-3.86,5.9-6.26,8.8c-1.26,14.52-18.55,20.67-30.23,17.78c-1.83,0.31-3.66,0.53-5.47,0.63
		c7.98,5.39,22,2.93,28.35-0.94C369.67,393.33,373.87,382.11,372.32,373.74z M380.16,332.93c-0.46-2.03-1.13-3.96-1.97-5.79
		c0-0.01-0.01-0.01-0.01-0.02c-0.02-0.04-0.04-0.09-0.06-0.14c-4.99-10.71-15.82-18.19-24.06-23.88c-1.33-0.92-2.58-1.78-3.71-2.59
		c-1.33-0.96-2.67-1.94-3.99-2.91c-7.85-5.77-15.26-11.21-21.85-11.83c-3.36-0.32-6.91,1.25-9.53,4.19s-3.76,6.74-3.05,10.16
		c1.51,7.22,11.41,16.11,15.59,19.6c5.92,4.93,7.64,7.79,7.81,8.1c0.55,0.96,0.21,2.18-0.74,2.73c-0.96,0.55-2.18,0.21-2.73-0.74
		c0,0-0.15-0.25-0.51-0.71c-11.89,2.2-18.12-6.13-20.94-11.84c-0.61-1.24,0.22-2.71,1.59-2.85c1.26-0.13,2.63-0.28,3.76-0.4
		c-0.91-1.02-1.8-2.08-2.63-3.16c-6.83-0.62-10.18,0.5-13.01,4.27c-3.22,4.29-4.26,11.24-2.39,15.83
		c5.92,14.47,13.53,22.77,15.78,22.98c1.1,0.1,1.91,1.08,1.81,2.18c-0.1,1.04-0.97,1.82-1.99,1.82c-0.06,0-0.12,0-0.19-0.01
		c-1.38-0.13-2.79-0.86-4.21-1.99c-9.74,1.48-15.46-3.34-16.04-9.66c-0.4-4.34,1.52-8.15,2.96-9.8c-0.92-1.91-1.54-3.32-1.74-3.8
		c-3.09,2.4-6.08,9.06-5.53,14.81c0.52,5.46,2.08,13.56,6.55,21.1c0.14,0.23,0.23,0.49,0.26,0.76c1.4,10.71,7.12,19.19,16.1,23.88
		c10.83,5.66,25.01,5.04,37.91-1.66c10.12-5.24,17.5-15.95,21.91-24.01c0.42-0.77,0.88-1.58,1.36-2.43
		C377.12,357.24,383.21,346.49,380.16,332.93z M373.27,313.4c-1.49-4.4-3.01-8.64-4.63-11.39c-0.49-0.84-0.99-1.62-1.54-2.33
		c-1.36,1.68-2.76,3.29-4.19,4.81C366.37,307.06,369.99,310.01,373.27,313.4z M378.92,311.84c-0.6,0.17-1.2,0.33-1.8,0.48
		c0.28,0.83,0.56,1.67,0.84,2.51c0.3,0.89,0.59,1.77,0.88,2.63c3.38-3.15,6.61-6.44,9.67-9.88c0.95-1.07,1.89-2.16,2.81-3.26
		c0.48-0.57,0.94-1.15,1.41-1.72c0.59-0.73,1.18-1.46,1.76-2.2c0.45-0.57,0.89-1.14,1.33-1.72c0.78-1.03,1.55-2.07,2.3-3.11
		c0.39-0.54,0.77-1.08,1.15-1.62c0.71-1.01,1.41-2.03,2.09-3.06c0.34-0.51,0.68-1.03,1.01-1.55c0.65-1.01,1.29-2.03,1.92-3.06
		c0.24-0.4,0.49-0.79,0.73-1.19c0.83-1.39,1.64-2.79,2.42-4.21c0.23-0.41,0.45-0.83,0.67-1.25c0.61-1.12,1.2-2.25,1.78-3.39
		c0.22-0.43,0.44-0.86,0.66-1.29c0.74-1.5,1.47-3.01,2.17-4.54c0.02-0.05,0.04-0.09,0.06-0.14c0.83-1.93,0.08-4.16-1.75-5.16
		c-0.17-0.09-0.33-0.19-0.5-0.29c-0.58-0.32-1.16-0.66-1.73-0.99c-0.3-0.18-0.61-0.35-0.9-0.53c-0.78-0.47-1.55-0.94-2.31-1.43
		c-0.08-0.05-0.15-0.09-0.23-0.14c0.01,0,0.01,0,0.02,0.01c-1.83-1.18-3.63-2.43-5.39-3.72c-1.12,0.84-2.23,1.69-3.34,2.55
		c4.13,3.14,7.68,5.41,10.84,7.19c0.91,0.51,1.28,1.64,0.83,2.59C401.03,285.86,391.07,299.87,378.92,311.84z M375.36,217.11
		c-0.51,1.06-1.04,2.13-1.6,3.2c2.07,3.74,3.7,7.69,4.84,11.85c0.25,0.9,0.46,1.81,0.66,2.71c0.05,0.26,0.11,0.51,0.16,0.77
		c0.01,0.06,0.02,0.12,0.04,0.18c0.13,0.66,0.25,1.33,0.37,1.99c0.02,0.14,0.05,0.27,0.07,0.41c0.02,0.12,0.04,0.23,0.06,0.35
		c0.64,4.2,0.82,8.42,0.58,12.59c0,0.06-0.01,0.11-0.01,0.17c-0.03,0.54-0.07,1.08-0.12,1.62c-0.01,0.12-0.02,0.23-0.03,0.35
		c-0.13,1.5-0.32,2.99-0.55,4.48c-0.02,0.15-0.05,0.3-0.07,0.45c-0.11,0.65-0.22,1.29-0.34,1.93c-0.01,0.05-0.02,0.11-0.03,0.16
		c-0.14,0.74-0.3,1.47-0.47,2.2c-0.01,0.04-0.02,0.08-0.03,0.12c-0.95,4.14-2.27,8.19-3.87,12.08c0,0.01-0.01,0.02-0.01,0.02
		c-0.26,0.63-0.53,1.26-0.8,1.88c-0.01,0.03-0.03,0.07-0.04,0.1c-1.68,3.81-3.63,7.45-5.78,10.87c-0.01,0.02-0.03,0.04-0.04,0.06
		c-0.34,0.53-0.68,1.06-1.02,1.58c-0.04,0.06-0.08,0.13-0.12,0.19c-0.34,0.51-0.68,1.02-1.03,1.52c-0.04,0.06-0.08,0.11-0.12,0.17
		c-0.36,0.52-0.72,1.03-1.09,1.53c-2.2,3.01-4.54,5.8-6.97,8.31c0.02,0.02,0.05,0.03,0.07,0.05c0.77,0.53,1.56,1.09,2.37,1.66
		c0.01,0.01,0.03,0.02,0.04,0.03c1.54-1.62,3.05-3.35,4.52-5.17c0.03-0.04,0.06-0.07,0.09-0.11c0.11-0.14,0.22-0.27,0.32-0.41
		c0.2-0.25,0.39-0.51,0.59-0.76c0.08-0.1,0.16-0.2,0.24-0.31c0.01-0.02,0.03-0.04,0.04-0.06c0.07-0.09,0.14-0.18,0.21-0.27
		c0.13-0.17,0.26-0.35,0.39-0.52c0.33-0.44,0.66-0.89,0.98-1.34c0.15-0.21,0.29-0.41,0.44-0.62c0.24-0.34,0.47-0.68,0.71-1.02
		c0.06-0.09,0.12-0.18,0.18-0.26c0.16-0.24,0.32-0.48,0.48-0.73c0.27-0.41,0.54-0.82,0.81-1.24c0.17-0.27,0.35-0.55,0.52-0.82
		c0.04-0.07,0.08-0.14,0.13-0.2c0.2-0.33,0.41-0.65,0.61-0.98c0.18-0.3,0.36-0.61,0.54-0.91c0.22-0.38,0.44-0.76,0.66-1.14
		c0.19-0.33,0.37-0.66,0.56-1c0.09-0.16,0.17-0.31,0.25-0.47c0.11-0.21,0.23-0.42,0.34-0.63c0.19-0.36,0.38-0.72,0.56-1.08
		c0.08-0.15,0.15-0.3,0.23-0.45c0.1-0.2,0.21-0.4,0.31-0.61c0.19-0.38,0.38-0.77,0.56-1.15c0.16-0.34,0.32-0.68,0.48-1.02
		c0.19-0.41,0.37-0.81,0.56-1.22c0.13-0.29,0.25-0.58,0.38-0.87c0.02-0.04,0.04-0.08,0.05-0.12c0.18-0.43,0.37-0.86,0.54-1.29
		c0.07-0.16,0.13-0.32,0.19-0.48c0.06-0.16,0.13-0.32,0.19-0.48c0.18-0.45,0.35-0.89,0.52-1.34c0.05-0.14,0.1-0.28,0.15-0.42
		c0.06-0.18,0.13-0.35,0.19-0.52c0.17-0.46,0.33-0.92,0.5-1.39c0.33-0.95,0.64-1.92,0.93-2.88c0.02-0.08,0.05-0.15,0.07-0.23
		c0.29-0.97,0.56-1.94,0.81-2.91c0.14-0.56,0.28-1.11,0.41-1.67c0.04-0.17,0.08-0.35,0.12-0.52c0.13-0.56,0.25-1.12,0.36-1.68
		c0.01-0.03,0.01-0.06,0.02-0.08c0.02-0.12,0.05-0.24,0.07-0.37c0.18-0.91,0.34-1.83,0.49-2.75c0-0.02,0-0.03,0.01-0.05
		c0.14-0.92,0.27-1.85,0.38-2.78c0.01-0.11,0.03-0.22,0.04-0.33c0-0.04,0.01-0.08,0.01-0.12c0.05-0.49,0.1-0.99,0.14-1.48
		c0.03-0.29,0.05-0.58,0.07-0.87c0.03-0.35,0.05-0.69,0.07-1.04c0,0,0,0,0.01,0c0.09-1.5,0.13-3.01,0.11-4.53c0-0.02,0-0.03,0-0.05
		c0-0.28-0.01-0.56-0.02-0.84c-0.01-0.45-0.02-0.9-0.04-1.36c-0.01-0.3-0.03-0.59-0.05-0.89c-0.03-0.46-0.06-0.92-0.09-1.38
		c-0.01-0.14-0.02-0.29-0.03-0.43c-0.01-0.14-0.03-0.28-0.04-0.41c-0.05-0.53-0.11-1.07-0.17-1.6c-0.02-0.14-0.03-0.29-0.05-0.43
		c0-0.02,0-0.03-0.01-0.05c-0.35-2.73-0.88-5.47-1.63-8.19C380.27,226.9,378.34,222.04,375.36,217.11z M365.48,217.16
		c0.9,0.99,1.81,1.99,2.7,2.98c3.08-5.56,5.33-10.9,6.94-16.01c-1.27-0.59-2.46-1.19-3.54-1.82
		C370.17,207.05,368.18,212.01,365.48,217.16z M325.23,183.75c3.02,6.81,6.2,13.48,9.34,20.07c2.75,5.75,5.46,11.44,8.02,17.12
		c0.25,0.2,0.49,0.4,0.74,0.6c11.77,9.53,23.24,18.78,34.31,26.19c0.01-3.67-0.33-7.36-1.06-11.03c-2.03-2.15-4.02-4.29-5.96-6.42
		c0,0,0.01,0,0.01-0.01c-1.61-1.76-3.21-3.52-4.8-5.28c-7.75-8.56-15.76-17.42-24.38-25.14c-0.9-0.8-1.09-2.13-0.47-3.16
		c3.28-5.42,6.22-11.1,8.88-16.96c-0.75-0.79-1.48-1.62-2.18-2.45c-1.36,3.06-2.78,6.08-4.31,9.01c-0.35,0.68-1.04,1.08-1.77,1.08
		c-0.19,0-0.37-0.03-0.56-0.08c-0.92-0.26-1.52-1.11-1.45-2.07c0.05-0.7,0.11-1.42,0.17-2.18c0.02-0.22-0.04-0.45-0.15-0.65
		c-0.49-0.82-0.97-1.74-1.43-2.73c-0.87-1.89-0.47-4.15,1.01-5.63l3.54-3.54c-0.65-1.05-1.17-1.98-1.52-2.73L325.23,183.75z
		 M387.29,62.72c-0.53-12.85-4.06-25.5-10.46-35.38C370.2,17.11,357.52,5,334.68,5c-0.29,0-0.57,0-0.86,0.01
		c-17.73,0.23-32.16,6.56-42.9,18.81c-7.9,9.01-12.61,19.89-15.06,30.66c0.57,1.24,1.07,2.48,1.51,3.71
		c5.1,3.4,9.37,8.27,12.63,14.53c2.92,5.61,4.31,11.37,4.8,16.72c0.08,0.85,0.7,1.55,1.53,1.73c6.24,1.37,12.39,4.63,16.33,7.54
		c3.35,2.47,6.64,8.28,9.26,14.81c0.62,1.53,2.7,1.72,3.56,0.31c0.84-1.39,1.82-2.81,2.96-4.26c0.48-0.61,0.78-1.34,0.87-2.11
		c1.12-10.19,4.67-14.7,5.79-15.88c1.98-2.11,7.2-2.6,9.83-2.72c7.93-16.2,24.05-21.55,28.63-21.98c0.72-0.07,4.85-0.46,5.91-0.51
		C382.4,64.71,385.08,63.51,387.29,62.72z M383.76,156.94c-1.47-1.57-3.48-2.54-5.63-2.61c-11.01-0.36-17.56-4.03-22.47-11.33
		c-0.5-0.75-1.53-1-2.26-0.47c-0.92,0.66-2.03,1.04-3.21,1.04c-0.75,0-1.48-0.15-2.17-0.45l-0.04-0.02
		c-1.24-0.53-2.5,0.72-1.97,1.96c0.54,1.29,1.15,2.44,1.79,3.37c0.8,1.16,1.18,2.56,1.05,3.97c-0.81,8.8-0.5,11.4-0.37,12.02
		c0.54,1.21,3.22,5.33,6.38,8.87c0.83,0.92,2.25,0.84,3.03-0.12c0.59-0.73,1.51-1.43,2.93-1.77c1.54-0.37,2.83-1.01,3.82-1.88
		c1-0.88,2.29-1.37,3.63-1.37c1.58,0,3.08,0.68,4.13,1.87c1.1,1.26,1.58,2.93,1.28,4.61c-0.23,1.35-1.04,2.54-2.09,3.42
		c-1.63,1.37-4.3,2.71-6.49,3.5c-1.18,0.43-1.69,1.82-1.04,2.9c0.62,1.04,1.32,2.05,2,2.79l0.58,0.64c2.89,3.18,8.26,9.11,21,11.94
		c0.93,0.21,1.81,0.63,2.55,1.23c4.91,3.95,9.99,5.85,11.99,6.31c0.95,0.22,4.5,0.52,9.43,0.52c3.09,0,5.98-0.13,8.39-0.36v-36.65
		C405.81,171.05,394.25,168.14,383.76,156.94z"/>
</g>
</svg>
