<?xml version="1.0" encoding="utf-8"?>
<!-- Generator: Adobe Illustrator 24.2.3, SVG Export Plug-In . SVG Version: 6.00 Build 0)  -->
<svg version="1.1" id="layer" xmlns="http://www.w3.org/2000/svg" xmlns:xlink="http://www.w3.org/1999/xlink" x="0px" y="0px"
	 viewBox="0 0 420 420" style="enable-background:new 0 0 420 420;" xml:space="preserve">
<style type="text/css">
	.st0{fill:#EBEFF0;}
	.st1{fill:#0D1824;}
</style>
<g>
	<path class="st0" d="M417.19,396.82c-4.2-18.92-19.85-31.6-34.61-41.52c-0.34-0.23-1.88-1.23-3.11-2.03l-0.41-0.26l-0.04-0.48
		c-0.11-1.2-0.64-2.36-1.48-3.26l-0.17-0.18l-0.06-0.24c-3.64-13.72-5.35-14.82-5.91-15.19c-0.58-0.38-1.28-0.78-2.08-1.2
		l-1.39-0.74l1.25-0.95c22.13-16.69,39.32-39.04,49.7-64.64c0.3-0.75-0.03-1.59-0.76-1.93c-15.49-7.09-27.85-18.5-41.65-33.45
		c-1.83-1.99-3.66-4-5.5-6.03l-0.49-0.54l0.36-0.63c22.81-39.63,6.31-69.39-1.85-80.34c-0.37-0.5-0.83-0.93-1.38-1.29l-0.25-0.17
		l-0.12-0.28c-10.91-26.4-30.71-35.46-41.54-38.51l-0.3-0.08l-0.2-0.24c-6.9-8.37-19.68-12.69-23.55-13.32
		c-6.13-0.99-40.25-0.46-49.28,1.99c-5.71,1.55-20.44,14.42-23.84,21.82c-1.07,2.33-2.58,6.5-4.24,11.72l-0.06,0.18l-0.12,0.15
		c-5.59,6.97-10.26,15.46-13.88,25.25l-1.08,2.93L175.55,29.79l1.49-1.9c0.2-0.25,0.26-0.59,0.17-0.89l-5.95-20.68
		c-0.05-0.17-0.14-0.33-0.28-0.45l-3.68-3.46c-0.18-0.17-0.43-0.27-0.68-0.27L43.87,1.01L43.81,1c-0.01,0-0.06,0-0.19,0.06
		L25.67,13.54c-0.12,0.19-0.17,0.42-0.14,0.65l2.92,23.37c0.04,0.35,0.26,0.64,0.58,0.79l2.3,1.05l0.08,0.54L55.56,209H44.62
		c-0.47,0-0.89,0.34-0.98,0.8L1.03,420h28.68l15.59-81.65l28.78,0.29l2.23,15.6l-1.01,0.12c-4.98,0.62-10,2.16-14.52,4.46
		c-9.49,4.82-15.05,13.14-14.88,22.26c0.14,7.38,3.99,13.74,10.58,17.42l1.04,0.58L56.77,400c-2.35,2.87-3.45,6.27-3.18,9.83
		c0.29,3.73,2.16,7.24,5.32,10.17h359.92C419.3,411.66,418.75,403.87,417.19,396.82z M48.58,321.16l13.15-68.95l9.84,68.83
		L48.58,321.16z M155.48,383.79l-0.48,0.25c-4.79,2.5-9.27,4.47-13.33,5.84l-1.37,0.46l0.05-1.45c0.09-2.66-0.01-5.43-0.31-8.23
		c-1.06-9.89-6.6-21.66-18.96-25.06c-4.26-1.17-8.54-1.05-12.39,0.35l-1.16,0.42l-2.5-17.43l11.51,0.11l43.57-1.33L155.48,383.79z
		 M169.72,239.34c-12.03,12.11-22.35,19.78-33.44,24.86c-0.73,0.33-1.07,1.18-0.77,1.93c6.5,16.04,15.61,30.74,27.07,43.72
		l0.29,0.33l-1.05,10.42l-59.38,0.3l-11.75-82.03l25.82,0l54.95-1.29L169.72,239.34z M177.85,156.14
		c-5.07,11.33-9.45,29.53-1.51,51.89l0.47,1.33h-2.91c-0.52,0-0.94,0.39-0.99,0.9l-1.04,10.35H88.08L60.43,27.59l1.56-1.72
		c0.17-0.18,0.26-0.42,0.26-0.67v-2.56l77.81,1.16l3.96,16.55c0.08,0.34,0.33,0.61,0.66,0.72l3,0.98l30.31,113.75L177.85,156.14z
		 M200.56,342.23c-3.95,5.81-8.81,11.66-12.2,15.54l-2.06,2.37l2.33-23.29l5.01-0.15l0.26,0.17c2.31,1.5,4.38,2.79,6.33,3.93
		l0.92,0.54L200.56,342.23z"/>
	<path class="st1" d="M373.49,420h-25.82c-0.11-1.67-0.42-3.39-1-5.15c-0.66-2,0.38-4.19,2.35-4.94
		c12.05-4.6,14.83-12.45,14.81-19.11c-0.01-2.06,2.72-2.82,3.73-1.03c3.82,6.81,4.55,14.3,5.17,20.67c0.1,0.99,0.19,1.94,0.29,2.83
		C373.24,415.34,373.42,417.61,373.49,420z M82.18,369.69c-1.74,0.23-3.25,0.49-4.56,0.78c-2.72,0.61-4.53,1.38-5.48,2.31
		c-0.71,0.69-1.38,1.62-1.25,2.66c0.33,2.54,5.34,5.01,12.82,4.29c6.97-0.67,11.19-4.2,11-7.07
		C94.48,369.44,87.52,368.99,82.18,369.69z M274.02,343.81l0.12,0.03c0.52,0.12,1.07-0.07,1.4-0.49c1.08-1.37,2.65-4.13,3.63-8.4
		c0.02-0.11,0.05-0.21,0.07-0.32c0.16-0.73-0.3-1.45-1.03-1.63l-0.56-0.14c-0.77-0.19-1.52,0.3-1.69,1.07
		c-0.01,0.06-0.03,0.13-0.04,0.19c-0.63,2.78-1.6,5.4-2.8,7.68C272.69,342.61,273.14,343.6,274.02,343.81z M4.08,420H0l42.66-210.4
		c0.19-0.93,1.01-1.6,1.96-1.6h2.64L30.41,90.07l-1.8-0.82c-0.63-0.29-1.07-0.88-1.16-1.57l-2.92-23.37
		c-0.07-0.53,0.08-1.07,0.42-1.49l7.92-5.51l-2.46-17.24l-1.8-0.82c-0.63-0.29-1.07-0.88-1.16-1.57l-2.92-23.37
		c-0.07-0.53,0.08-1.07,0.42-1.49L43.13,0.18c0.26-0.11,0.53-0.21,0.82-0.17l122.69,1.12c0.51,0,0.99,0.2,1.36,0.54l3.68,3.46
		c0.26,0.25,0.45,0.56,0.55,0.9l5.95,20.68c0.18,0.62,0.05,1.28-0.35,1.79l-1.18,1.5l32.67,120.06c3.67-9.91,8.37-18.45,14.04-25.52
		c1.66-5.24,3.19-9.46,4.28-11.84c3.57-7.75,18.47-20.73,24.49-22.37c9.11-2.47,43.52-3.02,49.7-2.02
		c4.06,0.66,17.1,5.1,24.17,13.67c11.94,3.36,31.33,12.79,42.19,39.09c0.62,0.41,1.17,0.92,1.62,1.53c7.25,9.74,20.8,33.81,9,66.32
		c2.93,7.52,5.05,16.85,4.57,27.66c10.38,10.69,21.61,20.5,35.17,26.71c1.22,0.56,1.78,1.97,1.28,3.21
		c-5.12,12.64-11.87,24.42-20.01,35.14c5.79,4.55,11.97,8.55,18.73,11.65c1.22,0.56,1.78,1.97,1.28,3.21
		c-6.65,16.4-16.01,31.36-27.64,44.41c12.22,9.33,22.6,20.45,25.98,35.69c1.78,8.02,2.07,16.12,1.67,23.39h-5.04
		c0.42-6.98,0.18-14.74-1.51-22.31c-3.93-17.71-18.78-29.68-34.29-39.97c-0.08,0.64-0.27,1.26-0.57,1.84l-1.2,2.33
		c1.19,0.59,2.27,1.19,3.18,1.77c0.57,0.37,2.3,1.49,5.73,14.59c1.46,1.11,2.41,2.85,2.41,4.77v4.02c0,0.95-0.23,1.9-0.67,2.75
		l-2,3.86c-0.74,1.44-2.01,2.47-3.48,2.95c-0.59,1.33-1.46,2.99-2.64,4.76c0.05,0.31,0.1,0.61,0.14,0.92
		c0.09,0.04,0.18,0.07,0.27,0.12c0.54,0.31,1.08,0.66,1.59,1.04c0.67,0.07,1.34,0.15,2,0.21c6.84,0.69,13.3,1.35,19.9,4.74
		c0.98,0.5,1.37,1.71,0.87,2.69c-0.35,0.69-1.05,1.09-1.78,1.09c-0.31,0-0.62-0.07-0.91-0.22c-5.02-2.58-10.15-3.41-15.53-4.01
		c0,0.01,0.01,0.01,0.01,0.02c7.16,2.63,10.59,7.06,12.49,12.05h-11.44c-1.05-5.24-3.58-9.66-6.87-12.48c0,0.04,0.01,0.08,0.01,0.11
		c2.19,3.62,3.32,8.5,3.75,12.37h-6.78c-0.07-2.55-0.26-4.98-0.5-7.18c-0.12-1.1-0.22-2.26-0.33-3.48
		c-0.74-8.55-1.66-19.18-11.63-28.26c-10.49-9.56-27.65-9.39-39-9.28c-1.76,0.02-3.39,0.03-4.87,0.01
		c-3.37-0.04-6.73-0.31-9.99-0.57c-7.6-0.61-14.78-1.18-19.42,1.46c-2.92,1.66-4.94,5.08-5.43,9.15c-0.49,4.1,0.75,7.97,3.3,10.38
		c3.68,3.46,10.09,5.58,16.28,7.62c5.32,1.76,10.34,3.42,14.11,5.95c0.92,0.62,1.16,1.86,0.54,2.78c-0.62,0.92-1.86,1.16-2.78,0.54
		c-0.18-0.12-0.39-0.24-0.58-0.36c-7.85,5.79-16.39,2.88-21.42,0.12c-1.21-0.67-1.27-2.24-0.33-3.25c1.58-1.71,3.39-3.01,4.18-3.68
		c-1.36-0.49-2.7-1-4-1.54c-4.88,2.66-6.87,5.58-7.02,10.31c-0.1,3.07,0.89,6.46,2.54,9.29h-8.86c0.94-1.04,1.98-1.92,3.06-2.67
		c-1.66-0.93-3.17-1.98-4.45-3.19c-3.48-3.27-5.17-8.41-4.54-13.76c0.35-2.94,1.37-5.62,2.87-7.84c-0.66,0.01-1.32,0.02-1.99,0.02
		c-5.48,0-10.92-0.3-16.31-0.87l-2.5,4.23c-0.4,0.68-1.18,1.05-1.96,0.97c-0.79-0.09-1.44-0.64-1.68-1.4l-1.47-4.78
		c-8.23-1.28-16.31-3.23-24.18-5.81c-2.29-0.75-3.41-3.35-2.37-5.53c1.6-3.34,3.11-6.48,4.49-9.35c2.36-4.89,4.43-9.19,6.05-12.68
		c-1.3-0.35-2.6-0.74-3.89-1.12c-1.56,3.35-3.53,7.44-5.76,12.06c-6.48,13.44-15.75,32.68-23.41,51.72h-5.43
		c5.46-13.74,11.84-27.69,17.63-39.91c-7.28-3.13-14.33-6.84-21.1-11.11c-2.07-1.31-2.5-4.16-0.89-6.01
		c4.61-5.29,9.49-11.38,13.24-17c-1.19-0.61-2.39-1.22-3.57-1.86c-7.58,11.26-19.69,24.36-24.45,28.57
		c-5.06,4.48-22.78,16.61-38.09,21.43c9.41,1.09,18.1,11.48,18.03,25.89h-9.46c0.55-9.4-3.6-18.43-10.06-21.96
		c-0.36,1.36-0.8,2.64-1.31,3.87c4.8,3.05,7.87,10.5,7.36,18.09h-11.06c0.42-3.74,0.28-7.56-0.38-11.23
		c-0.45,0.55-0.93,1.08-1.43,1.58c0,0.01,0,0.02,0.01,0.04c-1.55,1.54-3.3,2.89-5.27,4.03c-0.74,0.44-1.51,0.85-2.31,1.22
		c-0.27,0.13-0.56,0.19-0.85,0.19c-0.75,0-1.47-0.43-1.81-1.15c-0.47-1-0.04-2.19,0.96-2.66c12.9-6.03,14.21-20.21,13.05-31.04
		c-1.84-17.09-13.31-21.54-16.78-22.49c-6.64-1.83-13.24,0.06-16.8,4.81c-0.24,0.32-0.45,0.66-0.67,0.99c0.6,1.3,1,2.68,1.17,4.12
		c0.15,1.28,0.11,2.55-0.1,3.78c2.9,0.56,5.63,1.48,8.07,2.8c5.19,2.81,8.34,7.06,8.88,11.96c0.49,4.54-0.93,8.74-4.01,12.13
		c3.9-1.65,5.97-5.41,6.93-7.78c2.97-7.39,1.75-16.52-2.97-22.21c-0.71-0.85-0.59-2.11,0.26-2.82c0.85-0.7,2.11-0.59,2.82,0.26
		c2.03,2.44,3.51,5.42,4.42,8.62c0.3-0.46,0.53-0.97,0.67-1.5c0.29-1.06,1.39-1.7,2.46-1.4c1.07,0.29,1.69,1.39,1.4,2.46
		c-0.5,1.82-1.55,3.45-2.94,4.66c1.78,4.29,2.81,9.38,2.38,14.46c-0.52,6.17-4.07,11.77-9.66,14.42c-0.04,0.02-0.08,0.04-0.11,0.05
		c-3.46,1.62-4.65,6.13-2.05,9.31c0.82,1,1.98,1.7,3.24,1.98c1.34,0.29,2.68,0.14,3.88-0.41c0.21-0.1,0.42-0.2,0.63-0.3
		c1.13-0.56,2.35,0.05,2.74,1.11H71.58c0.07-0.03,0.13-0.06,0.2-0.08c-4.1-1.38-7.55-3.62-7.7-5.7c-0.1-1.41,0.66-2.71,2.26-3.88
		c3.13-2.28,9.4-3.91,16.78-4.38c7.61-0.48,14.44,0.48,17.85,2.51c1.55,0.93,2.33,2.03,2.24,3.27c-0.14,1.88-3.11,4.94-6.78,6.6
		c1.91,0.2,3.68,0.47,5.33,0.8c4.92-3.33,7.62-7.62,7.64-12.16c0.01-2.63-1.09-5.02-3.25-7.09c-4.74-4.53-14.07-7.04-24.33-6.54
		c-9.95,0.48-18.33,3.53-22.42,8.16c-2.09,2.37-3.03,5.08-2.8,8.08c0.3,3.88,2.96,7.61,7.24,10.39H47.57
		c1.37-2.6,3.25-5.01,5.58-7.14c-0.28-0.96-0.48-1.95-0.55-2.95c-0.29-3.85,0.89-7.47,3.4-10.54c-4.24-2.37-7.43-5.86-9.28-10.01
		l-0.58-0.01L40.28,420H29.71h-3.04l33.12-173.57l-0.14-1.18c0.07,0.16,0.13,0.33,0.15,0.53c0.03,0.21,0.02,0.43-0.01,0.65
		l0.06-0.33l-0.59-4.14l0.39,3.3c-0.72-1.69-3.4-1.57-3.79,0.45L22.6,420h-2.3h-1.75H8.16L49.2,217.6c0.19-0.93,1.01-1.6,1.96-1.6
		h4.36l0,0c0-0.03,0.02-0.05,0.02-0.08L54.98,212h-7.09c-0.95,0-1.77,0.67-1.96,1.6L4.08,420z M59.34,320.11l3.94-0.02l-1.69-11.8
		L59.34,320.11z M48.46,327.16l22.96-0.11l-0.43-3l-21.96,0.11L48.46,327.16z M66.06,339.55l-10.41-0.1l-4.95,25.94
		c2.5-2.95,5.74-5.5,9.63-7.47c2.57-1.3,5.23-2.34,7.91-3.12L66.06,339.55z M100.01,368.89c-0.16-1.31-0.59-2.57-1.27-3.74
		c-0.03-0.05-0.05-0.09-0.08-0.14c-1.19-1.98-3.09-3.71-5.61-5.06c-8.26-4.42-20.39-3.81-30.92,1.54
		c-8.44,4.29-13.39,11.59-13.24,19.53c0.12,6.67,3.9,12.4,10.12,15.42c1.13-0.89,2.39-1.7,3.77-2.43c-0.46-0.45-1-0.84-1.62-1.12
		c-0.66-0.31-1.29-0.65-1.89-1.04c-1.72-1.11-0.78-3.82,1.26-3.65c3.3,0.27,6.66-0.43,9.37-2.19c-0.54-0.15-1.08-0.31-1.61-0.49
		c-1.05-0.36-1.6-1.49-1.25-2.54c0.36-1.05,1.49-1.6,2.54-1.25c8.98,3.07,19.68,1.63,26.03-3.5
		C97.92,376.38,100.53,373.26,100.01,368.89z M101.84,377.3c-0.87,1.34-1.99,2.59-3.34,3.74c0.19,4.15,1.2,8.09,2.89,11.29
		c1.83,0.75,3.49,1.63,4.96,2.64c-1.85-2.98-2.79-7.55-3.23-9.14C102.39,383.22,101.99,379.14,101.84,377.3z M104.57,356.9
		L57.63,29.27h-6.69l49.76,331.11C101.82,359.02,103.12,357.85,104.57,356.9z M182.53,185.71c0.37-0.28,9.22-7,16.79-11.16
		c3.02-1.66,3.94-3.17,4.23-3.92c0.03-0.13,0.12-0.56,0.26-1.2c0.64-3.06,1.37-6.01,2.16-8.89l-15.1-15.1
		c-0.43-0.43-0.92-0.46-1.18-0.44c-0.25,0.02-0.73,0.12-1.08,0.59c-7.64,10.26-22.78,37.7-2.38,74.54c0,0,0,0,0,0
		c0.95-1.05,1.9-2.09,2.85-3.14c-1.74-3.32-3.62-7.41-5.21-12.09c-0.48-1.4-0.15-2.96,0.86-4.04c3.69-3.93,7.47-7.79,11.38-11.48
		c-8.16-0.04-12.32-0.08-12.4-0.08c-0.85-0.01-1.61-0.56-1.88-1.37C181.57,187.12,181.85,186.23,182.53,185.71z M135.86,263.29
		c12.61-5.78,23.12-14.57,33.15-24.66l-52.49,1.23l-24.66,0l4.26,29.75h39.78c-0.44-1.03-0.88-2.07-1.3-3.11
		C134.08,265.27,134.64,263.85,135.86,263.29z M135.86,313.29c6.76-3.1,12.92-7.07,18.73-11.64c-3.05-4.01-5.9-8.18-8.54-12.48
		l-29.53,0.69l-17.5,0l4.3,30.02l32.64-0.16c-0.46-1.07-0.93-2.14-1.37-3.22C134.08,315.27,134.64,313.85,135.86,313.29z
		 M172.99,234.54c3.24-3.4,6.46-6.92,9.7-10.49c-0.08-0.14-0.17-0.29-0.25-0.43H89.52l0.5,3.5h26.42c1.1,0,2,0.89,2,1.99l0.02,6.71
		L172.99,234.54z M177.99,219.62l0.39-3.9c-0.5-1.1-0.98-2.19-1.43-3.27c-0.77,0.22-1.35,0.88-1.43,1.71l-0.55,5.45H177.99z
		 M182.49,145.61L154.99,42.4v0c-0.36-1.34-1.95-1.91-3.08-1.1l0,0c-0.67,0.48-0.97,1.33-0.76,2.13l28.49,106.9
		C180.6,148.59,181.57,147.01,182.49,145.61z M146.85,92.85l-2.49-0.81c-0.66-0.22-1.16-0.76-1.33-1.44l-3.78-15.8l-71.22-1.06
		l20.9,145.88h82.01l0.95-9.45c0.1-1.02,0.96-1.8,1.99-1.8h1.5c-3.22-9.06-4.46-17.46-4.44-25.06L146.85,92.85z M149.02,50.97
		l-2.17-8.13l-2.49-0.81c-0.66-0.22-1.16-0.76-1.33-1.44l-3.78-15.8l-76.02-1.14v1.54c0,0.5-0.19,0.98-0.52,1.34l-1.24,1.37
		l3.19,22.28L149.02,50.97z M157.35,355.16c-4.1-5.09-7.87-10.43-11.3-16.01l-29.53,0.9l-10.34-0.1l2.16,15.06
		c3.93-1.43,8.46-1.62,13-0.37c8.41,2.31,13.76,8.33,16.77,15.08l17.78-0.09L157.35,355.16z M166.88,340.51
		c-0.04-0.98-0.79-1.8-1.79-1.91c-1.1-0.11-2.08,0.69-2.19,1.79l-0.04-0.09l-4.07,40.52c1.48-0.84,2.92-1.69,4.29-2.54
		L166.88,340.51z M185.51,337.95l-5.66,0.17l-2.88,30.26c1.53-1.41,3.67-3.58,6.12-6.22L185.51,337.95z M187.75,333.87
		c-4.51-3.23-8.83-6.68-12.94-10.34l-70.93,0.35l0.43,3l9.75-0.05c1.11-0.01,2.01,0.89,2.01,2v7.21l0.41,0L187.75,333.87z
		 M168.46,319.57l0.18-1.81c-1.08-1.08-2.14-2.18-3.19-3.29l-0.51,5.11L168.46,319.57z M273.52,362.5
		c-1.52-0.04-3.03-0.09-4.54-0.17l-3.27,5.53c-0.79,1.33-2.27,2.1-3.81,1.95c-1.46-0.14-2.91-0.31-4.36-0.49
		c-1.55-0.2-2.83-1.3-3.29-2.8l-1.83-5.96c-1.48-0.24-2.95-0.48-4.42-0.77l9.26,30.2L273.52,362.5z M289.72,369.23
		c-0.59-0.37-1.09-0.89-1.42-1.54l-2.79-5.38c-1.47,0.08-2.94,0.14-4.42,0.17l5.07,9.76C287.19,371.04,288.38,370,289.72,369.23z
		 M299.27,351.88c2-2.71,3.64-6.59,4.63-10.93c0.99-4.34,1.18-8.55,0.56-11.86c-0.5-2.63-1.51-4.42-2.64-4.67l-15.18-3.44
		l-0.76,0.46c1.69,3.46,2.01,8.99,0.61,15.17c-1.52,6.69-4.54,11.83-7.86,13.97l0.46,0.87l15.77,3.5
		C296.01,355.2,297.69,354.03,299.27,351.88z M243.06,330.37c0.1,2.31,0.8,3.53,1.14,3.6l1.46,0.31c0.66,0.16,2.96-1.94,4.03-6.66
		c1.08-4.73-0.12-7.6-0.73-7.74l-1.46-0.31c-0.34-0.08-1.32,0.55-2.31,2.22c1.82,0.84,2.72,2.85,2.18,5.08
		c-0.53,2.17-2.07,3.51-4.03,3.51c-0.02,0-0.04,0-0.06,0C243.2,330.38,243.13,330.38,243.06,330.37z M243.31,327.39L243.31,327.39
		c0.01,0,0.01,0,0.02,0c0.68,0,0.99-0.66,1.12-1.22c0.06-0.24,0.3-1.48-0.76-1.74l-8.58-2.08c0.06,0.16,0.12,0.31,0.18,0.47
		c0.68,1.81,1.17,2.94,2.64,3.31l5.05,1.23C243.09,327.37,243.2,327.38,243.31,327.39z M249.33,336.76
		c0.44,2.15,1.27,3.28,1.98,3.44l10.61,2.42c0.19,0.05,0.41,0.03,0.65-0.04c0.02-0.01,0.04-0.01,0.05-0.02
		c0.73-0.23,1.61-0.96,2.47-2.06c1.52-1.95,2.8-4.88,3.52-8.03c0.72-3.16,0.83-6.36,0.3-8.77c-0.4-1.84-1.15-3.1-1.95-3.28
		l-10.6-2.42c-0.73-0.17-1.81,0.51-2.87,1.74c0.8,2.27,0.89,5.36,0.11,8.78C252.76,332.19,251.19,335.09,249.33,336.76z
		 M266.19,345.06l0.44,0.62l8.47,1.96c1.8,0.39,5.72-4.14,7.49-11.92c1.53-6.72,0.57-11.94-0.88-13.52
		c-0.03-0.03-0.07-0.07-0.1-0.11c-0.2-0.19-0.41-0.32-0.62-0.37l-8.11-1.8l-0.85,0.44c0.33,0.74,0.6,1.56,0.8,2.48
		c0.66,3.01,0.55,6.74-0.31,10.51s-2.37,7.18-4.27,9.61C267.58,343.8,266.89,344.5,266.19,345.06z M321.88,356.08
		c-0.84-0.6-1.51-1.45-1.92-2.45l-2.37-5.93c-0.93-2.33-0.17-5,1.86-6.48l3.92-2.86c1.27-0.93,2.88-1.27,4.42-0.93
		c15.58,2.73,30.68,6,44.89,9.7c-1.33-4.64-2.85-9.17-3.6-10.19c-11.33-7.2-48.7-15.61-59.19-15.79c-0.97,0.18-2.46,0.83-3.88,1.55
		c1.1,1.35,1.92,3.25,2.38,5.66c0.73,3.84,0.52,8.63-0.59,13.49c-1.11,4.86-2.99,9.27-5.31,12.42c-1.41,1.92-2.93,3.27-4.46,4.03
		c1.01,2.37,2.86,5.94,5.66,8.47c1.48,0.04,2.99,0.13,4.53,0.24l0.17-0.21l-2.31-1.92c-0.92-0.76-1.74-1.69-2.44-2.66
		c-1.07-1.46-0.96-3.49,0.22-4.86c0.36-0.41,0.71-0.86,1.05-1.32c1-1.36,1.93-2.93,2.76-4.65c0.41-0.86,1.38-1.3,2.3-1.06l5.48,1.44
		c0.87,0.23,1.59,0.79,2.13,1.5C318.66,354.69,320.23,355.54,321.88,356.08z M369.19,366.12c-0.99-0.14-2.03-0.3-3.13-0.47
		c-1.48,3.1-4.35,5.89-6.08,7.29c0.96,0.47,1.9,0.98,2.81,1.53C365.91,371.72,367.92,368.68,369.19,366.12z M376.04,353.02
		c0-1.17-0.83-2.19-1.97-2.44c-14.8-3.93-30.54-7.36-46.86-10.22c-0.76-0.16-1.49-0.01-2.07,0.41l-3.92,2.86
		c-0.92,0.67-1.27,1.89-0.85,2.95l2.37,5.93c0.29,0.73,0.88,1.28,1.56,1.46c11.64,3.02,35.25,7.9,47.1,9.44
		c0.93,0.12,1.87-0.42,2.35-1.35l2-3.86c0.18-0.35,0.28-0.75,0.28-1.15V353.02z M370.62,230.28
		C370.62,230.27,370.62,230.27,370.62,230.28c-1.6-1.77-3.2-3.53-4.79-5.28c-7.75-8.56-15.76-17.42-24.38-25.14
		c-0.9-0.8-1.09-2.13-0.47-3.16c8.83-14.58,15.43-30.82,19.66-48.34l-33.24,33.24l-6.29,6.51c-0.39,0.46-0.97,0.72-1.56,0.7
		c-6.37-0.14-13.25-0.15-20.61-0.09c14.83,8.89,29.85,21.05,44.41,32.83c16.33,13.22,32.1,25.98,46.98,33.9
		c7.02,6.04,12.49,9.68,17.17,12.32c0.91,0.51,1.28,1.64,0.83,2.59c-7.29,15.51-17.25,29.52-29.4,41.49
		c-4.68,1.35-9.72,2.04-15.16,2.04c-1.99,0-4.03-0.09-6.13-0.27c-22.79-1.95-42.52-17.79-59.93-31.77
		c-2.94-2.36-5.82-4.67-8.65-6.87c-1.21-5.52-3.97-10.64-8.08-14.75c-0.58-0.58-1.21-1.15-1.93-1.74c-0.63-0.76-1.43-1.35-2.36-1.72
		c-0.93-0.37-1.9-0.51-2.9-0.4c-2.21,0.24-4.07,1.75-4.94,3.79l-0.04,0.09c-0.33,0.8-0.68,1.59-1.05,2.35l-0.02,0.03l-0.03,0.06
		c-5.9,12.13-17.37,20.62-30.68,22.68l-0.34,0.05l-0.01,0c-1.96,0.28-3.99,0.43-5.99,0.43c-8.94,0-17.45-2.83-24.6-8.19
		c-2.97-2.22-5.62-4.85-7.89-7.76c-1.01-1.3-0.07-3.18,1.57-3.21c0.41-0.01,0.7-0.02,0.79-0.03c11.64-0.54,20.95-10.19,20.95-21.96
		v-3c0-1.55-0.59-2.96-1.55-4.02c-0.77-0.85-0.59-2.18,0.32-2.87c0.53-0.4,1.03-0.82,1.55-1.23c0.13-0.1,0.26-0.2,0.38-0.3
		c2.74-2.24,5.31-4.69,7.68-7.34c0.24-0.27,0.46-0.54,0.7-0.81c0.48-0.56,0.96-1.12,1.43-1.7c0.37-0.46,0.74-0.93,1.1-1.4
		c0.29-0.38,0.58-0.76,0.86-1.15c0.44-0.6,0.86-1.2,1.28-1.81c0.17-0.26,0.35-0.51,0.52-0.77c0.47-0.71,0.93-1.42,1.37-2.14
		c0.03-0.05,0.07-0.1,0.1-0.15l0.05-0.09c0.1-0.16,0.19-0.34,0.29-0.5c0.57-0.96,1.11-1.93,1.62-2.92c0.05-0.09,0.1-0.19,0.15-0.28
		l0.13-0.24c0.1-0.18,0.19-0.37,0.28-0.55c0.02-0.04,0.03-0.07,0.05-0.11c0.22-0.45,0.44-0.9,0.65-1.36
		c0.01-0.03,0.03-0.06,0.04-0.09c0.23-0.49,0.45-0.98,0.66-1.48l0.09-0.21c0.15-0.35,0.31-0.71,0.45-1.06c0-0.01,0-0.01,0.01-0.02
		c0.36-0.89,0.71-1.81,1.03-2.72c0.04-0.1,0.07-0.19,0.1-0.28c0,0,0,0,0-0.01c0,0,0,0,0,0c0,0,0,0,0,0
		c0.13-0.37,0.24-0.72,0.35-1.06c0.47-1.45,1.1-3.93,1.23-5.52c0.25-3.08-0.05-5.78-0.78-8.08c-1.46,0.01-2.95,0.02-4.43,0.02
		c0.94,2.13,1.37,4.79,1.26,7.93c-0.01,0.38-0.06,0.74-0.13,1.08c-0.3,1.36-0.87,3.11-1.29,4.34c-0.03,0.08-0.06,0.15-0.09,0.23
		c-0.3,0.87-0.62,1.73-0.97,2.58c-0.16,0.4-0.34,0.8-0.51,1.19c-0.2,0.47-0.41,0.93-0.62,1.39c-0.22,0.48-0.45,0.97-0.69,1.45
		c-0.12,0.25-0.26,0.5-0.39,0.75c-0.61,1.18-1.25,2.33-1.93,3.47c-0.02,0.03-0.03,0.06-0.05,0.09
		c-6.92,11.44-17.74,20.77-30.26,25.76h11.96c1.1,0,2,0.9,2,2v3c0,9.92-8.07,17.99-17.99,17.99c-4.59,0-8.77-1.74-11.96-4.59
		c5.72,18.37,22.89,31.75,43.12,31.75c2.35,0,4.66-0.18,6.93-0.53c0.01,0,0.01,0,0.02-0.01c14.6-2.25,27.26-11.7,33.69-24.92
		c0.01-0.02,0.02-0.04,0.03-0.06c0.41-0.85,0.79-1.71,1.15-2.59c0.02-0.06,0.05-0.12,0.08-0.18c0.41-1.02,1.58-1.52,2.6-1.11
		c0.41,0.16,0.73,0.45,0.94,0.8c0.76,0.61,1.42,1.19,2.01,1.78c5.54,5.54,8.26,13.2,7.47,21.01c0,0,0,0.01,0,0.01
		c-0.6,5.93-3.26,11.51-7.47,15.72c-4.19,4.19-9.53,6.76-15.44,7.43c-1,0.11-1.99,0.17-2.98,0.17c-6.86,0-13.41-2.69-18.32-7.6
		c-1.84-1.84-3.37-3.97-4.59-6.32c-2.01,0.25-4.05,0.38-6.12,0.38c-27.1,0-49.15-22.05-49.15-49.15v-3c0-1.1,0.9-2,2-2h0.08
		c0.01,0,0.01,0,0.02,0c4.1-0.01,8.18-0.59,12.17-1.64c-1.88-1.19-3.71-2.63-5.5-4.36c-0.8-0.77-0.82-2.03-0.05-2.83
		c0.77-0.8,2.03-0.82,2.83-0.05c0.22,0.21,0.44,0.41,0.67,0.62c0.7-5.67,2.88-12.24,6.27-18.86c-3.89,4.09-7.68,8.27-11.44,12.43
		c-14.39,15.9-29.25,32.33-48.46,41.81c8.62,20.33,21.57,38.32,37.95,52.94c0.32,0.16,0.59,0.4,0.79,0.7
		c4.5,3.96,9.24,7.68,14.23,11.1c24.81,17.03,53.9,26.03,84.11,26.03c3.2,0,6.39-0.12,9.56-0.32l-8.54-1.89
		c-1.06-0.23-1.95-0.9-2.52-1.81c-13.83-0.14-27.4-2.2-40.4-6.12c-1.87-0.57-1.09-3.38,0.81-2.92l3.63,0.88
		c0.84,0.2,1.71-0.17,2.18-0.91c1.32-2.11,2.92-3.41,4.58-3.78c-0.36-0.71-0.67-1.51-0.9-2.41c-0.26-0.01-0.53-0.03-0.79-0.09
		l-1.46-0.31c-2.76-0.63-4.39-3.88-4.29-8.41l-1.79-0.43c-0.01,0-0.01,0-0.02,0c-0.01,0-0.02-0.01-0.02-0.01l-11.6-2.82c0,0,0,0,0,0
		c0,0,0,0,0,0l-10.68-2.59c0,0,0,0-0.01,0c0,0,0,0-0.01,0l-9.64-2.34c0,0,0,0-0.01,0c0,0,0,0-0.01,0l-8.47-2.06
		c-1.17-0.28-2.16-1.01-2.78-2.03c-0.62-1.03-0.81-2.24-0.53-3.4c0.56-2.31,2.83-3.74,5.13-3.35c0.1,0,0.2,0.02,0.3,0.04
		c0,0,0.01,0,0.01,0l10.14,2.46c0,0,0,0,0,0c0,0,0,0,0,0l32.11,7.8c1.88-3.74,4.55-5.66,7.16-5.07l1.46,0.31
		c0.44,0.1,0.86,0.27,1.24,0.5c1.96-2,4.11-2.85,6.18-2.39l10.6,2.42c0.57,0.13,1.1,0.36,1.59,0.67l1.61-0.82
		c0.83-0.42,1.78-0.54,2.69-0.34l8.12,1.8c0.48,0.11,0.93,0.31,1.36,0.55l1.34-0.82c0.89-0.54,1.94-0.72,2.97-0.49l14.42,3.26
		c1.54-0.89,5.12-2.83,7.52-3.18l0.16-0.02l0.16,0c9.14,0.08,37.81,6.2,53.91,12.72c22.44-16.04,39.88-37.73,50.61-63.05
		C396.9,258.22,382.96,243.82,370.62,230.28z M232.48,323.86c-0.62-1.65-0.97-2.39-1.79-2.59c-0.01,0-0.01-0.01-0.02-0.01
		l-7.18-1.75c0.06,0.16,0.12,0.31,0.18,0.46c0.68,1.82,1.17,2.95,2.66,3.31c0,0,0,0,0,0l6.56,1.59
		C232.73,324.53,232.6,324.18,232.48,323.86z M220.85,321.03c-0.62-1.65-0.97-2.39-1.79-2.59c0,0,0,0-0.01,0l-6.25-1.52
		c0.06,0.16,0.12,0.31,0.18,0.46c0.68,1.82,1.17,2.95,2.66,3.31l5.62,1.37C221.11,321.71,220.97,321.36,220.85,321.03z
		 M210.17,318.43c-0.62-1.65-0.97-2.39-1.79-2.59c0,0,0,0,0,0l-5.52-1.34c0.06,0.13,0.12,0.26,0.17,0.39
		c0.84,1.9,1.43,3.08,2.97,3.46l4.58,1.11C210.43,319.11,210.29,318.76,210.17,318.43z M200.28,316.1c-0.68-1.54-1.14-2.5-2.05-2.72
		c-0.12-0.03-0.23-0.04-0.35-0.04c-0.68,0-1.3,0.46-1.46,1.15c-0.09,0.39-0.03,0.79,0.18,1.13c0.21,0.34,0.54,0.58,0.93,0.68
		l3.2,0.78C200.56,316.74,200.42,316.42,200.28,316.1z M216.02,197.24c-0.63,0.54-1.26,1.08-1.88,1.63
		c-3.24,3.62-6.32,7.91-8.99,12.6c-4.67,8.22-7.42,16.5-7.63,22.92c1.15,0.76,2.32,1.41,3.49,1.94c0.03,0.01,0.06,0.03,0.09,0.04
		c0.59-0.22,1.18-0.46,1.77-0.71c0.08-0.04,0.17-0.07,0.25-0.1c9.54-4.06,18.12-10.87,24.37-19.34c0.06-0.09,0.13-0.17,0.19-0.25
		c0.36-0.49,0.7-0.99,1.04-1.49c0.18-0.27,0.36-0.54,0.54-0.81c0.3-0.45,0.59-0.9,0.87-1.36c0.41-0.67,0.81-1.34,1.19-2.02
		c-3.08,2.66-6.65,3.77-9.78,2.63C216.67,211.14,214.49,204.48,216.02,197.24z M262.98,299.72c0.01,0.14,0.04,0.29,0.06,0.43
		c0.04,0.33,0.1,0.66,0.17,0.98c0.03,0.15,0.06,0.3,0.1,0.45c0.09,0.36,0.19,0.72,0.31,1.07c0.03,0.09,0.06,0.19,0.09,0.28
		c0.01,0.02,0.02,0.04,0.03,0.06c4.41-0.79,8.4-2.87,11.59-6.07c3.21-3.21,5.35-7.37,6.12-11.84c-0.02-0.01-0.03-0.01-0.05-0.02
		c-0.06-0.02-0.12-0.03-0.18-0.05c-0.38-0.12-0.76-0.23-1.14-0.32c-0.14-0.03-0.28-0.06-0.42-0.09c-0.33-0.07-0.65-0.12-0.98-0.16
		c-0.14-0.02-0.27-0.04-0.41-0.05c-0.45-0.05-0.91-0.08-1.37-0.08c-7.71,0-13.99,6.27-13.99,13.99
		C262.9,298.79,262.93,299.26,262.98,299.72z M274.74,217.92c-6.52,2.37-14.69-3.63-18.25-13.41c-0.23-0.63-0.43-1.25-0.6-1.88
		c-1,6.15-0.65,13.6,1.21,20.95c1.56,6.17,3.99,11.71,7.04,16.1h2.16l19.47-0.01c2.58-7.03,2.67-16.83,0.21-26.57
		c-1.11-4.37-2.66-8.42-4.52-11.94C282.65,209,280.08,215.98,274.74,217.92z M257.02,189.29c-1.62,0.02-3.26,0.04-4.91,0.06
		c-5.1,8.45-6.41,21.88-2.78,36.2c0.76,3,1.69,5.86,2.8,8.56c0.36,0.88,0.06,1.94-0.76,2.43c-1.89,1.14-3.11,3.28-2.89,5.69
		c0.28,3.14,3.07,5.46,6.22,5.46h8.05l0,0l0.35,0h0.47l0,0h22.85c0.2,0,0.4-0.01,0.61-0.01l0.09,0c0.05,0,0.1,0,0.15,0
		c5.21-0.15,15.03-1.77,19.65-5.5c1.03-0.83,1.82-1.96,2.14-3.24c0.49-1.96,0.02-3.94-1.25-5.42c-1.14-1.33-2.8-2.1-4.56-2.1
		c-1.43,0-2.82,0.51-3.9,1.45c-0.18,0.14-0.55,0.33-1.06,0.54c-1.38,0.56-2.84-0.54-2.73-2.03c0.51-6.37-0.1-13.38-1.84-20.23
		c-2.28-9-6.17-16.75-10.98-22.24c-1.77,0.03-3.57,0.05-5.38,0.08c-0.05,0-0.11,0-0.16,0c5.53,4.93,10.17,13.35,12.64,23.13
		c2.48,9.78,2.52,19.72,0.2,27.33c4.84-0.57,10.21-2.09,11.91-3.55c0.84-0.72,2.1-0.62,2.82,0.22c0.72,0.84,0.62,2.1-0.22,2.82
		c-3.28,2.81-12.05,4.59-17.41,4.74c-0.01,0-0.02,0-0.03,0l-0.21,0c-0.16,0-0.32,0.01-0.48,0.01h-21.14l-2.18,0h0c0,0-0.01,0-0.01,0
		h-8.64c-1.1,0-2-0.9-2-2s0.9-2,2-2h4.93c-2.64-4.35-4.75-9.5-6.17-15.12C249.66,210.53,251.26,196.46,257.02,189.29z M365.1,151.07
		c7.38,11.95,16.4,35.59,0.38,66.1c0.9,0.99,1.81,1.99,2.7,2.98c20.01-36.11,5.84-63.19-1.93-73.91
		C365.89,147.85,365.5,149.46,365.1,151.07z M207.29,172.03c-0.85,2.25-2.88,4.28-6.04,6.02c-3.88,2.13-8.2,5.03-11.42,7.3
		c7.32,0.05,21.24,0.12,41.59,0.12c15.81,0,30.63-0.23,43.71-0.44c16.36-0.26,29.27-0.49,41.91-0.24l3.65-3.6
		c-7.41,0-25.95,0.05-31.73,0.13c-1.22,0.02-2.44-0.2-3.57-0.66c-0.05-0.02-0.11-0.04-0.16-0.07c-2.11-0.86-1.4-4.01,0.87-3.85
		c1.81,0.13,3.62,0.26,5.44,0.41l0.04,0c2.31,0.17,4.53-1.1,5.43-3.23c1.56-3.69-0.97-7.45-4.59-7.74
		c-1.68-0.14-3.37-0.26-5.05-0.38c-2.57-0.18-4.31-2.7-3.56-5.16c10.6-35.05,29.89-41.8,41.71-41.8c8.88,0,19.72,2.03,29.29,13.93
		c0.7,0.52,2.11,2.45,4.53,6.58c0.05,0.09,0.1,0.18,0.15,0.26c0.07,0.12,0.13,0.23,0.2,0.35c0.43,0.74,1.34,1.05,2.1,0.68
		c0.01,0,0.02-0.01,0.03-0.01c0.81-0.38,1.19-1.33,0.83-2.14c-10.32-21.53-26.7-29.89-39.29-33.06
		c-15.96-4.01-30.48-0.65-34.83,3.32c-7.82,7.14-16.4,18.32-26.17,51.46c-0.26,0.87-1.05,1.44-1.92,1.44
		c-0.19,0-0.38-0.03-0.57-0.08c-0.93-0.27-1.51-1.16-1.43-2.09c0,0.01,0,0.01-0.01,0.02c1.59-12.48,11.39-44.77,16.35-53.83
		c1.22-2.23,5.29-5.33,7.61-5.9c3.01-0.73,22.07-3.12,36.11,0.61c0.01,0,0.03,0,0.04,0.01c-6.37-4.94-14.57-7.65-17.37-8.11
		c-5.46-0.88-39.64-0.35-48.01,1.93c-4.53,1.23-18.69,13.2-21.9,20.18c-3.17,6.88-10.1,29.81-13.1,47.43
		c-0.17,0.97-1.01,1.66-1.97,1.66c-0.11,0-0.22-0.01-0.34-0.03c-1.09-0.19-1.82-1.22-1.64-2.31c1.29-7.55,3.3-16.09,5.43-23.97
		c-5.24,9.24-9.25,20.31-11.94,33.08C207.48,171.4,207.4,171.74,207.29,172.03z M172.92,31.55l-5.39-0.04l30.84,114.36l7.78,7.78
		L172.92,31.55z M47.48,25.63c0.01-0.01,0.02-0.01,0.03-0.02c0.15-0.1,0.31-0.18,0.48-0.24c0.03-0.01,0.07-0.02,0.1-0.03
		c0.08-0.02,0.15-0.05,0.23-0.06c0.08-0.01,0.15-0.01,0.23-0.01c0.02,0,0.05-0.01,0.07-0.01h9.86l0.76-0.84v-2.8
		c0-0.54,0.21-1.05,0.6-1.42c0.38-0.38,0.9-0.57,1.43-0.58l56.3,0.84l-0.15-0.02h41.18c0.87,0,1.65,0.57,1.91,1.4l0.76,2.42
		c0.25,0.81-0.03,1.69-0.71,2.2l-9.66,7.27c-1.14,0.86-2.79,0.28-3.14-1.11l-2.3-9.06c-0.2-0.66-0.56-1.05-1.32-1.05
		c-0.63,0-1.13,0.63-0.95,1.51l0,0l3.48,14.55l1.49,0.49l15.58-11.19c0.02-0.01,0.04-0.02,0.05-0.03c0.13-0.09,0.28-0.16,0.44-0.22
		c0.03-0.01,0.06-0.03,0.1-0.04c0.02-0.01,0.04-0.02,0.06-0.02c0.16-0.04,0.32-0.06,0.48-0.06c0.01,0,0.03-0.01,0.04-0.01
		c0,0,0.01,0,0.01,0l8.56,0.06l0.56-0.72l-5.52-19.17l-2.7-2.55L44.35,4.01L28.61,14.65l2.68,21.42l0.74,0.34L47.48,25.63z
		 M79.18,353.06c1.37-0.04,2.72-0.01,4.04,0.1L38.5,40.29c-0.21-1.46-1.89-2.19-3.1-1.35c-0.61,0.43-0.94,1.17-0.83,1.91
		L79.18,353.06z M371.27,356.51l-45.51-10.1c-0.78-0.17-1.44,0.6-1.15,1.35l0.81,2.03c0.24,0.59,0.74,1.04,1.36,1.2
		c11.22,2.81,31.08,6.92,42.77,8.63c0.85,0.12,1.67-0.3,2.06-1.06l0.31-0.6C372.25,357.36,371.91,356.65,371.27,356.51z
		 M255.56,337.57l4.97,1.13c0.78,0.18,1.61-0.12,2.07-0.78c0.4-0.57,0.77-1.18,1-1.66c0.66-1.34,1.22-2.93,1.6-4.58
		c0.04-0.17,0.07-0.34,0.11-0.51c0.15-0.73-0.31-1.45-1.03-1.62l-5.53-1.37c-0.77-0.19-1.55,0.29-1.72,1.06l-0.01,0.04
		c-0.53,2.32-1.32,4.43-2.33,6.22C254.21,336.34,254.64,337.37,255.56,337.57z M177.54,242.77c-9.24,9.5-19.14,18.36-30.64,24.95
		c-0.91,0.52-1.28,1.64-0.84,2.59c3.28,6.99,7.12,13.67,11.44,20.01c2.73,0.75,5.35,1.05,7.7,1.08
		c10.44,0.12,20.65-4.64,26.81-10.31c-8.96-9.52-14.47-22.32-14.47-36.4V242.77z M54.08,21.87c0.94,0,1.73-0.66,1.95-1.57
		c0.23-0.98,0.7-1.86,1.43-2.51c1.05-0.94,2.35-1.54,3.79-1.55l0.04,0l0.04,0l15.1,0.23l0.03-0.01l80.53,1.26c0.01,0,0.02,0,0.03,0
		c1.09,0,1.98-0.88,2-1.97c0.02-1.1-0.86-2.01-1.97-2.03l-108.4-1.69c-0.11,0-0.21,0.01-0.31,0.03l-0.96-0.02
		c-0.9-0.02-1.65-0.69-1.77-1.59c-0.17-1.34-1.7-2.03-2.82-1.27l-9.54,6.44c-0.62,0.42-0.96,1.16-0.87,1.91l1.26,10.05
		c0.19,1.49,1.89,2.25,3.13,1.39l8.76-6.11c0.91-0.63,1.99-0.97,3.1-0.97H54.08z M214.06,173.3c10.24-0.95,38.31-2.83,77.75,0.36
		c0.05,0,0.11,0.01,0.16,0.01c1.03,0,1.91-0.79,1.99-1.84c0.09-1.1-0.73-2.07-1.83-2.15c-39.75-3.21-68.1-1.32-78.44-0.35
		c-1.1,0.1-1.91,1.08-1.81,2.18C211.99,172.59,212.95,173.4,214.06,173.3z M300.55,339.9c0.16-0.73-0.3-1.46-1.03-1.64l-7.91-1.95
		c-0.77-0.19-1.54,0.29-1.72,1.06l0,0.01c-0.88,3.88-2.22,7.33-3.9,10.13c-0.49,0.82-0.05,1.87,0.88,2.07l7.06,1.57
		c0.7,0.15,1.43-0.06,1.9-0.6c0.19-0.21,0.39-0.46,0.61-0.76c1.72-2.33,3.15-5.75,4.04-9.63
		C300.51,340.08,300.53,339.99,300.55,339.9z"/>
</g>
</svg>
