<?xml version="1.0" encoding="utf-8"?>
<!-- Generator: Adobe Illustrator 24.2.3, SVG Export Plug-In . SVG Version: 6.00 Build 0)  -->
<svg version="1.1" id="layer" xmlns="http://www.w3.org/2000/svg" xmlns:xlink="http://www.w3.org/1999/xlink" x="0px" y="0px"
	 viewBox="0 0 420 420" style="enable-background:new 0 0 420 420;" xml:space="preserve">
<style type="text/css">
	.st0{fill:#EBEFF0;}
	.st1{fill:#0D1824;}
</style>
<g>
	<path class="st0" d="M373.44,187.46l1.61-1.34c19.28-16.06,34.43-36.8,43.83-59.98c0.3-0.75-0.03-1.59-0.77-1.93
		c-15.49-7.09-27.85-18.5-41.65-33.45l-0.9-0.98l0,0c-1.53-1.67-3.07-3.35-4.61-5.05l-0.49-0.54l0.36-0.63
		c22.81-39.63,6.31-69.39-1.85-80.34c-0.95-1.28-2.41-2.08-4-2.19c-1.61-0.12-3.16,0.46-4.3,1.6l-38.4,38.4l-0.66-0.36
		c-1.35-0.73-2.82-1.48-4.64-2.34l-0.77-0.36v-0.02c-10.09-4.69-20.57-7.35-31.99-8.13L283,29.74l6.61-24.67
		c0.12-0.47,0.02-0.97-0.29-1.34c-0.3-0.37-0.78-0.58-1.26-0.54c-3.97,0.26-12.16,3.29-14.74,12.91c-0.44,1.65-0.66,3.32-0.65,4.97
		l0.01,2.43l-12.13-12.2c-0.34-0.34-0.83-0.5-1.3-0.42c-0.48,0.08-0.89,0.38-1.1,0.82c-1.57,3.17-3.07,10.96,2.46,17.73l1.08,1.32
		l-1.67,0.3c-9.59,1.71-18.5,4.86-27.24,9.62l-0.66,0.36L193.7,2.62c-1.13-1.13-2.7-1.72-4.29-1.6s-3.05,0.92-4,2.19
		c-8.15,10.95-24.65,40.7-1.84,80.34l0.36,0.63l-0.49,0.54c-12.09,13.34-23.18,25.08-36.4,33.58l-0.41,0.26l-0.46-0.16
		c-5.45-1.88-9.73-3.83-13.09-5.96l-0.9-0.57l0.62-0.86c4.27-5.9,8.81-16.19,6.15-31.7l-0.04-0.21l0.05-0.21
		c1.85-7.34,1.87-17.12-3.6-22.59c-5.78-5.77-12.92-5.14-18.5-3.94l-1.41,0.3l4.89-33.75c0.19-1.14-0.16-2.33-0.99-3.45
		c-1.61-2.17-4.81-3.85-8.15-4.29c-4.86-0.64-10.47,1.01-11.07,4.79l-2.6,17.95l-1.3-0.81c-4.4-2.75-10.55-3.31-16.03-1.48
		c-6.4,2.14-10.4,6.87-11.26,13.32l-0.1,0.73l-0.72,0.13c-3.41,0.6-6.38,0.99-8.99,1.34c-9.81,1.31-14.74,1.97-19.53,9.97
		c-2.44,4.07-2.9,8.98-1.42,15.02l0.04,0.16l-0.01,0.17c-0.6,6.78-2.29,13.47-3.91,19.95c-3.27,12.99-6.35,25.26,2.82,30.61
		c2.13,1.24,4.4,1.87,6.74,1.87c2.68,0,5.4-0.85,7.88-2.46c0.64-0.42,1.27-0.89,1.87-1.4l0.91-0.77l0.61,1.03
		c4.18,7.08,15.87,14.96,25.96,14.96c0.08,0,0.15,0,0.23-0.01l1.43-0.04l-3.47,23.93l-0.13,0.19
		c-15.99,23.77-48.32,32.91-53.61,33.6c-0.54,0.07-0.92,0.55-0.86,1.09c0.03,0.28,0.7,6.82,5.77,10.99c0.8,0.66,1.72,1.24,2.72,1.73
		l0.6,0.29l-0.04,0.66c-0.25,4.67,0.54,10.13,2.23,15.38l0.15,0.46l-0.27,0.4c-1.98,2.92-4.63,5.82-6.74,7.39
		c-0.23,0.17-0.38,0.43-0.4,0.72s0.07,0.57,0.27,0.78c3.35,3.52,8.95,5.71,14.61,5.71l0.48-0.01l0.46,0.37
		c5.47,6.67,12.46,11.36,20.78,13.95l0.9,0.28l-0.22,0.91c-0.79,3.23-1.64,5.98-2.27,7.34c-0.13,0.28-0.12,0.6,0.01,0.87
		c0.14,0.27,0.39,0.47,0.69,0.53c2.96,0.62,6.34,0.61,9.3-0.04l1.63-0.36l-18.86,66.4H25.31c-0.55,0-1,0.45-1,1s0.45,1,1,1h18.68
		L18.92,420H420V202.22c-9.35-4.36-26.63-10.84-44.5-14.36L373.44,187.46z M102.29,150.55c5.11,18.82,13.99,35.29,20.75,46.06
		c-10.5-9.05-20.44-23.14-22.56-33.54L102.29,150.55z M121.09,380.55l-13.58-47.8h27.16L121.09,380.55z M185.75,326.25l-27.81-97.91
		c14.7,4.85,35.63,7.22,52.4,7.22c2.94,0,5.74-0.08,8.36-0.23C205.43,263.06,187.7,301.95,185.75,326.25z"/>
	<path class="st1" d="M94.06,362.44H72.98c-0.89,0-1.68-0.59-1.92-1.45l-3.36-11.83c-0.27-0.96,0.45-1.91,1.44-1.91h21.75
		c0.89,0,1.68,0.59,1.92,1.45l3.18,11.19C96.35,361.17,95.39,362.44,94.06,362.44z M172.46,390.48l15.48,14.13l7.75-14.02
		l-15.75-14.02L172.46,390.48z M187.99,359.89l-3.18-11.19c-0.24-0.86-1.03-1.45-1.92-1.45h-21.75c-1,0-1.71,0.95-1.44,1.91
		l3.36,11.83c0.24,0.86,1.03,1.45,1.92,1.45h21.08C187.39,362.44,188.35,361.17,187.99,359.89z M95.87,398.25
		c0.86,0.73,1.92,1.31,3.18,1.46c4.06,0.49,5.92-1.75,5.75-4.14c-0.17-2.38-1.19-5.26-4.63-8.13c-3.44-2.87-7.29-5.68-8.98-7.15
		c-1.27-1.1-2.19-1.94-2.57-2.29l-0.05-0.18c0,0-0.02,0.03-0.05,0.09c-0.06-0.06-0.1-0.09-0.1-0.09l0.05,0.18
		c-0.18,0.35-0.63,1.19-1.28,2.29c-0.87,1.47-3.15,4.28-4.98,7.15s-1.24,5.75-0.07,8.13s4.29,4.63,8.07,4.14
		c1.19-0.15,1.92-0.74,2.37-1.48c0.5,3.37-0.83,5.13-0.83,5.13h7.6C97.54,401.82,96.43,399.62,95.87,398.25z M285.17,176.35
		c0.74,5.34-0.44,10.78-3.32,15.31c-2.88,4.54-7.3,7.92-12.44,9.52c-2.24,0.7-4.55,1.05-6.84,1.05c-4.28,0-8.51-1.21-12.2-3.55
		c-2.65-1.68-4.94-3.93-6.69-6.54c-4.16,1.13-8.52,1.72-12.99,1.72c-27.1,0-49.15-22.05-49.15-49.15v-3c0-1.1,0.9-2,2-2h0.08
		c0.01,0,0.02,0,0.02,0c3.51-0.01,6.94-0.42,10.25-1.18c-4.46-1.9-7.49-4.48-7.67-4.63c-0.84-0.72-0.93-1.98-0.21-2.82
		c0.72-0.84,1.98-0.93,2.82-0.21c0.03,0.03,1.12,0.94,2.89,2.03c-1.84-7.22-0.95-17.17,2.64-27.04c0.92-2.53,2-5,3.2-7.33
		c0.22-0.42,0.57-0.75,1.01-0.93l27.63-11.56c0.99-0.41,2.12,0.02,2.58,0.98c2.96,6.21,3.05,15.98,0.23,26.13
		c-0.08,0.28-0.18,0.56-0.29,0.84c-0.28,0.65-0.58,1.28-0.88,1.91c-0.01,0.03-0.02,0.06-0.03,0.09c-0.03,0.07-0.07,0.13-0.1,0.2
		c0,0.01-0.01,0.02-0.01,0.03c-5.3,10.79-14.05,18.98-24.59,23.51h12.43c1.1,0,2,0.9,2,2v3c0,9.92-8.07,17.99-17.99,17.99
		c-4.59,0-8.77-1.74-11.96-4.59c5.72,18.37,22.89,31.75,43.12,31.75c4.55,0,8.97-0.67,13.16-1.94c0.04-0.02,0.08-0.04,0.12-0.05
		c8.96-2.75,16.67-8.12,22.29-15.32c0.03-0.03,0.05-0.07,0.08-0.1c0.97-1.24,1.87-2.55,2.7-3.9c0.07-0.11,0.14-0.22,0.21-0.34
		c0.79-1.3,1.51-2.64,2.17-4.02c0.08-0.17,0.17-0.35,0.25-0.53c0.3-0.65,0.59-1.32,0.87-1.99c0.01-0.03,0.03-0.07,0.04-0.1
		c0.41-1.02,1.58-1.52,2.6-1.11c0.23,0.09,0.43,0.23,0.61,0.39C280.89,164.49,284.3,170.11,285.17,176.35z M195.11,119.53
		c2.48-6.35,7.39-10.42,12.2-9.57c5.61,0.99,9.05,8.3,8.01,16.63c3.57-3.53,6.55-7.65,8.78-12.18c0,0,0-0.01,0.01-0.01
		c0.32-0.66,0.63-1.32,0.92-2c0.04-0.1,0.08-0.21,0.11-0.33c2.31-8.29,2.55-16.17,0.73-21.57L200.78,101
		c-0.99,1.99-1.89,4.08-2.67,6.22C196.6,111.38,195.6,115.58,195.11,119.53z M281.35,178.36c-0.07-0.01-0.14-0.01-0.21-0.02
		c-0.23-0.02-0.47-0.03-0.7-0.03c-0.12,0-0.24-0.01-0.36-0.01c-0.44,0-0.88,0.03-1.31,0.08c-0.1,0.01-0.21,0.03-0.31,0.04
		c-0.44,0.06-0.88,0.14-1.3,0.25c-0.05,0.01-0.09,0.03-0.14,0.04c-0.4,0.11-0.79,0.24-1.18,0.38c-0.09,0.03-0.18,0.07-0.27,0.1
		c-0.4,0.16-0.79,0.34-1.18,0.55c-0.09,0.05-0.17,0.1-0.26,0.15c-0.39,0.22-0.77,0.45-1.14,0.71c-0.02,0.02-0.04,0.03-0.06,0.05
		c-0.35,0.26-0.69,0.54-1.02,0.83c-0.07,0.06-0.14,0.12-0.2,0.18c-0.32,0.31-0.63,0.63-0.92,0.97c-0.06,0.07-0.11,0.14-0.17,0.21
		c-0.3,0.36-0.58,0.74-0.84,1.14c-0.16,0.26-0.32,0.52-0.46,0.79c-0.05,0.09-0.09,0.18-0.13,0.26c-0.09,0.18-0.18,0.37-0.27,0.55
		c-0.05,0.11-0.09,0.21-0.13,0.32c-0.07,0.17-0.14,0.34-0.2,0.52c-0.04,0.11-0.08,0.23-0.11,0.35c-0.05,0.17-0.11,0.34-0.15,0.51
		c-0.03,0.12-0.06,0.24-0.09,0.36c-0.04,0.17-0.08,0.34-0.11,0.51c-0.02,0.12-0.05,0.25-0.07,0.37c-0.03,0.17-0.05,0.34-0.07,0.51
		c-0.02,0.12-0.03,0.25-0.04,0.37c-0.02,0.18-0.03,0.35-0.04,0.53c-0.01,0.12-0.01,0.24-0.02,0.36c0,0.18,0,0.37,0,0.55
		c0,0.11,0,0.22,0.01,0.34c0.01,0.21,0.03,0.42,0.05,0.62c0.01,0.09,0.01,0.17,0.02,0.26c0.04,0.29,0.08,0.58,0.14,0.87
		c0.01,0.07,0.03,0.13,0.05,0.2c0.05,0.22,0.1,0.44,0.16,0.66c0.03,0.11,0.07,0.22,0.1,0.33c0.05,0.17,0.1,0.35,0.16,0.52
		c0.04,0.12,0.09,0.24,0.14,0.36c0.06,0.16,0.12,0.32,0.19,0.47c0.05,0.12,0.11,0.24,0.17,0.36c0.07,0.15,0.14,0.3,0.22,0.45
		c0.06,0.12,0.13,0.24,0.2,0.36c0.04,0.07,0.09,0.15,0.13,0.22c3.64-1.46,6.75-4.03,8.86-7.36
		C280.58,186.19,281.58,182.28,281.35,178.36z M79.96,197.86c4.73,3.18,10.84,4.73,16.09,3.57c0.56-0.12,1.04-0.48,1.32-0.98
		s0.33-1.1,0.14-1.64c-0.94-2.67-1.52-7.03-1.39-10.73c1.19-0.82,2.29-1.7,3.28-2.63c1.05-0.98,1.3-2.56,0.54-3.78
		c-3.13-5.07-5.52-10.18-6.8-14.87c-0.36-1.32-1.35-2.38-2.67-2.77c-0.43-0.13-0.9-0.23-1.39-0.31c-0.56-0.09-1.12-0.13-1.66-0.13
		h-0.03c-1.26,0-2.43,0.64-3.15,1.67c-6.49,9.26-14.94,16.28-23.28,21.52c-1.33,0.83-1.22,2.79,0.19,3.49
		c4.84,2.42,9.76,3.55,14.49,3.71C76.84,195.44,78.32,196.75,79.96,197.86z M300.73,138.35c0.41,1.03-0.09,2.19-1.12,2.6
		c-5.97,2.38-18.24,2.77-30.75,2.77c-3.16,0-6.33-0.03-9.42-0.05c-2.87-0.02-5.65-0.04-8.25-0.04c-1.1,0-2-0.9-2-2s0.9-2,2-2
		c2.61,0,5.4,0.02,8.28,0.04c0.57,0,1.14,0.01,1.71,0.01c-4.34-4.92-8.17-11.54-10.84-18.87c-4.62-12.71-5.13-25.43-1.32-33.2
		c0.41-0.83,1.33-1.27,2.23-1.07l25.38,5.64c0.48,0.11,0.91,0.39,1.19,0.79c3.08,4.32,5.77,9.51,7.77,15.01
		c4.23,11.62,4.98,23.33,2.18,31.14c4.36-0.37,8.01-0.96,10.34-1.9C299.15,136.82,300.32,137.32,300.73,138.35z M281.84,109.36
		c-1.78-4.9-4.14-9.53-6.83-13.43l-23-5.12c-2.59,6.89-1.81,17.88,2.1,28.64c0.19,0.53,0.39,1.06,0.6,1.58
		c0.65-4.94,3.03-8.85,6.82-10.23c6.52-2.37,14.69,3.63,18.25,13.41c2.02,5.55,2.11,11.11,0.62,15.32c0.99-0.03,1.96-0.08,2.91-0.12
		C286.59,132.77,286.05,120.91,281.84,109.36z M408.32,130.34c-8.13,17.29-19.57,32.72-33.66,45.53
		c-7.72,3.37-16.17,5.32-25.27,5.33c-0.9,0-1.8-0.02-2.71-0.06c-19.43-0.82-32.59-5.34-45.31-9.72c-5.12-1.76-10.07-3.46-15.35-4.93
		c-1.9-3.43-4.53-6.45-7.74-8.77c-0.48-0.41-1.02-0.73-1.59-0.96c-1.13-0.45-2.34-0.56-3.56-0.3c-1.92,0.41-3.48,1.81-4.25,3.61
		l-0.04,0.1c-0.23,0.56-0.49,1.15-0.79,1.81c-0.07,0.16-0.15,0.32-0.23,0.48c-0.6,1.27-1.27,2.5-1.98,3.67l-0.18,0.3
		c-0.77,1.25-1.6,2.44-2.47,3.56l-0.03,0.04l-0.04,0.05c-5.18,6.63-12.2,11.46-20.31,13.95c-0.12,0.04-0.22,0.07-0.31,0.11
		c-3.82,1.13-7.78,1.7-11.79,1.7c-8.94,0-17.45-2.83-24.6-8.19c-2.96-2.22-5.62-4.84-7.88-7.75c-1.02-1.31-0.09-3.22,1.57-3.23l0,0
		c12.02-0.14,21.73-9.93,21.73-21.98v-3c0-1.88-0.87-3.56-2.22-4.66c-0.96-0.78-1.01-2.2-0.09-3.03c4.94-4.48,9.04-9.91,12.05-16.03
		l0,0l0.02-0.04c0.05-0.1,0.08-0.16,0.11-0.23c0.05-0.1,0.09-0.19,0.12-0.27c0.35-0.73,0.62-1.32,0.87-1.9
		c0.19-0.44,0.35-0.9,0.48-1.36c3.12-11.2,2.95-21.75-0.47-28.91c-0.99-2.07-3.11-3.42-5.42-3.42c-0.8,0-1.57,0.16-2.31,0.46
		l-27.66,11.6c-1.31,0.55-2.38,1.54-3.03,2.81c-1.27,2.47-2.41,5.09-3.39,7.78c-2.54,6.97-3.84,14.02-3.82,20.35
		c0,0.85-0.51,1.61-1.31,1.9c-0.95,0.35-1.81,0.94-2.49,1.72c-1.05,1.21-1.56,2.76-1.44,4.36c0.03,0.43,0.11,0.85,0.23,1.26
		c0.27,0.9-0.18,1.88-1.01,2.31c-1.91,1.01-3.21,3.01-3.21,5.31v2.14c0,9.59,2.51,18.66,6.91,26.54c-3.41,0.74-6.78,0.85-10.09,0.32
		c-11.65-11.73-21.23-25.37-28.3-40.41c-0.44-0.95-0.07-2.07,0.84-2.59c17.46-10,31.24-25.23,44.61-40.01
		c11.64-7.32,24.31-13.39,39.32-15.95c0.61-0.1,1.21,0.17,1.53,0.69l6.22,10.03l12.71-11.87c0.29-0.27,0.67-0.41,1.08-0.4
		c42.9,1.69,74.71,18,102.78,32.38c15,7.69,28.64,14.67,42.11,18.48c3.87,2.9,7.21,5.01,10.22,6.71
		C408.4,128.27,408.76,129.4,408.32,130.34z M304.5,137.03c-0.88-2.39-3.11-3.94-5.64-3.94c-0.76,0-1.51,0.14-2.23,0.43
		c-0.21,0.08-0.45,0.17-0.74,0.26c-1.35,0.42-2.69-0.66-2.59-2.08c0.57-7.53-0.78-16.37-3.95-25.08
		c-2.12-5.83-4.98-11.35-8.27-15.97c-0.86-1.21-2.13-2.05-3.58-2.37l-25.37-5.64c-0.43-0.1-0.87-0.14-1.3-0.14l0,0
		c-2.28,0-4.39,1.32-5.39,3.36c-4.33,8.85-3.9,22.43,1.16,36.33c1.34,3.69,2.99,7.25,4.85,10.55c0.69,1.21,0.01,2.77-1.36,3.01
		c-0.45,0.08-0.76,0.18-1.03,0.28c-2.49,0.95-4.18,3.52-3.8,6.41c0.39,3.02,3.11,5.19,6.15,5.2c2.5,0,5.17,0.02,7.92,0.04h0.09h0.12
		c3.05,0.02,6.2,0.05,9.33,0.05c12.55,0,25.07-0.36,31.89-2.93C303.82,143.64,305.63,140.11,304.5,137.03z M410.13,196.19
		c-0.07,0.11-0.23,0.38-0.4,0.65c3.98,1.53,7.46,3,10.27,4.29v5.51c-8.92-4.38-29.02-12.21-49.49-15.63
		c-1.41,1.08-2.84,2.13-4.3,3.16c2.54,0.51,5.73,1.15,5.82,1.16c4.94,0.9,9.76,2.03,14.34,3.27c2.95,0.8,3.92,4.46,1.81,6.66
		c-7.24,7.54-15.28,14.38-24.03,20.38c-0.84,0.58-1.7,1.15-2.55,1.71c-1.29,0.84-3.03-0.05-3.09-1.59c-0.06-1.42-0.44-2.18-0.91-2.9
		c-0.91-1.39-2.39-2.4-4.17-2.65c-0.28-0.04-0.57-0.06-0.85-0.06c-2.96,0-5.52,2.21-5.94,5.15c-0.26,1.84-0.6,3.98-1.01,6.38
		c-0.31,1.81-2.69,2.29-3.67,0.74c-2.09-3.31-4.25-6.62-6.34-9.72c-0.52-0.77-1.5-1.06-2.36-0.72c-0.01,0-0.03,0.01-0.04,0.01
		c-1.18,0.46-1.62,1.89-0.91,2.94c0.37,0.55,0.75,1.11,1.12,1.67c0.01,0.01,0.01,0.02,0.02,0.02c1.89,2.83,3.8,5.79,5.65,8.73
		c0.01,0.02,0.02,0.04,0.04,0.06c0.36,0.57,0.71,1.14,1.06,1.71c0.01,0.02,0.02,0.03,0.03,0.05c1.44,2.34,2.82,4.63,4.09,6.8
		c0.01,0.02,0.02,0.03,0.03,0.05c0.3,0.52,0.59,1.02,0.88,1.52c0.02,0.03,0.04,0.07,0.06,0.1c0.48,0.85,0.95,1.67,1.38,2.46
		c0.92-4.66,1.78-9.25,2.51-13.41l0,0c0.29-1.63,0.55-3.2,0.79-4.68c0-0.01,0-0.03,0.01-0.04c0.11-0.65,0.21-1.29,0.3-1.9
		c0.02-0.11,0.04-0.23,0.05-0.34c0.1-0.66,0.2-1.29,0.28-1.9c0.02-0.13,0.05-0.26,0.09-0.38c0.01-0.04,0.03-0.08,0.05-0.11
		c0.03-0.08,0.07-0.16,0.11-0.23c0.02-0.04,0.05-0.08,0.08-0.12c0.04-0.06,0.09-0.12,0.13-0.18c0.03-0.04,0.07-0.07,0.11-0.11
		c0.05-0.05,0.1-0.1,0.16-0.14c0.04-0.03,0.08-0.06,0.13-0.09c0.06-0.04,0.12-0.08,0.18-0.11c0.05-0.02,0.09-0.05,0.14-0.07
		c0.07-0.03,0.13-0.05,0.2-0.07c0.05-0.02,0.1-0.03,0.15-0.04c0.07-0.02,0.14-0.03,0.22-0.03c0.05-0.01,0.11-0.01,0.16-0.01
		c0.02,0,0.04-0.01,0.06-0.01c0.09,0,0.19,0.01,0.29,0.02c1.09,0.16,1.85,1.17,1.7,2.26c-0.06,0.45-0.13,0.92-0.21,1.41
		c-0.05,0.3-0.09,0.61-0.14,0.92c-0.03,0.17-0.05,0.34-0.08,0.51c-0.06,0.41-0.13,0.83-0.2,1.26c-0.01,0.07-0.02,0.14-0.03,0.21
		c-0.08,0.48-0.16,0.98-0.24,1.48l0,0c-2.76,16.51-8.45,43.46-10.88,51.32c0.22,0.25,0.44,0.51,0.64,0.77c1.37-0.06,2.58,0,3.58,0.1
		c11.15,1.07,15.79,8.9,17.21,11.99c9.12,3.64,16.61,11.02,20.76,20.57c1.31,3.02,2.23,6.11,2.78,9.21
		c0.21,1.21-0.12,2.45-0.92,3.38c-2.19,2.51-4.41,4.95-6.64,7.36c-0.63,3.17-1.65,6.21-3.05,9.02
		c15.23-15.5,29.59-33.51,42.88-53.79v54.49c-19.29,18.88-39.36,34.59-59.91,46.85c-6.3,6.87-16.84,10.12-25.78,9.73
		c-2.93-0.13-5.68-0.42-8.25-0.87c-10.63-1.87-18.05-6.48-21.35-13.33c-0.25-0.08-0.49-0.16-0.74-0.26
		c-8.07-3-13.8-9.16-15.89-17.01c-5.77-1.6-11.26-5.21-15.23-10.03c-3.21-3.89-6.71-10.2-6.13-18.66
		c-2.43-3.52-4.36-8.15-4.53-14.06c-0.06-2.08,0.13-4.09,0.55-6.01c-2.5-1.53-4.45-3.63-5.73-6.23c-0.68-1.39-1.13-2.87-1.37-4.41
		c-3.03-1.04-5.56-2.86-7.42-5.39c-2.75-3.76-3.72-8.69-2.73-13.9c1.96-10.25,11.5-20.11,24.89-25.72
		c23.75-9.95,44.33-2.17,55.89,8.58c0.14,0.02,0.28,0.02,0.41,0.04c4.8,0.61,9.31,2.32,12.72,4.69c0.48-1.75,1.06-4.06,1.71-6.79
		c-1.66-7.28-4.92-18.15-8.11-27.45c-0.71-2.08-2.99-3.2-5.07-2.47c-9.03,3.16-18.34,5.46-27.85,6.89l-2.03,5.73
		c-0.27,0.75-0.95,1.27-1.75,1.33c-0.05,0-0.09,0-0.14,0c-0.74,0-1.43-0.41-1.77-1.08l-2.58-4.96c-4.85,0.46-9.73,0.71-14.65,0.71
		c-5.48,0-10.92-0.31-16.31-0.88l-2.5,4.23c-0.4,0.68-1.18,1.05-1.96,0.97c-0.79-0.09-1.44-0.64-1.68-1.4l-1.47-4.79
		c-8.23-1.28-16.31-3.22-24.18-5.81c-2.29-0.75-3.4-3.35-2.36-5.53c1.6-3.34,3.11-6.48,4.49-9.34c2.36-4.89,4.43-9.19,6.04-12.67
		c-1.3-0.35-2.6-0.74-3.89-1.12c-1.56,3.35-3.53,7.43-5.76,12.05c-12.68,26.29-36.03,74.71-37.03,100.47h6.25h20c1.1,0,2,0.9,2,2
		s-0.9,2-2,2h-17.35L224.29,420h-4.16l-24.79-87.25h-4.14l7.69,27.15c0.36,1.28-0.6,2.55-1.92,2.55h-2.03L211.3,420h-3.12
		l-16.35-57.56l-4.55-16.01c-0.37-1.29-1.54-2.18-2.89-2.18h-24.58c-2.32,0-4,2.22-3.37,4.46L176.7,420h-3.12l-16.35-57.56h-2.41
		c-1.34,0-2.52-0.89-2.89-2.18l-7.81-27.51h-4.16L164.75,420H118.2l21.2-74.62l-2.08-7.32L114.04,420H99.88l5.15-18.13
		c0.41-1.45,2.47-1.45,2.89,0l2.94,10.34l0.62,2.18l1.56-5.49l-5-17.6l0,0l-8.2-28.87l0,0l-4.55-16.01
		c-0.37-1.29-1.54-2.18-2.89-2.18H67.81c-2.32,0-4,2.22-3.37,4.45L84.7,420h-3.12l-16.35-57.56h-2.41c-1.34,0-2.52-0.89-2.89-2.18
		l-7.81-27.51h-4.16L72.75,420H26.2l21.2-74.62l-2.08-7.32L22.04,420h-5.2l24.5-86.25H25.31c-1.65,0-3-1.35-3-3s1.35-3,3-3h29.65
		l6.86-24.13c-7.12-2.79-13.19-7.16-18.07-13.11c-0.06,0-0.11,0-0.17,0c-5.7,0-11.63-2.13-15.34-6.02c-0.4-0.42-0.59-0.98-0.54-1.55
		s0.34-1.09,0.8-1.43c2.04-1.51,4.59-4.32,6.51-7.15c-1.73-5.36-2.54-10.95-2.28-15.74c-1.04-0.51-2.02-1.12-2.92-1.86
		c-5.38-4.42-6.1-11.37-6.13-11.66c-0.1-1.07,0.66-2.03,1.73-2.17c1.51-0.2,5.22-1.09,10.11-2.81c-3.14-1.1-5.95-2.78-8-4.94
		c-0.59-0.62-0.89-1.47-0.82-2.32c0.07-0.86,0.51-1.64,1.2-2.15c1.85-1.38,4.17-3.9,6-6.51c-1.59-5.09-2.36-10.36-2.21-14.98
		c-0.92-0.49-1.77-1.06-2.53-1.68c-5.7-4.69-6.46-12.03-6.49-12.34c-0.16-1.62,0.98-3.05,2.6-3.26c3.49-0.46,19.07-4.7,33.6-14.59
		c-1.89-1.78-3.49-3.66-4.61-5.55c-0.62,0.53-1.28,1.02-1.97,1.47c-2.69,1.75-5.57,2.62-8.43,2.62c-2.49,0-4.95-0.67-7.25-2
		c-9.82-5.72-6.65-18.35-3.29-31.72c1.4-5.55,2.81-11.27,3.56-17c-0.26-0.13-0.52-0.27-0.77-0.42c-10.47-6.1-7.21-19.08-3.76-32.82
		c1.6-6.35,3.25-12.91,3.85-19.47c-1.56-6.5-1.01-11.86,1.69-16.36c5.29-8.83,11.19-9.62,20.98-10.93c2.41-0.32,5.12-0.68,8.2-1.21
		c1.16-6.78,5.68-11.94,12.5-14.22c5.52-1.84,11.66-1.46,16.42,0.94l2.17-15c0.83-5.23,7.47-7.24,13.31-6.47
		c3.85,0.5,7.57,2.5,9.49,5.08c1.16,1.57,1.63,3.28,1.36,4.95l-4.47,30.91c5.84-1.08,12.96-1.21,18.93,4.76
		c6.01,6.01,6.1,16.44,4.17,24.29c2.09,12.41-0.27,21.63-3.51,28.04c1.47,1.99,2.44,4.32,3.01,6.82c2.96,1.3,5.65,2.23,7.1,2.72
		c8.48-5.61,16.09-12.56,23.49-20.18c-0.48-10.8,1.65-20.13,4.58-27.65l0,0c-11.79-32.5,1.75-56.58,9-66.32
		c1.13-1.51,2.85-2.46,4.73-2.6c1.89-0.14,3.74,0.55,5.07,1.89L232.3,39.8c8.23-4.49,17.29-7.9,27.55-9.73
		c-5.81-7.12-4.33-15.28-2.58-18.81c0.36-0.72,1.04-1.23,1.83-1.36c0.8-0.13,1.6,0.13,2.17,0.7l10.46,10.46
		c-0.01-1.64,0.19-3.38,0.69-5.23c2.73-10.17,11.43-13.38,15.65-13.65c0.8-0.05,1.58,0.29,2.09,0.91s0.69,1.45,0.48,2.23
		l-3.85,14.36l-2.45,9.14c11.79,0.8,22.72,3.64,33.11,8.58c0,0.01,0,0.01,0,0.02c1.57,0.74,3.14,1.52,4.69,2.36L360,1.91
		c1.34-1.34,3.19-2.03,5.08-1.89c1.88,0.14,3.6,1.08,4.73,2.59c7.25,9.74,20.8,33.81,9,66.32c2.86,7.35,4.97,16.43,4.61,26.92
		c-0.01,0.18-0.02,0.49-0.03,0.74c10.38,10.69,21.61,20.49,35.16,26.7c1.22,0.56,1.78,1.97,1.28,3.21
		c-5.13,12.64-11.87,24.43-20.02,35.15c0.12,0.09,0.23,0.17,0.27,0.2c5.73,4.48,11.81,8.38,18.47,11.43
		c1.22,0.56,1.78,1.97,1.28,3.21C417.05,183.33,413.81,189.9,410.13,196.19z M302.85,287.7c-7.82,7.21-11.69,17.89-10.36,28.59
		c0.77,6.22,3.3,11.19,6.59,12.98c3.7,2.01,7.85,2.42,11.4,1.13c2.6-0.95,4.63-2.71,5.8-5.01c-0.59,0.36-1.54,0.78-2.66,1.09
		c-2.49,0.68-4.94-1.19-5.02-3.76c-0.22-6.73,0.51-13.05,1.62-16.97c3.45-12.22,9.56-18.2,15.49-21.03c0.85-0.41,1.82-0.5,2.74-0.27
		c2.19,0.54,4,1.34,5.44,2.19c1.58-0.74,3.14-1.25,4.63-1.61c-2.64-2.28-6.91-4.38-12.3-5.06
		C321.3,279.32,311.74,279.5,302.85,287.7z M281.68,295.86c2.85-3.42,5.54-6.66,8.42-8.48c0.93-0.59,2.17-0.31,2.76,0.62
		s0.31,2.17-0.62,2.76c-1,0.63-2.02,1.54-3.07,2.61c1.31,0.4,2.4,0.9,3.32,1.41c1.94-3.72,4.51-7.13,7.65-10.03
		c5.69-5.25,12.52-8.3,19.71-8.92c-7.87-5.71-24.98-14.39-47.9-4.79c-11.99,5.02-20.83,13.96-22.51,22.78
		c-0.78,4.1-0.06,7.93,2.03,10.78c1.92,2.62,4.86,4.23,8.51,4.66C269.6,310.41,276.01,302.68,281.68,295.86z M360.14,361.79
		c-2.22,0.97-4.57,1.73-7,2.31c-4.02,3.63-9.7,6-14.82,6.67c-2.5,0.33-4.93,0.49-7.23,0.49c-3.61,0-7.91-0.44-11.51-2
		c-1.98,0.52-4.04,0.83-6.13,0.92c6.88,5.87,18.5,5.46,25.4,4.56C346.99,373.66,356.02,369,360.14,361.79z M322.06,308.82
		c-2.23,7.87-2.83,27.35,3.97,36.51c2.38,3.21,5.37,4.8,9.14,4.87c4.11,0.09,7.32-1.95,9.54-6.03c3.2-5.85,3.63-14.61,1.57-22.06
		c-0.01-0.02-0.01-0.04-0.02-0.06c-0.78-2.8-1.89-5.42-3.36-7.61c-0.61-0.92-0.37-2.16,0.55-2.77c0.92-0.61,2.16-0.37,2.77,0.55
		c1.11,1.66,2.04,3.5,2.8,5.47c0.47-1.22,0.41-2.46,0.36-2.72c-0.24-1.08,0.44-2.15,1.52-2.39c1.08-0.24,2.15,0.44,2.39,1.52
		c0.19,0.84,0.22,2.18-0.09,3.62c7.8,7.43,13.08,20.33,11.51,30.44c-0.16,1.03-0.72,1.95-1.54,2.6c-5.14,4.01-12.24,6.43-19.57,6.5
		h-0.3c-3.86,0-7.46-0.7-10.34-1.94c-0.6-0.26-1.11-0.68-1.5-1.2c-0.12-0.16-0.23-0.33-0.34-0.49c-2.78-0.77-5.21-2.32-7.27-4.64
		c-3.54,3.38-8.31,5.49-13.85,5.84c-0.52,0.03-1.06,0.05-1.59,0.05c-6.51,0-13.74-2.48-18.86-7.91c-7.73-2.04-15.13-7.6-17.77-17.48
		c-0.28-1.07,0.35-2.16,1.42-2.45c1.07-0.28,2.16,0.35,2.45,1.42c3.03,11.34,13.59,15.93,22.1,15.39c5.77-0.37,12.2-3.28,15.1-10.1
		c-0.33,0.15-0.66,0.3-1.01,0.43c-1.8,0.66-3.72,0.98-5.66,0.98c-0.06,0-0.11-0.01-0.17-0.01c-2.94,3.03-6.97,3.6-8.57,3.71
		c-0.34,0.02-0.69,0.03-1.04,0.03c-0.91,0-1.87-0.08-2.85-0.24c-0.99-0.16-1.88-0.69-2.49-1.49c-2.31-3.05-3.93-7.36-4.55-12.36
		c-0.08-0.64-0.14-1.28-0.18-1.92c-1.4,0.34-2.86,0.53-4.41,0.53c-0.78,0-1.59-0.05-2.41-0.14c-1.94-0.23-3.73-0.73-5.35-1.48
		c-1.19-0.55-1.55-2.08-0.72-3.09c0.48-0.58,1.01-1.14,1.6-1.66c3.1-2.77,7.45-4.36,11.97-4.4c0.28-1.35,0.63-2.68,1.05-3.99
		c-5.84-0.22-11.57,1.72-15.69,5.4c-2.93,2.62-6.37,7.33-6.16,14.87c0.42,14.87,14.35,22.48,23.63,22.93
		c0.78,0.04,1.46,0.53,1.76,1.25c2.71,6.7,8.59,11.33,16.11,12.71c7.05,1.29,14.17-0.45,19.21-4.58c-1.86-1.11-3.48-2.43-4.8-3.96
		c-0.72-0.83-0.64-2.1,0.2-2.82c0.83-0.73,2.1-0.64,2.82,0.2c3.61,4.15,10.39,6.62,18.18,6.62c0.11,0,0.22,0,0.34,0
		c10.36-0.09,20.39-4.44,26.18-11.35c5.62-6.71,8.12-16.49,6.68-26.16c-1.48-9.95-6.88-18.61-14.8-23.77
		c-0.38-0.25-0.67-0.62-0.81-1.05c-0.13-0.38-3.31-9.44-14.29-10.49C330.09,286.82,323.94,302.16,322.06,308.82z M365.1,11.06
		c7.38,11.95,16.4,35.59,0.37,66.1c0.91,0.99,1.81,1.99,2.7,2.98c20.01-36.11,5.84-63.19-1.93-73.91
		C365.89,7.85,365.5,9.46,365.1,11.06z M279.12,28.45l0.11,0.11l5.46-20.39c-2.67,1.17-6.03,3.65-7.45,8.95
		C275.84,22.3,277.43,26.09,279.12,28.45z M186.23,80.13c0.95-1.05,1.9-2.1,2.85-3.14c-1.69-3.27-3.71-7.67-5.21-12.1
		c-0.48-1.4-0.15-2.96,0.86-4.04c8.28-8.83,16.97-17.31,26.82-24.33c1.6-1.14,3.78-0.96,5.17,0.42l7.59,7.67
		c1.15-0.77,2.32-1.51,3.5-2.24L190.87,5.44c-0.43-0.43-0.92-0.46-1.18-0.44c-0.25,0.02-0.73,0.12-1.08,0.59
		C180.97,15.86,165.83,43.3,186.23,80.13z M114.93,55.91c-0.1,0.04-0.21,0.07-0.32,0.09c-1.48,0.4-2.98,0.84-4.49,1.29
		c-2,0.6-4.07,1.21-6.06,1.69c-3.2,0.77-6.04,1.66-8.52,2.68c-0.02,0.01-0.04,0.02-0.06,0.03c-5.47,2.26-9.17,5.13-11.05,8.58
		c-1.83,3.35-1.93,7.22-0.32,11.82c1.7,4.86,6.74,8.03,13.82,8.72c3.21,0.31,6.74,0.08,10.27-0.69c0.03-0.01,0.06-0.02,0.09-0.02
		c7.53-1.68,14.99-5.88,19.04-12.78c0.56-0.95,1.78-1.27,2.74-0.71c0.95,0.56,1.27,1.78,0.71,2.74c-0.95,1.62-2.07,3.09-3.31,4.45
		c1.15,7.84-2.21,17.07-8.75,22.36l-1.01,6.96c-0.2,1.38-1.1,2.57-2.38,3.11c-2.63,1.1-5.45,1.81-8.37,2.09l-0.59,4.05
		c8.85-0.58,17-4.63,22.61-11.32c4.74-5.64,9.78-15.71,6.93-31.63c-0.05-0.29-0.04-0.58,0.04-0.86c1.68-6.35,1.98-15.44-2.71-20.12
		C128.2,53.4,121.82,54.08,114.93,55.91z M98.43,149.28l4.45-30.72l3.48-24.07c-1.38,0.21-2.75,0.34-4.1,0.4l-1.45,10.02
		c-1.11,0-2.21-0.03-3.27-0.13c-1.08-0.1-2.13-0.26-3.13-0.47l1.41-9.75c-1.38-0.21-2.68-0.51-3.91-0.9l-7.75,53.52
		c2.22-0.65,4.93-0.78,7.45-0.39C93.78,147.14,96.39,148.01,98.43,149.28z M91,150.76c-4.06-0.62-7.15,0.57-7.53,1.2l-0.61,4.23
		c2.22-0.64,4.92-0.77,7.43-0.38c2.17,0.33,4.8,1.2,6.83,2.48l0.63-4.32C97.36,153.13,94.58,151.31,91,150.76z M104.64,134.27
		c8.78-1.88,18.61-8.57,22.72-16.05c-3.24,2.66-6.92,4.72-10.88,6.12c-3.36,2.54-7.3,4.6-11.23,5.66L104.64,134.27z M97.25,56.76
		c1.82-0.62,3.78-1.17,5.86-1.68c1.88-0.45,3.81-1.03,5.85-1.63c1.14-0.34,2.31-0.69,3.48-1.02l4.92-33.99
		c0.05-0.33-0.1-0.75-0.43-1.19c-1.11-1.5-3.63-2.78-6.13-3.1c-3.88-0.51-7.48,0.81-7.71,2.26L97.25,56.76z M74.5,99.05
		c3.42,2.47,8.3,3.27,12.28,2.14l1.31-9.08l-0.67,4.61l-1.05,0.42c-0.96,0.38-2.1,0.58-3.3,0.58c-2.28,0-4.55-0.69-6.23-1.9
		c-2.21-1.6-3.2-3.84-3.02-6.88c0.33-5.71,0.6-12.14,0.89-18.95v-0.06c0.02-0.44,0.04-0.9,0.06-1.35c1.98-1.8,4.45-3.4,7.43-4.8
		l0.61-4.22c0-0.01,0-0.02,0-0.04l2.92-20.17c0.15-1.06,1.12-1.8,2.19-1.7c0.97,0.09,1.87,0.26,2.55,0.48
		c1.34,0.44,2.47,1.12,3.35,1.98c0.43,0.42,1.54,1.83,1.54,1.83l-2.39,16.48l3.14-21.68c-3.36-3.09-9.55-4.09-14.96-2.28
		c-5.64,1.88-9.05,6.31-9.36,12.15c-0.45,8.26-0.78,16.2-1.07,23.2c-0.29,6.8-0.56,13.22-0.88,18.89
		C69.51,94.23,72.19,97.38,74.5,99.05z M52.31,94.45c11.18,17.93,17.73,21.26,24.1,20.76c3.74-0.3,6.04-1.75,7.66-3.49
		c0.33-0.35,0.62-0.71,0.9-1.08c0.01-0.01,0.01-0.02,0.02-0.02c0.17-0.22,0.32-0.45,0.47-0.67c-1.98,1.56-5.57,2.45-9.64,2.1
		c-5.03-0.44-8.67-3.77-11.84-8.01c-1.36-2.2-2.23-4.76-2.55-7.61c-0.7-6.16-1.6-13.15-2.56-20.55c-0.76-5.92-1.61-12.46-2.44-19.31
		c-0.13-1.09,0.63-2.08,1.71-2.23c0.6-0.08,1.23-0.17,1.91-0.26c2.21-0.29,4.65-0.63,7.4-1.08c0.07-1.35,0.13-2.71,0.21-4.08
		c-3.05,0.51-5.73,0.87-8.14,1.2c-1.38,0.18-2.64,0.35-3.8,0.53c-6.74,1.02-10.1,2.24-13.55,8.01
		C36.66,67.86,44.52,81.96,52.31,94.45z M56.71,107.79c-0.75-0.93-1.5-1.92-2.25-2.94c-0.58,3.45-1.93,6.91-4,9.41
		c-1.76,2.13-5.13,1.8-6.51-0.6c-1.39-2.42-2.77-5.05-4.14-7.87c-0.06-0.11-0.21-0.42-0.37-0.77c-0.39-0.8-0.49-1.7-0.31-2.57
		c0.5-2.39,1.15-5.15,1.95-8.33c0.64-2.54,1.27-5.13,1.86-7.74c-1.04-1.94-2-3.88-2.85-5.81c-0.8,4.27-1.85,8.46-2.88,12.57
		c-3.6,14.31-5.45,23.28,1.42,27.28c4.9,2.85,9.3,0.9,11.48-0.52C54.31,117.18,56.96,112.26,56.71,107.79z M82.15,133.2l0.59-4.09
		c-0.52,0.09-1.09,0.14-1.69,0.14c-3.62,0-8.34-1.67-12.62-4.47c-2.23-1.46-4.19-3.13-5.63-4.77c-0.9-1.02-2.48-3.19-3.5-5.01
		c-0.57,1.3-1.3,2.54-2.17,3.7C60.41,125.82,72.99,133.87,82.15,133.2z M65.86,250.82c0.45-2.33,0.79-4.59,0.87-6.34
		c0.05-1.1,1.01-1.94,2.09-1.91c1.1,0.05,1.96,0.98,1.91,2.09c-0.2,4.44-1.87,11.98-3.37,16.49c3.31,0.27,6.27-0.33,7.85-1.03
		l8.99-31.65c-3.11-3.35-5.2-7.48-5.96-12.04c-0.18-1.09,0.56-2.12,1.65-2.3c1.09-0.19,2.12,0.56,2.3,1.65
		c1.16,7.03,6.19,12.87,13.44,15.62c0.9,0.34,1.82,0.63,2.73,0.86c0.04,0.01,0.08,0.02,0.12,0.03c6.33,1.58,12.9,0.58,18.01-2.78
		c-7.47-9.67-8.76-18.99-9.06-25.28c-0.05-1.1,0.8-2.04,1.9-2.09c1.13-0.06,2.04,0.8,2.09,1.9c0.07,1.41,0.19,2.99,0.44,4.7h18
		c0.6-0.63,1.07-1.2,1.44-1.67c-14.59-7.13-31.97-28.59-34.83-43.55c-0.03-0.17-0.04-0.34-0.02-0.51c-0.31-0.82-3.13-2.69-6.77-3.25
		c-4.05-0.62-7.14,0.57-7.53,1.2c-0.05,0.23-0.14,0.45-0.27,0.65c-15.3,23.12-44.52,32.81-53.89,34.89
		c0.91,3.48,4.04,10.68,14.38,9.66c1.1-0.11,2.08,0.69,2.19,1.79c0.11,1.1-0.69,2.08-1.79,2.19c-0.82,0.08-1.63,0.12-2.41,0.12
		c-1.3,0-2.52-0.13-3.7-0.35c-0.05,2.82,0.3,5.93,1,9.07c0.26-1.07,1.33-1.73,2.41-1.47c1.07,0.26,1.74,1.34,1.48,2.41
		c-1.08,4.5-5.37,10-8.82,13.21c4.99,3.73,13.11,4.57,18.24,1.58c0.95-0.56,2.18-0.24,2.74,0.72c0.56,0.95,0.23,2.18-0.72,2.74
		c-1.35,0.79-2.85,1.37-4.44,1.76C53.28,245.01,59.09,248.65,65.86,250.82z M121.36,230.08c-0.05,0.54-0.32,1.03-0.73,1.37
		c-1.48,1.2-3.11,2.19-4.82,3.01c0.9,1.37,1.91,2.76,3.09,4.14c0.35,0.41,0.51,0.94,0.46,1.48s-0.32,1.03-0.73,1.37
		c-1.2,0.97-2.49,1.81-3.84,2.52l20.73,72.97H167l-26.33-92.69h-22.99c0.93,1.44,1.99,2.9,3.22,4.36
		C121.24,229.01,121.41,229.55,121.36,230.08z M115.35,328.44l3.66-12.88l-2.11-7.42l-3.96,14.1c-0.36,1.29-1.54,2.19-2.89,2.19
		H67.9c-1.33,0-2.29-1.27-1.92-2.55l25.08-88.17c-1.26-0.67-2.44-1.43-3.55-2.27l-27.55,96.98h55.39
		C115.35,328.42,115.35,328.44,115.35,328.44z M119.01,387.87l-15.66-55.12h-4.14l7.69,27.15c0.36,1.28-0.6,2.55-1.92,2.55h-2.03
		l6.64,23.38l0.9-3.15c0.41-1.45,2.47-1.45,2.89,0l3.56,12.52L119.01,387.87z M181.49,325.89l-31.31-110.24
		c-0.49-1.72-2.06-2.91-3.85-2.91h-33.68c0.66,2.66,1.68,5.53,3.25,8.5h25.89c0.67,0,1.26,0.45,1.44,1.09l27.18,95.69
		c0.13,0.45,0.04,0.94-0.25,1.31c-0.28,0.38-0.73,0.6-1.2,0.6h-34.6c-0.67,0-1.26-0.45-1.44-1.09l-20.91-73.61
		c-0.78,0.3-1.58,0.56-2.39,0.79c-1.06,0.29-2.16-0.33-2.46-1.39l-2.17-7.63c-0.21,0-0.42,0.03-0.63,0.03
		c-1.19,0-2.39-0.08-3.59-0.24L126,325.53c0.49,1.72,2.06,2.91,3.85,2.91h49.72C180.89,328.44,181.85,327.17,181.49,325.89z
		 M222.65,227.11c-3.42,0.33-9.7,0.43-12.07,0.43c-6.17,0-12.16-0.29-17.83-0.8c-0.66-0.06-1.29-0.28-1.84-0.64
		c-3.62-2.4-11.35-8.34-15.72-12.2c-17.76-15.72-31.64-35.28-40.62-57.42c-0.5-1.24,0.09-2.64,1.31-3.19
		c3.31-1.52,6.48-3.26,9.53-5.16c-4.14-6.88-7.78-14.09-10.83-21.62c-0.5-1.24,0.06-2.66,1.28-3.21c2.13-0.98,4.19-2.05,6.21-3.19
		c-2.74-1.04-6.19-2.52-9.39-4.39c-0.36,1.25-0.87,2.5-1.5,3.74c0.31,0.18,0.62,0.36,0.94,0.53c0.7,0.38,1.12,1.13,1.07,1.92
		c-0.21,2.98-1.06,5.81-2.32,8.13c-2.87,5.28-8,10.26-14.05,13.77c-1.04,0.6-1.74,1.67-1.91,2.86l-0.49,3.36
		c-0.31,2.13-3.31,2.34-3.91,0.27c-1.1-3.82-2.04-7.75-2.76-11.74l-0.15-0.85c-1.18,0.32-2.37,0.58-3.56,0.77l-0.16,1.1
		c5.26,28.71,21.25,53.63,28.21,63.42c0.98,0.52,1.94,0.97,2.88,1.35c0.5,0.2,0.9,0.59,1.11,1.08s0.21,1.05,0.01,1.55
		c-0.03,0.08-0.17,0.38-0.43,0.84c0.26,0.33,0.51,0.65,0.75,0.96h14.46c0.89,0,1.68,0.59,1.92,1.45l3.82,13.44
		c16.87,6.27,45.94,8.91,64.07,7.57C221.35,229.8,222.01,228.44,222.65,227.11z M273.52,222.5c-1.52-0.04-3.03-0.09-4.54-0.17
		l-3.27,5.52c-0.79,1.33-2.27,2.1-3.81,1.95c-1.46-0.14-2.91-0.31-4.36-0.49c-1.55-0.2-2.83-1.3-3.29-2.8l-1.82-5.95
		c-1.48-0.24-2.95-0.48-4.42-0.77l9.26,30.19L273.52,222.5z M306.9,219.69c-1.5,0.29-3.01,0.55-4.53,0.8l-2.18,6.17
		c-0.5,1.42-1.75,2.44-3.24,2.64c-1.58,0.2-3.16,0.38-4.74,0.54c-1.62,0.16-3.16-0.7-3.91-2.14l-2.79-5.37
		c-1.47,0.08-2.94,0.14-4.42,0.17l14.76,28.4L306.9,219.69z M398.69,154.76c0.93-1.32,1.84-2.66,2.74-4.01
		c0.12-0.18,0.24-0.35,0.36-0.53c1.01-1.54,1.98-3.09,2.93-4.67c0.27-0.44,0.52-0.9,0.78-1.34c0.67-1.13,1.33-2.27,1.97-3.42
		c0.34-0.61,0.66-1.23,0.99-1.85c0.54-1,1.07-2.01,1.59-3.02c0.35-0.68,0.67-1.38,1.01-2.07c0.47-0.97,0.94-1.93,1.39-2.91
		c0.13-0.29,0.25-0.58,0.38-0.86c0.73-1.87-0.02-3.99-1.79-4.97c-0.96-0.53-1.9-1.07-2.84-1.63c-14.6-8.7-26.7-21.28-37.57-33.2
		c0,0,0.01,0,0.01-0.01c-1.61-1.76-3.21-3.52-4.8-5.28c-7.75-8.56-15.76-17.42-24.38-25.14c-0.9-0.8-1.09-2.13-0.47-3.16
		c8.83-14.58,15.43-30.82,19.66-48.34l-36.3,36.3c-0.84,0.84-2.14,0.97-3.12,0.33c-2.39-1.36-4.8-2.59-7.25-3.7l0,0
		c-11.11-5.05-22.88-7.59-35.76-7.71c-0.65-0.01-1.28-0.27-1.74-0.73L260.8,17.16c-0.32,2.89,0.15,7.05,4.02,10.93
		c0.61,0.61,1.27,1.17,1.94,1.66c0.83,0.6,1.22,1.65,0.96,2.65c-0.26,1-1.1,1.73-2.12,1.86c-34.93,4.25-56.31,27.88-76.99,50.74
		c-14.39,15.9-29.25,32.33-48.46,41.81c11.11,26.2,29.38,48.55,52.97,64.73c24.81,17.03,53.9,26.03,84.11,26.03s59.3-9,84.11-26.03
		c10.05-6.9,19.13-14.93,27.11-23.89c0.73-0.82,1.45-1.66,2.16-2.5c0.47-0.56,0.95-1.11,1.42-1.67c0.73-0.88,1.44-1.78,2.15-2.68
		c0.43-0.54,0.86-1.07,1.28-1.62c0.76-0.99,1.49-1.99,2.22-3C398,155.71,398.35,155.24,398.69,154.76z M134.54,278.65
		c2.42-0.18,2.67-0.6,3.99-1.96c0.83,3.73-0.73,6.28-0.73,6.28h0.14h3.58h3.58h0.14c-1.77-1.44-3.89-4.74-4.15-6.24
		c2.03,1.33,2.52,1.74,5.02,1.93c2.85,0.21,3.54-1.59,4.03-2.66s0.85-4.32-2.42-7.07c-3.27-2.74-6.68-1.12-6.68-1.12
		c0.76-1.15,1.23-2.07,0.57-3.96c-0.02-0.06-0.03-0.13-0.05-0.19c-0.83-3-3.94-5.44-6.95-5.44c-3,0-4.77,2.44-3.94,5.44
		c0.1,0.38,0.25,0.75,0.42,1.1c0.49,1.31,1.35,2.1,2.5,3.05c0,0-4.31-1.63-6.06,1.12c-1.75,2.74,0.4,6,1.49,7.07
		C130.12,277.06,131.81,278.86,134.54,278.65z"/>
</g>
</svg>
