<?xml version="1.0" encoding="utf-8"?>
<!-- Generator: Adobe Illustrator 24.2.3, SVG Export Plug-In . SVG Version: 6.00 Build 0)  -->
<svg version="1.1" id="layer" xmlns="http://www.w3.org/2000/svg" xmlns:xlink="http://www.w3.org/1999/xlink" x="0px" y="0px"
	 viewBox="0 0 420 420" style="enable-background:new 0 0 420 420;" xml:space="preserve">
<style type="text/css">
	.st0{fill:#EBEFF0;}
	.st1{fill:#0D1824;}
</style>
<g>
	<path class="st0" d="M367.32,193.93l-1.38-0.76l1.27-0.93c23.1-16.85,40.98-39.71,51.68-66.11c0.3-0.75-0.03-1.59-0.77-1.93
		c-15.49-7.09-27.85-18.5-41.65-33.45l-0.9-0.98l0,0c-1.53-1.67-3.07-3.35-4.61-5.05l-0.49-0.54l0.36-0.63
		c22.81-39.63,6.31-69.39-1.85-80.34c-0.95-1.28-2.41-2.08-4-2.19c-1.61-0.12-3.16,0.46-4.3,1.6l-38.4,38.4l-0.66-0.36
		c-1.35-0.73-2.82-1.48-4.64-2.34l-0.77-0.36l0-0.02c-10.09-4.69-20.57-7.35-31.99-8.13l-1.21-0.08l6.61-24.67
		c0.12-0.47,0.02-0.97-0.29-1.34c-0.3-0.37-0.78-0.58-1.26-0.54c-3.97,0.26-12.16,3.29-14.74,12.91c-0.44,1.65-0.66,3.32-0.65,4.97
		l0.01,2.43L260.55,11.3c-0.34-0.34-0.82-0.5-1.3-0.42c-0.48,0.08-0.89,0.38-1.1,0.82c-1.57,3.17-3.07,10.96,2.46,17.73l1.08,1.32
		l-1.67,0.3c-9.59,1.71-18.5,4.86-27.24,9.62l-0.66,0.36L193.7,2.62c-1.13-1.13-2.69-1.72-4.29-1.6c-1.59,0.12-3.05,0.92-4,2.19
		c-8.15,10.95-24.65,40.7-1.84,80.34l0.36,0.63l-0.49,0.54c-15.7,17.33-29.15,31.24-47.15,39.48c-0.73,0.33-1.07,1.18-0.77,1.93
		c3.96,9.75,8.97,19.17,14.91,27.98l1.98,2.94l-3.23-1.47c-4.54-2.07-11.51-5.6-18.92-10.65l-0.31-0.21l-0.09-0.37
		c-2.99-11.7-11.52-20.19-23.42-23.28c-12.8-3.33-26.52,0.72-33.36,9.84l-0.21,0.28l-0.34,0.09c-24.23,6.19-42.56,25.37-42.63,44.62
		c-0.02,6.8,2.93,18.2,11.18,21.71l0.7,0.3l-0.1,0.75c-0.48,3.65-0.38,6.85,0.29,9.52c1.77,7.05,7.43,11.27,12.25,12.33l0.72,0.16
		l0.06,0.73c0.05,0.53,0.1,1.06,0.18,1.6c0.6,4.02,2.59,8.03,5.77,11.59l0.28,0.32l-0.03,0.42c-0.09,1.19-0.15,2.25-0.19,3.24
		c-0.53,15.21,3.68,29.36,10.98,36.93c3.57,3.7,7.75,5.66,12.07,5.67c6.96,0,21.95-1,31.64-1.93l0.83-0.08l2.33,8.05L2.68,297.72
		c0,0-0.05,0.02-0.1,0.05c-0.07,0.03-0.11,0.06-0.16,0.09l-0.08,0.06c0.04-0.01-0.02,0.03-0.05,0.06c-0.06,0.06-0.08,0.1-0.1,0.13
		l-0.17,0.44c0,0,0,0,0,0.01l0.01,0.21l0,0.05c0.2,2.25,3.43,38.34,4.6,44.76c0.22,1.19,0.47,2.56,0.74,4.03l0.08,0.4
		c1.45,7.84,2.76,15,2.76,16.54c-0.03,1-1.02,7.56-2.65,18.26c-1.78,11.7-4.18,27.52-5.38,37.19H420V237.65
		C403.97,216.87,383.04,202.6,367.32,193.93z M104.99,249.23c0,0-4.91,0.65-4.45-11.86c4.26-6.21,5.47-9.55,5.47-9.55
		S106.94,239.96,104.99,249.23z M216.12,243.08c-8.52,18.08-14.68,32.4-19.39,45.09l-0.26,0.7l-41.22-2.63l-10.07-34.41l0.06-0.25
		c0.39-1.79,0.71-3.63,0.94-5.47l0.22-1.73l1.39,1.06c2.65,2.03,5.1,3.8,5.56,4.13c0.16,0.11,0.35,0.18,0.54,0.19
		c0.23,0.01,2.32,0.1,5.69,0.1c9.8,0,34.81-0.79,55.31-8.15l2.27-0.81L216.12,243.08z"/>
	<path class="st1" d="M244.09,326.3c-1.96,3.85-15.4,10.41-23.28,9.97c-7.53-0.42-9.18-3.63-9.16-6.62
		c0.05-5.4,6.31-9.55,13.77-10.58C233.25,317.99,246.81,320.96,244.09,326.3z M408.32,130.34c-8.13,17.29-19.57,32.72-33.66,45.53
		c-7.72,3.37-16.17,5.32-25.27,5.33c-0.9,0-1.8-0.02-2.71-0.06c-19.43-0.82-32.59-5.34-45.31-9.72c-5.12-1.76-10.07-3.46-15.35-4.93
		c-1.9-3.43-4.53-6.45-7.74-8.77c-0.48-0.41-1.02-0.73-1.59-0.96c-1.13-0.45-2.34-0.56-3.56-0.3c-1.92,0.41-3.48,1.81-4.25,3.61
		l-0.04,0.1c-0.23,0.56-0.49,1.15-0.79,1.81c-0.07,0.16-0.15,0.32-0.23,0.48c-0.6,1.27-1.27,2.5-1.98,3.67l-0.18,0.3
		c-0.77,1.25-1.6,2.44-2.47,3.56l-0.03,0.04l-0.04,0.05c-5.18,6.63-12.2,11.46-20.31,13.95c-0.12,0.04-0.22,0.07-0.31,0.11
		c-3.82,1.13-7.78,1.7-11.79,1.7c-8.94,0-17.45-2.83-24.6-8.19c-2.96-2.22-5.62-4.84-7.88-7.75c-1.02-1.31-0.09-3.22,1.57-3.23
		c0,0,0,0,0,0c12.02-0.14,21.73-9.93,21.73-21.98v-3c0-1.88-0.87-3.56-2.22-4.66c-0.96-0.78-1.01-2.2-0.09-3.03
		c0.41-0.37,0.8-0.77,1.2-1.16c0.06-0.05,0.13-0.09,0.19-0.15c0.15-0.15,0.29-0.31,0.44-0.46c2.39-2.39,4.57-5.01,6.48-7.83
		c0.11-0.2,0.2-0.41,0.31-0.62c3.46-5.44,5.78-11.55,6.75-17.93c0.01,0,0.01-0.01,0.02-0.02c0.02-0.12,0.02-0.25,0.04-0.37
		c0.33-2.29,0.5-4.61,0.47-6.95c-0.01-1.28-0.1-2.54-0.24-3.81c-0.01-0.13-0.03-0.25-0.04-0.38c-0.05-0.4-0.11-0.8-0.17-1.2
		c-0.35-2.39-0.93-4.61-1.74-6.6c-0.04-0.11-0.08-0.23-0.12-0.34c-0.1-0.24-0.2-0.46-0.31-0.69c-0.03-0.07-0.06-0.16-0.1-0.23
		c-0.01-0.02-0.02-0.03-0.03-0.05c-2.63-5.55-7.63-9.25-13.61-9.2c-9.94,0.13-18.73,8.99-24.56,20.38c-0.06,0.1-0.14,0.19-0.19,0.3
		c-1.27,2.47-2.41,5.09-3.39,7.78c-2.25,6.19-3.53,12.45-3.77,18.21c-0.04,0.77-0.06,1.52-0.07,2.27c-0.05,0.8-0.53,1.5-1.29,1.78
		c-0.95,0.35-1.81,0.94-2.49,1.72c-1.05,1.21-1.56,2.76-1.44,4.36c0.03,0.43,0.11,0.85,0.23,1.26c0.27,0.9-0.18,1.88-1.01,2.31
		c-1.91,1.01-3.21,3.01-3.21,5.31v2.14c0,9.59,2.51,18.66,6.91,26.54c-3.41,0.74-6.78,0.85-10.09,0.32
		c-11.65-11.73-21.23-25.37-28.3-40.41c-0.44-0.95-0.07-2.07,0.84-2.59c17.47-10.01,31.26-25.25,44.64-40.04
		c2.58-2.85,5.17-5.71,7.8-8.55c9.48-5.81,19.77-10.37,31.5-12.38c0.61-0.1,1.21,0.17,1.53,0.69l6.22,10.03l12.71-11.87
		c0.29-0.27,0.67-0.41,1.08-0.4c43,1.7,74.86,19.59,102.97,35.38c14.69,8.25,28.07,15.76,41.25,19.97
		c4.15,3.16,7.71,5.42,10.89,7.21C408.4,128.27,408.76,129.4,408.32,130.34z M304.5,137.03c-0.88-2.39-3.11-3.94-5.64-3.94
		c-0.76,0-1.51,0.14-2.23,0.43c-0.21,0.08-0.45,0.17-0.74,0.26c-1.33,0.42-2.64-0.63-2.58-2c0.37-4.7-0.02-9.91-1.16-15.34
		c-0.01-0.03-0.01-0.05-0.02-0.08c-0.2-0.96-0.43-1.92-0.67-2.88c-0.05-0.19-0.09-0.37-0.14-0.56c-0.22-0.82-0.45-1.65-0.71-2.47
		c-0.08-0.25-0.15-0.5-0.22-0.75c-0.3-0.95-0.62-1.91-0.97-2.86c-0.03-0.07-0.05-0.14-0.07-0.21c-0.1-0.27-0.2-0.53-0.3-0.79
		c-0.17-0.45-0.34-0.91-0.52-1.36c-0.03-0.07-0.06-0.14-0.09-0.21c-1.13-2.81-2.41-5.48-3.83-8.01c-0.05-0.08-0.1-0.17-0.14-0.25
		c-0.29-0.52-0.59-1.03-0.9-1.54c-0.16-0.26-0.32-0.52-0.48-0.77c-0.2-0.31-0.39-0.63-0.59-0.94c-0.24-0.38-0.49-0.74-0.74-1.11
		c-0.09-0.14-0.18-0.28-0.28-0.41l-0.25-0.35c0,0,0-0.01-0.01-0.01c-0.02-0.03-0.03-0.05-0.05-0.08c-0.01-0.02-0.03-0.04-0.04-0.05
		c-0.02-0.02-0.03-0.05-0.05-0.07c0,0-0.01-0.01-0.01-0.01c-0.02-0.03-0.04-0.06-0.07-0.09c-6.55-9.14-14.16-14.17-21.43-14.17
		c-1.76,0-3.48,0.3-5.12,0.89c-3.67,1.34-6.69,4.13-8.76,8.1c-0.09,0.14-0.16,0.29-0.24,0.43c-0.01,0.02-0.02,0.03-0.03,0.05
		c0,0.01-0.01,0.01-0.01,0.02c0,0-0.01,0.01-0.01,0.01c-0.07,0.13-0.14,0.3-0.21,0.46c-0.04,0.09-0.08,0.18-0.1,0.22
		c-0.03,0.08-0.07,0.17-0.11,0.27c-0.01,0.02-0.01,0.03-0.02,0.05c-3.35,7.75-3.33,18.72,0,30.31c0.02,0.09,0.05,0.17,0.08,0.26
		c0.21,0.73,0.43,1.47,0.67,2.21c0.26,0.8,0.54,1.6,0.83,2.41c0.01,0.04,0.02,0.07,0.04,0.11c0,0,0,0,0,0.01
		c0.3,0.83,0.62,1.65,0.95,2.46c0.07,0.18,0.15,0.36,0.22,0.54c0.7,1.67,1.45,3.3,2.25,4.88c0.05,0.09,0.09,0.19,0.14,0.28
		c0.42,0.82,0.85,1.62,1.29,2.41c0.66,1.21-0.01,2.75-1.38,2.98c-0.45,0.08-0.76,0.18-1.03,0.28c-2.49,0.95-4.18,3.52-3.8,6.41
		c0.39,3.02,3.11,5.19,6.15,5.2c2.5,0,5.17,0.02,7.92,0.04l0.09,0l0.12,0c2.12,0.02,4.29,0.03,6.46,0.04c0.02,0,0.03,0,0.05,0
		c0.03,0,0.05,0,0.08,0c0.91,0,1.83,0.01,2.74,0.01c12.55,0,25.07-0.36,31.89-2.93C303.82,143.64,305.63,140.11,304.5,137.03z
		 M114.62,320.05l45.74,4.61l-2.17,35.6l-43.92-6.36L114.62,320.05z M121.82,333.08l29.54,3.53c0.06,0.01,0.12,0.01,0.18,0.01
		c0.75,0,1.4-0.56,1.49-1.32c0.1-0.82-0.49-1.57-1.31-1.67l-29.54-3.53c-0.82-0.11-1.57,0.49-1.67,1.31
		C120.41,332.23,120.99,332.98,121.82,333.08z M121.36,345.29l29.45,4.18c0.07,0.01,0.14,0.01,0.21,0.01c0.73,0,1.38-0.54,1.48-1.29
		c0.12-0.82-0.45-1.58-1.27-1.7l-29.45-4.18c-0.82-0.11-1.58,0.46-1.7,1.27C119.96,344.41,120.54,345.17,121.36,345.29z
		 M300.73,138.35c0.41,1.03-0.09,2.19-1.12,2.6c-3.34,1.33-8.66,2.04-14.88,2.41c-0.03,0-0.06,0-0.09,0.01
		c-4.88,0.28-10.3,0.36-15.78,0.36c-0.92,0-1.85-0.01-2.77-0.01c-0.01,0-0.03,0-0.04,0c-0.02,0-0.04,0-0.05,0
		c-2.2-0.01-4.4-0.02-6.55-0.04c-2.87-0.02-5.65-0.04-8.25-0.04c-1.1,0-2-0.9-2-2s0.9-2,2-2c2.61,0,5.4,0.02,8.28,0.04
		c0.57,0,1.14,0.01,1.71,0.01c-4.34-4.92-8.17-11.54-10.84-18.87c-4.45-12.24-5.08-24.66-1.64-32.48c0.02-0.06,0.04-0.12,0.07-0.17
		c0.01-0.03,0.07-0.14,0.08-0.17l0.04-0.09c0.04-0.1,0.08-0.19,0.13-0.29c0.04-0.09,0.09-0.18,0.15-0.26
		c1.6-3.14,3.9-5.33,6.66-6.33c6.69-2.43,14.89,2.01,21.95,11.88c0.03,0.04,0.05,0.07,0.08,0.11c0.03,0.04,0.06,0.09,0.09,0.13l0,0
		l0.24,0.34c2.97,4.27,5.46,9.14,7.41,14.49c4.23,11.62,4.98,23.33,2.18,31.14c4.36-0.37,8.01-0.96,10.34-1.9
		C299.15,136.82,300.32,137.32,300.73,138.35z M281.84,109.36c-1.8-4.95-4.2-9.65-6.94-13.58l-0.21-0.3
		c-0.02-0.03-0.04-0.05-0.05-0.08l-0.04-0.06c-0.01-0.01-0.02-0.02-0.03-0.03c-5.79-8.11-12.6-12.24-17.37-10.51
		c-1.87,0.68-3.4,2.22-4.56,4.59c-0.03,0.06-0.06,0.11-0.09,0.17l-0.06,0.15c0,0-0.01,0.01-0.01,0.02c-0.01,0.03-0.03,0.07-0.04,0.1
		c-3.06,6.79-2.4,18.42,1.68,29.64c0.19,0.53,0.39,1.06,0.6,1.58c0.65-4.94,3.03-8.85,6.82-10.22c6.52-2.37,14.69,3.63,18.25,13.41
		c2.02,5.55,2.11,11.11,0.62,15.32c0.99-0.03,1.96-0.08,2.91-0.12C286.59,132.77,286.05,120.91,281.84,109.36z M420,235.99v8.42
		c-17.27-24.37-41.88-40.17-56.77-48.15c-1.21,0.82-2.42,1.62-3.65,2.4c0.35,0.3,0.73,0.57,1.15,0.79
		c4.58,2.43,10.16,5.66,16.2,9.68c2.2,1.47,2.42,4.65,0.41,6.37c-4.2,3.6-8.6,6.99-13.2,10.15c-4.44,3.05-9.02,5.84-13.71,8.38
		c-1.15,0.62-2.59,0.03-2.9-1.24c-0.38-1.6-1.42-3.04-2.99-3.88c-0.87-0.47-1.85-0.71-2.84-0.71h0c-2.22,0-4.24,1.21-5.29,3.17
		c-0.25,0.46-0.54,1-0.88,1.61c-0.89,1.61-3.3,1.27-3.71-0.53c-0.88-3.91-1.76-7.6-2.08-8.9c-0.27-1.09-1.38-1.73-2.47-1.44
		c-1.05,0.29-1.68,1.36-1.41,2.41c0.25,1,0.79,3.23,1.41,5.94c0.8,3.19,2.46,10.26,3.52,18.16c4.47-6.88,7.64-12.57,9.14-15.36
		c0.52-0.97,1.73-1.34,2.71-0.82c0.97,0.52,1.34,1.74,0.82,2.71c-3.44,6.41-15.46,27.67-31.9,44.33c1.67,0.31,3.32,0.75,4.91,1.34
		c2.33,0.87,5.01,2.21,7.66,4.25c0.79,0.22,1.57,0.46,2.34,0.75c5.63,2.09,13.27,6.89,17.65,17.87c1.19,2.98,1.94,5.94,2.33,8.79
		c0.28,2.07-1.12,4-3.16,4.43c-2.38,0.5-4.7,0.93-6.97,1.31c-0.24,1.49-0.56,2.9-0.95,4.22c25.31-4.01,63.31-16.57,84.62-33.03
		v58.57c-19.59,10.07-58.03,17.3-96.13,13.52c-0.99,1.69-4.14,5.99-9.91,7.66c-3.16,6.12-8.04,11.34-14.51,15.38l1.49,35.48h-4
		l-1.35-32.16v0l-0.29-6.99l-0.17-4.12c-1.08,1.29-2.22,2.6-3.42,3.92l0.31,7.42c0.05,1.28-0.52,2.51-1.52,3.31
		c-7.62,6.14-15.92,9.58-22.99,9.58c-0.98,0-1.93-0.07-2.86-0.2c-0.65-0.09-1.27-0.23-1.89-0.39c-1.8,0.38-3.57,0.59-5.25,0.59
		c-0.76,0-1.49-0.05-2.22-0.13c0.11,6.53,0.25,14,0.35,19.17h-4c-0.1-5.43-0.25-13.36-0.37-20.09c-3.32-1.21-6.1-3.45-8.14-6.61
		c-1.72-2.67-2.19-6.37-1.28-10.15c0.25-1.03,0.61-2.03,1.05-3c-4.57,0.34-8.87-0.29-12.51-1.94c-1.81-0.82-3.39-1.89-4.73-3.14
		c0.09,12.19,0.17,22.62,0.26,25.09c0.15,4.04,1.02,13.92,1.57,19.83h-4.02c-0.55-5.98-1.39-15.58-1.55-19.68
		c-0.11-2.93-0.2-16.07-0.31-31.4c-0.03-0.08-0.06-0.15-0.09-0.23c-0.38-0.15-0.77-0.3-1.14-0.46c-4.7-2.12-7.95-5.83-9.15-10.43
		c-0.76-2.9-0.64-6.1,0.23-9.1c-2.92-1.54-5.11-3.91-6.37-6.99c-0.85-2.08-1.23-4.27-1.16-6.46c-1.46-3.89-1.35-8.14,0.33-12.01
		c2.06-4.75,6.24-8.52,11.76-10.61l0.47-0.18c0.73-0.28,1.46-0.55,2.17-0.83c-0.09-0.64-0.17-1.22-0.24-1.71
		c-1.85,0.2-4.62,0.49-6.4,0.62c-2.11,0.15-25.63,3.82-36.38,5.52c-1.4,24.72-3.36,60.56-3.33,63.58c0.33,0.79,2.35,2.97,4.41,4.75
		c0.67,0.58,0.88,1.54,0.51,2.35c-1.74,3.77-3.69,8.45-3.81,9.43c0,1.15,1.22,14.49,2.17,23.84H71.35
		c0.24-18.7,0.69-54.5,0.55-56.99c-0.14-2.44-4.66-29.99-8-50.09c-0.21-1.24,0.76-2.36,2.02-2.32c5.1,0.14,12.06,0.38,19.07,0.52
		c2.13,0.04,3.85,1.74,3.92,3.86l1.55,45.05c0.03,0.68,0.53,1.25,1.2,1.38c0.96,0.19,1.84-0.57,1.8-1.54c0,0,0,0,0,0
		c-0.06-1.37-0.13-3.15-0.21-5.21c0,0,0-0.01,0-0.01c-0.06-1.55-0.12-3.25-0.18-5.07c0,0,0,0,0,0c-0.04-1.2-0.09-2.45-0.13-3.73
		c0-0.03,0-0.05,0-0.08c-0.02-0.63-0.04-1.28-0.07-1.93c0,0,0,0,0-0.01c-0.02-0.65-0.04-1.3-0.07-1.95c0-0.03,0-0.05,0-0.08
		c-0.02-0.6-0.04-1.21-0.06-1.82c0-0.12-0.01-0.23-0.01-0.35c-0.02-0.6-0.04-1.21-0.06-1.81c0-0.06,0-0.12-0.01-0.19
		c-0.09-2.63-0.17-5.28-0.25-7.83c0-0.14-0.01-0.29-0.01-0.43c-0.06-1.85-0.12-3.65-0.17-5.36c0-0.1-0.01-0.19-0.01-0.29
		c-0.01-0.43-0.03-0.85-0.04-1.27c-0.01-0.23-0.01-0.46-0.02-0.69c-0.03-1.07-0.07-2.09-0.09-3.05c0-0.01,0-0.03,0-0.04
		c-0.01-0.47-0.03-0.93-0.04-1.37c0-0.1-0.01-0.19-0.01-0.29c-0.04-1.15-0.07-2.19-0.1-3.09c-0.01-0.35-0.02-0.68-0.03-0.99
		c0-0.02,0-0.03,0-0.05c-0.02-0.63-0.04-1.15-0.05-1.57c0-0.16-0.01-0.3-0.01-0.43c0-0.11-0.01-0.21-0.01-0.3c0-0.01,0-0.03,0-0.05
		c0-0.14-0.01-0.25-0.01-0.31c0-0.13,0.01-0.26,0.03-0.39c0-0.02,0.01-0.03,0.01-0.05c0.02-0.11,0.05-0.22,0.09-0.32
		c0,0,0-0.01,0.01-0.01c0.26-0.69,0.9-1.21,1.68-1.28l48.27-4.53l-12.83-0.99c-1.66-0.13-3.21-0.67-4.57-1.53
		c-21.14,1.86-48.93,4.31-61.33,5.41c-2.32,0.2-3.97,2.34-3.59,4.63c2.5,15.04,8.21,49.59,8.35,52.05
		c0.13,2.39-0.35,40.54-0.56,56.76H9.21c1.23-9.61,3.53-24.81,5.24-36.06c2.38-15.67,2.74-18.2,2.74-19.37
		c0-2.09-0.92-7.28-2.88-17.83c-0.3-1.61-0.58-3.12-0.81-4.41c-0.62-3.39-2.33-20.11-3.76-35.27c-0.12-1.28,0.98-2.33,2.25-2.17
		c2.17,0.28,4.61,0.6,7.2,0.93c0.93,0.12,1.75-0.63,1.69-1.58c-0.04-0.74-0.68-1.32-1.41-1.41c-6.11-0.78-11.33-1.47-14.25-1.86
		c0.77,8.56,3.35,36.61,4.34,42.07c0.23,1.29,0.52,2.81,0.82,4.43c1.65,8.87,2.81,15.29,2.81,17.1c0,0.95-0.74,5.9-2.69,18.77
		C8.72,395.08,6.39,410.4,5.18,420H0.14c0.93-7.46,2.58-18.63,4.1-28.75c-1.36-10.32-3.91-38.78-4.23-42.32l-0.01-0.07l0-0.03
		c0-0.07,0-0.14,0-0.21c0-0.12,0-0.19,0.01-0.26l0.01-0.11c0.01-0.06,0.03-0.14,0.05-0.21c0.03-0.13,0.05-0.23,0.08-0.33
		c0.03-0.08,0.06-0.15,0.09-0.21c0.06-0.14,0.1-0.23,0.15-0.32L0.51,347c0.08-0.12,0.15-0.22,0.23-0.31l0.11-0.12
		c0.1-0.1,0.2-0.2,0.32-0.29l0.11-0.08c0.1-0.07,0.23-0.16,0.38-0.23l0.1-0.05c0.12-0.06,0.27-0.12,0.44-0.16l0.16-0.04
		c0.13-0.03,0.25-0.05,0.37-0.07l2.19-0.2c-0.1-0.54-0.19-1.06-0.28-1.54c-1.18-6.47-4.28-41.08-4.63-45.01l-0.01-0.07l0-0.03
		c0-0.07,0-0.14,0-0.21c0-0.12,0-0.19,0.01-0.26l0.01-0.11c0.01-0.06,0.03-0.14,0.05-0.21c0.03-0.13,0.05-0.23,0.08-0.33
		c0.03-0.08,0.06-0.15,0.09-0.21c0.06-0.14,0.1-0.23,0.15-0.32L0.51,297c0.08-0.12,0.15-0.22,0.23-0.31l0.11-0.12
		c0.1-0.1,0.2-0.2,0.32-0.29l0.11-0.08c0.1-0.07,0.23-0.16,0.38-0.23l0.1-0.05c0.12-0.06,0.27-0.12,0.44-0.16l0.16-0.04
		c0.13-0.03,0.25-0.05,0.37-0.07l56.24-5.08c0-0.7,0.01-1.4,0.04-2.1c0.03-0.9,0.08-1.85,0.16-2.9c-3.27-3.77-5.34-8.02-5.97-12.31
		c-0.05-0.34-0.09-0.67-0.13-1c-5.25-1.43-11.15-6.09-13.05-13.62c-0.69-2.72-0.83-5.93-0.43-9.53
		c-9.29-4.49-11.73-17.08-11.7-23.24c0.03-9.48,4.27-18.94,11.35-26.96c-8.99-4.64-11.37-16.96-11.35-23.04
		c0.07-20.04,18.88-39.97,43.79-46.46c7.39-9.56,21.82-13.79,35.25-10.3c12.49,3.25,21.5,12.12,24.75,24.36
		c5.8,3.92,11.75,7.17,16.83,9.58c-5.46-8.33-10.15-17.21-13.94-26.56c-0.5-1.24,0.06-2.66,1.28-3.21
		c13.46-6.17,24.54-15.77,35.17-26.72c-0.48-10.8,1.64-20.12,4.57-27.64c-11.8-32.51,1.75-56.58,9-66.32
		c1.13-1.51,2.85-2.46,4.73-2.6c1.89-0.14,3.74,0.55,5.07,1.89l37.88,37.88c8.23-4.49,17.29-7.9,27.55-9.73
		c-5.81-7.12-4.33-15.28-2.58-18.81c0.36-0.72,1.04-1.23,1.83-1.36c0.8-0.13,1.6,0.13,2.17,0.7l10.46,10.46
		c-0.01-1.64,0.19-3.38,0.69-5.23c2.73-10.17,11.43-13.38,15.65-13.65c0.8-0.05,1.58,0.29,2.09,0.91s0.69,1.45,0.48,2.23
		l-3.85,14.36l-2.45,9.14c11.79,0.8,22.72,3.64,33.11,8.58c0,0.01,0,0.01,0,0.02c1.57,0.74,3.14,1.52,4.69,2.36L360,1.91
		c1.34-1.34,3.19-2.03,5.08-1.89c1.88,0.14,3.6,1.08,4.73,2.59c7.25,9.74,20.8,33.81,9,66.32c2.93,7.52,5.05,16.85,4.57,27.66
		c10.38,10.69,21.61,20.5,35.17,26.71c1.22,0.56,1.78,1.97,1.28,3.21c-5.12,12.64-11.87,24.42-20.01,35.14
		c5.79,4.55,11.97,8.55,18.73,11.65c1.22,0.56,1.78,1.97,1.28,3.21c-5.46,13.46-12.75,25.94-21.61,37.2
		C405.87,220.11,413.34,227.51,420,235.99z M365.1,11.06c7.38,11.95,16.4,35.59,0.37,66.1c0.91,0.99,1.81,1.99,2.7,2.98
		c20.01-36.11,5.84-63.19-1.93-73.91C365.89,7.85,365.5,9.46,365.1,11.06z M279.12,28.45l0.11,0.11l5.46-20.39
		c-2.67,1.17-6.03,3.65-7.45,8.95C275.84,22.3,277.43,26.09,279.12,28.45z M186.23,80.13c0.93-1.03,1.86-2.05,2.79-3.08
		c-1.67-3.37-3.78-8.13-5.15-12.16c-0.48-1.4-0.15-2.96,0.86-4.04c8.28-8.83,16.97-17.31,26.82-24.33c1.6-1.14,3.78-0.96,5.17,0.42
		l7.69,7.6c1.12-0.74,2.25-1.46,3.4-2.17L190.87,5.44c-0.43-0.43-0.92-0.46-1.18-0.44c-0.25,0.02-0.73,0.12-1.08,0.59
		C180.97,15.86,165.83,43.3,186.23,80.13z M134.25,151.06c2.19,2.33,3.67,4.76,4.61,7.2c7.73,4.11,14.13,6.6,16.83,7.44
		c0.58,0.18,1.18,0.27,1.79,0.27c0.16,0,0.32-0.02,0.48-0.03c-1.37-1.67-2.71-3.37-4-5.1C149.57,159.17,142.25,155.91,134.25,151.06
		z M217.71,237.4c0.8-1.68,1.59-3.33,2.36-4.93c-0.75,0.03-1.48,0.2-2.17,0.5c-1.95,0.87-3.98,1.66-6.05,2.38
		c-2.1,0.73-4.41,0.52-6.37-0.52c-5.22-2.75-10.3-5.81-15.21-9.18c-14.43-9.9-26.92-22.05-37.1-35.91
		c-0.69,5.65-3.02,11.36-7.7,16.62c1.89,4.68,2.03,9.3,0.28,13.48c2.69,4.37,4.71,9.82,5.86,15.95c0.29,1.53-1.49,2.61-2.69,1.62
		c-0.01-0.01-0.02-0.02-0.03-0.03l-1.2-0.99c0.02,0.87,0.03,1.75,0.01,2.64c-0.01,0.82-0.06,1.64-0.1,2.45
		c2.71,2.16,5.84,4.44,7.02,5.3C159.47,246.93,193.32,247.5,217.71,237.4z M157.21,289.37l0.7,2.39c0.23,0.82,0.95,1.4,1.79,1.46
		l7.24,0.5c0.11-0.04,0.23-0.07,0.36-0.08c7-0.59,15.89-1.36,24.2-2.08L157.21,289.37z M140.59,241.24c-0.1,1.87-0.3,3.71-0.57,5.5
		l3.02,0.09c0.37-2.56,0.6-5.18,0.64-7.88c0.34-19.27-7.96-35.23-18.88-36.34c-1.61-0.16-3.49-0.36-5.54-0.57
		c-3.61-0.38-7.76-0.81-11.96-1.22c-0.89,0.96-1.76,1.81-2.59,2.52c0.45,0.19,0.93,0.33,1.44,0.38c4.48,0.44,8.9,0.9,12.79,1.3
		c2.07,0.22,3.95,0.41,5.57,0.57c4.16,0.42,7.92,3.7,10.77,8.76c0.8,1.42-0.3,3.16-1.93,3l-23.33-2.32
		c-1.38-0.14-2.59-0.99-3.2-2.24c-1.09-2.23-2.35-4.24-3.76-5.97c-0.15-0.19-0.32-0.36-0.49-0.52c-0.33,0.89-0.75,1.97-1.26,3.17
		c2.88,3.83,5.01,8.99,6.23,14.89c0.01,0.05,0.02,0.1,0.03,0.15c0.9,4.4,1.3,9.2,1.12,14.16c-0.09,2.44-0.3,4.82-0.64,7.11
		c0.16-0.03,0.32-0.05,0.48-0.04l2.55,0.08c0.31-2.27,0.52-4.62,0.61-7.04c0.1-2.89,0.02-5.74-0.24-8.5
		c-0.14-1.48,1.31-2.6,2.7-2.06l23.87,9.17c1.49,0.57,2.49,1.97,2.56,3.56L140.59,241.24z M87.13,274.5
		C87.13,274.5,87.13,274.5,87.13,274.5c-3.53,0-6.93-1.56-9.85-4.5c-5.78-5.84-9.24-16.46-9.34-28.56c-1.38-0.77-2.7-1.66-3.94-2.63
		c-0.47,14.38,3.41,27.63,10.14,34.61c3.04,3.15,6.37,4.75,9.92,4.75c0.02,0,0.05,0,0.07,0c5.98,0,20.12-0.87,30.53-1.85l-1.13-3.91
		c-2.84,0.26-5.92,0.52-9.04,0.74c-1.74,0.13-2.79-1.87-1.7-3.24c2.62-3.3,4.83-7.43,6.49-12.19l-2.1-7.24
		C103.97,264.59,96.15,274.49,87.13,274.5z M94.91,242.57c0.9,6.35,3.47,10.11,6.37,11.89c0.08,0.05,0.29,0.16,0.49,0.27
		c0.44-1.26,0.83-2.58,1.18-3.94c-2.52-1.84-3.88-6.08-4.27-10.65c-1.18,0.8-2.46,1.5-3.79,2.11
		C94.89,242.4,94.9,242.53,94.91,242.57z M79.07,128.96c0.53-0.08,1.05-0.16,1.58-0.22c20.18-2.41,34.11,1.33,44.82,12.37
		c0.04-0.01,0.07-0.02,0.11-0.03c-3.47-8.49-10.48-14.66-19.9-17.11C95.93,121.44,85.76,123.49,79.07,128.96z M76.93,240.53
		c7.56,1.39,15.55-0.4,20.85-4.69c2.53-2.05,5.58-5.6,5.79-10.94c-0.38-1.77-0.84-3.46-1.39-5.05c-1.52,1.04-2.54,2.77-2.6,4.78
		c-0.09,3.13-1.55,5.86-4.32,8.1c-3.35,2.71-8.17,4.26-13.23,4.26c-1.48,0-2.95-0.13-4.38-0.4c-7.46-1.37-14.58-8.07-15.55-14.63
		c-1.12-7.56,2.25-14.85,6.51-24.09c0.33-0.72,0.68-1.47,1.04-2.26c0.29-0.63,0.9-1.03,1.59-1.13c0.71-0.1,1.36-0.32,1.92-0.61
		c1.23-0.63,2.14-1.62,2.69-2.78c0.37-0.79,1.22-1.24,2.09-1.11c7.44,1.07,15.24,1.4,22.95,0.77c1.77-0.14,2.83,1.88,1.72,3.26
		c-1.64,2.04-3.26,3.49-4.34,4.2c-1.15,0.74-2.01,1.87-2.44,3.17c-1.54,4.69-4.88,12.42-8.25,16.46c-0.79,0.95-0.52,2.37,0.55,2.97
		l0.05,0.03c0.83,0.47,1.87,0.29,2.48-0.44c4.32-5.2,7.69-14.1,8.68-16.9c0.01-0.02,0.01-0.04,0.02-0.06
		c0.03-0.07,0.05-0.14,0.07-0.21c0.01-0.03,0.02-0.07,0.04-0.1c0.02-0.05,0.03-0.09,0.05-0.13c0.01-0.04,0.03-0.07,0.04-0.1
		c0.01-0.03,0.02-0.07,0.03-0.09c0.01-0.02,0.01-0.03,0.02-0.05c0.02-0.07,0.04-0.11,0.04-0.12c0.14-0.44,0.43-0.81,0.81-1.06
		c0.21-0.14,0.43-0.29,0.66-0.46c0.07-0.05,0.14-0.11,0.21-0.16c0.17-0.13,0.34-0.27,0.51-0.41c0.08-0.06,0.15-0.12,0.23-0.19
		c0.22-0.19,0.45-0.39,0.68-0.6c0.11-0.1,0.23-0.22,0.34-0.33c0.13-0.12,0.26-0.25,0.38-0.38c0.14-0.14,0.29-0.29,0.43-0.44
		c0.09-0.09,0.17-0.18,0.26-0.28c0.57-0.61,1.14-1.27,1.71-2c0.02-0.03,0.04-0.05,0.06-0.08c1.49-1.9,2.95-4.17,4.13-6.74
		c1.07-2.32,1.92-4.86,2.36-7.59c0.18-1.09,1.2-1.83,2.29-1.66c1.09,0.18,1.83,1.2,1.66,2.29c-0.33,2.06-0.87,4.03-1.54,5.89
		c2.95-0.74,5.85-1.63,8.65-2.72c1.3-0.51,2.68,0.43,2.72,1.82c0.05,1.59,0.59,3.11,1.93,4.49c1.77,1.87,5.01,5.79,5.7,10
		c1.41,1.04,2.74,2.28,3.98,3.72c1.24-7.02-4.13-13.69-6.79-16.49c-1.67-1.7-0.55-4.29,1.13-8.2c3.45-8,8.66-20.09-3.48-29.78
		c-0.16-0.12-0.29-0.27-0.41-0.44c-10.63-15.63-24.29-20.9-47.12-18.18c-26.07,3.11-48.16,22.89-48.24,43.2
		c-0.02,5.73,2.33,15.15,8.52,18.51c0.31-1.39,0.67-2.74,1.05-4.05c-3.81-2.84-5.59-9.84-5.57-14.44c0-0.01,0-0.03,0-0.04
		c0.01-1.51,1.83-2.23,2.94-1.2c1.89,1.74,4.16,3.39,6.72,4.94c0.16-0.33,0.3-0.63,0.41-0.86c-0.65-2.4-0.67-5.74-0.67-6.16
		c0-1.1,0.9-2,2-2c0,0,0,0,0,0c1.1,0,2,0.89,2,2c0,1.5,0.19,4.35,0.68,5.58c0.22,0.54,0.19,1.14-0.08,1.66
		c-0.09,0.17-8.68,17.05-6.02,27.6c1.39,5.54,5.65,8.81,9.06,9.9c0.07-1.37,0.25-2.72,0.49-4.07c-2.08-0.9-4.74-3.11-5.67-6.81
		c-1.36-5.41,1.05-13.65,3.34-19.46c0.8-2.02,3.07-3.05,5.1-2.28c2.37,0.9,4.87,1.72,7.46,2.45c0.65-1.51,1.29-3.05,1.9-4.64
		c-0.51-4.06,0.25-7.1,0.3-7.29c0.28-1.07,1.37-1.71,2.44-1.43c1.07,0.28,1.71,1.37,1.43,2.43c-0.02,0.09-1.39,5.73,1.49,11.38
		c0.5,0.98,0.11,2.19-0.87,2.69c-0.29,0.15-0.6,0.22-0.91,0.22c-0.73,0-1.43-0.4-1.78-1.09c-0.12-0.23-0.22-0.46-0.32-0.69
		c-1.11,2.57-2.23,5.04-3.34,7.44c-4.36,9.45-8.13,17.61-6.83,26.35C59.36,230.79,67.79,238.85,76.93,240.53z M52.87,367.41
		l-18.79-6.15c-0.79-0.26-1.63,0.17-1.89,0.96c-0.26,0.79,0.17,1.63,0.96,1.89l18.79,6.15c0.16,0.05,0.31,0.07,0.47,0.07
		c0.63,0,1.22-0.4,1.42-1.03C54.09,368.51,53.66,367.67,52.87,367.41z M104.48,294.52l15.05-1.36l-0.85-2.94l-97.47,8.8
		c12.51,1.6,28.17,3.53,35.3,4.1c2.15-0.19,25.17-2.22,47.97-4.23c-0.37-0.26-0.73-0.54-1.1-0.84
		C102,296.94,102.71,294.68,104.48,294.52z M120.41,381.83l-14.1-10.8c-0.66-0.5-1.6-0.38-2.1,0.28c-0.5,0.66-0.38,1.6,0.28,2.1
		l14.1,10.8c0.27,0.21,0.59,0.31,0.91,0.31c0.45,0,0.9-0.2,1.19-0.59C121.19,383.28,121.07,382.34,120.41,381.83z M154.73,384.09
		l-23.59-7.25c-0.79-0.24-1.63,0.2-1.87,0.99c-0.24,0.79,0.2,1.63,0.99,1.87l23.59,7.25c0.15,0.04,0.29,0.07,0.44,0.07
		c0.64,0,1.24-0.41,1.43-1.06C155.96,385.17,155.52,384.34,154.73,384.09z M163.44,323.4c0.05-0.8-0.55-1.5-1.35-1.58l-48.81-4.92
		c-0.42-0.04-0.84,0.09-1.15,0.37s-0.5,0.68-0.5,1.1l-0.38,36.81c-0.01,0.75,0.54,1.39,1.29,1.5l46.84,6.78
		c0.07,0.01,0.14,0.02,0.21,0.02c0.34,0,0.68-0.12,0.95-0.34c0.33-0.26,0.52-0.65,0.55-1.07L163.44,323.4z M200.26,308.17
		l-34.88-2.69l-35.86,3.36l44.16,3.46C175.82,311.97,189.81,309.76,200.26,308.17z M220.3,305.71c0,0,0.01,0,0.01,0
		c0.04,0,0.09,0.01,0.13,0.02c0.08,0.01,0.16,0.02,0.23,0.04c0.06,0.02,0.11,0.04,0.17,0.06c0.06,0.02,0.11,0.04,0.17,0.07
		c0.06,0.03,0.11,0.06,0.17,0.09c0.05,0.03,0.09,0.06,0.14,0.09c0.05,0.04,0.1,0.08,0.15,0.12c0.04,0.04,0.08,0.07,0.12,0.11
		c0.05,0.05,0.09,0.09,0.13,0.14c0.04,0.05,0.07,0.09,0.1,0.14c0.03,0.05,0.07,0.1,0.1,0.15c0.04,0.08,0.08,0.16,0.11,0.24
		c0.02,0.04,0.03,0.09,0.05,0.14c0.03,0.09,0.05,0.19,0.07,0.28c0,0,0.15,1.07,0.39,2.74c1.91-0.73,3.77-1.45,5.59-2.16
		c-0.05-0.44-0.1-0.88-0.11-1.32c-0.03-0.99,0.7-1.84,1.68-2l10.71-1.74c0.09-0.04,0.19-0.08,0.28-0.12l-9.71-0.67l-2.48-0.17
		l-69.06-4.77c-2.52-0.17-4.67-1.92-5.36-4.34l-12.31-42.07l-30.61-0.96l8,27.63c0,0,0,0,0,0l4.89,16.9
		c0.69,2.39,2.82,4.12,5.3,4.31L220.3,305.71z M213.87,296.96l28.56-2.16l-25.57-1.63c-2.01,0.19-12.72,1.2-24.71,2.29
		L213.87,296.96z M225.87,369.86c-0.08-0.01-0.15-0.03-0.23-0.04c0,0,0,0,0,0C225.71,369.83,225.79,369.84,225.87,369.86z
		 M321.11,307.83c-7.29-20.99-24.78-23.38-34.54-22.93c-9.14,0.3-16.24-3.07-21.13-10l-0.35-0.5c-3.23-4.74-8.06-9.58-16.76-4.88
		c-2.6,1.4-5.54,4.94-6.23,9.68c-0.43,3-0.06,7.43,4,11.83l4.92,0.31c-0.28-0.92-0.77-1.78-1.49-2.51
		c-2.29-2.28-3.47-4.76-3.55-7.39c0.38-2.38,1.93-4.74,5.68-5.09c5.6-0.51,6.96,4.31,6.45,6.9c-0.4,2.07-1.43,4.98,0.12,7.57
		c0.72-0.5,1.5-0.98,2.35-1.41c0.98-0.51,2.19-0.12,2.69,0.87c0.5,0.98,0.12,2.19-0.87,2.69c-4.88,2.5-7.3,6.87-7.32,6.91
		c-0.19,0.34-0.48,0.63-0.82,0.82c-11.31,5.99-22.36,10.18-36.34,15.49l-0.47,0.18c-4.5,1.71-7.88,4.71-9.51,8.47
		c-1.32,3.03-1.36,6.35-0.13,9.36c1.11,2.71,3.13,4.61,6.02,5.64c6.45,2.31,16.95,0.22,27.42-5.44
		c10.74-5.81,19.5-11.77,21.57-13.21c0.05-1.65,0.21-3.02,0.29-3.67c0.14-1.1,1.16-1.87,2.24-1.72c1.09,0.14,1.87,1.15,1.72,2.24
		c-0.33,2.55-0.47,6.12,0.14,8.5c0.28,1.07-0.37,2.16-1.44,2.44c-0.17,0.04-0.34,0.06-0.5,0.06c-0.89,0-1.7-0.6-1.94-1.5
		c-0.14-0.53-0.24-1.09-0.32-1.65c-0.97,0.65-2.18,1.45-3.61,2.37c0.02,0.09,0.03,0.19,0.06,0.28c0.32,1.23,1.01,2.29,1.93,3.08
		c0.79,0.67,1.87,1.11,3.05,1.3c0.75,0.12,1.48,0.4,2.03,0.92c1.15,1.08,2.47,2.08,3.98,2.99c1.25,0.75,1.32,2.51,0.14,3.36
		c-1.24,0.9-2.25,1.81-3.08,2.52c-4.33,3.69-10.83,9.6-22.35,13.86c-6.59,2.43-12.74,3.1-18.47-0.12
		c-3.97-2.24-5.65-7.03-4.38-11.78c-0.84,0.07-1.67,0.1-2.47,0.1c-0.63,0-1.24-0.03-1.85-0.07c-2.74,3.25-3.94,8.13-2.91,12.09
		c0.91,3.46,3.31,6.16,6.93,7.8c6.39,2.89,15.34,2.04,23.95-2.27c11.41-5.72,19.68-12.77,24.12-16.56c1.32-1.13,2.19-1.87,2.82-2.3
		c4.07-2.8,7.26-3.41,9.47-1.81c3.7,2.69,1.47,6.73,0.51,8.45c-0.97,1.75-6.93,11.14-29.26,24.1c-5.58,3.24-7.34,7.59-7.9,9.9
		c-0.64,2.68-0.36,5.31,0.75,7.04c2.08,3.22,5.01,5.12,8.73,5.66c6.82,0.98,16.06-2.72,24.12-9.67
		c10.55-9.09,17.28-18.57,22.68-26.19c0.65-0.91,1.27-1.79,1.87-2.63c0.18-0.25,0.42-0.46,0.69-0.6
		C322.77,348.1,328.79,329.92,321.11,307.83z M247.3,374c-0.03,0.03-0.05,0.06-0.08,0.08c1.09-1.05,2.32-2.01,3.67-2.86
		c0,0,0-0.01,0-0.01c-0.03-2.04-0.07-3.85-0.11-5.74c-0.01-0.38-0.02-0.76-0.02-1.15c-0.97,0.53-1.96,1.05-2.98,1.56
		c-0.34,0.17-0.69,0.33-1.03,0.49c0.02-0.01,0.03-0.01,0.05-0.02c0.04,1.81,0.07,3.58,0.1,5.61
		C246.92,372.68,247.06,373.36,247.3,374z M302.66,283.2c2.53,0.89,5.1,2.09,7.59,3.72c13.58,3.39,22.77,20.03,18.54,40.5
		c0.32-0.48,0.64-1,0.96-1.61c2.86-5.43,4.75-15.41,0.67-25.64c-3.84-9.62-10.45-13.79-15.33-15.6
		C310.72,282.93,306.31,282.67,302.66,283.2z M300.1,250.87l-2.02,5.7c-0.27,0.75-0.95,1.27-1.75,1.33c-0.05,0-0.09,0-0.14,0
		c-0.74,0-1.43-0.41-1.77-1.08l-2.58-4.96c-4.85,0.46-9.73,0.71-14.65,0.71c-5.48,0-10.92-0.31-16.31-0.88l-2.5,4.23
		c-0.4,0.68-1.18,1.05-1.96,0.97c-0.79-0.09-1.44-0.64-1.68-1.4l-1.47-4.79c-8.23-1.28-16.31-3.22-24.18-5.81
		c-2.29-0.75-3.4-3.35-2.36-5.53c1.6-3.34,3.11-6.48,4.49-9.34c2.36-4.89,4.43-9.19,6.04-12.67c-1.3-0.35-2.6-0.74-3.89-1.12
		c-1.56,3.35-3.53,7.43-5.76,12.05c-7.42,15.37-18.48,38.32-26.59,59.88l26.98,1.72c0.03-0.42,0.07-0.83,0.13-1.25
		c0.78-5.38,4.03-10.33,8.29-12.63c0.92-0.5,1.82-0.89,2.72-1.23c1.44-3.8,4.07-7.04,7.28-8.77c8.62-4.65,16.01-2.58,21.97,6.15
		l0.31,0.45c4.12,5.83,9.9,8.54,17.71,8.31c2.24-0.1,5.31-0.07,8.77,0.45c0.01-0.01,0.02-0.02,0.03-0.02
		c3.14-1.64,7.07-2.43,11.17-2.38c8.16-7.83,15.32-17.01,20.97-25.2c-0.3-3.12-0.73-6.23-1.22-9.13
		C317.69,247.45,308.98,249.55,300.1,250.87z M257.26,249.98l16.26-27.48c-1.52-0.04-3.03-0.09-4.54-0.17l-3.27,5.52
		c-0.79,1.33-2.27,2.1-3.81,1.95c-1.46-0.14-2.91-0.31-4.36-0.49c-1.55-0.2-2.83-1.3-3.29-2.8l-1.82-5.95
		c-1.48-0.24-2.95-0.48-4.42-0.77L257.26,249.98z M295.85,250.89l11.05-31.2c-1.5,0.29-3.01,0.55-4.53,0.8l-2.18,6.17
		c-0.5,1.42-1.75,2.44-3.24,2.64c-1.58,0.2-3.16,0.38-4.74,0.54c-1.62,0.16-3.16-0.7-3.91-2.14l-2.79-5.37
		c-1.47,0.08-2.94,0.14-4.42,0.17L295.85,250.89z M414.28,126.8c-17.38-8.59-31.32-22.98-43.66-36.53c0,0,0.01,0,0.01-0.01
		c-1.61-1.76-3.21-3.52-4.8-5.28c-7.75-8.56-15.76-17.42-24.38-25.14c-0.9-0.8-1.09-2.13-0.47-3.16
		c8.83-14.58,15.43-30.82,19.66-48.34l-36.3,36.3c-0.84,0.84-2.14,0.97-3.12,0.33c-2.39-1.36-4.8-2.59-7.25-3.7c0,0,0,0,0,0
		c-11.11-5.05-22.88-7.59-35.76-7.71c-0.65-0.01-1.28-0.27-1.74-0.73l-15.68-15.68c-0.32,2.89,0.15,7.05,4.02,10.93
		c0.61,0.61,1.27,1.17,1.94,1.66c0.83,0.6,1.22,1.65,0.96,2.65c-0.26,1-1.1,1.73-2.12,1.86c-34.93,4.25-56.31,27.88-76.99,50.74
		c-14.39,15.9-29.25,32.33-48.46,41.81c11.11,26.2,29.38,48.55,52.97,64.73c24.81,17.03,53.9,26.03,84.11,26.03s59.3-9,84.11-26.03
		C384.9,175.35,403.18,153,414.28,126.8z M151.19,293.71l-5.13-17.52c-0.47-1.62-1.74-2.9-3.36-3.38l-20.34-6.13
		c-1.52-0.46-2.94,0.95-2.5,2.47l7.06,24.39c0.35,1.2,1.4,2.06,2.65,2.16l17.03,1.31l2.92,0.08c1.43,0.04,2.38-1.39,1.88-2.74
		C151.32,294.14,151.25,293.93,151.19,293.71z M314.95,336.04c-6.61,4.44-15.58,6.87-24.36,6.13c-1.26-0.11-2.32,0.93-2.19,2.19
		c0.22,2.05-0.28,4.57-1.99,7.67c-1.01,1.83-4.4,6.94-13.59,14.17c-1.6,1.26-0.51,3.86,1.51,3.55c7.75-1.17,16.96-4.27,23.23-9.42
		c0.41-0.57,0.81-1.14,1.21-1.7c0.65-0.92,1.28-1.8,1.89-2.65c0.56-0.78,1.31-1.4,2.16-1.86c7.29-3.88,12.36-9.19,15.12-15.67
		C318.72,336.62,316.61,334.93,314.95,336.04z M285.17,176.35c0.74,5.34-0.44,10.78-3.32,15.31c-2.88,4.54-7.3,7.92-12.44,9.52
		c-2.24,0.7-4.55,1.05-6.84,1.05c-4.28,0-8.51-1.21-12.2-3.55c-2.65-1.68-4.94-3.93-6.69-6.54c-4.16,1.13-8.52,1.72-12.99,1.72
		c-27.1,0-49.15-22.05-49.15-49.15v-3c0-1.1,0.9-2,2-2h0.08c0.01,0,0.02,0,0.02,0c3.51-0.01,6.94-0.42,10.25-1.18
		c-4.46-1.9-7.49-4.48-7.67-4.63c-0.84-0.72-0.93-1.98-0.21-2.82c0.72-0.84,1.98-0.93,2.82-0.21c0.03,0.03,1.12,0.94,2.89,2.03
		c-1.84-7.22-0.95-17.17,2.64-27.04c0.55-1.51,1.19-3.06,1.89-4.61c0.02-0.05,0.04-0.09,0.06-0.14l0.52-1.09
		c0.19-0.4,0.39-0.79,0.58-1.18l0.16-0.31c0.01-0.02,0.03-0.05,0.04-0.07c6.97-13.49,16.88-20.64,24.68-17.8
		c2.68,0.98,4.89,3.12,6.41,6.2c0.03,0.05,0.06,0.11,0.09,0.17c0.01,0.03,0.05,0.12,0.07,0.15c0.06,0.13,0.13,0.3,0.2,0.46
		l0.05,0.13c0.11,0.27,0.2,0.49,0.29,0.71c0.07,0.18,0.13,0.37,0.2,0.56c0.11,0.32,0.2,0.58,0.27,0.84
		c0.06,0.21,0.12,0.41,0.18,0.62c0.08,0.29,0.15,0.58,0.22,0.87c0.05,0.2,0.09,0.4,0.13,0.6c0.07,0.32,0.13,0.65,0.18,0.98
		c0.04,0.2,0.07,0.38,0.09,0.56c0.06,0.36,0.1,0.73,0.15,1.11l0.06,0.48c0.04,0.43,0.08,0.88,0.11,1.33l0.02,0.33
		c0.28,5.01-0.42,10.67-2,16.38c-0.08,0.28-0.18,0.56-0.29,0.84c-0.28,0.65-0.58,1.3-0.89,1.93c-0.01,0.02-0.02,0.05-0.03,0.07
		c-0.02,0.05-0.05,0.1-0.07,0.15c-0.04,0.08-0.08,0.15-0.11,0.23c-0.3,0.6-0.6,1.19-0.92,1.77c-0.07,0.12-0.13,0.24-0.2,0.36
		c-5.37,9.66-13.61,17.02-23.39,21.23h12.43c1.1,0,2,0.9,2,2v3c0,9.92-8.07,17.99-17.99,17.99c-4.59,0-8.77-1.74-11.96-4.59
		c5.72,18.37,22.89,31.75,43.12,31.75c4.55,0,8.97-0.67,13.16-1.94c0.04-0.02,0.08-0.04,0.12-0.05c8.96-2.75,16.67-8.12,22.29-15.32
		c0.03-0.03,0.05-0.07,0.08-0.1c0.97-1.24,1.87-2.55,2.7-3.9c0.07-0.11,0.14-0.22,0.21-0.34c0.79-1.3,1.51-2.64,2.17-4.02
		c0.08-0.17,0.17-0.35,0.25-0.53c0.3-0.65,0.59-1.32,0.87-1.99c0.01-0.03,0.03-0.07,0.04-0.1c0.41-1.02,1.58-1.52,2.6-1.11
		c0.23,0.09,0.43,0.23,0.61,0.39C280.89,164.49,284.3,170.11,285.17,176.35z M195.11,119.54c2.48-6.35,7.39-10.43,12.2-9.58
		c5.61,0.99,9.05,8.32,8,16.65c3.03-3,5.6-6.37,7.65-10.05c0.07-0.12,0.13-0.24,0.2-0.36c0.29-0.53,0.57-1.07,0.84-1.61
		c0.04-0.08,0.08-0.15,0.11-0.23c0.32-0.65,0.62-1.31,0.91-1.98c0.04-0.1,0.08-0.21,0.11-0.33c1.47-5.3,2.12-10.52,1.86-15.09
		l-0.02-0.3c-0.03-0.4-0.06-0.79-0.09-1.18l-0.05-0.43c-0.04-0.33-0.08-0.65-0.13-0.98c-0.02-0.16-0.05-0.3-0.08-0.45
		c-0.05-0.32-0.11-0.59-0.16-0.87c-0.04-0.17-0.07-0.34-0.11-0.51c-0.06-0.25-0.12-0.5-0.19-0.73c-0.05-0.17-0.09-0.35-0.15-0.51
		c-0.07-0.22-0.14-0.43-0.21-0.64c-0.07-0.2-0.12-0.35-0.18-0.5c-0.07-0.18-0.14-0.35-0.21-0.52l-0.08-0.18
		c-0.05-0.12-0.1-0.23-0.15-0.34c0,0,0-0.01,0-0.01c-0.02-0.03-0.03-0.06-0.05-0.1c-1.07-2.24-2.5-3.7-4.24-4.33
		c-5.65-2.05-13.98,4.65-19.8,15.95c-0.01,0.02-0.02,0.03-0.03,0.05l-0.12,0.24c-0.18,0.36-0.37,0.73-0.54,1.1l-0.42,0.9
		c-0.02,0.04-0.03,0.08-0.05,0.12c-0.68,1.5-1.3,2.99-1.83,4.46C196.6,111.38,195.6,115.59,195.11,119.54z M281.35,178.36
		c-0.07-0.01-0.14-0.01-0.21-0.02c-0.23-0.02-0.47-0.03-0.7-0.03c-0.12,0-0.24-0.01-0.36-0.01c-0.44,0-0.88,0.03-1.31,0.08
		c-0.1,0.01-0.21,0.03-0.31,0.04c-0.44,0.06-0.88,0.14-1.3,0.25c-0.05,0.01-0.09,0.03-0.14,0.04c-0.4,0.11-0.79,0.24-1.18,0.38
		c-0.09,0.03-0.18,0.07-0.27,0.1c-0.4,0.16-0.79,0.34-1.18,0.55c-0.09,0.05-0.17,0.1-0.26,0.15c-0.39,0.22-0.77,0.45-1.14,0.71
		c-0.02,0.02-0.04,0.03-0.06,0.05c-0.35,0.26-0.69,0.54-1.02,0.83c-0.07,0.06-0.14,0.12-0.2,0.18c-0.32,0.31-0.63,0.63-0.92,0.97
		c-0.06,0.07-0.11,0.14-0.17,0.21c-0.3,0.36-0.58,0.74-0.84,1.14c-0.16,0.26-0.32,0.52-0.46,0.79c-0.05,0.09-0.09,0.18-0.13,0.26
		c-0.09,0.18-0.18,0.37-0.27,0.55c-0.05,0.11-0.09,0.21-0.13,0.32c-0.07,0.17-0.14,0.34-0.2,0.52c-0.04,0.11-0.08,0.23-0.11,0.35
		c-0.05,0.17-0.11,0.34-0.15,0.51c-0.03,0.12-0.06,0.24-0.09,0.36c-0.04,0.17-0.08,0.34-0.11,0.51c-0.02,0.12-0.05,0.25-0.07,0.37
		c-0.03,0.17-0.05,0.34-0.07,0.51c-0.02,0.12-0.03,0.25-0.04,0.37c-0.02,0.18-0.03,0.35-0.04,0.53c-0.01,0.12-0.01,0.24-0.02,0.36
		c0,0.18,0,0.37,0,0.55c0,0.11,0,0.22,0.01,0.34c0.01,0.21,0.03,0.42,0.05,0.62c0.01,0.09,0.01,0.17,0.02,0.26
		c0.04,0.29,0.08,0.58,0.14,0.87c0.01,0.07,0.03,0.13,0.05,0.2c0.05,0.22,0.1,0.44,0.16,0.66c0.03,0.11,0.07,0.22,0.1,0.33
		c0.05,0.17,0.1,0.35,0.16,0.52c0.04,0.12,0.09,0.24,0.14,0.36c0.06,0.16,0.12,0.32,0.19,0.47c0.05,0.12,0.11,0.24,0.17,0.36
		c0.07,0.15,0.14,0.3,0.22,0.45c0.06,0.12,0.13,0.24,0.2,0.36c0.04,0.07,0.09,0.15,0.13,0.22c3.64-1.46,6.75-4.03,8.86-7.36
		C280.58,186.19,281.58,182.28,281.35,178.36z"/>
</g>
</svg>
